
            <svg id="trend-chart" width="660" height="400" title="Stack Overflow Trends Chart" version="1.1" xmlns="http://www.w3.org/2000/svg"><g></g><g class="chart-area" transform="translate(100, 20)"><g transform="translate(0,300)" fill="none" font-size="10" font-family="sans-serif" text-anchor="middle"><path class="domain" stroke="#000" d="M0.5,6V0.5H410.5V6"></path><g class="tick" opacity="1" transform="translate(41.05084718464115,0)"><line stroke="#000" y2="6" x1="0.5" x2="0.5"></line><text fill="#000" y="9" x="0.5" dy="0.71em" style="font-size: 12px;">2010</text></g><g class="tick" opacity="1" transform="translate(98.89777412704548,0)"><line stroke="#000" y2="6" x1="0.5" x2="0.5"></line><text fill="#000" y="9" x="0.5" dy="0.71em" style="font-size: 12px;">2012</text></g><g class="tick" opacity="1" transform="translate(156.82394343512433,0)"><line stroke="#000" y2="6" x1="0.5" x2="0.5"></line><text fill="#000" y="9" x="0.5" dy="0.71em" style="font-size: 12px;">2014</text></g><g class="tick" opacity="1" transform="translate(214.6708703775287,0)"><line stroke="#000" y2="6" x1="0.5" x2="0.5"></line><text fill="#000" y="9" x="0.5" dy="0.71em" style="font-size: 12px;">2016</text></g><g class="tick" opacity="1" transform="translate(272.5970396856075,0)"><line stroke="#000" y2="6" x1="0.5" x2="0.5"></line><text fill="#000" y="9" x="0.5" dy="0.71em" style="font-size: 12px;">2018</text></g><g class="tick" opacity="1" transform="translate(330.4439666280119,0)"><line stroke="#000" y2="6" x1="0.5" x2="0.5"></line><text fill="#000" y="9" x="0.5" dy="0.71em" style="font-size: 12px;">2020</text></g><g class="tick" opacity="1" transform="translate(388.3701359360907,0)"><line stroke="#000" y2="6" x1="0.5" x2="0.5"></line><text fill="#000" y="9" x="0.5" dy="0.71em" style="font-size: 12px;">2022</text></g></g><g class="grid-lines" transform="translate(0,300)" fill="none" font-size="10" font-family="sans-serif" text-anchor="middle"><path class="domain" stroke="#000" d="M0.5,-300V0.5H410.5V-300"></path><g class="tick" opacity="1" transform="translate(41.05084718464115,0)"><line stroke="#000" y2="-300" x1="0.5" x2="0.5" style="stroke: #ccc; fill: none;"></line></g><g class="tick" opacity="1" transform="translate(98.89777412704548,0)"><line stroke="#000" y2="-300" x1="0.5" x2="0.5" style="stroke: #ccc; fill: none;"></line></g><g class="tick" opacity="1" transform="translate(156.82394343512433,0)"><line stroke="#000" y2="-300" x1="0.5" x2="0.5" style="stroke: #ccc; fill: none;"></line></g><g class="tick" opacity="1" transform="translate(214.6708703775287,0)"><line stroke="#000" y2="-300" x1="0.5" x2="0.5" style="stroke: #ccc; fill: none;"></line></g><g class="tick" opacity="1" transform="translate(272.5970396856075,0)"><line stroke="#000" y2="-300" x1="0.5" x2="0.5" style="stroke: #ccc; fill: none;"></line></g><g class="tick" opacity="1" transform="translate(330.4439666280119,0)"><line stroke="#000" y2="-300" x1="0.5" x2="0.5" style="stroke: #ccc; fill: none;"></line></g><g class="tick" opacity="1" transform="translate(388.3701359360907,0)"><line stroke="#000" y2="-300" x1="0.5" x2="0.5" style="stroke: #ccc; fill: none;"></line></g></g><text x="205" y="360" class="axis-label x-axis-label" style="text-anchor: middle; font-weight: bold;">Year</text><g fill="none" font-size="10" font-family="sans-serif" text-anchor="end"><path class="domain" stroke="#000" d="M-6,300.5H0.5V0.5H-6"></path><g class="tick" opacity="1" transform="translate(0,300)"><line stroke="#000" x2="-6" y1="0.5" y2="0.5"></line><text fill="#000" x="-9" y="0.5" dy="0.32em" style="font-size: 12px;">0.00%</text></g><g class="tick" opacity="1" transform="translate(0,262.5)"><line stroke="#000" x2="-6" y1="0.5" y2="0.5"></line><text fill="#000" x="-9" y="0.5" dy="0.32em" style="font-size: 12px;">0.50%</text></g><g class="tick" opacity="1" transform="translate(0,225)"><line stroke="#000" x2="-6" y1="0.5" y2="0.5"></line><text fill="#000" x="-9" y="0.5" dy="0.32em" style="font-size: 12px;">1.00%</text></g><g class="tick" opacity="1" transform="translate(0,187.5)"><line stroke="#000" x2="-6" y1="0.5" y2="0.5"></line><text fill="#000" x="-9" y="0.5" dy="0.32em" style="font-size: 12px;">1.50%</text></g><g class="tick" opacity="1" transform="translate(0,150)"><line stroke="#000" x2="-6" y1="0.5" y2="0.5"></line><text fill="#000" x="-9" y="0.5" dy="0.32em" style="font-size: 12px;">2.00%</text></g><g class="tick" opacity="1" transform="translate(0,112.5)"><line stroke="#000" x2="-6" y1="0.5" y2="0.5"></line><text fill="#000" x="-9" y="0.5" dy="0.32em" style="font-size: 12px;">2.50%</text></g><g class="tick" opacity="1" transform="translate(0,75)"><line stroke="#000" x2="-6" y1="0.5" y2="0.5"></line><text fill="#000" x="-9" y="0.5" dy="0.32em" style="font-size: 12px;">3.00%</text></g><g class="tick" opacity="1" transform="translate(0,37.49999999999994)"><line stroke="#000" x2="-6" y1="0.5" y2="0.5"></line><text fill="#000" x="-9" y="0.5" dy="0.32em" style="font-size: 12px;">3.50%</text></g><g class="tick" opacity="1" transform="translate(0,0)"><line stroke="#000" x2="-6" y1="0.5" y2="0.5"></line><text fill="#000" x="-9" y="0.5" dy="0.32em" style="font-size: 12px;">4.00%</text></g></g><g class="grid-lines" fill="none" font-size="10" font-family="sans-serif" text-anchor="end"><path class="domain" stroke="#000" d="M410,300.5H0.5V0.5H410"></path><g class="tick" opacity="1" transform="translate(0,300)"><line stroke="#000" x2="410" y1="0.5" y2="0.5" style="stroke: #ccc; fill: none;"></line></g><g class="tick" opacity="1" transform="translate(0,262.5)"><line stroke="#000" x2="410" y1="0.5" y2="0.5" style="stroke: #ccc; fill: none;"></line></g><g class="tick" opacity="1" transform="translate(0,225)"><line stroke="#000" x2="410" y1="0.5" y2="0.5" style="stroke: #ccc; fill: none;"></line></g><g class="tick" opacity="1" transform="translate(0,187.5)"><line stroke="#000" x2="410" y1="0.5" y2="0.5" style="stroke: #ccc; fill: none;"></line></g><g class="tick" opacity="1" transform="translate(0,150)"><line stroke="#000" x2="410" y1="0.5" y2="0.5" style="stroke: #ccc; fill: none;"></line></g><g class="tick" opacity="1" transform="translate(0,112.5)"><line stroke="#000" x2="410" y1="0.5" y2="0.5" style="stroke: #ccc; fill: none;"></line></g><g class="tick" opacity="1" transform="translate(0,75)"><line stroke="#000" x2="410" y1="0.5" y2="0.5" style="stroke: #ccc; fill: none;"></line></g><g class="tick" opacity="1" transform="translate(0,37.49999999999994)"><line stroke="#000" x2="410" y1="0.5" y2="0.5" style="stroke: #ccc; fill: none;"></line></g><g class="tick" opacity="1" transform="translate(0,0)"><line stroke="#000" x2="410" y1="0.5" y2="0.5" style="stroke: #ccc; fill: none;"></line></g></g><g class="lines"><path class="line" d="M2.4565133359103206,300L4.833784306146115,300L7.2935994072928745,300L9.670870377528669,300L12.12738371343899,300L14.58389704934931,300L16.80268328823605,300L19.255894858909933,300L21.633165829145728,300L24.08967916505605,300L26.466950135291842,300L28.92346347120216,300L31.379976807112484,300L33.75724777734828,300L36.21706287849504,300L38.594333848730834,300L41.05084718464115,299.831676279825L43.50736052055148,300L45.726146759438215,300L48.1793583301121,300L50.55662930034789,300L53.01314263625821,300L55.39041360649401,300L57.84692694240432,300L60.30344027831465,300L62.680711248550445,300L65.14052634969721,300L67.517797319933,300L69.97431065584333,300L72.43082399175364,300L74.64961023064038,299.92526307405L77.10282180131426,299.842344236175L79.48009277155006,300L81.93660610746038,299.8479611592L84.31387707769616,300L86.77039041360649,300L89.22690374951682,299.926250061525L91.6041747197526,299.628999386625L94.06398982089937,299.86192930785L96.44126079113516,299.927510317725L98.89777412704548,299.611700750775L101.3542874629558,299.75706534945L103.65231606751708,298.3122299568L106.10552763819096,298.482667392975L108.48279860842675,297.593517046875L110.93931194433706,297.122202781125L113.31658291457285,296.49572407545L115.77309625048318,295.3090350828L118.22960958639351,294.754088389875L120.6068805566293,294.815784175575L123.06669565777605,293.88420766515L125.44396662801185,293.1455957202L127.90047996392218,292.481515062525L130.35699329983248,290.8296684876L132.57577953871925,292.48057118685L135.02899110939313,291.635802288L137.4062620796289,289.75595605035L139.86277541553923,288.265598168325L142.24004638577503,287.609873364375L144.69655972168533,287.417817079875L147.15307305759566,289.025500910775L149.53034402783146,285.308881783575L151.9901591289782,284.8703293197L154.367430099214,284.87416397865L156.82394343512433,281.950611762525L159.28045677103466,283.706644692525L161.4992430099214,280.8569684994L163.9524545805953,280.968213031725L166.32972555083109,280.3084439676L168.78623888674142,278.614636680825L171.1635098569772,279.3096401751L173.62002319288752,277.87855325745L176.07653652879785,277.865803876575L178.45380749903364,278.8211915913L180.9136226001804,276.717060291525L183.2908935704162,279.86284087605L185.74740690632652,278.045454545475L188.20392024223685,275.971165398525L190.42270648112356,273.16387924410003L192.87591805179744,271.915178003175L195.25318902203324,272.75581073835L197.70970235794357,269.091639871425L200.08697332817937,266.73192344355L202.54348666408967,268.572744730275L205,265.8843722385L207.3772709702358,261.6199333179L209.83708607138257,262.201040742675L212.21435704161837,260.927005338225L214.6708703775287,261.858182546625L217.12738371343897,258.3545082516L219.42541231800027,258.15502139745L221.87862388867413,254.150653343625L224.25589485890993,248.90491524075L226.71240819482026,247.307368213725L229.08967916505603,237.168878421L231.54619250096636,242.99285432715L234.0027058368767,242.09993645115L236.37997680711248,241.83368550757498L238.83979190825926,235.10907320895L241.21706287849506,233.98462284930002L243.67357621440533,234.247349904075L246.13008955031566,232.52355839895L248.34887578920245,225.51012230917502L250.80208735987628,222.1403423508L253.17935833011208,222.03860326950002L255.6358716660224,215.8191002583L258.0131426362582,212.566403486175L260.46965597216854,208.912412497875L262.92616930807884,208.221600852L265.30344027831467,203.415328922025L267.76325537946144,204.07133042602499L270.1405263496972,202.68873592605001L272.5970396856075,196.834494312675L275.0535530215178,190.62510310605L277.2723392604046,183.23557933852499L279.72555083107846,184.380128300775L282.1028218013143,183.56775527677502L284.5593351372246,167.954805960375L286.93660610746036,158.34262615005002L289.39311944337067,161.072911136625L291.849632779281,167.39034302685L294.2269037495168,164.23218017775L296.68671885066357,153.112412415825L299.0639898208994,160.614889212675L301.5205031568097,157.33626498915L303.97701649272,147.0097598118L306.19580273160676,145.1603157219L308.64901430228065,140.56151940547497L311.0262852725164,140.0748963309L313.4827986084267,138.5881123839L315.86006957866255,124.45106365852499L318.31658291457285,111.9648956778L320.7730962504832,132.0688173318L323.150367220719,114.4480713348L325.61018232186575,121.43831691547499L327.9874532921015,110.46704156144997L330.4439666280119,106.40960269012501L332.9004799639222,103.62827112082499L335.1985085684835,109.311748752375L337.6517201391573,101.29872281219997L340.0289911093931,97.44762626542499L342.48550444530343,85.77852759299998L344.8627754155392,88.908493550775L347.31928875144956,93.90583414455003L349.77580208735986,91.06026881265001L352.1530730575957,80.25069439499998L354.61288815874246,81.52237288642499L356.99015912897823,92.491904510925L359.44667246488854,103.41454970362497L361.90318580079884,83.359660154025L364.1219720396856,73.53310057290003L366.5751836103595,78.98057102242501L368.9524545805953,79.621013641725L371.4089679165056,69.271342059L373.7862388867414,65.82674224095001L376.2427522226517,68.73227359680001L378.69926555856205,78.851971362375L381.0765365287978,70.43209302719998L383.5363516299446,77.47610773245L385.9136226001804,90.32989456980002L388.3701359360907,104.04591968355001L390.826649272001,86.11037760765004L393.0454355108878,71.22263031030002L395.49864708156167,83.02953843479997L397.87591805179744,73.43606027535L400.33243138770774,79.11912974264999L402.70970235794357,80.27659780245L405.16621569385387,73.282309587675L407.62272902976423,83.2832404149L410,90.62190895830003" data-legend="pandas" style="stroke: rgb(31, 119, 180); fill: none;"></path><path class="line" d="M2.4565133359103206,298.370509849425L4.833784306146115,298.957102134525L7.2935994072928745,298.204309656825L9.670870377528669,297.482165337825L12.12738371343899,296.6511449895L14.58389704934931,296.9792865363L16.80268328823605,298.516833934875L19.255894858909933,297.508069109625L21.633165829145728,297.94158008235L24.08967916505605,296.513997640275L26.466950135291842,298.595724762075L28.92346347120216,297.915057915075L31.379976807112484,298.16373374145L33.75724777734828,294.369369369375L36.21706287849504,292.320617501175L38.594333848730834,294.786375060225L41.05084718464115,296.46520187625L43.50736052055148,293.2485653202L45.726146759438215,294.354262772925L48.1793583301121,293.656483476675L50.55662930034789,295.635390196125L53.01314263625821,294.1681735986L55.39041360649401,295.525949493L57.84692694240432,294.185494589025L60.30344027831465,294.814814814825L62.680711248550445,294.081532804125L65.14052634969721,292.843201041L67.517797319933,293.0521379151L69.97431065584333,295.182558974325L72.43082399175364,294.354672267525L74.64961023064038,291.3305165817L77.10282180131426,292.03838392335L79.48009277155006,293.01668986095L81.93660610746038,293.614368684075L84.31387707769616,292.891633577475L86.77039041360649,291.2920532964L89.22690374951682,291.15000737505L91.6041747197526,289.686182947875L94.06398982089937,292.61321796765L96.44126079113516,292.17111431145L98.89777412704548,290.81025110025L101.3542874629558,290.889950603325L103.65231606751708,290.60474675955L106.10552763819096,290.896004357475L108.48279860842675,290.374068187425L110.93931194433706,289.755041900775L113.31658291457285,289.221696777525L115.77309625048318,288.16597486785L118.22960958639351,286.885220974575L120.6068805566293,287.56794845985L123.06669565777605,285.780782821425L125.44396662801185,288.353085410775L127.90047996392218,287.740559592375L130.35699329983248,286.04729130105L132.57577953871925,285.7435106895L135.02899110939313,283.0955162031L137.4062620796289,283.591398629325L139.86277541553923,285.928257966075L142.24004638577503,282.269301538725L144.69655972168533,285.0697336476L147.15307305759566,282.103825136625L149.53034402783146,281.544026976075L151.9901591289782,279.228757201575L154.367430099214,281.63942193795L156.82394343512433,280.5529821423L159.28045677103466,277.6869321405L161.4992430099214,279.51296059515L163.9524545805953,280.3467669267L166.32972555083109,278.2108651728L168.78623888674142,279.867141690825L171.1635098569772,279.565076716125L173.62002319288752,278.47767577335003L176.07653652879785,280.7686492698L178.45380749903364,277.339546558575L180.9136226001804,279.248797424925L183.2908935704162,279.62022450105L185.74740690632652,277.636363636425L188.20392024223685,275.253886753725L190.42270648112356,274.35659572215L192.87591805179744,276.450120931875L195.25318902203324,274.58564434545L197.70970235794357,275.924437299075L200.08697332817937,274.8847273383L202.54348666408967,276.689717945625L205,277.35538032765L207.3772709702358,275.683167888825L209.83708607138257,271.777907101575L212.21435704161837,274.418577486075L214.6708703775287,271.4145022368L217.12738371343897,269.829084976125L219.42541231800027,269.74113106432503L221.87862388867413,268.52421214455L224.25589485890993,272.456555871975L226.71240819482026,268.40083607835L229.08967916505603,266.25340032285L231.54619250096636,268.435780555125L234.0027058368767,266.327935603875L236.37997680711248,265.713397396425L238.83979190825926,263.88228042795L241.21706287849506,265.10282536485L243.67357621440533,265.817189070675L246.13008955031566,259.799429411325L248.34887578920245,259.130112492375L250.80208735987628,256.72579724565L253.17935833011208,260.958425999625L255.6358716660224,259.31114936805L258.0131426362582,257.293994766375L260.46965597216854,258.297763360125L262.92616930807884,257.63714604209997L265.30344027831467,251.1735556809L267.76325537946144,251.789234721375L270.1405263496972,251.865306207525L272.5970396856075,252.715809893325L275.0535530215178,250.014187392375L277.2723392604046,253.820000233725L279.72555083107846,254.8243323885L282.1028218013143,256.773116133825L284.5593351372246,254.2164729L286.93660610746036,250.246470841725L289.39311944337067,253.46710076055L291.849632779281,252.9364694982L294.2269037495168,252.73934977935L296.68671885066357,248.566496293575L299.0639898208994,247.7305834548L301.5205031568097,253.4294264949L303.97701649272,244.400221499325L306.19580273160676,242.926470032925L308.64901430228065,244.06275805125L311.0262852725164,249.153564274875L313.4827986084267,249.964553561475L315.86006957866255,246.2132952282L318.31658291457285,243.0515918199L320.7730962504832,247.4867744469L323.150367220719,240.43827873097501L325.61018232186575,240.394165961775L327.9874532921015,241.114307296725L330.4439666280119,246.822071854875L332.9004799639222,237.886143751725L335.1985085684835,241.0652909841L337.6517201391573,237.4244206272L340.0289911093931,234.63433118609998L342.48550444530343,234.92675586075L344.8627754155392,234.336213190575L347.31928875144956,240.1678567296L349.77580208735986,237.02379933225L352.1530730575957,230.720746385625L354.61288815874246,229.52877154695L356.99015912897823,232.2238120341L359.44667246488854,237.464837495175L361.90318580079884,233.92095819405L364.1219720396856,231.25656757402498L366.5751836103595,232.13926075109998L368.9524545805953,233.20308971002498L371.4089679165056,235.710099628875L373.7862388867414,231.301057281675L376.2427522226517,240.5753248467L378.69926555856205,237.670162347525L381.0765365287978,228.06196178520003L383.5363516299446,235.76238053872498L385.9136226001804,238.158938895825L388.3701359360907,243.1915899906L390.826649272001,243.00677757239998L393.0454355108878,237.958679406225L395.49864708156167,238.3347109236L397.87591805179744,242.05661794935L400.33243138770774,237.0964889007L402.70970235794357,240.912371019L405.16621569385387,246.032576699175L407.62272902976423,247.3245709659L410,242.2602043287" data-legend="numpy" style="stroke: rgb(255, 127, 14); fill: none;"></path><path class="line" d="M2.4565133359103206,298.91367323295L4.833784306146115,300L7.2935994072928745,300L9.670870377528669,298.74108266895L12.12738371343899,299.5215921414L14.58389704934931,298.7054085156L16.80268328823605,298.887625451175L19.255894858909933,297.508069109625L21.633165829145728,297.94158008235L24.08967916505605,299.463691944675L26.466950135291842,298.595724762075L28.92346347120216,296.98841698845L31.379976807112484,297.475133894475L33.75724777734828,297.914581247925L36.21706287849504,297.637113077325L38.594333848730834,297.7942356024L41.05084718464115,297.3068204772L43.50736052055148,295.780353325125L45.726146759438215,295.222837730925L48.1793583301121,296.6772056307L50.55662930034789,297.23574712425L53.01314263625821,296.2025316456L55.39041360649401,296.520182939025L57.84692694240432,295.846781849325L60.30344027831465,296.41975308645L62.680711248550445,295.857072962925L65.14052634969721,295.879418781225L67.517797319933,297.5031120633L69.97431065584333,296.22161488185L72.43082399175364,294.809940633075L74.64961023064038,294.469467474525L77.10282180131426,295.427982847125L79.48009277155006,295.044102482025L81.93660610746038,295.210776513075L84.31387707769616,295.660155236775L86.77039041360649,294.80332212855L89.22690374951682,295.501253748975L91.6041747197526,293.841389817825L94.06398982089937,294.270066273975L96.44126079113516,293.185969863675L98.89777412704548,294.3049443438L101.3542874629558,292.772694145275L103.65231606751708,294.149063850225L106.10552763819096,293.580515893125L108.48279860842675,293.11633945965L110.93931194433706,292.805506952775L113.31658291457285,292.0357365351L115.77309625048318,291.257747199675L118.22960958639351,293.442610487325L120.6068805566293,291.14153412525L123.06669565777605,291.18306605062503L125.44396662801185,291.13942861395L127.90047996392218,290.1828699861L130.35699329983248,289.10406847185L132.57577953871925,290.090001332925L135.02899110939313,289.56676390665L137.4062620796289,289.12136925705L139.86277541553923,290.316733447875L142.24004638577503,288.635263154925L144.69655972168533,289.632990129225L147.15307305759566,287.56830601095L149.53034402783146,287.35499852685L151.9901591289782,286.451679080025L154.367430099214,288.792302225175L156.82394343512433,286.622687921325L159.28045677103466,285.592821292125L161.4992430099214,285.433860281325L163.9524545805953,286.483547214375L166.32972555083109,286.55837262135L168.78623888674142,287.28939360202503L171.1635098569772,283.992643427625L173.62002319288752,284.975850753975L176.07653652879785,287.93504883435L178.45380749903364,288.582617689125L180.9136226001804,284.764367608275L183.2908935704162,286.41348300075L185.74740690632652,286.818181818225L188.20392024223685,285.654427103625L190.42270648112356,285.051286808625L192.87591805179744,285.75868799595L195.25318902203324,284.0194531644L197.70970235794357,284.927652733125L200.08697332817937,280.062337394775L202.54348666408967,284.30718511695L205,284.535381687225L207.3772709702358,284.4777555024L209.83708607138257,278.896993598475L212.21435704161837,283.3545538437L214.6708703775287,280.51178473665L217.12738371343897,281.263540803L219.42541231800027,280.127384713875L221.87862388867413,279.8232129132L224.25589485890993,280.719589110375L226.71240819482026,279.686251764675L229.08967916505603,278.913721621275L231.54619250096636,280.137028133025L234.0027058368767,281.24426295105L236.37997680711248,280.5680463834L238.83979190825926,280.299425688L241.21706287849506,282.084872914575L243.67357621440533,281.023828017975L246.13008955031566,276.83063888655L248.34887578920245,275.2827334743L250.80208735987628,271.05163518L253.17935833011208,274.8786545673L255.6358716660224,273.242196348525L258.0131426362582,273.382450386975L260.46965597216854,277.206761140575L262.92616930807884,277.95450157875L265.30344027831467,274.852378267725L267.76325537946144,272.08614612585L270.1405263496972,272.963305110075L272.5970396856075,272.933225843025L275.0535530215178,274.21523923905L277.2723392604046,274.018273376325L279.72555083107846,273.42607787565L282.1028218013143,274.317081552375L284.5593351372246,269.93613885705L286.93660610746036,268.921864308L289.39311944337067,270.209350074525L291.849632779281,268.992819389775L294.2269037495168,269.692568996775L296.68671885066357,265.169414074425L299.0639898208994,265.38373073685L301.5205031568097,271.1415134673L303.97701649272,268.228697999625L306.19580273160676,266.246837116275L308.64901430228065,265.862923203975L311.0262852725164,264.779296992825L313.4827986084267,268.1541733518L315.86006957866255,267.546843238725L318.31658291457285,263.679447558L320.7730962504832,269.603455685175L323.150367220719,264.720751562475L325.61018232186575,264.23649957705L327.9874532921015,264.577022562375L330.4439666280119,263.7728594463L332.9004799639222,262.8048228354L335.1985085684835,256.648521292275L337.6517201391573,255.8533635927L340.0289911093931,252.21404211555L342.48550444530343,255.251122763325L344.8627754155392,254.733511803375L347.31928875144956,260.43522949275L349.77580208735986,254.8411951032L352.1530730575957,254.5972509081L354.61288815874246,252.57067679295L356.99015912897823,256.3408389186L359.44667246488854,257.750897996325L361.90318580079884,254.91212465115L364.1219720396856,257.594657808225L366.5751836103595,253.130553252L368.9524545805953,262.0561929714L371.4089679165056,264.543856221975L373.7862388867414,260.047423383675L376.2427522226517,258.6315216675L378.69926555856205,265.7154381366L381.0765365287978,266.597932917L383.5363516299446,263.455690703775L385.9136226001804,261.7957147716L388.3701359360907,260.9811677703L390.826649272001,262.646333949525L393.0454355108878,254.67760670910002L395.49864708156167,257.04093618135L397.87591805179744,260.92808641545L400.33243138770774,262.85486866545L402.70970235794357,262.337913539025L405.16621569385387,262.658904079725L407.62272902976423,263.676145388925L410,261.14365951679997" data-legend="matplotlib" style="stroke: rgb(44, 160, 44); fill: none;"></path><path class="line" d="M2.4565133359103206,300L4.833784306146115,300L7.2935994072928745,300L9.670870377528669,300L12.12738371343899,300L14.58389704934931,300L16.80268328823605,300L19.255894858909933,300L21.633165829145728,300L24.08967916505605,300L26.466950135291842,300L28.92346347120216,300L31.379976807112484,300L33.75724777734828,300L36.21706287849504,300L38.594333848730834,300L41.05084718464115,299.831676279825L43.50736052055148,300L45.726146759438215,300L48.1793583301121,300L50.55662930034789,300L53.01314263625821,300L55.39041360649401,300L57.84692694240432,300L60.30344027831465,300L62.680711248550445,299.88163065615L65.14052634969721,300L67.517797319933,300L69.97431065584333,299.8110807441L72.43082399175364,300L74.64961023064038,300L77.10282180131426,300L79.48009277155006,300L81.93660610746038,299.9239805796L84.31387707769616,300L86.77039041360649,300L89.22690374951682,300L91.6041747197526,299.925799877325L94.06398982089937,300L96.44126079113516,299.85502063545L98.89777412704548,300L101.3542874629558,300L103.65231606751708,300L106.10552763819096,300L108.48279860842675,299.9440352802L110.93931194433706,300L113.31658291457285,300L115.77309625048318,300L118.22960958639351,300L120.6068805566293,300L123.06669565777605,300L125.44396662801185,300L127.90047996392218,299.952111560925L130.35699329983248,299.95069714245L132.57577953871925,300L135.02899110939313,300L137.4062620796289,300L139.86277541553923,300L142.24004638577503,300L144.69655972168533,300L147.15307305759566,300L149.53034402783146,299.959077665175L151.9901591289782,300L154.367430099214,299.9088805059L156.82394343512433,299.960067725175L159.28045677103466,299.839474332L161.4992430099214,299.818377310275L163.9524545805953,299.6504365659L166.32972555083109,299.743153617L168.78623888674142,299.907221851125L171.1635098569772,299.744563458975L173.62002319288752,299.493050178825L176.07653652879785,299.455716488775L178.45380749903364,299.4770664591L180.9136226001804,299.547904083375L183.2908935704162,299.175104325075L185.74740690632652,299.31818181825L188.20392024223685,299.6861905929L190.42270648112356,299.08558403355L192.87591805179744,299.1646157763L195.25318902203324,299.227403588175L197.70970235794357,298.954983922875L200.08697332817937,298.0680559491L202.54348666408967,298.959362408325L205,299.277751342575L207.3772709702358,298.257293698725L209.83708607138257,298.1354773461L212.21435704161837,298.3354553844L214.6708703775287,298.62288842895L217.12738371343897,298.1544387087L219.42541231800027,298.087729472475L221.87862388867413,298.15526518065L224.25589485890993,298.044016286625L226.71240819482026,298.358484991125L229.08967916505603,298.46023119345L231.54619250096636,297.41823007185L234.0027058368767,298.45540989015L236.37997680711248,297.8408940426L238.83979190825926,298.358285474025L241.21706287849506,298.3671108126L243.67357621440533,298.029562277325L246.13008955031566,297.9251318406L248.34887578920245,297.67101743985L250.80208735987628,297.2450311665L253.17935833011208,297.72730962165L255.6358716660224,297.621528564375L258.0131426362582,296.92550455425L260.46965597216854,296.585282567925L262.92616930807884,297.0107798751L265.30344027831467,297.952583009475L267.76325537946144,297.71491725915L270.1405263496972,297.96834084645L272.5970396856075,297.213019764L275.0535530215178,297.2285094L277.2723392604046,297.020645176425L279.72555083107846,296.969640459525L282.1028218013143,296.6539859769L284.5593351372246,296.315703291375L286.93660610746036,295.8182325063L289.39311944337067,295.05887770965L291.849632779281,295.893785929425L294.2269037495168,295.690662154275L296.68671885066357,295.93812409035L299.0639898208994,294.767308134675L301.5205031568097,295.164803843775L303.97701649272,295.846888627425L306.19580273160676,294.4295479437L308.64901430228065,294.30222956235L311.0262852725164,294.121508913225L313.4827986084267,294.571098093375L315.86006957866255,293.9622033933L318.31658291457285,294.621231165075L320.7730962504832,295.887853237125L323.150367220719,294.825046773675L325.61018232186575,294.269653723425L327.9874532921015,294.10570811625L330.4439666280119,293.643454653225L332.9004799639222,293.1042649077L335.1985085684835,292.329749568L337.6517201391573,292.214289264075L340.0289911093931,290.9056460781L342.48550444530343,290.56526135115L344.8627754155392,291.2843757606L347.31928875144956,291.7807379979L349.77580208735986,291.4925948121L352.1530730575957,290.91945018165L354.61288815874246,290.46928493475L356.99015912897823,292.20573838395L359.44667246488854,289.45124853945L361.90318580079884,291.488513327025L364.1219720396856,290.84776787235L366.5751836103595,289.61541878925L368.9524545805953,291.530400216825L371.4089679165056,291.61945692525L373.7862388867414,292.02166534035L376.2427522226517,290.662720137225L378.69926555856205,292.31118281745L381.0765365287978,292.774505412825L383.5363516299446,292.01781059955L385.9136226001804,292.914635528925L388.3701359360907,292.47570728355L390.826649272001,293.563506733575L393.0454355108878,291.791610992925L395.49864708156167,292.550137034025L397.87591805179744,293.83354833225L400.33243138770774,293.532767312325L402.70970235794357,294.30884026815L405.16621569385387,294.112644730875L407.62272902976423,293.92655807145L410,293.515296982125" data-legend="seaborn" style="stroke: rgb(214, 39, 40); fill: none;"></path><path class="line" d="M2.4565133359103206,300L4.833784306146115,300L7.2935994072928745,300L9.670870377528669,300L12.12738371343899,300L14.58389704934931,300L16.80268328823605,300L19.255894858909933,300L21.633165829145728,300L24.08967916505605,300L26.466950135291842,300L28.92346347120216,300L31.379976807112484,300L33.75724777734828,300L36.21706287849504,300L38.594333848730834,300L41.05084718464115,299.831676279825L43.50736052055148,300L45.726146759438215,300L48.1793583301121,300L50.55662930034789,300L53.01314263625821,300L55.39041360649401,300L57.84692694240432,300L60.30344027831465,300L62.680711248550445,300L65.14052634969721,300L67.517797319933,300L69.97431065584333,299.90554037205L72.43082399175364,300L74.64961023064038,300L77.10282180131426,299.921172118125L79.48009277155006,300L81.93660610746038,300L84.31387707769616,299.92517509035L86.77039041360649,300L89.22690374951682,299.926250061525L91.6041747197526,300L94.06398982089937,299.723858615625L96.44126079113516,299.85502063545L98.89777412704548,299.9352834585L101.3542874629558,299.69633168685L103.65231606751708,299.7187049928L106.10552763819096,299.591487375075L108.48279860842675,299.664211680975L110.93931194433706,299.136660834375L113.31658291457285,299.522144192175L115.77309625048318,298.8805651902L118.22960958639351,298.745542875825L120.6068805566293,299.0436883431L123.06669565777605,298.92973634145L125.44396662801185,299.10837017505L127.90047996392218,298.132350875475L130.35699329983248,298.2250971267L132.57577953871925,298.4352633684L135.02899110939313,298.063027898325L137.4062620796289,297.86960147955L139.86277541553923,298.04426636145L142.24004638577503,297.863771269725L144.69655972168533,298.094951177625L147.15307305759566,298.22404371585L149.53034402783146,297.667426912725L151.9901591289782,296.880039662025L154.367430099214,295.89962276535L156.82394343512433,296.046704788725L159.28045677103466,297.070406558025L161.4992430099214,296.4038707428L163.9524545805953,295.688717646L166.32972555083109,296.446958368125L168.78623888674142,295.82498329995L171.1635098569772,295.6575788022L173.62002319288752,295.8061423884L176.07653652879785,297.006440688225L178.45380749903364,296.077998442875L180.9136226001804,296.11197511665L183.2908935704162,295.1476725003L185.74740690632652,295.0454545455L188.20392024223685,295.517008469925L190.42270648112356,295.149619656L192.87591805179744,294.072750031875L195.25318902203324,293.453261983425L197.70970235794357,294.0916398714L200.08697332817937,293.77914015615L202.54348666408967,293.50642142775L205,294.731833322025L207.3772709702358,294.082904186325L209.83708607138257,292.37240732475L212.21435704161837,292.378137812625L214.6708703775287,292.4050210323L217.12738371343897,292.256666755875L219.42541231800027,292.23843138825L221.87862388867413,291.852421214475L224.25589485890993,291.138196237125L226.71240819482026,291.012705326175L229.08967916505603,290.461987670475L231.54619250096636,290.630673647625L234.0027058368767,291.96813142845L236.37997680711248,290.586298025775L238.83979190825926,289.11284051182497L241.21706287849506,289.8294330609L243.67357621440533,290.0193045783L246.13008955031566,289.971470562825L248.34887578920245,289.444450009575L250.80208735987628,288.471515035125L253.17935833011208,290.05697959455L255.6358716660224,288.7022606805L258.0131426362582,285.93313042605L260.46965597216854,287.36554550115L262.92616930807884,288.276652322625L265.30344027831467,287.715498056475L267.76325537946144,287.588864328825L270.1405263496972,286.66398094065L272.5970396856075,288.804842102625L275.0535530215178,285.103238024925L277.2723392604046,284.6650854666L279.72555083107846,284.47523496945L282.1028218013143,287.02289155905L284.5593351372246,285.410185033575L286.93660610746036,285.1737334314L289.39311944337067,284.552996334975L291.849632779281,286.78641369585L294.2269037495168,285.08306130315L296.68671885066357,285.78343431615L299.0639898208994,283.611899103L301.5205031568097,285.1381339197L303.97701649272,283.387554509625L306.19580273160676,285.082518222L308.64901430228065,283.05532617675L311.0262852725164,282.3645267396L313.4827986084267,283.88119846275L315.86006957866255,283.496689274925L318.31658291457285,282.699217768125L320.7730962504832,284.38495621125L323.150367220719,282.683810357925L325.61018232186575,282.5531421399L327.9874532921015,277.2812244867L330.4439666280119,283.15257086947497L332.9004799639222,283.23082602555L335.1985085684835,282.814755361125L337.6517201391573,283.35183129862503L340.0289911093931,281.5676933904L342.48550444530343,280.64555950065L344.8627754155392,282.1124361159L347.31928875144956,283.76568126285L349.77580208735986,284.32283194935L352.1530730575957,283.01403033975L354.61288815874246,284.58266680627503L356.99015912897823,283.16891332185L359.44667246488854,285.285844116525L361.90318580079884,282.919516608975L364.1219720396856,284.49205111695L366.5751836103595,283.951101765225L368.9524545805953,284.020688409075L371.4089679165056,285.172885329225L373.7862388867414,284.1042339987L376.2427522226517,284.664599960475L378.69926555856205,285.567712009725L381.0765365287978,288.274416678675L383.5363516299446,283.221112076475L385.9136226001804,285.82927105777503L388.3701359360907,285.5963539428L390.826649272001,287.7871666227L393.0454355108878,285.29540128785L395.49864708156167,287.384173663425L397.87591805179744,283.20173511195003L400.33243138770774,281.92491377025L402.70970235794357,285.7721006703L405.16621569385387,286.099300058925L407.62272902976423,286.393154140875L410,287.18622683670003" data-legend="scikit-learn" style="stroke: rgb(148, 103, 189); fill: none;"></path><path class="line" d="M2.4565133359103206,300L4.833784306146115,300L7.2935994072928745,300L9.670870377528669,300L12.12738371343899,300L14.58389704934931,300L16.80268328823605,300L19.255894858909933,300L21.633165829145728,300L24.08967916505605,300L26.466950135291842,300L28.92346347120216,300L31.379976807112484,300L33.75724777734828,300L36.21706287849504,300L38.594333848730834,300L41.05084718464115,300L43.50736052055148,300L45.726146759438215,300L48.1793583301121,300L50.55662930034789,300L53.01314263625821,300L55.39041360649401,300L57.84692694240432,300L60.30344027831465,300L62.680711248550445,300L65.14052634969721,300L67.517797319933,300L69.97431065584333,300L72.43082399175364,300L74.64961023064038,300L77.10282180131426,300L79.48009277155006,300L81.93660610746038,300L84.31387707769616,300L86.77039041360649,300L89.22690374951682,300L91.6041747197526,299.925799877325L94.06398982089937,300L96.44126079113516,300L98.89777412704548,300L101.3542874629558,300L103.65231606751708,300L106.10552763819096,300L108.48279860842675,300L110.93931194433706,300L113.31658291457285,300L115.77309625048318,300L118.22960958639351,300L120.6068805566293,300L123.06669565777605,300L125.44396662801185,300L127.90047996392218,300L130.35699329983248,300L132.57577953871925,300L135.02899110939313,300L137.4062620796289,300L139.86277541553923,300L142.24004638577503,299.95727542545L144.69655972168533,300L147.15307305759566,300L149.53034402783146,300L151.9901591289782,300L154.367430099214,299.95444025295L156.82394343512433,300L159.28045677103466,300L161.4992430099214,300L163.9524545805953,300L166.32972555083109,300L168.78623888674142,300L171.1635098569772,300L173.62002319288752,300L176.07653652879785,300L178.45380749903364,300L180.9136226001804,300L183.2908935704162,300L185.74740690632652,300L188.20392024223685,300L190.42270648112356,300L192.87591805179744,300L195.25318902203324,300L197.70970235794357,300L200.08697332817937,300L202.54348666408967,300L205,300L207.3772709702358,300L209.83708607138257,291.567272542425L212.21435704161837,291.98390356155L214.6708703775287,292.94751952995L217.12738371343897,290.81231444085L219.42541231800027,290.96358436995L221.87862388867413,289.54650269025L224.25589485890993,286.70729435565L226.71240819482026,279.727289639925L229.08967916505603,279.426977890125L231.54619250096636,279.09599187164997L234.0027058368767,280.405771177125L236.37997680711248,275.774831157975L238.83979190825926,270.1899204489L241.21706287849506,269.021759414775L243.67357621440533,266.759572329375L246.13008955031566,258.632316071625L248.34887578920245,257.85292850775L250.80208735987628,255.92049866355L253.17935833011208,255.47961883739998L255.6358716660224,248.82039142845L258.0131426362582,245.459293118775L260.46965597216854,247.071879801975L262.92616930807884,253.2934355481L265.30344027831467,247.0787216997L267.76325537946144,247.398291415275L270.1405263496972,247.0205805336L272.5970396856075,246.244347311325L275.0535530215178,248.03455124955002L277.2723392604046,240.763415859525L279.72555083107846,235.15030583325L282.1028218013143,234.88837576642499L284.5593351372246,241.05125266095L286.93660610746036,238.413969637875L289.39311944337067,239.171426561175L291.849632779281,246.566573311725L294.2269037495168,249.04563162585L296.68671885066357,245.672409707925L299.0639898208994,246.06302231085L301.5205031568097,246.9146358843L303.97701649272,247.670796705225L306.19580273160676,239.76358623817498L308.64901430228065,237.621800165175L311.0262852725164,243.074099133825L313.4827986084267,243.0245140107L315.86006957866255,242.993137037925L318.31658291457285,242.497079568825L320.7730962504832,249.4317087267L323.150367220719,244.76732614155L325.61018232186575,241.98024394905L327.9874532921015,236.021181300075L330.4439666280119,245.064978019125L332.9004799639222,242.5355408973L335.1985085684835,242.5216676484L337.6517201391573,246.659598787425L340.0289911093931,240.23710279875002L342.48550444530343,240.966752098575L344.8627754155392,238.214894134875L347.31928875144956,237.206880356175L349.77580208735986,243.76551665099998L352.1530730575957,246.26451107475L354.61288815874246,242.14295325097498L356.99015912897823,238.94495067405L359.44667246488854,244.28095382355L361.90318580079884,242.71999509255L364.1219720396856,246.510287786925L366.5751836103595,245.18940291435L368.9524545805953,246.6979853646L371.4089679165056,250.24418831805L373.7862388867414,250.790119045725L376.2427522226517,251.953202295375L378.69926555856205,259.5391751538L381.0765365287978,258.294952294875L383.5363516299446,249.554735013075L385.9136226001804,251.706155764725L388.3701359360907,250.178433227325L390.826649272001,249.00316873514998L393.0454355108878,253.06614383655L395.49864708156167,248.721016226625L397.87591805179744,250.18995506287501L400.33243138770774,245.498363845425L402.70970235794357,252.35048616645L405.16621569385387,254.100433919925L407.62272902976423,262.332980346975L410,261.7143133824" data-legend="tensorflow" style="stroke: rgb(140, 86, 75); fill: none;"></path><path class="line" d="M2.4565133359103206,300L4.833784306146115,300L7.2935994072928745,300L9.670870377528669,300L12.12738371343899,300L14.58389704934931,300L16.80268328823605,300L19.255894858909933,300L21.633165829145728,300L24.08967916505605,300L26.466950135291842,300L28.92346347120216,300L31.379976807112484,300L33.75724777734828,300L36.21706287849504,300L38.594333848730834,300L41.05084718464115,300L43.50736052055148,300L45.726146759438215,300L48.1793583301121,300L50.55662930034789,300L53.01314263625821,300L55.39041360649401,300L57.84692694240432,300L60.30344027831465,300L62.680711248550445,300L65.14052634969721,300L67.517797319933,300L69.97431065584333,300L72.43082399175364,300L74.64961023064038,300L77.10282180131426,300L79.48009277155006,300L81.93660610746038,300L84.31387707769616,300L86.77039041360649,300L89.22690374951682,300L91.6041747197526,299.925799877325L94.06398982089937,300L96.44126079113516,300L98.89777412704548,300L101.3542874629558,300L103.65231606751708,300L106.10552763819096,300L108.48279860842675,300L110.93931194433706,300L113.31658291457285,300L115.77309625048318,300L118.22960958639351,300L120.6068805566293,300L123.06669565777605,300L125.44396662801185,300L127.90047996392218,300L130.35699329983248,300L132.57577953871925,300L135.02899110939313,300L137.4062620796289,300L139.86277541553923,300L142.24004638577503,300L144.69655972168533,300L147.15307305759566,300L149.53034402783146,300L151.9901591289782,300L154.367430099214,299.95444025295L156.82394343512433,300L159.28045677103466,300L161.4992430099214,300L163.9524545805953,300L166.32972555083109,300L168.78623888674142,300L171.1635098569772,300L173.62002319288752,300L176.07653652879785,300L178.45380749903364,300L180.9136226001804,300L183.2908935704162,300L185.74740690632652,300L188.20392024223685,300L190.42270648112356,300L192.87591805179744,300L195.25318902203324,299.83734812385L197.70970235794357,299.959807074L200.08697332817937,299.884083357L202.54348666408967,299.708621474325L205,299.872544354625L207.3772709702358,299.8784158395L209.83708607138257,299.5762448514L212.21435704161837,299.474354331975L214.6708703775287,298.915003004625L217.12738371343897,299.277823842525L219.42541231800027,298.61266648005L221.87862388867413,297.963105303675L224.25589485890993,297.485163797025L226.71240819482026,297.5787653619L229.08967916505603,297.476490011475L231.54619250096636,297.25166427L234.0027058368767,296.337114882225L236.37997680711248,294.774963583125L238.83979190825926,293.433141896025L241.21706287849506,294.02829097155L243.67357621440533,291.1330302477L246.13008955031566,289.582432782975L248.34887578920245,286.28905428285L250.80208735987628,286.43707651185L253.17935833011208,284.578172432325L255.6358716660224,285.177026231175L258.0131426362582,282.3111220926L260.46965597216854,284.719139491275L262.92616930807884,282.485038330575L265.30344027831467,283.976736595425L267.76325537946144,281.4505048092L270.1405263496972,281.715067617825L272.5970396856075,278.932318893525L275.0535530215178,278.3229842355L277.2723392604046,275.55176482965L279.72555083107846,272.91324779955L282.1028218013143,272.6892909465L284.5593351372246,273.6695595219L286.93660610746036,268.874344222875L289.39311944337067,267.95466320415L291.849632779281,271.730295436875L294.2269037495168,272.486535292425L296.68671885066357,269.68825102395L299.0639898208994,262.85363796675L301.5205031568097,265.3392780798L303.97701649272,266.6712812349L306.19580273160676,265.397107141575L308.64901430228065,257.043765483075L311.0262852725164,261.915416719725L313.4827986084267,262.9491436887L315.86006957866255,258.43983335685L318.31658291457285,259.686959350575L320.7730962504832,264.602196108675L323.150367220719,264.919788225L325.61018232186575,264.18533577105L327.9874532921015,259.884479509275L330.4439666280119,261.60233176695L332.9004799639222,262.96154408745L335.1985085684835,261.26038072927497L337.6517201391573,263.970381168525L340.0289911093931,259.400205705675L342.48550444530343,261.33520656495L344.8627754155392,258.4296665856L347.31928875144956,260.69048607667503L349.77580208735986,265.167793853325L352.1530730575957,265.4404956912L354.61288815874246,262.157454888L356.99015912897823,261.3110927028L359.44667246488854,267.00134158485L361.90318580079884,266.81670398430003L364.1219720396856,269.085793701975L366.5751836103595,265.847500296225L368.9524545805953,269.057728792125L371.4089679165056,269.994139480425L373.7862388867414,273.019830120375L376.2427522226517,273.472231383225L378.69926555856205,276.051225168975L381.0765365287978,274.584005881875L383.5363516299446,271.274978279775L385.9136226001804,272.225371273125L388.3701359360907,273.127526012625L390.826649272001,270.73321010475L393.0454355108878,275.173400119575L395.49864708156167,271.8319049898L397.87591805179744,272.19780842895L400.33243138770774,271.035641637975L402.70970235794357,272.548523646225L405.16621569385387,275.3603279475L407.62272902976423,279.034945650525L410,279.041439846225" data-legend="keras" style="stroke: rgb(227, 119, 194); fill: none;"></path><path class="line" d="M2.4565133359103206,300L4.833784306146115,300L7.2935994072928745,300L9.670870377528669,300L12.12738371343899,300L14.58389704934931,300L16.80268328823605,300L19.255894858909933,300L21.633165829145728,300L24.08967916505605,300L26.466950135291842,300L28.92346347120216,300L31.379976807112484,300L33.75724777734828,300L36.21706287849504,300L38.594333848730834,300L41.05084718464115,300L43.50736052055148,300L45.726146759438215,300L48.1793583301121,300L50.55662930034789,300L53.01314263625821,300L55.39041360649401,300L57.84692694240432,300L60.30344027831465,300L62.680711248550445,300L65.14052634969721,300L67.517797319933,300L69.97431065584333,300L72.43082399175364,300L74.64961023064038,300L77.10282180131426,300L79.48009277155006,300L81.93660610746038,300L84.31387707769616,300L86.77039041360649,300L89.22690374951682,300L91.6041747197526,300L94.06398982089937,300L96.44126079113516,300L98.89777412704548,300L101.3542874629558,300L103.65231606751708,300L106.10552763819096,300L108.48279860842675,300L110.93931194433706,300L113.31658291457285,300L115.77309625048318,300L118.22960958639351,300L120.6068805566293,300L123.06669565777605,300L125.44396662801185,300L127.90047996392218,300L130.35699329983248,300L132.57577953871925,300L135.02899110939313,300L137.4062620796289,300L139.86277541553923,300L142.24004638577503,300L144.69655972168533,300L147.15307305759566,300L149.53034402783146,300L151.9901591289782,300L154.367430099214,300L156.82394343512433,300L159.28045677103466,300L161.4992430099214,300L163.9524545805953,300L166.32972555083109,300L168.78623888674142,300L171.1635098569772,300L173.62002319288752,300L176.07653652879785,300L178.45380749903364,300L180.9136226001804,300L183.2908935704162,300L185.74740690632652,300L188.20392024223685,300L190.42270648112356,300L192.87591805179744,300L195.25318902203324,300L197.70970235794357,300L200.08697332817937,300L202.54348666408967,300L205,300L207.3772709702358,300L209.83708607138257,300L212.21435704161837,300L214.6708703775287,299.958269346375L217.12738371343897,300L219.42541231800027,300L221.87862388867413,300L224.25589485890993,300L226.71240819482026,300L229.08967916505603,299.957228644275L231.54619250096636,300L234.0027058368767,300L236.37997680711248,300L238.83979190825926,300L241.21706287849506,300L243.67357621440533,299.828657589375L246.13008955031566,299.870320740075L248.34887578920245,299.4365364774L250.80208735987628,299.0675490102L253.17935833011208,298.985406081075L255.6358716660224,297.621528564375L258.0131426362582,298.56804321705L260.46965597216854,298.5914290593L262.92616930807884,298.3185636798L265.30344027831467,298.041601139475L267.76325537946144,296.281139853075L270.1405263496972,297.13483965525L272.5970396856075,296.976834998175L275.0535530215178,296.783091267825L277.2723392604046,296.1443643459L279.72555083107846,295.38452931525L282.1028218013143,295.2522773997L284.5593351372246,293.908629441675L286.93660610746036,293.8699090149L289.39311944337067,293.955520305L291.849632779281,293.998610204475L294.2269037495168,293.74909235565L296.68671885066357,292.079341976175L299.0639898208994,289.247105727225L301.5205031568097,290.02422687765L303.97701649272,289.876791029325L306.19580273160676,289.42558253715L308.64901430228065,288.554913294825L311.0262852725164,289.44886215195L313.4827986084267,288.80638782135L315.86006957866255,287.924406786525L318.31658291457285,287.301669451575L320.7730962504832,286.9411555503L323.150367220719,286.7143027746L325.61018232186575,285.162496248L327.9874532921015,283.576099314075L330.4439666280119,287.080192384575L332.9004799639222,284.4323556249L335.1985085684835,284.610953247075L337.6517201391573,283.807378203375L340.0289911093931,279.862502030025L342.48550444530343,278.61753156675L344.8627754155392,280.059016792425L347.31928875144956,280.243140404775L349.77580208735986,281.058984675975L352.1530730575957,281.571825368625L354.61288815874246,280.097624422575L356.99015912897823,276.221854055325L359.44667246488854,276.900939109425L361.90318580079884,280.1590344447L364.1219720396856,276.916036744575L366.5751836103595,275.898886387875L368.9524545805953,274.92998464185L371.4089679165056,275.62023832785L373.7862388867414,272.6544102123L376.2427522226517,274.77079348335L378.69926555856205,274.853786427375L381.0765365287978,276.54883335735L383.5363516299446,275.781928757625L385.9136226001804,273.81249291465L388.3701359360907,273.879955284225L390.826649272001,274.749141800925L393.0454355108878,268.47575755545L395.49864708156167,273.843911776275L397.87591805179744,273.10151255265L400.33243138770774,271.367294596275L402.70970235794357,274.724555308425L405.16621569385387,271.489936983525L407.62272902976423,275.647833805725L410,271.467306721275" data-legend="pytorch" style="stroke: rgb(127, 127, 127); fill: none;"></path></g></g><g transform="translate(20, 150)"><text transform="rotate(-90)" x="-50" y="0" dy="1em" class="axis-label y-axis-label" style="text-anchor: middle; font-weight: bold;">% of Stack Overflow questions that month</text></g><g class="legend" transform="translate(530, 30)" style="font-size: 12px;"><text class="legend-title" style="font-weight: bold;">Tag</text><g class="legend-items" transform="translate(0,20)"><text y="0em" x="1em">pandas</text><text y="1em" x="1em">numpy</text><text y="2em" x="1em">tensorflow</text><text y="3em" x="1em">matplotlib</text><text y="4em" x="1em">keras</text><text y="5em" x="1em">pytorch</text><text y="6em" x="1em">scikit-learn</text><text y="7em" x="1em">seaborn</text><circle cy="-0.25em" cx="0" r="0.4em" style="fill: rgb(31, 119, 180);"></circle><circle cy="0.75em" cx="0" r="0.4em" style="fill: rgb(255, 127, 14);"></circle><circle cy="1.75em" cx="0" r="0.4em" style="fill: rgb(140, 86, 75);"></circle><circle cy="2.75em" cx="0" r="0.4em" style="fill: rgb(44, 160, 44);"></circle><circle cy="3.75em" cx="0" r="0.4em" style="fill: rgb(227, 119, 194);"></circle><circle cy="4.75em" cx="0" r="0.4em" style="fill: rgb(127, 127, 127);"></circle><circle cy="5.75em" cx="0" r="0.4em" style="fill: rgb(148, 103, 189);"></circle><circle cy="6.75em" cx="0" r="0.4em" style="fill: rgb(214, 39, 40);"></circle></g><rect class="legend-box"></rect></g></svg>
        