<?xml version="1.0" encoding="UTF-8" standalone="no"?>
<svg
   xmlns:dc="http://purl.org/dc/elements/1.1/"
   xmlns:cc="http://creativecommons.org/ns#"
   xmlns:rdf="http://www.w3.org/1999/02/22-rdf-syntax-ns#"
   xmlns:svg="http://www.w3.org/2000/svg"
   xmlns="http://www.w3.org/2000/svg"
   xmlns:sodipodi="http://sodipodi.sourceforge.net/DTD/sodipodi-0.dtd"
   xmlns:inkscape="http://www.inkscape.org/namespaces/inkscape"
   id="trend-chart"
   width="21cm"
   height="10cm"
   title="Stack Overflow Trends Chart"
   version="1.1"
   sodipodi:docname="2022-09-07_StackOverflowTrends_ProgrammingLanguages_wide.svg"
   inkscape:version="0.92.5 (2060ec1f9f, 2020-04-08)"
   inkscape:export-filename="/home/bk/tmp/2022-09-07_StackOverflowTrends_ProgrammingLanguages_wide.png"
   inkscape:export-xdpi="96"
   inkscape:export-ydpi="96">
  <metadata
     id="metadata313">
    <rdf:RDF>
      <cc:Work
         rdf:about="">
        <dc:format>image/svg+xml</dc:format>
        <dc:type
           rdf:resource="http://purl.org/dc/dcmitype/StillImage" />
        <dc:title></dc:title>
        <cc:license
           rdf:resource="http://creativecommons.org/licenses/by-sa/4.0/" />
      </cc:Work>
      <cc:License
         rdf:about="http://creativecommons.org/licenses/by-sa/4.0/">
        <cc:permits
           rdf:resource="http://creativecommons.org/ns#Reproduction" />
        <cc:permits
           rdf:resource="http://creativecommons.org/ns#Distribution" />
        <cc:requires
           rdf:resource="http://creativecommons.org/ns#Notice" />
        <cc:requires
           rdf:resource="http://creativecommons.org/ns#Attribution" />
        <cc:permits
           rdf:resource="http://creativecommons.org/ns#DerivativeWorks" />
        <cc:requires
           rdf:resource="http://creativecommons.org/ns#ShareAlike" />
      </cc:License>
    </rdf:RDF>
  </metadata>
  <defs
     id="defs311" />
  <sodipodi:namedview
     pagecolor="#ffffff"
     bordercolor="#666666"
     borderopacity="1"
     objecttolerance="10"
     gridtolerance="10"
     guidetolerance="10"
     inkscape:pageopacity="0"
     inkscape:pageshadow="2"
     inkscape:window-width="3000"
     inkscape:window-height="1931"
     id="namedview309"
     showgrid="false"
     units="cm"
     inkscape:zoom="1.668772"
     inkscape:cx="511.08561"
     inkscape:cy="209.95906"
     inkscape:window-x="1920"
     inkscape:window-y="0"
     inkscape:window-maximized="1"
     inkscape:current-layer="g468" />
  <g
     id="g468"
     transform="translate(95.084433,13.143598)">
    <g
       id="g642">
      <g
         id="g2"
         transform="translate(0,-22.04722)" />
      <g
         class="chart-area"
         transform="translate(100,-2.0472201)"
         id="g274">
        <g
           transform="translate(0,300)"
           font-size="10"
           id="g90"
           style="font-size:10px;font-family:sans-serif;text-anchor:middle;fill:none">
          <path
             class="domain"
             d="M 0.5,6 V 0.5 h 410 V 6"
             id="path4"
             inkscape:connector-curvature="0"
             style="stroke:#000000" />
          <g
             class="tick"
             transform="translate(12.272068)"
             id="g10"
             style="opacity:1">
            <line
               y2="6"
               x1="0.5"
               x2="0.5"
               id="line6"
               y1="0"
               style="stroke:#000000" />
            <text
               y="9"
               x="0.5"
               dy="0.70999998em"
               style="font-size:12px;fill:#000000"
               id="text8">2009</text>
          </g>
          <g
             class="tick"
             transform="translate(41.540599)"
             id="g16"
             style="opacity:1">
            <line
               y2="6"
               x1="0.5"
               x2="0.5"
               id="line12"
               y1="0"
               style="stroke:#000000" />
            <text
               y="9"
               x="0.5"
               dy="0.70999998em"
               style="font-size:12px;fill:#000000"
               id="text14">2010</text>
          </g>
          <g
             class="tick"
             transform="translate(70.80913)"
             id="g22"
             style="opacity:1">
            <line
               y2="6"
               x1="0.5"
               x2="0.5"
               id="line18"
               y1="0"
               style="stroke:#000000" />
            <text
               y="9"
               x="0.5"
               dy="0.70999998em"
               style="font-size:12px;fill:#000000"
               id="text20">2011</text>
          </g>
          <g
             class="tick"
             transform="translate(100.07766)"
             id="g28"
             style="opacity:1">
            <line
               y2="6"
               x1="0.5"
               x2="0.5"
               id="line24"
               y1="0"
               style="stroke:#000000" />
            <text
               y="9"
               x="0.5"
               dy="0.70999998em"
               style="font-size:12px;fill:#000000"
               id="text26">2012</text>
          </g>
          <g
             class="tick"
             transform="translate(129.42638)"
             id="g34"
             style="opacity:1">
            <line
               y2="6"
               x1="0.5"
               x2="0.5"
               id="line30"
               y1="0"
               style="stroke:#000000" />
            <text
               y="9"
               x="0.5"
               dy="0.70999998em"
               style="font-size:12px;fill:#000000"
               id="text32">2013</text>
          </g>
          <g
             class="tick"
             transform="translate(158.69491)"
             id="g40"
             style="opacity:1">
            <line
               y2="6"
               x1="0.5"
               x2="0.5"
               id="line36"
               y1="0"
               style="stroke:#000000" />
            <text
               y="9"
               x="0.5"
               dy="0.70999998em"
               style="font-size:12px;fill:#000000"
               id="text38">2014</text>
          </g>
          <g
             class="tick"
             transform="translate(187.96344)"
             id="g46"
             style="opacity:1">
            <line
               y2="6"
               x1="0.5"
               x2="0.5"
               id="line42"
               y1="0"
               style="stroke:#000000" />
            <text
               y="9"
               x="0.5"
               dy="0.70999998em"
               style="font-size:12px;fill:#000000"
               id="text44">2015</text>
          </g>
          <g
             class="tick"
             transform="translate(217.23197)"
             id="g52"
             style="opacity:1">
            <line
               y2="6"
               x1="0.5"
               x2="0.5"
               id="line48"
               y1="0"
               style="stroke:#000000" />
            <text
               y="9"
               x="0.5"
               dy="0.70999998em"
               style="font-size:12px;fill:#000000"
               id="text50">2016</text>
          </g>
          <g
             class="tick"
             transform="translate(246.58069)"
             id="g58"
             style="opacity:1">
            <line
               y2="6"
               x1="0.5"
               x2="0.5"
               id="line54"
               y1="0"
               style="stroke:#000000" />
            <text
               y="9"
               x="0.5"
               dy="0.70999998em"
               style="font-size:12px;fill:#000000"
               id="text56">2017</text>
          </g>
          <g
             class="tick"
             transform="translate(275.84922)"
             id="g64"
             style="opacity:1">
            <line
               y2="6"
               x1="0.5"
               x2="0.5"
               id="line60"
               y1="0"
               style="stroke:#000000" />
            <text
               y="9"
               x="0.5"
               dy="0.70999998em"
               style="font-size:12px;fill:#000000"
               id="text62">2018</text>
          </g>
          <g
             class="tick"
             transform="translate(305.11776)"
             id="g70"
             style="opacity:1">
            <line
               y2="6"
               x1="0.5"
               x2="0.5"
               id="line66"
               y1="0"
               style="stroke:#000000" />
            <text
               y="9"
               x="0.5"
               dy="0.70999998em"
               style="font-size:12px;fill:#000000"
               id="text68">2019</text>
          </g>
          <g
             class="tick"
             transform="translate(334.38629)"
             id="g76"
             style="opacity:1">
            <line
               y2="6"
               x1="0.5"
               x2="0.5"
               id="line72"
               y1="0"
               style="stroke:#000000" />
            <text
               y="9"
               x="0.5"
               dy="0.70999998em"
               style="font-size:12px;fill:#000000"
               id="text74">2020</text>
          </g>
          <g
             class="tick"
             transform="translate(363.73501)"
             id="g82"
             style="opacity:1">
            <line
               y2="6"
               x1="0.5"
               x2="0.5"
               id="line78"
               y1="0"
               style="stroke:#000000" />
            <text
               y="9"
               x="0.5"
               dy="0.70999998em"
               style="font-size:12px;fill:#000000"
               id="text80">2021</text>
          </g>
          <g
             class="tick"
             transform="translate(393.00354)"
             id="g88"
             style="opacity:1">
            <line
               y2="6"
               x1="0.5"
               x2="0.5"
               id="line84"
               y1="0"
               style="stroke:#000000" />
            <text
               y="9"
               x="0.5"
               dy="0.70999998em"
               style="font-size:12px;fill:#000000"
               id="text86">2022</text>
          </g>
        </g>
        <g
           class="grid-lines"
           transform="translate(0,300)"
           font-size="10"
           id="g150"
           style="font-size:10px;font-family:sans-serif;text-anchor:middle;fill:none">
          <path
             class="domain"
             d="M 0.5,-300 V 0.5 h 410 V -300"
             id="path92"
             inkscape:connector-curvature="0"
             style="stroke:#000000" />
          <g
             class="tick"
             transform="translate(12.272068)"
             id="g96"
             style="opacity:1">
            <line
               y2="-300"
               x1="0.5"
               x2="0.5"
               style="fill:none;stroke:#cccccc"
               id="line94"
               y1="0" />
          </g>
          <g
             class="tick"
             transform="translate(41.540599)"
             id="g100"
             style="opacity:1">
            <line
               y2="-300"
               x1="0.5"
               x2="0.5"
               style="fill:none;stroke:#cccccc"
               id="line98"
               y1="0" />
          </g>
          <g
             class="tick"
             transform="translate(70.80913)"
             id="g104"
             style="opacity:1">
            <line
               y2="-300"
               x1="0.5"
               x2="0.5"
               style="fill:none;stroke:#cccccc"
               id="line102"
               y1="0" />
          </g>
          <g
             class="tick"
             transform="translate(100.07766)"
             id="g108"
             style="opacity:1">
            <line
               y2="-300"
               x1="0.5"
               x2="0.5"
               style="fill:none;stroke:#cccccc"
               id="line106"
               y1="0" />
          </g>
          <g
             class="tick"
             transform="translate(129.42638)"
             id="g112"
             style="opacity:1">
            <line
               y2="-300"
               x1="0.5"
               x2="0.5"
               style="fill:none;stroke:#cccccc"
               id="line110"
               y1="0" />
          </g>
          <g
             class="tick"
             transform="translate(158.69491)"
             id="g116"
             style="opacity:1">
            <line
               y2="-300"
               x1="0.5"
               x2="0.5"
               style="fill:none;stroke:#cccccc"
               id="line114"
               y1="0" />
          </g>
          <g
             class="tick"
             transform="translate(187.96344)"
             id="g120"
             style="opacity:1">
            <line
               y2="-300"
               x1="0.5"
               x2="0.5"
               style="fill:none;stroke:#cccccc"
               id="line118"
               y1="0" />
          </g>
          <g
             class="tick"
             transform="translate(217.23197)"
             id="g124"
             style="opacity:1">
            <line
               y2="-300"
               x1="0.5"
               x2="0.5"
               style="fill:none;stroke:#cccccc"
               id="line122"
               y1="0" />
          </g>
          <g
             class="tick"
             transform="translate(246.58069)"
             id="g128"
             style="opacity:1">
            <line
               y2="-300"
               x1="0.5"
               x2="0.5"
               style="fill:none;stroke:#cccccc"
               id="line126"
               y1="0" />
          </g>
          <g
             class="tick"
             transform="translate(275.84922)"
             id="g132"
             style="opacity:1">
            <line
               y2="-300"
               x1="0.5"
               x2="0.5"
               style="fill:none;stroke:#cccccc"
               id="line130"
               y1="0" />
          </g>
          <g
             class="tick"
             transform="translate(305.11776)"
             id="g136"
             style="opacity:1">
            <line
               y2="-300"
               x1="0.5"
               x2="0.5"
               style="fill:none;stroke:#cccccc"
               id="line134"
               y1="0" />
          </g>
          <g
             class="tick"
             transform="translate(334.38629)"
             id="g140"
             style="opacity:1">
            <line
               y2="-300"
               x1="0.5"
               x2="0.5"
               style="fill:none;stroke:#cccccc"
               id="line138"
               y1="0" />
          </g>
          <g
             class="tick"
             transform="translate(363.73501)"
             id="g144"
             style="opacity:1">
            <line
               y2="-300"
               x1="0.5"
               x2="0.5"
               style="fill:none;stroke:#cccccc"
               id="line142"
               y1="0" />
          </g>
          <g
             class="tick"
             transform="translate(393.00354)"
             id="g148"
             style="opacity:1">
            <line
               y2="-300"
               x1="0.5"
               x2="0.5"
               style="fill:none;stroke:#cccccc"
               id="line146"
               y1="0" />
          </g>
        </g>
        <text
           x="205"
           y="360"
           class="axis-label x-axis-label"
           style="font-weight:bold;text-anchor:middle"
           id="text152">Year</text>
        <g
           font-size="10"
           id="g216"
           style="font-size:10px;font-family:sans-serif;text-anchor:end;fill:none">
          <path
             class="domain"
             d="M -6,300.5 H 0.5 V 0.5 H -6"
             id="path154"
             inkscape:connector-curvature="0"
             style="stroke:#000000" />
          <g
             class="tick"
             transform="translate(0,300)"
             id="g160"
             style="opacity:1">
            <line
               x2="-6"
               y1="0.5"
               y2="0.5"
               id="line156"
               x1="0"
               style="stroke:#000000" />
            <text
               x="-9"
               y="0.5"
               dy="0.31999999em"
               style="font-size:12px;fill:#000000"
               id="text158">0.00%</text>
          </g>
          <g
             class="tick"
             transform="translate(0,266.66667)"
             id="g166"
             style="opacity:1">
            <line
               x2="-6"
               y1="0.5"
               y2="0.5"
               id="line162"
               x1="0"
               style="stroke:#000000" />
            <text
               x="-9"
               y="0.5"
               dy="0.31999999em"
               style="font-size:12px;fill:#000000"
               id="text164">2.00%</text>
          </g>
          <g
             class="tick"
             transform="translate(0,233.33333)"
             id="g172"
             style="opacity:1">
            <line
               x2="-6"
               y1="0.5"
               y2="0.5"
               id="line168"
               x1="0"
               style="stroke:#000000" />
            <text
               x="-9"
               y="0.5"
               dy="0.31999999em"
               style="font-size:12px;fill:#000000"
               id="text170">4.00%</text>
          </g>
          <g
             class="tick"
             transform="translate(0,200)"
             id="g178"
             style="opacity:1">
            <line
               x2="-6"
               y1="0.5"
               y2="0.5"
               id="line174"
               x1="0"
               style="stroke:#000000" />
            <text
               x="-9"
               y="0.5"
               dy="0.31999999em"
               style="font-size:12px;fill:#000000"
               id="text176">6.00%</text>
          </g>
          <g
             class="tick"
             transform="translate(0,166.66667)"
             id="g184"
             style="opacity:1">
            <line
               x2="-6"
               y1="0.5"
               y2="0.5"
               id="line180"
               x1="0"
               style="stroke:#000000" />
            <text
               x="-9"
               y="0.5"
               dy="0.31999999em"
               style="font-size:12px;fill:#000000"
               id="text182">8.00%</text>
          </g>
          <g
             class="tick"
             transform="translate(0,133.33333)"
             id="g190"
             style="opacity:1">
            <line
               x2="-6"
               y1="0.5"
               y2="0.5"
               id="line186"
               x1="0"
               style="stroke:#000000" />
            <text
               x="-9"
               y="0.5"
               dy="0.31999999em"
               style="font-size:12px;fill:#000000"
               id="text188">10.00%</text>
          </g>
          <g
             class="tick"
             transform="translate(0,100)"
             id="g196"
             style="opacity:1">
            <line
               x2="-6"
               y1="0.5"
               y2="0.5"
               id="line192"
               x1="0"
               style="stroke:#000000" />
            <text
               x="-9"
               y="0.5"
               dy="0.31999999em"
               style="font-size:12px;fill:#000000"
               id="text194">12.00%</text>
          </g>
          <g
             class="tick"
             transform="translate(0,66.666667)"
             id="g202"
             style="opacity:1">
            <line
               x2="-6"
               y1="0.5"
               y2="0.5"
               id="line198"
               x1="0"
               style="stroke:#000000" />
            <text
               x="-9"
               y="0.5"
               dy="0.31999999em"
               style="font-size:12px;fill:#000000"
               id="text200">14.00%</text>
          </g>
          <g
             class="tick"
             transform="translate(0,33.333333)"
             id="g208"
             style="opacity:1">
            <line
               x2="-6"
               y1="0.5"
               y2="0.5"
               id="line204"
               x1="0"
               style="stroke:#000000" />
            <text
               x="-9"
               y="0.5"
               dy="0.31999999em"
               style="font-size:12px;fill:#000000"
               id="text206">16.00%</text>
          </g>
          <g
             class="tick"
             id="g214"
             style="opacity:1">
            <line
               x2="-6"
               y1="0.5"
               y2="0.5"
               id="line210"
               x1="0"
               style="stroke:#000000" />
            <text
               x="-9"
               y="0.5"
               dy="0.31999999em"
               style="font-size:12px;fill:#000000"
               id="text212">18.00%</text>
          </g>
        </g>
        <g
           class="grid-lines"
           font-size="10"
           id="g260"
           style="font-size:10px;font-family:sans-serif;text-anchor:end;fill:none">
          <path
             class="domain"
             d="M 410,300.5 H 0.5 V 0.5 H 410"
             id="path218"
             inkscape:connector-curvature="0"
             style="stroke:#000000" />
          <g
             class="tick"
             transform="translate(0,300)"
             id="g222"
             style="opacity:1">
            <line
               x2="410"
               y1="0.5"
               y2="0.5"
               style="fill:none;stroke:#cccccc"
               id="line220"
               x1="0" />
          </g>
          <g
             class="tick"
             transform="translate(0,266.66667)"
             id="g226"
             style="opacity:1">
            <line
               x2="410"
               y1="0.5"
               y2="0.5"
               style="fill:none;stroke:#cccccc"
               id="line224"
               x1="0" />
          </g>
          <g
             class="tick"
             transform="translate(0,233.33333)"
             id="g230"
             style="opacity:1">
            <line
               x2="410"
               y1="0.5"
               y2="0.5"
               style="fill:none;stroke:#cccccc"
               id="line228"
               x1="0" />
          </g>
          <g
             class="tick"
             transform="translate(0,200)"
             id="g234"
             style="opacity:1">
            <line
               x2="410"
               y1="0.5"
               y2="0.5"
               style="fill:none;stroke:#cccccc"
               id="line232"
               x1="0" />
          </g>
          <g
             class="tick"
             transform="translate(0,166.66667)"
             id="g238"
             style="opacity:1">
            <line
               x2="410"
               y1="0.5"
               y2="0.5"
               style="fill:none;stroke:#cccccc"
               id="line236"
               x1="0" />
          </g>
          <g
             class="tick"
             transform="translate(0,133.33333)"
             id="g242"
             style="opacity:1">
            <line
               x2="410"
               y1="0.5"
               y2="0.5"
               style="fill:none;stroke:#cccccc"
               id="line240"
               x1="0" />
          </g>
          <g
             class="tick"
             transform="translate(0,100)"
             id="g246"
             style="opacity:1">
            <line
               x2="410"
               y1="0.5"
               y2="0.5"
               style="fill:none;stroke:#cccccc"
               id="line244"
               x1="0" />
          </g>
          <g
             class="tick"
             transform="translate(0,66.666667)"
             id="g250"
             style="opacity:1">
            <line
               x2="410"
               y1="0.5"
               y2="0.5"
               style="fill:none;stroke:#cccccc"
               id="line248"
               x1="0" />
          </g>
          <g
             class="tick"
             transform="translate(0,33.333333)"
             id="g254"
             style="opacity:1">
            <line
               x2="410"
               y1="0.5"
               y2="0.5"
               style="fill:none;stroke:#cccccc"
               id="line252"
               x1="0" />
          </g>
          <g
             class="tick"
             id="g258"
             style="opacity:1">
            <line
               x2="410"
               y1="0.5"
               y2="0.5"
               style="fill:none;stroke:#cccccc"
               id="line256"
               x1="0" />
          </g>
        </g>
        <g
           class="lines"
           id="g272">
          <path
             class="line"
             d="m 2.4858205,235.22941 2.4056327,5.94161 2.4891616,-1.15559 2.4056327,-1.41747 2.4858205,-5.66426 2.48582,6.76181 2.245258,-2.64145 2.482479,2.21047 2.405633,-4.41005 2.48582,3.06184 2.405633,1.71868 2.48582,1.99203 2.485821,-0.99056 2.405632,-6.42655 2.489162,-2.19784 2.405633,-2.81367 2.48582,-1.976 2.485821,2.98311 2.245257,3.12524 2.482479,5.88805 2.405633,-4.08965 2.48582,-1.6452 2.405633,-5.04031 2.48582,5.88932 2.485821,4.00873 2.405633,-8.60793 2.489161,7.48587 2.405633,2.93609 2.48582,-0.98237 2.485821,-0.0715 2.245257,-1.32041 2.482479,3.72243 2.405633,-0.097 2.48582,0.0303 2.405633,-2.31772 2.485821,1.18508 2.48582,2.05581 2.405633,-2.09138 2.489161,0.268 2.405633,1.10527 2.485819,-2.21015 2.48582,-0.059 2.32545,-2.31994 2.48248,-0.83058 2.40563,0.35014 2.48582,-4.06406 2.40563,-0.0517 2.48582,-1.86737 2.48582,2.91095 2.40564,-2.01638 2.48916,-3.83867 2.40563,1.15323 2.48582,1.37596 2.48582,-3.82445 2.24526,0.12744 2.48248,-3.97978 2.40563,-1.02024 2.48582,-1.86737 2.40563,-1.24543 2.48582,3.57593 2.48582,-2.44569 2.40564,-5.64323 2.48916,-3.84579 2.40563,4.5189 2.48582,-1.70213 2.48582,-0.89613 2.24526,-3.90404 2.48248,-0.59853 2.40563,4.74247 2.48582,-3.86916 2.40563,-1.9054 2.48582,0.36361 2.48583,4.86308 2.40563,-4.38294 2.48916,-3.34408 2.40563,-1.30953 2.48582,-0.30007 2.48582,-3.85155 2.24526,-0.92443 2.48248,1.31716 2.40563,-0.1422 2.48582,-4.13323 2.40564,-0.29959 2.48582,1.95037 2.48582,0.30963 2.40563,-8.89325 2.48916,-3.36821 2.40563,2.30014 2.48582,-1.0186 2.48582,-3.62781 2.32545,0.96322 2.48248,0.50267 2.40563,0.40316 2.48582,-1.4656 2.40563,-4.17387 2.48583,2.39524 2.48582,-1.45936 2.40563,-8.62049 2.48916,-6.58285 2.40563,0.87383 2.48582,-0.55316 2.48582,-6.06208 2.24526,-1.04139 2.48248,-4.36724 2.40563,1.38581 2.48582,-5.27725 2.40564,-7.0647 2.48582,2.12244 2.48582,-4.21101 2.40563,-7.16939 2.48916,-1.40348 2.40563,-3.97591 2.48582,2.45444 2.48582,-8.81901 2.24526,4.95099 2.48248,-1.56462 2.40563,-0.62975 2.48582,-6.91943 2.40564,-5.94732 2.48582,0.47596 2.48582,1.84868 2.40563,-3.76518 2.48916,-12.27515 2.40563,2.230454 2.48583,9.347896 2.48582,-10.416509 2.24525,-6.766195 2.48248,-9.416621 2.40564,7.252329 2.48582,-3.320398 2.40563,-6.559177 2.48582,-1.472372 2.48582,13.90943 2.40563,-17.691501 2.48916,-8.173013 2.40564,3.95269 2.48582,0.858862 2.48582,-3.261117 2.32544,-12.136067 2.48248,-9.529392 2.40563,-11.462871 2.48582,0.107791 2.40564,-0.779174 2.48582,4.907565 2.48582,2.783075 2.40563,-12.054806 2.48916,-5.964884 2.40564,-2.414106 2.48582,3.784964 2.48582,1.504434 2.24525,3.258068 2.48248,-9.901737 2.40564,-1.527584 2.48582,8.808035 2.40563,-6.320436 2.48582,6.065095 2.48582,14.2783 2.40563,-10.365231 2.48916,-4.062879 2.40564,-2.332284 2.48582,7.362205 2.48582,-6.451789 2.24525,1.310871 2.48248,-10.035526 2.40564,11.228147 2.48582,-0.586211 2.40563,-6.128528 L 410,32.006876"
             data-legend="python"
             style="fill:none;stroke:#1f77b4"
             id="path262"
             inkscape:connector-curvature="0" />
          <path
             class="line"
             d="M 2.4858205,299.27631 4.8914532,300 l 2.4891616,-0.133 2.4056327,-0.007 2.4858205,-0.71042 2.48582,-0.0126 2.245258,0.5333 2.482479,-0.61943 2.405633,0.81831 2.48582,-0.16723 2.405633,-2.35378 2.48582,0.23235 2.485821,-4.6186 2.405632,3.65577 2.489162,-0.73036 2.405633,0.54794 2.48582,0.0491 2.485821,-1.06 2.245257,0.10512 2.482479,-0.89962 2.405633,0.87716 2.48582,-0.8092 2.405633,-1.15795 2.48582,-1.00042 2.485821,0.98735 2.405633,0.84541 2.489161,-0.20234 2.405633,0.45096 2.48582,0.1317 2.485821,-1.26739 2.245257,-0.49259 2.482479,-1.3293 2.405633,1.22932 2.48582,-0.39257 2.405633,-0.0313 2.485821,-1.62761 2.48582,-0.86842 2.405633,-0.19175 2.489161,0.90909 2.405633,-0.58026 2.485819,-0.032 2.48582,-1.04824 2.32545,-0.14161 2.48248,0.20793 2.40563,0.0365 2.48582,-1.58963 2.40563,-0.74467 2.48582,0.3029 2.48582,-0.50481 2.40564,-0.76459 2.48916,-1.0588 2.40563,0.19441 2.48582,-1.00302 2.48582,-2.10553 2.24526,0.2943 2.48248,-0.10054 2.40563,0.0384 2.48582,-0.90638 2.40563,0.14385 2.48582,-0.21093 2.48582,1.57014 2.40564,-1.65886 2.48916,-1.79286 2.40563,1.47641 2.48582,-1.50923 2.48582,-2.52412 2.24526,0.68748 2.48248,-0.90245 2.40563,-1.00783 2.48582,-0.14127 2.40563,-0.20834 2.48582,-0.44183 2.48583,1.53187 2.40563,-3.08371 2.48916,-0.28388 2.40563,1.73055 2.48582,-1.71287 2.48582,-2.42993 2.24526,-1.89889 2.48248,2.06072 2.40563,-1.53605 2.48582,0.31677 2.40564,-3.53665 2.48582,1.85223 2.48582,0.88025 2.40563,-1.69156 2.48916,-0.19137 2.40563,2.39321 2.48582,-1.86688 2.48582,0.79603 2.32545,-1.68573 2.48248,-1.54901 2.40563,1.51197 2.48582,-1.50938 2.40563,-0.34811 2.48583,0.579 2.48582,2.64526 2.40563,-3.96863 2.48916,2.15899 2.40563,1.51133 2.48582,-0.55186 2.48582,-2.10911 2.24526,-3.10344 2.48248,-1.74333 2.40563,1.24365 2.48582,-3.04975 2.40564,-0.88161 2.48582,-0.48639 2.48582,-0.47019 2.40563,-1.10248 2.48916,0.0396 2.40563,1.86866 2.48582,-1.05689 2.48582,-5.44702 2.24526,-0.17023 2.48248,0.65144 2.40563,1.47544 2.48582,-1.42905 2.40564,2.46194 2.48582,2.77046 2.48582,-0.21189 2.40563,-1.89571 2.48916,-1.86948 2.40563,4.30822 2.48583,-1.19122 2.48582,-4.42823 2.24525,1.89429 2.48248,-3.48653 2.40564,2.73266 2.48582,-1.18029 2.40563,2.08301 2.48582,-1.69753 2.48582,0.0737 2.40563,0.13992 2.48916,-0.26033 2.40564,1.20246 2.48582,-0.10345 2.48582,-6.70719 2.32544,-0.89443 2.48248,-1.56227 2.40563,2.55686 2.48582,1.02018 2.40564,3.13538 2.48582,-0.90819 2.48582,-5.59848 2.40563,-3.55594 2.48916,0.29033 2.40564,5.36394 2.48582,2.32297 2.48582,-3.1829 2.24525,-3.15447 2.48248,-0.73211 2.40564,0.56593 2.48582,2.87702 2.40563,1.00597 2.48582,-0.73077 2.48582,4.06726 2.40563,-4.60719 2.48916,2.01112 2.40564,4.89946 2.48582,-1.36485 2.48582,-2.32691 2.24525,-3.85867 2.48248,-0.75296 2.40564,0.52105 2.48582,2.99984 2.40563,2.09418 2.48582,1.23256"
             data-legend="r"
             style="fill:none;stroke:#ff7f0e"
             id="path264"
             inkscape:connector-curvature="0" />
          <path
             class="line"
             d="M 2.4858205,299.75877 4.8914532,300 h 2.4891616 l 2.4056327,-0.4196 2.4858205,0.31331 2.48582,0.0104 2.245258,-0.0689 L 19.485625,300 h 2.405633 2.48582 l 2.405633,-0.15598 2.48582,0.1045 2.485821,-0.35652 2.405632,0.22268 2.489162,-0.0772 2.405633,0.0397 2.48582,-0.1138 2.485821,0.18657 2.245257,-0.20375 2.482479,0.18596 2.405633,0.006 2.48582,0.10136 2.405633,-0.0226 2.48582,0.004 2.485821,0.0242 2.405633,-0.0503 2.489161,-0.11163 2.405633,0.0238 2.48582,0.13 2.485821,0.0225 2.245257,-0.1588 2.482479,-0.0284 2.405633,0.0108 2.48582,0.048 2.405633,0.0193 2.485821,0.009 2.48582,-0.089 2.405633,-0.16619 2.489161,-0.20259 2.405633,0.24379 2.485819,-0.0626 2.48582,0.21462 2.32545,-0.0351 2.48248,-0.0737 2.40563,-0.21107 2.48582,0.26645 2.40563,0.0906 2.48582,-0.16648 2.48582,-0.25112 2.40564,0.23611 2.48916,-0.93265 2.40563,0.85829 2.48582,0.12308 2.48582,0.046 2.24526,-0.13434 2.48248,0.0635 2.40563,-0.20072 2.48582,0.17387 2.40563,-0.0301 2.48582,0.0845 2.48582,-0.008 2.40564,-0.0148 2.48916,-0.0709 2.40563,-0.0762 2.48582,0.0575 2.48582,0.007 2.24526,0.15099 2.48248,-0.14656 2.40563,-0.10738 2.48582,0.01 2.40563,-0.0442 2.48582,0.0979 2.48583,0.007 2.40563,-0.1379 2.48916,0.14936 2.40563,-0.11711 2.48582,0.11488 2.48582,0.0257 2.24526,9.3e-4 2.48248,-0.26535 2.40563,0.21118 2.48582,0.0766 2.40564,-0.0198 2.48582,0.15445 2.48582,-0.11825 2.40563,0.0526 2.48916,-0.005 2.40563,-0.10775 2.48582,0.14956 2.48582,-0.0521 2.32545,-0.15393 2.48248,0.0565 2.40563,0.001 2.48582,-0.0117 2.40563,9.1e-4 2.48583,0.0206 2.48582,-0.0636 2.40563,0.0677 2.48916,-0.0482 2.40563,-0.036 2.48582,-0.0838 2.48582,0.21572 2.24526,-0.0536 2.48248,-0.14663 2.40563,0.0416 2.48582,0.0704 2.40564,0.0318 2.48582,0.004 2.48582,-0.0696 2.40563,0.14117 2.48916,-0.0819 2.40563,0.0246 2.48582,0.0472 2.48582,0.0164 2.24526,-0.0498 2.48248,-0.10729 2.40563,0.10518 2.48582,0.0106 2.40564,0.1177 2.48582,-0.045 2.48582,-0.0992 2.40563,0.0715 2.48916,-0.19282 2.40563,0.1868 2.48583,-0.1089 2.48582,0.0374 2.24525,0.0366 2.48248,-0.10633 2.40564,0.0716 2.48582,0.0164 2.40563,0.0613 2.48582,-0.0208 2.48582,-0.0131 2.40563,-0.0953 2.48916,0.0555 2.40564,0.10542 2.48582,-0.16691 2.48582,0.12278 2.32544,0.0238 2.48248,-0.19328 2.40563,-0.15247 2.48582,0.0709 2.40564,0.0504 2.48582,0.0609 2.48582,0.22677 2.40563,-0.11823 2.48916,-0.0183 2.40564,-0.0154 2.48582,-0.0911 2.48582,0.0839 2.24525,-0.11058 2.48248,0.0629 2.40564,0.0177 2.48582,0.13937 2.40563,-0.0116 2.48582,-0.0185 2.48582,0.11358 2.40563,-0.24888 2.48916,0.0764 2.40564,0.0113 2.48582,0.15066 2.48582,0.0314 2.24525,-0.0616 2.48248,0.0279 2.40564,-0.0888 2.48582,0.13438 2.40563,-10e-4 L 410,299.8148"
             data-legend="octave"
             style="fill:none;stroke:#2ca02c"
             id="path266"
             inkscape:connector-curvature="0" />
          <path
             class="line"
             d="m 2.4858205,163.3425 2.4056327,3.59747 2.4891616,5.7757 2.4056327,11.61352 2.4858205,-6.34522 2.48582,6.68009 2.245258,-2.81127 2.482479,-2.84923 2.405633,2.3362 2.48582,-7.23497 2.405633,8.64881 2.48582,4.66996 2.485821,-2.73364 2.405632,-0.61019 2.489162,-4.78673 2.405633,1.02603 2.48582,-19.59125 2.485821,5.15881 2.245257,-8.71249 2.482479,12.50377 2.405633,-4.46183 2.48582,5.81875 2.405633,4.37655 2.48582,0.63588 2.485821,-5.34314 2.405633,-2.90032 2.489161,-2.49484 2.405633,-2.09928 2.48582,-0.33194 2.485821,-1.81042 2.245257,-1.72736 2.482479,2.37104 2.405633,-4.60671 2.48582,9.35161 2.405633,-2.04885 2.485821,0.10026 2.48582,-0.92214 2.405633,-4.72107 2.489161,-6.88508 2.405633,-0.34583 2.485819,2.41147 2.48582,-1.88092 2.32545,-7.20595 2.48248,-0.97194 2.40563,4.53973 2.48582,9.483 2.40563,-2.5093 2.48582,-0.59775 2.48582,-2.0516 2.40564,-3.68087 2.48916,-3.19544 2.40563,0.35553 2.48582,7.86988 2.48582,-4.08385 2.24526,-3.58198 2.48248,-5.04861 2.40563,4.90362 2.48582,6.24484 2.40563,3.44235 2.48582,-4.18415 2.48582,-16.22798 2.40564,-5.55966 2.48916,-8.08899 2.40563,1.54339 2.48582,11.07673 2.48582,-5.89076 2.24526,-5.67795 2.48248,-2.5297 2.40563,9.01565 2.48582,6.74794 2.40563,-0.34031 2.48582,2.99975 2.48583,-7.22632 2.40563,-5.00383 2.48916,-5.95781 2.40563,2.67574 2.48582,9.5631 2.48582,0.1279 2.24526,-7.71242 2.48248,-0.54053 2.40563,7.53581 2.48582,8.15953 2.40564,-1.12252 2.48582,2.44917 2.48582,-1.8789 2.40563,-7.02537 2.48916,-0.40482 2.40563,6.31598 2.48582,6.86868 2.48582,-4.85632 2.32545,-6.71662 2.48248,-0.53146 2.40563,15.22752 2.48582,5.98504 2.40563,3.0512 2.48583,1.63293 2.48582,-3.50526 2.40563,-3.13675 2.48916,-3.13625 2.40563,6.6867 2.48582,4.8823 2.48582,-1.21762 2.24526,-4.59585 2.48248,-5.53315 2.40563,2.67246 2.48582,9.29654 2.40564,5.69307 2.48582,1.88592 2.48582,-1.87453 2.40563,-6.21386 2.48916,-2.6145 2.40563,2.53244 2.48582,9.05955 2.48582,-2.69905 2.24526,0.2199 2.48248,-7.70693 2.40563,4.39433 2.48582,6.64085 2.40564,4.60503 2.48582,3.67067 2.48582,-4.96237 2.40563,-6.05664 2.48916,-0.57297 2.40563,-1.35047 2.48583,8.74969 2.48582,-2.13101 2.24525,0.49047 2.48248,3.38685 2.40564,-0.96558 2.48582,4.08335 2.40563,-1.26786 2.48582,9.06309 2.48582,-7.44008 2.40563,-4.50332 2.48916,6.56658 2.40564,2.46742 2.48582,0.49278 2.48582,-2.20776 2.32544,-2.66651 2.48248,3.05821 2.40563,7.73541 2.48582,2.34787 2.40564,0.16989 2.48582,0.27929 2.48582,-0.72071 2.40563,0.22193 2.48916,0.31176 2.40564,7.51848 2.48582,1.56143 2.48582,-0.3823 2.24525,-0.81878 2.48248,-0.0435 2.40564,-2.08261 2.48582,0.91071 2.40563,4.82187 2.48582,1.18894 2.48582,1.52143 2.40563,0.23478 2.48916,-5.36895 2.40564,2.49814 2.48582,2.95049 2.48582,2.99481 2.24525,-1.84039 2.48248,-4.07581 2.40564,1.77015 2.48582,6.02958 2.40563,4.41469 L 410,216.75872"
             data-legend="java"
             style="fill:none;stroke:#d62728"
             id="path268"
             inkscape:connector-curvature="0" />
          <path
             class="line"
             d="m 2.4858205,209.17644 2.4056327,-2.86275 2.4891616,-3.93825 2.4056327,9.36787 2.4858205,-2.19247 2.48582,9.72359 2.245258,-5.7839 2.482479,5.92426 2.405633,1.19524 2.48582,4.91339 2.405633,-1.69458 2.48582,4.10577 2.485821,-2.39401 2.405632,-3.65474 2.489162,1.59491 2.405633,2.86598 2.48582,-1.06907 2.485821,-10.63622 2.245257,7.04711 2.482479,-5.22495 2.405633,5.31643 2.48582,-6.88323 2.405633,11.03463 2.48582,4.63179 2.485821,-5.49673 2.405633,-2.17003 2.489161,-4.17849 2.405633,5.73495 2.48582,2.42076 2.485821,3.54866 2.245257,0.18578 2.482479,-3.51813 2.405633,8.16061 2.48582,0.40969 2.405633,0.33368 2.485821,2.32905 2.48582,-2.95872 2.405633,-7.14372 2.489161,3.0066 2.405633,-1.45622 2.485819,4.8295 2.48582,-3.4855 2.32545,3.45079 2.48248,-3.38679 2.40563,6.78637 2.48582,2.54967 2.40563,-2.77257 2.48582,1.1385 2.48582,-1.07294 2.40564,-3.89721 2.48916,-4.87277 2.40563,0.60274 2.48582,6.12038 2.48582,-2.16972 2.24526,-2.86445 2.48248,-0.30672 2.40563,0.88277 2.48582,3.20288 2.40563,3.13814 2.48582,0.90635 2.48582,-4.75635 2.40564,-6.16138 2.48916,-4.73912 2.40563,6.27678 2.48582,2.68541 2.48582,-0.14437 2.24526,-1.53062 2.48248,-0.14264 2.40563,5.58878 2.48582,6.05063 2.40563,-0.86688 2.48582,-0.99105 2.48583,-2.13996 2.40563,-3.87613 2.48916,0.37319 2.40563,0.29241 2.48582,3.64056 2.48582,-2.57541 2.24526,-0.83068 2.48248,2.14054 2.40563,1.58407 2.48582,3.3624 2.40564,0.6976 2.48582,3.21104 2.48582,-1.49959 2.40563,-7.67223 2.48916,-3.23022 2.40563,2.87759 2.48582,7.2894 2.48582,-1.89428 2.32545,-0.0547 2.48248,-0.36566 2.40563,4.43455 2.48582,2.28896 2.40563,0.15499 2.48583,5.56461 2.48582,-3.98835 2.40563,-6.88233 2.48916,-1.08849 2.40563,4.19269 2.48582,0.42021 2.48582,4.11047 2.24526,-2.28759 2.48248,-3.39032 2.40563,7.53194 2.48582,3.56905 2.40564,-2.78129 2.48582,1.59173 2.48582,-0.98672 2.40563,-5.19431 2.48916,1.46878 2.40563,-1.49696 2.48582,1.70952 2.48582,-0.33747 2.24526,-0.21225 2.48248,2.11411 2.40563,1.27387 2.48582,2.34612 2.40564,3.38987 2.48582,-0.26152 2.48582,-2.14301 2.40563,-1.60236 2.48916,-3.66007 2.40563,3.55154 2.48583,1.28157 2.48582,1.11767 2.24525,-3.33743 2.48248,-1.77529 2.40564,2.14183 2.48582,0.74985 2.40563,-2.38255 2.48582,7.10843 2.48582,-6.1214 2.40563,-6.82061 2.48916,-0.2875 2.40564,0.37635 2.48582,4.79443 2.48582,1.08292 2.32544,-2.57423 2.48248,-7.17714 2.40563,-0.61859 2.48582,2.74508 2.40564,2.76405 2.48582,-1.8839 2.48582,7.59485 2.40563,-4.76003 2.48916,-2.45307 2.40564,-1.99538 2.48582,6.5153 2.48582,-3.03141 2.24525,3.72672 2.48248,-0.067 2.40564,-4.02682 2.48582,2.86976 2.40563,2.23674 2.48582,2.86647 2.48582,-1.67911 2.40563,-1.40997 2.48916,-0.8447 2.40564,0.33362 2.48582,2.29107 2.48582,3.78605 2.24525,-0.46296 2.48248,-3.5536 2.40564,0.56648 2.48582,4.22435 2.40563,0.90869 L 410,259.21275"
             data-legend="c++"
             style="fill:none;stroke:#9467bd"
             id="path270"
             inkscape:connector-curvature="0" />
        </g>
      </g>
      <g
         transform="translate(20,127.95278)"
         id="g278">
        <text
           transform="rotate(-90)"
           x="-50"
           y="0"
           dy="1em"
           class="axis-label y-axis-label"
           style="font-weight:bold;text-anchor:middle"
           id="text276">% of Stack Overflow questions that month</text>
      </g>
      <g
         class="legend"
         transform="translate(530,7.9527799)"
         style="font-size:12px"
         id="g306">
        <text
           class="legend-title"
           style="font-weight:bold"
           id="text280">Tag</text>
        <g
           class="legend-items"
           transform="translate(0,20)"
           id="g302">
          <text
             y="0em"
             x="1em"
             id="text282">Python</text>
          <text
             y="1em"
             x="1em"
             id="text284">Java</text>
          <text
             y="2em"
             x="1em"
             id="text286">C++</text>
          <text
             y="3em"
             x="1em"
             id="text288">R</text>
          <text
             y="4em"
             x="1em"
             id="text290">GNU Octave</text>
          <circle
             cy="-0.25em"
             cx="0"
             r="0.40000001em"
             style="fill:#1f77b4"
             id="circle292" />
          <circle
             cy="0.75em"
             cx="0"
             r="0.40000001em"
             style="fill:#d62728"
             id="circle294" />
          <circle
             cy="1.75em"
             cx="0"
             r="0.40000001em"
             style="fill:#9467bd"
             id="circle296" />
          <circle
             cy="2.75em"
             cx="0"
             r="0.40000001em"
             style="fill:#ff7f0e"
             id="circle298" />
          <circle
             cy="3.75em"
             cx="0"
             r="0.40000001em"
             style="fill:#2ca02c"
             id="circle300" />
        </g>
        <rect
           class="legend-box"
           id="rect304"
           width="0"
           height="0"
           x="0"
           y="0" />
      </g>
    </g>
  </g>
</svg>
