<?xml version="1.0" encoding="UTF-8" standalone="no"?>
<svg
   xmlns:dc="http://purl.org/dc/elements/1.1/"
   xmlns:cc="http://creativecommons.org/ns#"
   xmlns:rdf="http://www.w3.org/1999/02/22-rdf-syntax-ns#"
   xmlns:svg="http://www.w3.org/2000/svg"
   xmlns="http://www.w3.org/2000/svg"
   xmlns:sodipodi="http://sodipodi.sourceforge.net/DTD/sodipodi-0.dtd"
   xmlns:inkscape="http://www.inkscape.org/namespaces/inkscape"
   id="trend-chart"
   width="21cm"
   height="10cm"
   title="Stack Overflow Trends Chart"
   version="1.1"
   sodipodi:docname="2022-09-07_StackOverflowTrends_IDEs_wide.svg"
   inkscape:version="0.92.5 (2060ec1f9f, 2020-04-08)"
   inkscape:export-filename="./2022-09-07_StackOverflowTrends_IDEs_wide.png"
   inkscape:export-xdpi="119.888"
   inkscape:export-ydpi="119.888">
  <metadata
     id="metadata301">
    <rdf:RDF>
      <cc:Work
         rdf:about="">
        <dc:format>image/svg+xml</dc:format>
        <dc:type
           rdf:resource="http://purl.org/dc/dcmitype/StillImage" />
        <dc:title />
        <cc:license
           rdf:resource="http://creativecommons.org/licenses/by-sa/4.0/" />
      </cc:Work>
      <cc:License
         rdf:about="http://creativecommons.org/licenses/by-sa/4.0/">
        <cc:permits
           rdf:resource="http://creativecommons.org/ns#Reproduction" />
        <cc:permits
           rdf:resource="http://creativecommons.org/ns#Distribution" />
        <cc:requires
           rdf:resource="http://creativecommons.org/ns#Notice" />
        <cc:requires
           rdf:resource="http://creativecommons.org/ns#Attribution" />
        <cc:permits
           rdf:resource="http://creativecommons.org/ns#DerivativeWorks" />
        <cc:requires
           rdf:resource="http://creativecommons.org/ns#ShareAlike" />
      </cc:License>
    </rdf:RDF>
  </metadata>
  <defs
     id="defs299" />
  <sodipodi:namedview
     pagecolor="#ffffff"
     bordercolor="#666666"
     borderopacity="1"
     objecttolerance="10"
     gridtolerance="10"
     guidetolerance="10"
     inkscape:pageopacity="0"
     inkscape:pageshadow="2"
     inkscape:window-width="3000"
     inkscape:window-height="1935"
     id="namedview297"
     showgrid="false"
     units="cm"
     inkscape:zoom="1.668772"
     inkscape:cx="379.07954"
     inkscape:cy="159.1091"
     inkscape:window-x="0"
     inkscape:window-y="0"
     inkscape:window-maximized="1"
     inkscape:current-layer="g451"
     inkscape:pagecheckerboard="false" />
  <g
     id="g2"
     transform="translate(0,-22.04722)" />
  <g
     id="g451"
     transform="translate(63.590497,-8.903622)">
    <g
       id="g300">
      <g
         class="chart-area"
         transform="translate(100,20)"
         id="g270">
        <g
           style="font-size:10px;font-family:sans-serif;text-anchor:middle;fill:none"
           transform="translate(0,300)"
           font-size="10"
           id="g90">
          <path
             style="stroke:#000000"
             inkscape:connector-curvature="0"
             class="domain"
             d="M 0.5,6 V 0.5 h 410 V 6"
             id="path4" />
          <g
             style="opacity:1"
             class="tick"
             transform="translate(12.272068)"
             id="g10">
            <line
               style="stroke:#000000"
               y1="0"
               y2="6"
               x1="0.5"
               x2="0.5"
               id="line6" />
            <text
               y="9"
               x="0.5"
               dy="0.70999998em"
               style="font-size:12px;fill:#000000"
               id="text8">2009</text>
          </g>
          <g
             style="opacity:1"
             class="tick"
             transform="translate(41.540599)"
             id="g16">
            <line
               style="stroke:#000000"
               y1="0"
               y2="6"
               x1="0.5"
               x2="0.5"
               id="line12" />
            <text
               y="9"
               x="0.5"
               dy="0.70999998em"
               style="font-size:12px;fill:#000000"
               id="text14">2010</text>
          </g>
          <g
             style="opacity:1"
             class="tick"
             transform="translate(70.80913)"
             id="g22">
            <line
               style="stroke:#000000"
               y1="0"
               y2="6"
               x1="0.5"
               x2="0.5"
               id="line18" />
            <text
               y="9"
               x="0.5"
               dy="0.70999998em"
               style="font-size:12px;fill:#000000"
               id="text20">2011</text>
          </g>
          <g
             style="opacity:1"
             class="tick"
             transform="translate(100.07766)"
             id="g28">
            <line
               style="stroke:#000000"
               y1="0"
               y2="6"
               x1="0.5"
               x2="0.5"
               id="line24" />
            <text
               y="9"
               x="0.5"
               dy="0.70999998em"
               style="font-size:12px;fill:#000000"
               id="text26">2012</text>
          </g>
          <g
             style="opacity:1"
             class="tick"
             transform="translate(129.42638)"
             id="g34">
            <line
               style="stroke:#000000"
               y1="0"
               y2="6"
               x1="0.5"
               x2="0.5"
               id="line30" />
            <text
               y="9"
               x="0.5"
               dy="0.70999998em"
               style="font-size:12px;fill:#000000"
               id="text32">2013</text>
          </g>
          <g
             style="opacity:1"
             class="tick"
             transform="translate(158.69491)"
             id="g40">
            <line
               style="stroke:#000000"
               y1="0"
               y2="6"
               x1="0.5"
               x2="0.5"
               id="line36" />
            <text
               y="9"
               x="0.5"
               dy="0.70999998em"
               style="font-size:12px;fill:#000000"
               id="text38">2014</text>
          </g>
          <g
             style="opacity:1"
             class="tick"
             transform="translate(187.96344)"
             id="g46">
            <line
               style="stroke:#000000"
               y1="0"
               y2="6"
               x1="0.5"
               x2="0.5"
               id="line42" />
            <text
               y="9"
               x="0.5"
               dy="0.70999998em"
               style="font-size:12px;fill:#000000"
               id="text44">2015</text>
          </g>
          <g
             style="opacity:1"
             class="tick"
             transform="translate(217.23197)"
             id="g52">
            <line
               style="stroke:#000000"
               y1="0"
               y2="6"
               x1="0.5"
               x2="0.5"
               id="line48" />
            <text
               y="9"
               x="0.5"
               dy="0.70999998em"
               style="font-size:12px;fill:#000000"
               id="text50">2016</text>
          </g>
          <g
             style="opacity:1"
             class="tick"
             transform="translate(246.58069)"
             id="g58">
            <line
               style="stroke:#000000"
               y1="0"
               y2="6"
               x1="0.5"
               x2="0.5"
               id="line54" />
            <text
               y="9"
               x="0.5"
               dy="0.70999998em"
               style="font-size:12px;fill:#000000"
               id="text56">2017</text>
          </g>
          <g
             style="opacity:1"
             class="tick"
             transform="translate(275.84922)"
             id="g64">
            <line
               style="stroke:#000000"
               y1="0"
               y2="6"
               x1="0.5"
               x2="0.5"
               id="line60" />
            <text
               y="9"
               x="0.5"
               dy="0.70999998em"
               style="font-size:12px;fill:#000000"
               id="text62">2018</text>
          </g>
          <g
             style="opacity:1"
             class="tick"
             transform="translate(305.11776)"
             id="g70">
            <line
               style="stroke:#000000"
               y1="0"
               y2="6"
               x1="0.5"
               x2="0.5"
               id="line66" />
            <text
               y="9"
               x="0.5"
               dy="0.70999998em"
               style="font-size:12px;fill:#000000"
               id="text68">2019</text>
          </g>
          <g
             style="opacity:1"
             class="tick"
             transform="translate(334.38629)"
             id="g76">
            <line
               style="stroke:#000000"
               y1="0"
               y2="6"
               x1="0.5"
               x2="0.5"
               id="line72" />
            <text
               y="9"
               x="0.5"
               dy="0.70999998em"
               style="font-size:12px;fill:#000000"
               id="text74">2020</text>
          </g>
          <g
             style="opacity:1"
             class="tick"
             transform="translate(363.73501)"
             id="g82">
            <line
               style="stroke:#000000"
               y1="0"
               y2="6"
               x1="0.5"
               x2="0.5"
               id="line78" />
            <text
               y="9"
               x="0.5"
               dy="0.70999998em"
               style="font-size:12px;fill:#000000"
               id="text80">2021</text>
          </g>
          <g
             style="opacity:1"
             class="tick"
             transform="translate(393.00354)"
             id="g88">
            <line
               style="stroke:#000000"
               y1="0"
               y2="6"
               x1="0.5"
               x2="0.5"
               id="line84" />
            <text
               y="9"
               x="0.5"
               dy="0.70999998em"
               style="font-size:12px;fill:#000000"
               id="text86">2022</text>
          </g>
        </g>
        <g
           style="font-size:10px;font-family:sans-serif;text-anchor:middle;fill:none"
           class="grid-lines"
           transform="translate(0,300)"
           font-size="10"
           id="g150">
          <path
             style="stroke:#000000"
             inkscape:connector-curvature="0"
             class="domain"
             d="M 0.5,-300 V 0.5 h 410 V -300"
             id="path92" />
          <g
             style="opacity:1"
             class="tick"
             transform="translate(12.272068)"
             id="g96">
            <line
               y1="0"
               y2="-300"
               x1="0.5"
               x2="0.5"
               style="fill:none;stroke:#cccccc"
               id="line94" />
          </g>
          <g
             style="opacity:1"
             class="tick"
             transform="translate(41.540599)"
             id="g100">
            <line
               y1="0"
               y2="-300"
               x1="0.5"
               x2="0.5"
               style="fill:none;stroke:#cccccc"
               id="line98" />
          </g>
          <g
             style="opacity:1"
             class="tick"
             transform="translate(70.80913)"
             id="g104">
            <line
               y1="0"
               y2="-300"
               x1="0.5"
               x2="0.5"
               style="fill:none;stroke:#cccccc"
               id="line102" />
          </g>
          <g
             style="opacity:1"
             class="tick"
             transform="translate(100.07766)"
             id="g108">
            <line
               y1="0"
               y2="-300"
               x1="0.5"
               x2="0.5"
               style="fill:none;stroke:#cccccc"
               id="line106" />
          </g>
          <g
             style="opacity:1"
             class="tick"
             transform="translate(129.42638)"
             id="g112">
            <line
               y1="0"
               y2="-300"
               x1="0.5"
               x2="0.5"
               style="fill:none;stroke:#cccccc"
               id="line110" />
          </g>
          <g
             style="opacity:1"
             class="tick"
             transform="translate(158.69491)"
             id="g116">
            <line
               y1="0"
               y2="-300"
               x1="0.5"
               x2="0.5"
               style="fill:none;stroke:#cccccc"
               id="line114" />
          </g>
          <g
             style="opacity:1"
             class="tick"
             transform="translate(187.96344)"
             id="g120">
            <line
               y1="0"
               y2="-300"
               x1="0.5"
               x2="0.5"
               style="fill:none;stroke:#cccccc"
               id="line118" />
          </g>
          <g
             style="opacity:1"
             class="tick"
             transform="translate(217.23197)"
             id="g124">
            <line
               y1="0"
               y2="-300"
               x1="0.5"
               x2="0.5"
               style="fill:none;stroke:#cccccc"
               id="line122" />
          </g>
          <g
             style="opacity:1"
             class="tick"
             transform="translate(246.58069)"
             id="g128">
            <line
               y1="0"
               y2="-300"
               x1="0.5"
               x2="0.5"
               style="fill:none;stroke:#cccccc"
               id="line126" />
          </g>
          <g
             style="opacity:1"
             class="tick"
             transform="translate(275.84922)"
             id="g132">
            <line
               y1="0"
               y2="-300"
               x1="0.5"
               x2="0.5"
               style="fill:none;stroke:#cccccc"
               id="line130" />
          </g>
          <g
             style="opacity:1"
             class="tick"
             transform="translate(305.11776)"
             id="g136">
            <line
               y1="0"
               y2="-300"
               x1="0.5"
               x2="0.5"
               style="fill:none;stroke:#cccccc"
               id="line134" />
          </g>
          <g
             style="opacity:1"
             class="tick"
             transform="translate(334.38629)"
             id="g140">
            <line
               y1="0"
               y2="-300"
               x1="0.5"
               x2="0.5"
               style="fill:none;stroke:#cccccc"
               id="line138" />
          </g>
          <g
             style="opacity:1"
             class="tick"
             transform="translate(363.73501)"
             id="g144">
            <line
               y1="0"
               y2="-300"
               x1="0.5"
               x2="0.5"
               style="fill:none;stroke:#cccccc"
               id="line142" />
          </g>
          <g
             style="opacity:1"
             class="tick"
             transform="translate(393.00354)"
             id="g148">
            <line
               y1="0"
               y2="-300"
               x1="0.5"
               x2="0.5"
               style="fill:none;stroke:#cccccc"
               id="line146" />
          </g>
        </g>
        <text
           x="205"
           y="360"
           class="axis-label x-axis-label"
           style="font-weight:bold;text-anchor:middle"
           id="text152">Year</text>
        <g
           style="font-size:10px;font-family:sans-serif;text-anchor:end;fill:none"
           font-size="10"
           id="g216">
          <path
             style="stroke:#000000"
             inkscape:connector-curvature="0"
             class="domain"
             d="M -6,300.5 H 0.5 V 0.5 H -6"
             id="path154" />
          <g
             style="opacity:1"
             class="tick"
             transform="translate(0,300)"
             id="g160">
            <line
               style="stroke:#000000"
               x1="0"
               x2="-6"
               y1="0.5"
               y2="0.5"
               id="line156" />
            <text
               x="-9"
               y="0.5"
               dy="0.31999999em"
               style="font-size:12px;fill:#000000"
               id="text158">0.00%</text>
          </g>
          <g
             style="opacity:1"
             class="tick"
             transform="translate(0,266.66667)"
             id="g166">
            <line
               style="stroke:#000000"
               x1="0"
               x2="-6"
               y1="0.5"
               y2="0.5"
               id="line162" />
            <text
               x="-9"
               y="0.5"
               dy="0.31999999em"
               style="font-size:12px;fill:#000000"
               id="text164">0.10%</text>
          </g>
          <g
             style="opacity:1"
             class="tick"
             transform="translate(0,233.33333)"
             id="g172">
            <line
               style="stroke:#000000"
               x1="0"
               x2="-6"
               y1="0.5"
               y2="0.5"
               id="line168" />
            <text
               x="-9"
               y="0.5"
               dy="0.31999999em"
               style="font-size:12px;fill:#000000"
               id="text170">0.20%</text>
          </g>
          <g
             style="opacity:1"
             class="tick"
             transform="translate(0,200)"
             id="g178">
            <line
               style="stroke:#000000"
               x1="0"
               x2="-6"
               y1="0.5"
               y2="0.5"
               id="line174" />
            <text
               x="-9"
               y="0.5"
               dy="0.31999999em"
               style="font-size:12px;fill:#000000"
               id="text176">0.30%</text>
          </g>
          <g
             style="opacity:1"
             class="tick"
             transform="translate(0,166.66667)"
             id="g184">
            <line
               style="stroke:#000000"
               x1="0"
               x2="-6"
               y1="0.5"
               y2="0.5"
               id="line180" />
            <text
               x="-9"
               y="0.5"
               dy="0.31999999em"
               style="font-size:12px;fill:#000000"
               id="text182">0.40%</text>
          </g>
          <g
             style="opacity:1"
             class="tick"
             transform="translate(0,133.33333)"
             id="g190">
            <line
               style="stroke:#000000"
               x1="0"
               x2="-6"
               y1="0.5"
               y2="0.5"
               id="line186" />
            <text
               x="-9"
               y="0.5"
               dy="0.31999999em"
               style="font-size:12px;fill:#000000"
               id="text188">0.50%</text>
          </g>
          <g
             style="opacity:1"
             class="tick"
             transform="translate(0,100)"
             id="g196">
            <line
               style="stroke:#000000"
               x1="0"
               x2="-6"
               y1="0.5"
               y2="0.5"
               id="line192" />
            <text
               x="-9"
               y="0.5"
               dy="0.31999999em"
               style="font-size:12px;fill:#000000"
               id="text194">0.60%</text>
          </g>
          <g
             style="opacity:1"
             class="tick"
             transform="translate(0,66.666667)"
             id="g202">
            <line
               style="stroke:#000000"
               x1="0"
               x2="-6"
               y1="0.5"
               y2="0.5"
               id="line198" />
            <text
               x="-9"
               y="0.5"
               dy="0.31999999em"
               style="font-size:12px;fill:#000000"
               id="text200">0.70%</text>
          </g>
          <g
             style="opacity:1"
             class="tick"
             transform="translate(0,33.333333)"
             id="g208">
            <line
               style="stroke:#000000"
               x1="0"
               x2="-6"
               y1="0.5"
               y2="0.5"
               id="line204" />
            <text
               x="-9"
               y="0.5"
               dy="0.31999999em"
               style="font-size:12px;fill:#000000"
               id="text206">0.80%</text>
          </g>
          <g
             style="opacity:1"
             class="tick"
             id="g214">
            <line
               style="stroke:#000000"
               x1="0"
               x2="-6"
               y1="0.5"
               y2="0.5"
               id="line210" />
            <text
               x="-9"
               y="0.5"
               dy="0.31999999em"
               style="font-size:12px;fill:#000000"
               id="text212">0.90%</text>
          </g>
        </g>
        <g
           style="font-size:10px;font-family:sans-serif;text-anchor:end;fill:none"
           class="grid-lines"
           font-size="10"
           id="g260">
          <path
             style="stroke:#000000"
             inkscape:connector-curvature="0"
             class="domain"
             d="M 410,300.5 H 0.5 V 0.5 H 410"
             id="path218" />
          <g
             style="opacity:1"
             class="tick"
             transform="translate(0,300)"
             id="g222">
            <line
               x1="0"
               x2="410"
               y1="0.5"
               y2="0.5"
               style="fill:none;stroke:#cccccc"
               id="line220" />
          </g>
          <g
             style="opacity:1"
             class="tick"
             transform="translate(0,266.66667)"
             id="g226">
            <line
               x1="0"
               x2="410"
               y1="0.5"
               y2="0.5"
               style="fill:none;stroke:#cccccc"
               id="line224" />
          </g>
          <g
             style="opacity:1"
             class="tick"
             transform="translate(0,233.33333)"
             id="g230">
            <line
               x1="0"
               x2="410"
               y1="0.5"
               y2="0.5"
               style="fill:none;stroke:#cccccc"
               id="line228" />
          </g>
          <g
             style="opacity:1"
             class="tick"
             transform="translate(0,200)"
             id="g234">
            <line
               x1="0"
               x2="410"
               y1="0.5"
               y2="0.5"
               style="fill:none;stroke:#cccccc"
               id="line232" />
          </g>
          <g
             style="opacity:1"
             class="tick"
             transform="translate(0,166.66667)"
             id="g238">
            <line
               x1="0"
               x2="410"
               y1="0.5"
               y2="0.5"
               style="fill:none;stroke:#cccccc"
               id="line236" />
          </g>
          <g
             style="opacity:1"
             class="tick"
             transform="translate(0,133.33333)"
             id="g242">
            <line
               x1="0"
               x2="410"
               y1="0.5"
               y2="0.5"
               style="fill:none;stroke:#cccccc"
               id="line240" />
          </g>
          <g
             style="opacity:1"
             class="tick"
             transform="translate(0,100)"
             id="g246">
            <line
               x1="0"
               x2="410"
               y1="0.5"
               y2="0.5"
               style="fill:none;stroke:#cccccc"
               id="line244" />
          </g>
          <g
             style="opacity:1"
             class="tick"
             transform="translate(0,66.666667)"
             id="g250">
            <line
               x1="0"
               x2="410"
               y1="0.5"
               y2="0.5"
               style="fill:none;stroke:#cccccc"
               id="line248" />
          </g>
          <g
             style="opacity:1"
             class="tick"
             transform="translate(0,33.333333)"
             id="g254">
            <line
               x1="0"
               x2="410"
               y1="0.5"
               y2="0.5"
               style="fill:none;stroke:#cccccc"
               id="line252" />
          </g>
          <g
             style="opacity:1"
             class="tick"
             id="g258">
            <line
               x1="0"
               x2="410"
               y1="0.5"
               y2="0.5"
               style="fill:none;stroke:#cccccc"
               id="line256" />
          </g>
        </g>
        <g
           class="lines"
           id="g268">
          <path
             inkscape:connector-curvature="0"
             class="line"
             d="m 2.4858205,300 h 2.4056327 2.4891616 2.4056327 2.4858205 2.48582 2.245258 2.482479 2.405633 2.48582 2.405633 2.48582 2.485821 2.405632 2.489162 2.405633 2.48582 2.485821 2.245257 2.482479 2.405633 2.48582 2.405633 2.48582 2.485821 2.405633 2.489161 2.405633 2.48582 2.485821 l 2.245257,-0.3321 2.482479,-0.36845 2.405633,0.0332 2.48582,0.66735 2.405633,-0.3325 2.485821,0.0204 2.48582,0.31205 2.405633,-1.31857 2.489161,1.01182 2.405633,-0.33755 2.485819,0.3567 2.48582,-0.52202 2.32545,0.0597 2.48248,-0.028 2.40563,-0.21681 2.48582,-1.30741 2.40563,0.8864 2.48582,0.70506 2.48582,-2.32986 2.40564,0.13307 2.48916,-0.71534 2.40563,-1.57797 2.48582,2.43417 2.48582,-0.95804 2.24526,-0.71778 2.48248,2.4863 2.40563,-1.26529 2.48582,-0.16875 2.40563,-0.4068 2.48582,1.82902 2.48582,-0.0545 2.40564,-2.52264 2.48916,0.74911 2.40563,-0.45195 2.48582,-0.53907 2.48582,-2.1612 2.24526,-0.14493 2.48248,0.54339 2.40563,-4.0967 2.48582,0.97408 2.40563,0.6099 2.48582,-5.26862 2.48583,0.22236 2.40563,-1.57625 2.48916,3.43039 2.40563,2.33712 2.48582,-4.01768 2.48582,4.77131 2.24526,-4.43956 2.48248,-0.007 2.40563,-0.84306 2.48582,-2.15737 2.40564,-1.24623 2.48582,3.79863 2.48582,-3.50012 2.40563,2.97131 2.48916,4.23114 2.40563,-2.2941 2.48582,1.71019 2.48582,-1.36292 2.32545,1.80568 2.48248,-1.1157 2.40563,-0.27443 2.48582,-2.52138 2.40563,1.29223 2.48583,0.53151 2.48582,-1.34021 2.40563,-0.85246 2.48916,3.25611 2.40563,-5.48224 2.48582,3.4869 2.48582,-0.1234 2.24526,-4.89144 2.48248,-1.43428 2.40563,-0.055 2.48582,1.71013 2.40564,-0.0328 2.48582,1.83813 2.48582,-4.87607 2.40563,-0.3781 2.48916,3.83786 2.40563,5.41957 2.48582,1.37648 2.48582,-9.54902 2.24526,7.04529 2.48248,4.92635 2.40563,-5.76461 2.48582,-10.64002 2.40564,6.09848 2.48582,2.16617 2.48582,-1.87382 2.40563,-2.3281 2.48916,-5.80828 2.40563,11.00909 2.48583,2.4976 2.48582,-3.95673 2.24525,0.72867 2.48248,-5.88842 2.40564,6.8323 2.48582,1.94982 2.40563,-4.87983 2.48582,0.56777 2.48582,-6.70525 2.40563,3.68795 2.48916,-2.8646 2.40564,1.49285 2.48582,-3.34443 2.48582,4.60058 2.32544,-1.31154 2.48248,10.47501 2.40563,-2.11116 2.48582,4.27861 2.40564,1.68482 2.48582,-0.0569 2.48582,1.0345 2.40563,1.91123 2.48916,-2.50126 2.40564,0.69538 2.48582,0.0576 2.48582,-6.57007 2.24525,-0.68519 2.48248,4.60346 2.40564,-1.15933 2.48582,-0.41368 2.40563,3.35088 2.48582,-4.7889 2.48582,1.59405 2.40563,-0.40399 2.48916,1.78945 2.40564,-0.40478 2.48582,-2.34034 2.48582,-0.0399 2.24525,-3.63672 2.48248,5.47397 2.40564,-6.10478 2.48582,4.24373 2.40563,2.37794 L 410,286.05564"
             data-legend="rstudio"
             style="fill:none;stroke:#1f77b4"
             id="path262" />
          <path
             inkscape:connector-curvature="0"
             class="line"
             d="m 2.4858205,300 h 2.4056327 2.4891616 2.4056327 2.4858205 2.48582 2.245258 2.482479 2.405633 2.48582 2.405633 2.48582 2.485821 2.405632 2.489162 l 2.405633,-0.89115 2.48582,0.89115 h 2.485821 2.245257 2.482479 2.405633 2.48582 2.405633 2.48582 2.485821 2.405633 2.489161 2.405633 2.48582 2.485821 2.245257 2.482479 2.405633 2.48582 2.405633 2.485821 2.48582 2.405633 2.489161 2.405633 2.485819 2.48582 2.32545 l 2.48248,-0.25931 2.40563,-0.23806 2.48582,0.49737 h 2.40563 l 2.48582,-0.2369 2.48582,-0.0165 2.40564,0.25338 2.48916,-0.22643 2.40563,-0.0212 2.48582,-0.17797 2.48582,0.42563 2.24526,-0.57945 2.48248,0.38384 2.40563,-0.20707 2.48582,0.19079 2.40563,-0.54751 2.48582,0.16901 2.48582,-1.0276 2.40564,1.25438 2.48916,-0.20579 2.40563,0.36712 2.48582,-0.8615 2.48582,0.35114 2.24526,0.0678 2.48248,0.12774 2.40563,-0.0533 2.48582,-0.047 2.40563,0.23979 2.48582,-0.0319 2.48583,-0.59831 2.40563,0.62049 2.48916,-0.0145 2.40563,0.40179 2.48582,-1.21175 2.48582,0.41489 2.24526,-0.43981 2.48248,0.35288 2.40563,0.70312 2.48582,-0.71239 2.40564,0.72136 2.48582,-1.49312 2.48582,0.34321 2.40563,0.24107 2.48916,0.13907 2.40563,-6.45404 2.48582,-5.39876 2.48582,-4.14458 2.32545,-0.22335 2.48248,0.0843 2.40563,-1.72903 2.48582,0.0208 2.40563,1.29739 2.48583,-1.75898 2.48582,1.98824 2.40563,-2.12428 2.48916,-2.50729 2.40563,1.36201 2.48582,-2.69725 2.48582,-2.51745 2.24526,-1.46961 2.48248,-3.8659 2.40563,2.58073 2.48582,0.93766 2.40564,-1.82669 2.48582,-3.05468 2.48582,-2.0177 2.40563,3.60048 2.48916,-10.36117 2.40563,1.39805 2.48582,-3.21176 2.48582,0.14475 2.24526,-8.90322 2.48248,10.14115 2.40563,-5.57011 2.48582,-3.8675 2.40564,4.62163 2.48582,-2.35665 2.48582,-3.11576 2.40563,-5.303 2.48916,3.536 2.40563,3.10711 2.48583,-5.50195 2.48582,-9.65163 2.24525,-14.81298 2.48248,15.37887 2.40564,-2.4723 2.48582,5.97021 2.40563,-13.67246 2.48582,7.08645 2.48582,1.58978 2.40563,-7.8462 2.48916,8.1365 2.40564,-0.75124 2.48582,-5.43924 2.48582,-1.93577 2.32544,8.28757 2.48248,-13.45547 2.40563,3.9076 2.48582,0.35898 2.40564,-1.82835 2.48582,2.38495 2.48582,4.96546 2.40563,-14.83014 2.48916,9.99454 2.40564,0.44682 2.48582,-7.90542 2.48582,3.25543 2.24525,1.49247 2.48248,3.43532 2.40564,6.06729 2.48582,-0.26409 2.40563,-15.63764 2.48582,0.0869 2.48582,-4.5488 2.40563,-5.61577 2.48916,7.28179 2.40564,2.65914 2.48582,1.24904 2.48582,-2.13735 2.24525,-3.31652 2.48248,-1.19609 2.40564,2.32685 2.48582,2.51208 2.40563,-10.14537 2.48582,5.14176"
             data-legend="jupyter-notebook"
             style="fill:none;stroke:#ff7f0e"
             id="path264" />
          <path
             inkscape:connector-curvature="0"
             class="line"
             d="m 2.4858205,300 h 2.4056327 2.4891616 2.4056327 2.4858205 2.48582 2.245258 2.482479 2.405633 2.48582 2.405633 2.48582 2.485821 2.405632 2.489162 2.405633 2.48582 L 44.02642,299.24992 46.271677,300 h 2.482479 2.405633 2.48582 2.405633 2.48582 2.485821 2.405633 2.489161 2.405633 2.48582 2.485821 2.245257 2.482479 2.405633 2.48582 2.405633 2.485821 2.48582 2.405633 2.489161 2.405633 2.485819 2.48582 2.32545 2.48248 2.40563 l 2.48582,-0.25579 2.40563,0.25579 h 2.48582 l 2.48582,-0.25338 2.40564,0.25338 h 2.48916 2.40563 2.48582 2.48582 2.24526 2.48248 2.40563 l 2.48582,-0.21189 2.40563,-0.16781 2.48582,0.3797 h 2.48582 2.40564 2.48916 l 2.40563,-0.20228 2.48582,0.20228 h 2.48582 2.24526 2.48248 2.40563 2.48582 2.40563 2.48582 2.48583 2.40563 2.48916 2.40563 2.48582 2.48582 2.24526 l 2.48248,-15.55477 2.40563,-14.4362 2.48582,18.38124 2.40564,1.30757 2.48582,1.42314 2.48582,0.94934 2.40563,-4.31642 2.48916,-2.81735 2.40563,-4.39843 2.48582,1.29031 2.48582,3.72897 2.32545,-5.88545 2.48248,-4.09335 2.40563,2.77569 2.48582,-2.6121 2.40563,-4.82671 2.48583,2.80399 2.48582,-6.47324 2.40563,-4.09455 2.48916,0.36325 2.40563,-2.29198 2.48582,-2.72565 2.48582,-6.14242 2.24526,-2.60773 2.48248,-2.29932 2.40563,2.04849 2.48582,-3.48537 2.40564,-6.0963 2.48582,-6.12713 2.48582,-3.53773 2.40563,5.06409 2.48916,-4.61229 2.40563,3.08183 2.48582,-6.41695 2.48582,-10.50625 2.24526,0.77756 2.48248,-9.02273 2.40563,7.7924 2.48582,-14.43768 2.40564,-6.94434 2.48582,7.75244 2.48582,-1.74468 2.40563,-7.31161 2.48916,4.73152 2.40563,-12.17513 2.48583,3.32803 2.48582,-2.19445 2.24525,-3.22587 2.48248,10.98559 2.40564,-8.60768 2.48582,-1.98303 2.40563,-7.35156 2.48582,-12.05503 2.48582,-8.17825 2.40563,16.94104 2.48916,-12.63995 2.40564,-18.48152 2.48582,7.64814 2.48582,19.06525 2.32544,-30.26015 2.48248,5.76889 2.40563,-7.60824 2.48582,-25.49743 2.40564,9.63948 2.48582,-1.25107 2.48582,-11.00286 2.40563,1.52071 2.48916,-4.65529 2.40564,-14.495661 2.48582,3.305274 2.48582,-11.885473 2.24525,11.646132 2.48248,-7.6612 2.40564,-4.966548 2.48582,-19.294418 2.40563,21.061439 2.48582,-51.923253 2.48582,-0.254028 2.40563,19.171217 2.48916,-23.056548 2.40564,-1.655521 2.48582,-1.319275 2.48582,-12.637976 2.24525,2.455394 2.48248,10.910891 2.40564,0.303702 2.48582,18.033689 L 407.51418,2.1547664 410,6.7327281"
             data-legend="visual-studio-code"
             style="fill:none;stroke:#2ca02c"
             id="path266" />
        </g>
      </g>
      <g
         transform="translate(20,150)"
         id="g274">
        <text
           transform="rotate(-90)"
           x="-50"
           y="0"
           dy="1em"
           class="axis-label y-axis-label"
           style="font-weight:bold;text-anchor:middle"
           id="text272">% of Stack Overflow questions that month</text>
      </g>
      <g
         class="legend"
         transform="translate(530,30)"
         style="font-size:12px"
         id="g294">
        <text
           class="legend-title"
           style="font-weight:bold"
           id="text276">Tag</text>
        <g
           class="legend-items"
           transform="translate(0,20)"
           id="g290">
          <text
             y="0em"
             x="1em"
             id="text278">Visual Studio Code</text>
          <text
             y="1em"
             x="1em"
             id="text280">Jupyter Notebook</text>
          <text
             y="2em"
             x="1em"
             id="text282">RStudio</text>
          <circle
             cy="-0.25em"
             cx="0"
             r="0.40000001em"
             style="fill:#2ca02c"
             id="circle284" />
          <circle
             cy="0.75em"
             cx="0"
             r="0.40000001em"
             style="fill:#ff7f0e"
             id="circle286" />
          <circle
             cy="1.75em"
             cx="0"
             r="0.40000001em"
             style="fill:#1f77b4"
             id="circle288" />
        </g>
        <rect
           y="0"
           x="0"
           height="0"
           width="0"
           class="legend-box"
           id="rect292" />
      </g>
    </g>
  </g>
</svg>
