<?xml version="1.0" encoding="UTF-8" standalone="no"?>
<svg
   id="trend-chart"
   width="21cm"
   height="10cm"
   title="Stack Overflow Trends Chart"
   version="1.1"
   sodipodi:docname="2022-11-11_StackOverflowTrends_MLPythonPackages_wide.svg"
   inkscape:version="1.1.2 (0a00cf5339, 2022-02-04)"
   inkscape:export-filename="./2022-09-07_StackOverflowTrends_MLPythonPackages_wide.png"
   inkscape:export-xdpi="119.888"
   inkscape:export-ydpi="119.888"
   xmlns:inkscape="http://www.inkscape.org/namespaces/inkscape"
   xmlns:sodipodi="http://sodipodi.sourceforge.net/DTD/sodipodi-0.dtd"
   xmlns="http://www.w3.org/2000/svg"
   xmlns:svg="http://www.w3.org/2000/svg"
   xmlns:rdf="http://www.w3.org/1999/02/22-rdf-syntax-ns#"
   xmlns:cc="http://creativecommons.org/ns#"
   xmlns:dc="http://purl.org/dc/elements/1.1/">
  <metadata
     id="metadata309">
    <rdf:RDF>
      <cc:Work
         rdf:about="">
        <dc:format>image/svg+xml</dc:format>
        <dc:type
           rdf:resource="http://purl.org/dc/dcmitype/StillImage" />
        <cc:license
           rdf:resource="http://creativecommons.org/licenses/by-sa/4.0/" />
      </cc:Work>
      <cc:License
         rdf:about="http://creativecommons.org/licenses/by-sa/4.0/">
        <cc:permits
           rdf:resource="http://creativecommons.org/ns#Reproduction" />
        <cc:permits
           rdf:resource="http://creativecommons.org/ns#Distribution" />
        <cc:requires
           rdf:resource="http://creativecommons.org/ns#Notice" />
        <cc:requires
           rdf:resource="http://creativecommons.org/ns#Attribution" />
        <cc:permits
           rdf:resource="http://creativecommons.org/ns#DerivativeWorks" />
        <cc:requires
           rdf:resource="http://creativecommons.org/ns#ShareAlike" />
      </cc:License>
    </rdf:RDF>
  </metadata>
  <defs
     id="defs307" />
  <sodipodi:namedview
     pagecolor="#ffffff"
     bordercolor="#666666"
     borderopacity="1"
     objecttolerance="10"
     gridtolerance="10"
     guidetolerance="10"
     inkscape:pageopacity="0"
     inkscape:pageshadow="2"
     inkscape:window-width="1920"
     inkscape:window-height="1131"
     id="namedview305"
     showgrid="false"
     units="cm"
     inkscape:zoom="1.668772"
     inkscape:cx="400.59397"
     inkscape:cy="144.11795"
     inkscape:window-x="1920"
     inkscape:window-y="0"
     inkscape:window-maximized="1"
     inkscape:current-layer="g4164"
     inkscape:pagecheckerboard="0"
     inkscape:document-units="cm" />
  <g
     id="g2"
     transform="translate(0,-22.04722)" />
  <g
     id="g4164"
     transform="translate(84.290469,13.143598)">
    <g
       id="g372"
       transform="translate(-2.3219112,-21.969056)">
      <g
         class="chart-area"
         transform="translate(100,20)"
         id="g200">
        <g
           transform="translate(0,300)"
           fill="none"
           font-size="10px"
           font-family="sans-serif"
           text-anchor="middle"
           id="g48">
          <path
             class="domain"
             stroke="#000000"
             d="M 0.5,6 V 0.5 h 410 V 6"
             id="path4" />
          <g
             class="tick"
             opacity="1"
             transform="translate(41.050847)"
             id="g10">
            <line
               stroke="#000000"
               y2="6"
               x1="0.5"
               x2="0.5"
               id="line6"
               y1="0" />
            <text
               fill="#000000"
               y="9"
               x="0.5"
               dy="0.70999998em"
               style="font-size:12px"
               id="text8">2010</text>
          </g>
          <g
             class="tick"
             opacity="1"
             transform="translate(98.897774)"
             id="g16">
            <line
               stroke="#000000"
               y2="6"
               x1="0.5"
               x2="0.5"
               id="line12"
               y1="0" />
            <text
               fill="#000000"
               y="9"
               x="0.5"
               dy="0.70999998em"
               style="font-size:12px"
               id="text14">2012</text>
          </g>
          <g
             class="tick"
             opacity="1"
             transform="translate(156.82394)"
             id="g22">
            <line
               stroke="#000000"
               y2="6"
               x1="0.5"
               x2="0.5"
               id="line18"
               y1="0" />
            <text
               fill="#000000"
               y="9"
               x="0.5"
               dy="0.70999998em"
               style="font-size:12px"
               id="text20">2014</text>
          </g>
          <g
             class="tick"
             opacity="1"
             transform="translate(214.67087)"
             id="g28">
            <line
               stroke="#000000"
               y2="6"
               x1="0.5"
               x2="0.5"
               id="line24"
               y1="0" />
            <text
               fill="#000000"
               y="9"
               x="0.5"
               dy="0.70999998em"
               style="font-size:12px"
               id="text26">2016</text>
          </g>
          <g
             class="tick"
             opacity="1"
             transform="translate(272.59704)"
             id="g34">
            <line
               stroke="#000000"
               y2="6"
               x1="0.5"
               x2="0.5"
               id="line30"
               y1="0" />
            <text
               fill="#000000"
               y="9"
               x="0.5"
               dy="0.70999998em"
               style="font-size:12px"
               id="text32">2018</text>
          </g>
          <g
             class="tick"
             opacity="1"
             transform="translate(330.44397)"
             id="g40">
            <line
               stroke="#000000"
               y2="6"
               x1="0.5"
               x2="0.5"
               id="line36"
               y1="0" />
            <text
               fill="#000000"
               y="9"
               x="0.5"
               dy="0.70999998em"
               style="font-size:12px"
               id="text38">2020</text>
          </g>
          <g
             class="tick"
             opacity="1"
             transform="translate(388.37014)"
             id="g46">
            <line
               stroke="#000000"
               y2="6"
               x1="0.5"
               x2="0.5"
               id="line42"
               y1="0" />
            <text
               fill="#000000"
               y="9"
               x="0.5"
               dy="0.70999998em"
               style="font-size:12px"
               id="text44">2022</text>
          </g>
        </g>
        <g
           class="grid-lines"
           transform="translate(0,300)"
           fill="none"
           font-size="10px"
           font-family="sans-serif"
           text-anchor="middle"
           id="g80">
          <path
             class="domain"
             stroke="#000000"
             d="M 0.5,-300 V 0.5 h 410 V -300"
             id="path50" />
          <g
             class="tick"
             opacity="1"
             transform="translate(41.050847)"
             id="g54">
            <line
               stroke="#000"
               y2="-300"
               x1="0.5"
               x2="0.5"
               style="fill:none;stroke:#cccccc"
               id="line52"
               y1="0" />
          </g>
          <g
             class="tick"
             opacity="1"
             transform="translate(98.897774)"
             id="g58">
            <line
               stroke="#000"
               y2="-300"
               x1="0.5"
               x2="0.5"
               style="fill:none;stroke:#cccccc"
               id="line56"
               y1="0" />
          </g>
          <g
             class="tick"
             opacity="1"
             transform="translate(156.82394)"
             id="g62">
            <line
               stroke="#000"
               y2="-300"
               x1="0.5"
               x2="0.5"
               style="fill:none;stroke:#cccccc"
               id="line60"
               y1="0" />
          </g>
          <g
             class="tick"
             opacity="1"
             transform="translate(214.67087)"
             id="g66">
            <line
               stroke="#000"
               y2="-300"
               x1="0.5"
               x2="0.5"
               style="fill:none;stroke:#cccccc"
               id="line64"
               y1="0" />
          </g>
          <g
             class="tick"
             opacity="1"
             transform="translate(272.59704)"
             id="g70">
            <line
               stroke="#000"
               y2="-300"
               x1="0.5"
               x2="0.5"
               style="fill:none;stroke:#cccccc"
               id="line68"
               y1="0" />
          </g>
          <g
             class="tick"
             opacity="1"
             transform="translate(330.44397)"
             id="g74">
            <line
               stroke="#000"
               y2="-300"
               x1="0.5"
               x2="0.5"
               style="fill:none;stroke:#cccccc"
               id="line72"
               y1="0" />
          </g>
          <g
             class="tick"
             opacity="1"
             transform="translate(388.37014)"
             id="g78">
            <line
               stroke="#000"
               y2="-300"
               x1="0.5"
               x2="0.5"
               style="fill:none;stroke:#cccccc"
               id="line76"
               y1="0" />
          </g>
        </g>
        <text
           x="205"
           y="360"
           class="axis-label x-axis-label"
           style="font-weight:bold;text-anchor:middle"
           id="text82">Year</text>
        <g
           fill="none"
           font-size="10px"
           font-family="sans-serif"
           text-anchor="end"
           id="g140">
          <path
             class="domain"
             stroke="#000000"
             d="M -6,300.5 H 0.5 V 0.5 H -6"
             id="path84" />
          <g
             class="tick"
             opacity="1"
             transform="translate(0,300)"
             id="g90">
            <line
               stroke="#000000"
               x2="-6"
               y1="0.5"
               y2="0.5"
               id="line86"
               x1="0" />
            <text
               fill="#000000"
               x="-9"
               y="0.5"
               dy="0.31999999em"
               style="font-size:12px"
               id="text88">0.00%</text>
          </g>
          <g
             class="tick"
             opacity="1"
             transform="translate(0,262.5)"
             id="g96">
            <line
               stroke="#000000"
               x2="-6"
               y1="0.5"
               y2="0.5"
               id="line92"
               x1="0" />
            <text
               fill="#000000"
               x="-9"
               y="0.5"
               dy="0.31999999em"
               style="font-size:12px"
               id="text94">0.50%</text>
          </g>
          <g
             class="tick"
             opacity="1"
             transform="translate(0,225)"
             id="g102">
            <line
               stroke="#000000"
               x2="-6"
               y1="0.5"
               y2="0.5"
               id="line98"
               x1="0" />
            <text
               fill="#000000"
               x="-9"
               y="0.5"
               dy="0.31999999em"
               style="font-size:12px"
               id="text100">1.00%</text>
          </g>
          <g
             class="tick"
             opacity="1"
             transform="translate(0,187.5)"
             id="g108">
            <line
               stroke="#000000"
               x2="-6"
               y1="0.5"
               y2="0.5"
               id="line104"
               x1="0" />
            <text
               fill="#000000"
               x="-9"
               y="0.5"
               dy="0.31999999em"
               style="font-size:12px"
               id="text106">1.50%</text>
          </g>
          <g
             class="tick"
             opacity="1"
             transform="translate(0,150)"
             id="g114">
            <line
               stroke="#000000"
               x2="-6"
               y1="0.5"
               y2="0.5"
               id="line110"
               x1="0" />
            <text
               fill="#000000"
               x="-9"
               y="0.5"
               dy="0.31999999em"
               style="font-size:12px"
               id="text112">2.00%</text>
          </g>
          <g
             class="tick"
             opacity="1"
             transform="translate(0,112.5)"
             id="g120">
            <line
               stroke="#000000"
               x2="-6"
               y1="0.5"
               y2="0.5"
               id="line116"
               x1="0" />
            <text
               fill="#000000"
               x="-9"
               y="0.5"
               dy="0.31999999em"
               style="font-size:12px"
               id="text118">2.50%</text>
          </g>
          <g
             class="tick"
             opacity="1"
             transform="translate(0,75)"
             id="g126">
            <line
               stroke="#000000"
               x2="-6"
               y1="0.5"
               y2="0.5"
               id="line122"
               x1="0" />
            <text
               fill="#000000"
               x="-9"
               y="0.5"
               dy="0.31999999em"
               style="font-size:12px"
               id="text124">3.00%</text>
          </g>
          <g
             class="tick"
             opacity="1"
             transform="translate(0,37.5)"
             id="g132">
            <line
               stroke="#000000"
               x2="-6"
               y1="0.5"
               y2="0.5"
               id="line128"
               x1="0" />
            <text
               fill="#000000"
               x="-9"
               y="0.5"
               dy="0.31999999em"
               style="font-size:12px"
               id="text130">3.50%</text>
          </g>
          <g
             class="tick"
             opacity="1"
             id="g138">
            <line
               stroke="#000000"
               x2="-6"
               y1="0.5"
               y2="0.5"
               id="line134"
               x1="0" />
            <text
               fill="#000000"
               x="-9"
               y="0.5"
               dy="0.31999999em"
               style="font-size:12px"
               id="text136">4.00%</text>
          </g>
        </g>
        <g
           class="grid-lines"
           fill="none"
           font-size="10px"
           font-family="sans-serif"
           text-anchor="end"
           id="g180">
          <path
             class="domain"
             stroke="#000000"
             d="M 410,300.5 H 0.5 V 0.5 H 410"
             id="path142" />
          <g
             class="tick"
             opacity="1"
             transform="translate(0,300)"
             id="g146">
            <line
               stroke="#000"
               x2="410"
               y1="0.5"
               y2="0.5"
               style="fill:none;stroke:#cccccc"
               id="line144"
               x1="0" />
          </g>
          <g
             class="tick"
             opacity="1"
             transform="translate(0,262.5)"
             id="g150">
            <line
               stroke="#000"
               x2="410"
               y1="0.5"
               y2="0.5"
               style="fill:none;stroke:#cccccc"
               id="line148"
               x1="0" />
          </g>
          <g
             class="tick"
             opacity="1"
             transform="translate(0,225)"
             id="g154">
            <line
               stroke="#000"
               x2="410"
               y1="0.5"
               y2="0.5"
               style="fill:none;stroke:#cccccc"
               id="line152"
               x1="0" />
          </g>
          <g
             class="tick"
             opacity="1"
             transform="translate(0,187.5)"
             id="g158">
            <line
               stroke="#000"
               x2="410"
               y1="0.5"
               y2="0.5"
               style="fill:none;stroke:#cccccc"
               id="line156"
               x1="0" />
          </g>
          <g
             class="tick"
             opacity="1"
             transform="translate(0,150)"
             id="g162">
            <line
               stroke="#000"
               x2="410"
               y1="0.5"
               y2="0.5"
               style="fill:none;stroke:#cccccc"
               id="line160"
               x1="0" />
          </g>
          <g
             class="tick"
             opacity="1"
             transform="translate(0,112.5)"
             id="g166">
            <line
               stroke="#000"
               x2="410"
               y1="0.5"
               y2="0.5"
               style="fill:none;stroke:#cccccc"
               id="line164"
               x1="0" />
          </g>
          <g
             class="tick"
             opacity="1"
             transform="translate(0,75)"
             id="g170">
            <line
               stroke="#000"
               x2="410"
               y1="0.5"
               y2="0.5"
               style="fill:none;stroke:#cccccc"
               id="line168"
               x1="0" />
          </g>
          <g
             class="tick"
             opacity="1"
             transform="translate(0,37.5)"
             id="g174">
            <line
               stroke="#000"
               x2="410"
               y1="0.5"
               y2="0.5"
               style="fill:none;stroke:#cccccc"
               id="line172"
               x1="0" />
          </g>
          <g
             class="tick"
             opacity="1"
             id="g178">
            <line
               stroke="#000"
               x2="410"
               y1="0.5"
               y2="0.5"
               style="fill:none;stroke:#cccccc"
               id="line176"
               x1="0" />
          </g>
        </g>
        <g
           class="lines"
           id="g198">
          <path
             class="line"
             d="m 2.4565133,300 h 2.377271 2.4598151 2.377271 2.4565136 2.456513 2.218786 2.453212 2.377271 2.456513 2.377271 2.456513 2.456514 2.377271 2.459815 2.377271 L 41.050847,299.83168 43.507361,300 h 2.218786 2.453211 2.377271 2.456514 2.377271 2.456513 2.456513 2.377271 2.459815 2.377271 2.456514 2.456513 l 2.218786,-0.0747 2.453212,-0.0829 L 79.480093,300 81.936606,299.84796 84.313877,300 h 2.456513 l 2.456514,-0.0738 2.377271,-0.29725 2.459815,0.23293 2.377271,0.0656 2.456513,-0.31581 2.456516,0.14537 2.29803,-1.44484 2.45321,0.17044 2.37727,-0.88915 2.45651,-0.47132 2.37727,-0.62648 2.45652,-1.18668 2.45651,-0.55495 2.37727,0.0617 2.45982,-0.93157 2.37727,-0.73861 2.45651,-0.66408 2.45651,-1.65185 2.21879,1.6509 2.45321,-0.84477 2.37727,-1.87984 2.45652,-1.49036 2.37727,-0.65573 2.45651,-0.19205 2.45651,1.60768 2.37727,-3.71662 2.45982,-0.43855 2.37727,0.004 2.45651,-2.92355 2.45652,1.75603 2.21878,-2.84967 2.45321,0.11124 2.37728,-0.65977 2.45651,-1.6938 2.37727,0.695 2.45651,-1.43109 2.45652,-0.0128 2.37727,0.95539 2.45981,-2.10413 2.37727,3.14578 2.45652,-1.81739 2.45651,-2.07428 2.21879,-2.80729 2.45321,-1.2487 2.37727,0.84063 2.45651,-3.66417 2.37727,-2.35972 2.45652,1.84082 2.45651,-2.68837 2.37727,-4.26444 2.45982,0.58111 2.37727,-1.27403 2.45651,0.93117 2.45651,-3.50367 2.29803,-0.19949 2.45321,-4.00437 2.37727,-5.24573 2.45652,-1.59755 2.37727,-10.13849 2.45651,5.82397 2.45652,-0.89291 2.37727,-0.26625 2.45981,-6.72462 2.37727,-1.12445 2.45652,0.26273 2.45651,-1.72379 2.21879,-7.01344 2.45321,-3.36978 2.37727,-0.10174 2.45651,-6.2195 2.37727,-3.2527 2.45652,-3.65399 2.45651,-0.69081 2.37727,-4.80627 2.45982,0.656 2.37727,-1.38259 2.45651,-5.85425 2.45651,-6.20939 2.21879,-7.38952 2.45321,1.14455 2.37727,-0.81237 2.45652,-15.61295 2.37727,-9.61218 2.45651,2.73028 2.45651,6.31743 2.37727,-3.15816 2.45982,-11.11977 2.37727,7.50248 2.45651,-3.27863 2.45652,-10.3265 2.21878,-1.84944 2.45321,-4.5988 2.37728,-0.48662 2.45651,-1.48679 2.37727,-14.13705 2.45651,-12.48616 2.45652,20.10392 2.37727,-17.62075 2.45981,6.99025 2.37727,-10.97128 2.45652,-4.05744 2.45651,-2.78133 2.29803,5.68348 2.45321,-8.01303 2.37727,-3.851094 2.45651,-11.669098 2.37728,3.129966 2.45651,4.99734 2.45651,-2.845565 2.37727,-10.809575 2.45982,1.271679 2.37727,10.969532 2.45651,10.922645 2.45652,-20.05489 2.21878,-9.826559 2.45321,5.44747 2.37727,0.640443 2.45652,-10.349672 2.37727,-3.4446 2.45651,2.905532 2.45652,10.119697 2.37727,-8.419878 2.45981,7.044015 2.37727,12.853787 2.45652,13.716025 2.45651,-17.935542 2.21879,-14.887748 2.45321,11.806908 2.37727,-9.593478 2.45651,5.68307 2.37727,1.157468 2.45652,-6.994288 2.45651,10.00093 L 410,90.621909"
             data-legend="pandas"
             style="fill:none;stroke:#1f77b4"
             id="path182" />
          <path
             class="line"
             d="m 2.4565133,298.37051 2.377271,0.58659 2.4598151,-0.75279 2.377271,-0.72214 2.4565136,-0.83103 2.456513,0.32815 2.218786,1.53754 2.453212,-1.00876 2.377271,0.43351 2.456513,-1.42758 2.377271,2.08172 2.456513,-0.68066 2.456514,0.24867 2.377271,-3.79436 2.459815,-2.04875 2.377271,2.46576 2.456513,1.67882 2.456514,-3.21663 2.218786,1.10569 2.453211,-0.69778 2.377271,1.97891 2.456514,-1.46722 2.377271,1.35778 2.456513,-1.34046 2.456513,0.62932 2.377271,-0.73328 2.459815,-1.23833 2.377271,0.20894 2.456514,2.13042 2.456513,-0.82789 2.218786,-3.02415 2.453212,0.70786 2.377271,0.97831 2.456513,0.59768 2.377271,-0.72274 2.456513,-1.59958 2.456514,-0.14204 2.377271,-1.46383 2.459815,2.92704 2.377271,-0.44211 2.456513,-1.36086 2.456516,0.0797 2.29803,-0.2852 2.45321,0.29125 2.37727,-0.52193 2.45651,-0.61903 2.37727,-0.53334 2.45652,-1.05573 2.45651,-1.28075 2.37727,0.68273 2.45982,-1.78717 2.37727,2.57231 2.45651,-0.61253 2.45651,-1.69327 2.21879,-0.30378 2.45321,-2.64799 2.37727,0.49588 2.45652,2.33686 2.37727,-3.65896 2.45651,2.80043 2.45651,-2.9659 2.37727,-0.5598 2.45982,-2.31527 2.37727,2.41066 2.45651,-1.08644 2.45652,-2.86605 2.21878,1.82603 2.45321,0.83381 2.37728,-2.1359 2.45651,1.65627 2.37727,-0.30206 2.45651,-1.0874 2.45652,2.29097 2.37727,-3.4291 2.45981,1.90925 2.37727,0.37142 2.45652,-1.98386 2.45651,-2.38247 2.21879,-0.89729 2.45321,2.09352 2.37727,-1.86448 2.45651,1.3388 2.37727,-1.03971 2.45652,1.80499 2.45651,0.66566 2.37727,-1.67221 2.45982,-3.90526 2.37727,2.64067 2.45651,-3.00408 2.45651,-1.58542 2.29803,-0.0879 2.45321,-1.21692 2.37727,3.93235 2.45652,-4.05572 2.37727,-2.14744 2.45651,2.18238 2.45652,-2.10784 2.37727,-0.61454 2.45981,-1.83112 2.37727,1.22055 2.45652,0.71436 2.45651,-6.01776 2.21879,-0.66932 2.45321,-2.40431 2.37727,4.23263 2.45651,-1.64728 2.37727,-2.01716 2.45652,1.00377 2.45651,-0.66061 2.37727,-6.46359 2.45982,0.61567 2.37727,0.0761 2.45651,0.8505 2.45651,-2.70162 2.21879,3.80581 2.45321,1.00433 2.37727,1.94879 2.45652,-2.55665 2.37727,-3.97 2.45651,3.22063 2.45651,-0.53063 2.37727,-0.19712 2.45982,-4.17285 2.37727,-0.83592 2.45651,5.69885 2.45652,-9.02921 2.21878,-1.47375 2.45321,1.13629 2.37728,5.0908 2.45651,0.81099 2.37727,-3.75125 2.45651,-3.16171 2.45652,4.43518 2.37727,-7.04849 2.45981,-0.0441 2.37727,0.72014 2.45652,5.70776 2.45651,-8.93593 2.29803,3.17915 2.45321,-3.64087 2.37727,-2.79009 2.45651,0.29243 2.37728,-0.59055 2.45651,5.83165 2.45651,-3.14406 2.37727,-6.30305 2.45982,-1.19198 2.37727,2.69504 2.45651,5.24103 2.45652,-3.54388 2.21878,-2.66439 2.45321,0.88269 2.37727,1.06383 2.45652,2.50701 2.37727,-4.40904 2.45651,9.27426 2.45652,-2.90516 2.37727,-9.6082 2.45981,7.70042 2.37727,2.39656 2.45652,5.03265 2.45651,-0.18481 2.21879,-5.0481 2.45321,0.37603 2.37727,3.72191 2.45651,-4.96013 2.37727,3.81588 2.45652,5.12021 2.45651,1.29199 L 410,242.2602"
             data-legend="numpy"
             style="fill:none;stroke:#ff7f0e"
             id="path184" />
          <path
             class="line"
             d="M 2.4565133,298.91367 4.8337843,300 h 2.4598151 l 2.377271,-1.25892 2.4565136,0.78051 2.456513,-0.81618 2.218786,0.18222 2.453212,-1.37956 2.377271,0.43351 2.456513,1.52211 2.377271,-0.86797 2.456513,-1.6073 2.456514,0.48671 2.377271,0.43945 2.459815,-0.27747 2.377271,0.15713 2.456513,-0.48742 2.456514,-1.52647 2.218786,-0.55751 2.453211,1.45437 2.377271,0.55854 2.456514,-1.03322 2.377271,0.31765 2.456513,-0.6734 2.456513,0.57297 2.377271,-0.56268 2.459815,0.0223 2.377271,1.62369 2.456514,-1.2815 2.456513,-1.41167 2.218786,-0.34047 2.453212,0.95851 2.377271,-0.38388 2.456513,0.16668 2.377271,0.44938 2.456513,-0.85684 2.456514,0.69793 2.377271,-1.65986 2.459815,0.42868 2.377271,-1.0841 2.456513,1.11897 2.456516,-1.53225 2.29803,1.37637 2.45321,-0.56854 2.37727,-0.46418 2.45651,-0.31083 2.37727,-0.76977 2.45652,-0.77799 2.45651,2.18486 2.37727,-2.30108 2.45982,0.0415 2.37727,-0.0436 2.45651,-0.95656 2.45651,-1.0788 2.21879,0.98593 2.45321,-0.52324 2.37727,-0.44539 2.45652,1.19536 2.37727,-1.68147 2.45651,0.99773 2.45651,-2.06468 2.37727,-0.21331 2.45982,-0.90332 2.37727,2.34062 2.45651,-2.16961 2.45652,-1.02987 2.21878,-0.15896 2.45321,1.04969 2.37728,0.0748 2.45651,0.73102 2.37727,-3.29675 2.45651,0.98321 2.45652,2.9592 2.37727,0.64757 2.45981,-3.81825 2.37727,1.64911 2.45652,0.4047 2.45651,-1.16375 2.21879,-0.60314 2.45321,0.7074 2.37727,-1.73924 2.45651,0.9082 2.37727,-4.86531 2.45652,4.24485 2.45651,0.22819 2.37727,-0.0576 2.45982,-5.58077 2.37727,4.45756 2.45651,-2.84277 2.45651,0.75176 2.29803,-1.13616 2.45321,-0.30417 2.37727,0.89638 2.45652,-1.03334 2.37727,-0.77253 2.45651,1.22331 2.45652,1.10723 2.37727,-0.67621 2.45981,-0.26862 2.37727,1.78544 2.45652,-1.06104 2.45651,-4.19319 2.21879,-1.54791 2.45321,-4.23109 2.37727,3.82701 2.45651,-1.63645 2.37727,0.14025 2.45652,3.82431 2.45651,0.74774 2.37727,-3.10212 2.45982,-2.76623 2.37727,0.87716 2.45651,-0.0301 2.45651,1.28201 2.21879,-0.19697 2.45321,-0.59219 2.37727,0.891 2.45652,-4.38094 2.37727,-1.01428 2.45651,1.28749 2.45651,-1.21653 2.37727,0.69975 2.45982,-4.52316 2.37727,0.21432 2.45651,5.75778 2.45652,-2.91281 2.21878,-1.98186 2.45321,-0.38392 2.37728,-1.08362 2.45651,3.37487 2.37727,-0.60733 2.45651,-3.86739 2.45652,5.92401 2.37727,-4.88271 2.45981,-0.48425 2.37727,0.34052 2.45652,-0.80416 2.45651,-0.96804 2.29803,-6.1563 2.45321,-0.79516 2.37727,-3.63932 2.45651,3.03708 2.37728,-0.51761 2.45651,5.70172 2.45651,-5.59403 2.37727,-0.24395 2.45982,-2.02657 2.37727,3.77016 2.45651,1.41006 2.45652,-2.83878 2.21878,2.68254 2.45321,-4.46411 2.37727,8.92564 2.45652,2.48767 2.37727,-4.49644 2.45651,-1.4159 2.45652,7.08392 2.37727,0.88249 2.45981,-3.14224 2.37727,-1.65998 2.45652,-0.81454 2.45651,1.66516 2.21879,-7.96872 2.45321,2.36333 2.37727,3.88715 2.45651,1.92678 2.37727,-0.51696 2.45652,0.32099 2.45651,1.01725 L 410,261.14366"
             data-legend="matplotlib"
             style="fill:none;stroke:#2ca02c"
             id="path186" />
          <path
             class="line"
             d="m 2.4565133,300 h 2.377271 2.4598151 2.377271 2.4565136 2.456513 2.218786 2.453212 2.377271 2.456513 2.377271 2.456513 2.456514 2.377271 2.459815 2.377271 L 41.050847,299.83168 43.507361,300 h 2.218786 2.453211 2.377271 2.456514 2.377271 2.456513 2.456513 L 62.680711,299.88163 65.140526,300 h 2.377271 L 69.974311,299.81108 72.430824,300 h 2.218786 2.453212 2.377271 l 2.456513,-0.076 2.377271,0.076 h 2.456513 2.456514 L 91.604175,299.9258 94.06399,300 96.441261,299.85502 98.897774,300 h 2.456516 2.29803 2.45321 l 2.37727,-0.056 2.45651,0.056 h 2.37727 2.45652 2.45651 2.37727 2.45982 2.37727 l 2.45651,-0.0479 2.45651,-10e-4 2.21879,0.0493 h 2.45321 2.37727 2.45652 2.37727 2.45651 2.45651 l 2.37727,-0.0409 2.45982,0.0409 2.37727,-0.0911 2.45651,0.0512 2.45652,-0.1206 2.21878,-0.0211 2.45321,-0.16794 2.37728,0.0927 2.45651,0.16407 2.37727,-0.16266 2.45651,-0.25151 2.45652,-0.0373 2.37727,0.0214 2.45981,0.0708 2.37727,-0.3728 2.45652,0.14308 2.45651,0.36801 2.21879,-0.60061 2.45321,0.079 2.37727,0.0628 2.45651,-0.27242 2.37727,-0.88692 2.45652,0.8913 2.45651,0.31839 2.37727,-1.02046 2.45982,-0.12181 2.37727,0.19998 2.45651,0.28743 2.45651,-0.46845 2.29803,-0.0667 2.45321,0.0675 2.37727,-0.11125 2.45652,0.31446 2.37727,0.10175 2.45651,-1.042 2.45652,1.03718 2.37727,-0.61452 2.45981,0.5174 2.37727,0.009 2.45652,-0.33755 2.45651,-0.10443 2.21879,-0.25411 2.45321,-0.42599 2.37727,0.48228 2.45651,-0.10578 2.37727,-0.69603 2.45652,-0.34022 2.45651,0.4255 2.37727,0.9418 2.45982,-0.23766 2.37727,0.25342 2.45651,-0.75532 2.45651,0.0155 2.21879,-0.20786 2.45321,-0.051 2.37727,-0.31565 2.45652,-0.33829 2.37727,-0.49747 2.45651,-0.75935 2.45651,0.83491 2.37727,-0.20313 2.45982,0.24746 2.37727,-1.17081 2.45651,0.39749 2.45652,0.68209 2.21878,-1.41734 2.45321,-0.12732 2.37728,-0.18072 2.45651,0.44959 2.37727,-0.6089 2.45651,0.65903 2.45652,1.26662 2.37727,-1.0628 2.45981,-0.5554 2.37727,-0.16394 2.45652,-0.46226 2.45651,-0.53919 2.29803,-0.77451 2.45321,-0.11546 2.37727,-1.30864 2.45651,-0.34039 2.37728,0.71912 2.45651,0.49636 2.45651,-0.28815 2.37727,-0.57314 2.45982,-0.45017 2.37727,1.73646 2.45651,-2.75449 2.45652,2.03726 2.21878,-0.64074 2.45321,-1.23235 2.37727,1.91498 2.45652,0.0891 2.37727,0.40221 2.45651,-1.35895 2.45652,1.64846 2.37727,0.46333 2.45981,-0.7567 2.37727,0.89683 2.45652,-0.43893 2.45651,1.0878 2.21879,-1.7719 2.45321,0.75853 2.37727,1.28341 2.45651,-0.30078 2.37727,0.77607 2.45652,-0.1962 2.45651,-0.18608 L 410,293.5153"
             data-legend="seaborn"
             style="fill:none;stroke:#d62728"
             id="path188" />
          <path
             class="line"
             d="m 2.4565133,300 h 2.377271 2.4598151 2.377271 2.4565136 2.456513 2.218786 2.453212 2.377271 2.456513 2.377271 2.456513 2.456514 2.377271 2.459815 2.377271 L 41.050847,299.83168 43.507361,300 h 2.218786 2.453211 2.377271 2.456514 2.377271 2.456513 2.456513 2.377271 2.459815 2.377271 l 2.456514,-0.0945 2.456513,0.0945 h 2.218786 l 2.453212,-0.0788 2.377271,0.0788 h 2.456513 l 2.377271,-0.0748 2.456513,0.0748 2.456514,-0.0738 2.377271,0.0738 2.459815,-0.27614 2.377271,0.13116 2.456513,0.0803 2.456516,-0.23895 2.29803,0.0224 2.45321,-0.12721 2.37727,0.0727 2.45651,-0.52755 2.37727,0.38548 2.45652,-0.64157 2.45651,-0.13503 2.37727,0.29815 2.45982,-0.11395 2.37727,0.17863 2.45651,-0.97602 2.45651,0.0928 2.21879,0.21016 2.45321,-0.37223 2.37727,-0.19343 2.45652,0.17467 2.37727,-0.1805 2.45651,0.23118 2.45651,0.12909 2.37727,-0.55661 2.45982,-0.78739 2.37727,-0.98042 2.45651,0.14708 2.45652,1.02371 2.21878,-0.66654 2.45321,-0.71515 2.37728,0.75824 2.45651,-0.62198 2.37727,-0.1674 2.45651,0.14856 2.45652,1.2003 2.37727,-0.92844 2.45981,0.034 2.37727,-0.96431 2.45652,-0.10222 2.45651,0.47156 2.21879,-0.36739 2.45321,-1.07687 2.37727,-0.61949 2.45651,0.63838 2.37727,-0.3125 2.45652,-0.27272 2.45651,1.22541 2.37727,-0.64893 2.45982,-1.71049 2.37727,0.006 2.45651,0.0269 2.45651,-0.14835 2.29803,-0.0182 2.45321,-0.38601 2.37727,-0.71422 2.45652,-0.12549 2.37727,-0.55072 2.45651,0.16868 2.45652,1.33746 2.37727,-1.38183 2.45981,-1.47346 2.37727,0.71659 2.45652,0.18987 2.45651,-0.0478 2.21879,-0.52702 2.45321,-0.97293 2.37727,1.58546 2.45651,-1.35472 2.37727,-2.76913 2.45652,1.43242 2.45651,0.9111 2.37727,-0.56115 2.45982,-0.12664 2.37727,-0.92488 2.45651,2.14086 2.45651,-3.7016 2.21879,-0.43815 2.45321,-0.18986 2.37727,2.54766 2.45652,-1.6127 2.37727,-0.23646 2.45651,-0.62073 2.45651,2.23341 2.37727,-1.70335 2.45982,0.70037 2.37727,-2.17153 2.45651,1.52623 2.45652,-1.75058 2.21878,1.69497 2.45321,-2.02719 2.37728,-0.6908 2.45651,1.51667 2.37727,-0.38451 2.45651,-0.79747 2.45652,1.68574 2.37727,-1.70115 2.45981,-0.13067 2.37727,-5.27192 2.45652,5.87135 2.45651,0.0783 2.29803,-0.41607 2.45321,0.53707 2.37727,-1.78414 2.45651,-0.92213 2.37728,1.46688 2.45651,1.65324 2.45651,0.55715 2.37727,-1.3088 2.45982,1.56864 2.37727,-1.41376 2.45651,2.11693 2.45652,-2.36632 2.21878,1.57253 2.45321,-0.54095 2.37727,0.0696 2.45652,1.1522 2.37727,-1.06866 2.45651,0.56037 2.45652,0.90311 2.37727,2.70671 2.45981,-5.05331 2.37727,2.60816 2.45652,-0.23292 2.45651,2.19082 2.21879,-2.49177 2.45321,2.08877 2.37727,-4.18243 2.45651,-1.27683 2.37727,3.84719 2.45652,0.3272 2.45651,0.29385 2.37727,0.79308"
             data-legend="scikit-learn"
             style="fill:none;stroke:#9467bd"
             id="path190" />
          <path
             class="line"
             d="m 2.4565133,300 h 2.377271 2.4598151 2.377271 2.4565136 2.456513 2.218786 2.453212 2.377271 2.456513 2.377271 2.456513 2.456514 2.377271 2.459815 2.377271 2.456513 2.456514 2.218786 2.453211 2.377271 2.456514 2.377271 2.456513 2.456513 2.377271 2.459815 2.377271 2.456514 2.456513 2.218786 2.453212 2.377271 2.456513 2.377271 2.456513 2.456514 L 91.604175,299.9258 94.06399,300 h 2.377271 2.456513 2.456516 2.29803 2.45321 2.37727 2.45651 2.37727 2.45652 2.45651 2.37727 2.45982 2.37727 2.45651 2.45651 2.21879 2.45321 2.37727 2.45652 l 2.37727,-0.0427 2.45651,0.0427 h 2.45651 2.37727 2.45982 l 2.37727,-0.0456 2.45651,0.0456 h 2.45652 2.21878 2.45321 2.37728 2.45651 2.37727 2.45651 2.45652 2.37727 2.45981 2.37727 2.45652 2.45651 2.21879 2.45321 2.37727 2.45651 2.37727 2.45652 2.45651 2.37727 l 2.45982,-8.43273 2.37727,0.41663 2.45651,0.96362 2.45651,-2.13521 2.29803,0.15127 2.45321,-1.41708 2.37727,-2.83921 2.45652,-6.98 2.37727,-0.30031 2.45651,-0.33099 2.45652,1.30978 2.37727,-4.63094 2.45981,-5.58491 2.37727,-1.16816 2.45652,-2.26219 2.45651,-8.12725 2.21879,-0.77939 2.45321,-1.93243 2.37727,-0.44088 2.45651,-6.65923 2.37727,-3.3611 2.45652,1.61259 2.45651,6.22156 2.37727,-6.21472 2.45982,0.31957 2.37727,-0.37771 2.45651,-0.77623 2.45651,1.7902 2.21879,-7.27113 2.45321,-5.61311 2.37727,-0.26193 2.45652,6.16287 2.37727,-2.63728 2.45651,0.75746 2.45651,7.39514 2.37727,2.47906 2.45982,-3.37322 2.37727,0.39061 2.45651,0.85162 2.45652,0.75616 2.21878,-7.90721 2.45321,-2.14179 2.37728,5.4523 2.45651,-0.0496 2.37727,-0.0314 2.45651,-0.49606 2.45652,6.93463 2.37727,-4.66438 2.45981,-2.78709 2.37727,-5.95906 2.45652,9.0438 2.45651,-2.52944 2.29803,-0.0139 2.45321,4.13793 2.37727,-6.4225 2.45651,0.72965 2.37728,-2.75186 2.45651,-1.00801 2.45651,6.55864 2.37727,2.49899 2.45982,-4.12156 2.37727,-3.198 2.45651,5.336 2.45652,-1.56095 2.21878,3.79029 2.45321,-1.32089 2.37727,1.50859 2.45652,3.5462 2.37727,0.54593 2.45651,1.16308 2.45652,7.58598 2.37727,-1.24423 2.45981,-8.74021 2.37727,2.15142 2.45652,-1.52773 2.45651,-1.17526 2.21879,4.06297 2.45321,-4.34512 2.37727,1.46894 2.45651,-4.6916 2.37727,6.85213 2.45652,1.74994 2.45651,8.23255 2.37727,-0.6186"
             data-legend="tensorflow"
             style="fill:none;stroke:#8c564b"
             id="path192" />
          <path
             class="line"
             d="m 2.4565133,300 h 2.377271 2.4598151 2.377271 2.4565136 2.456513 2.218786 2.453212 2.377271 2.456513 2.377271 2.456513 2.456514 2.377271 2.459815 2.377271 2.456513 2.456514 2.218786 2.453211 2.377271 2.456514 2.377271 2.456513 2.456513 2.377271 2.459815 2.377271 2.456514 2.456513 2.218786 2.453212 2.377271 2.456513 2.377271 2.456513 2.456514 L 91.604175,299.9258 94.06399,300 h 2.377271 2.456513 2.456516 2.29803 2.45321 2.37727 2.45651 2.37727 2.45652 2.45651 2.37727 2.45982 2.37727 2.45651 2.45651 2.21879 2.45321 2.37727 2.45652 2.37727 2.45651 2.45651 2.37727 2.45982 l 2.37727,-0.0456 2.45651,0.0456 h 2.45652 2.21878 2.45321 2.37728 2.45651 2.37727 2.45651 2.45652 2.37727 2.45981 2.37727 2.45652 2.45651 2.21879 2.45321 l 2.37727,-0.16265 2.45651,0.12246 2.37727,-0.0757 2.45652,-0.17546 2.45651,0.16392 2.37727,0.006 2.45982,-0.30218 2.37727,-0.10189 2.45651,-0.55935 2.45651,0.36282 2.29803,-0.66515 2.45321,-0.64956 2.37727,-0.47795 2.45652,0.0936 2.37727,-0.10228 2.45651,-0.22483 2.45652,-0.91455 2.37727,-1.56215 2.45981,-1.34182 2.37727,0.59515 2.45652,-2.89526 2.45651,-1.5506 2.21879,-3.29338 2.45321,0.14803 2.37727,-1.85891 2.45651,0.59886 2.37727,-2.86591 2.45652,2.40802 2.45651,-2.2341 2.37727,1.4917 2.45982,-2.52624 2.37727,0.26457 2.45651,-2.78275 2.45651,-0.60934 2.21879,-2.77122 2.45321,-2.63851 2.37727,-0.22396 2.45652,0.98027 2.37727,-4.79522 2.45651,-0.91968 2.45651,3.77564 2.37727,0.75624 2.45982,-2.79829 2.37727,-6.83461 2.45651,2.48564 2.45652,1.332 2.21878,-1.27417 2.45321,-8.35334 2.37728,4.87165 2.45651,1.03372 2.37727,-4.50931 2.45651,1.24713 2.45652,4.91524 2.37727,0.31759 2.45981,-0.73445 2.37727,-4.30086 2.45652,1.71785 2.45651,1.35921 2.29803,-1.70116 2.45321,2.71 2.37727,-4.57017 2.45651,1.935 2.37728,-2.90554 2.45651,2.26082 2.45651,4.4773 2.37727,0.27271 2.45982,-3.28305 2.37727,-0.84636 2.45651,5.69025 2.45652,-0.18464 2.21878,2.26909 2.45321,-3.23829 2.37727,3.21023 2.45652,0.93641 2.37727,3.02569 2.45651,0.4524 2.45652,2.579 2.37727,-1.46722 2.45981,-3.30903 2.37727,0.95039 2.45652,0.90216 2.45651,-2.39432 2.21879,4.44019 2.45321,-3.3415 2.37727,0.36591 2.45651,-1.16217 2.37727,1.51288 2.45652,2.81181 2.45651,3.67462 2.37727,0.006"
             data-legend="keras"
             style="fill:none;stroke:#e377c2"
             id="path194" />
          <path
             class="line"
             d="m 2.4565133,300 h 2.377271 2.4598151 2.377271 2.4565136 2.456513 2.218786 2.453212 2.377271 2.456513 2.377271 2.456513 2.456514 2.377271 2.459815 2.377271 2.456513 2.456514 2.218786 2.453211 2.377271 2.456514 2.377271 2.456513 2.456513 2.377271 2.459815 2.377271 2.456514 2.456513 2.218786 2.453212 2.377271 2.456513 2.377271 2.456513 2.456514 2.377271 2.459815 2.377271 2.456513 2.456516 2.29803 2.45321 2.37727 2.45651 2.37727 2.45652 2.45651 2.37727 2.45982 2.37727 2.45651 2.45651 2.21879 2.45321 2.37727 2.45652 2.37727 2.45651 2.45651 2.37727 2.45982 2.37727 2.45651 2.45652 2.21878 2.45321 2.37728 2.45651 2.37727 2.45651 2.45652 2.37727 2.45981 2.37727 2.45652 2.45651 2.21879 2.45321 2.37727 2.45651 2.37727 2.45652 2.45651 2.37727 2.45982 2.37727 l 2.45651,-0.0417 2.45651,0.0417 h 2.29803 2.45321 2.37727 2.45652 l 2.37727,-0.0428 2.45651,0.0428 h 2.45652 2.37727 2.45981 2.37727 l 2.45652,-0.17134 2.45651,0.0417 2.21879,-0.43378 2.45321,-0.36899 2.37727,-0.0821 2.45651,-1.36388 2.37727,0.94651 2.45652,0.0234 2.45651,-0.27287 2.37727,-0.27696 2.45982,-1.76046 2.37727,0.8537 2.45651,-0.15801 2.45651,-0.19374 2.21879,-0.63873 2.45321,-0.75983 2.37727,-0.13225 2.45652,-1.34365 2.37727,-0.0387 2.45651,0.0856 2.45651,0.0431 2.37727,-0.24952 2.45982,-1.66975 2.37727,-2.83223 2.45651,0.77712 2.45652,-0.14744 2.21878,-0.45121 2.45321,-0.87067 2.37728,0.89395 2.45651,-0.64247 2.37727,-0.88198 2.45651,-0.62274 2.45652,-0.36051 2.37727,-0.22686 2.45981,-1.5518 2.37727,-1.5864 2.45652,3.50409 2.45651,-2.64783 2.29803,0.17859 2.45321,-0.80357 2.37727,-3.94488 2.45651,-1.24497 2.37728,1.44149 2.45651,0.18412 2.45651,0.81584 2.37727,0.51285 2.45982,-1.47421 2.37727,-3.87577 2.45651,0.67909 2.45652,3.25809 2.21878,-3.24299 2.45321,-1.01715 2.37727,-0.96891 2.45652,0.69026 2.37727,-2.96583 2.45651,2.11638 2.45652,0.083 2.37727,1.69504 2.45981,-0.7669 2.37727,-1.96944 2.45652,0.0675 2.45651,0.86918 2.21879,-6.27338 2.45321,5.36815 2.37727,-0.7424 2.45651,-1.73422 2.37727,3.35727 2.45652,-3.23462 2.45651,4.15789 L 410,271.46731"
             data-legend="pytorch"
             style="fill:none;stroke:#7f7f7f"
             id="path196" />
        </g>
      </g>
      <g
         transform="translate(20,150)"
         id="g204">
        <text
           transform="rotate(-90)"
           x="-50"
           y="0"
           dy="1em"
           class="axis-label y-axis-label"
           style="font-weight:bold;text-anchor:middle"
           id="text202">% of Stack Overflow questions that month</text>
      </g>
      <g
         class="legend"
         transform="translate(530,30)"
         style="font-size:12px"
         id="g244">
        <text
           class="legend-title"
           style="font-weight:bold"
           id="text206">Tag</text>
        <g
           class="legend-items"
           transform="translate(0,20)"
           id="g240">
          <text
             y="0em"
             x="1em"
             id="text208">Pandas</text>
          <text
             y="1em"
             x="1em"
             id="text210">NumPy</text>
          <text
             y="2em"
             x="1em"
             id="text212">Tensorflow</text>
          <text
             y="3em"
             x="1em"
             id="text214">matplotlib</text>
          <text
             y="4em"
             x="1em"
             id="text216">Keras</text>
          <text
             y="5em"
             x="1em"
             id="text218">PyTorch</text>
          <text
             y="6em"
             x="1em"
             id="text220">Scikit-Learn</text>
          <text
             y="7em"
             x="1em"
             id="text222">seaborn</text>
          <circle
             cy="-0.25em"
             cx="0"
             r="0.40000001em"
             style="fill:#1f77b4"
             id="circle224" />
          <circle
             cy="0.75em"
             cx="0"
             r="0.40000001em"
             style="fill:#ff7f0e"
             id="circle226" />
          <circle
             cy="1.75em"
             cx="0"
             r="0.40000001em"
             style="fill:#8c564b"
             id="circle228" />
          <circle
             cy="2.75em"
             cx="0"
             r="0.40000001em"
             style="fill:#2ca02c"
             id="circle230" />
          <circle
             cy="3.75em"
             cx="0"
             r="0.40000001em"
             style="fill:#e377c2"
             id="circle232" />
          <circle
             cy="4.75em"
             cx="0"
             r="0.40000001em"
             style="fill:#7f7f7f"
             id="circle234" />
          <circle
             cy="5.75em"
             cx="0"
             r="0.40000001em"
             style="fill:#9467bd"
             id="circle236" />
          <circle
             cy="6.75em"
             cx="0"
             r="0.40000001em"
             style="fill:#d62728"
             id="circle238" />
        </g>
        <rect
           class="legend-box"
           id="rect242"
           width="0"
           height="0"
           x="0"
           y="0" />
      </g>
    </g>
  </g>
</svg>
