
            <svg id="trend-chart" width="660" height="400" title="Stack Overflow Trends Chart" version="1.1" xmlns="http://www.w3.org/2000/svg"><g></g><g class="chart-area" transform="translate(100, 20)"><g transform="translate(0,300)" fill="none" font-size="10" font-family="sans-serif" text-anchor="middle"><path class="domain" stroke="#000" d="M0.5,6V0.5H410.5V6"></path><g class="tick" opacity="1" transform="translate(12.27206793141665,0)"><line stroke="#000" y2="6" x1="0.5" x2="0.5"></line><text fill="#000" y="9" x="0.5" dy="0.71em" style="font-size: 12px;">2009</text></g><g class="tick" opacity="1" transform="translate(41.54059912640981,0)"><line stroke="#000" y2="6" x1="0.5" x2="0.5"></line><text fill="#000" y="9" x="0.5" dy="0.71em" style="font-size: 12px;">2010</text></g><g class="tick" opacity="1" transform="translate(70.80913032140296,0)"><line stroke="#000" y2="6" x1="0.5" x2="0.5"></line><text fill="#000" y="9" x="0.5" dy="0.71em" style="font-size: 12px;">2011</text></g><g class="tick" opacity="1" transform="translate(100.07766151639612,0)"><line stroke="#000" y2="6" x1="0.5" x2="0.5"></line><text fill="#000" y="9" x="0.5" dy="0.71em" style="font-size: 12px;">2012</text></g><g class="tick" opacity="1" transform="translate(129.4263804680879,0)"><line stroke="#000" y2="6" x1="0.5" x2="0.5"></line><text fill="#000" y="9" x="0.5" dy="0.71em" style="font-size: 12px;">2013</text></g><g class="tick" opacity="1" transform="translate(158.69491166308106,0)"><line stroke="#000" y2="6" x1="0.5" x2="0.5"></line><text fill="#000" y="9" x="0.5" dy="0.71em" style="font-size: 12px;">2014</text></g><g class="tick" opacity="1" transform="translate(187.9634428580742,0)"><line stroke="#000" y2="6" x1="0.5" x2="0.5"></line><text fill="#000" y="9" x="0.5" dy="0.71em" style="font-size: 12px;">2015</text></g><g class="tick" opacity="1" transform="translate(217.23197405306732,0)"><line stroke="#000" y2="6" x1="0.5" x2="0.5"></line><text fill="#000" y="9" x="0.5" dy="0.71em" style="font-size: 12px;">2016</text></g><g class="tick" opacity="1" transform="translate(246.5806930047591,0)"><line stroke="#000" y2="6" x1="0.5" x2="0.5"></line><text fill="#000" y="9" x="0.5" dy="0.71em" style="font-size: 12px;">2017</text></g><g class="tick" opacity="1" transform="translate(275.84922419975226,0)"><line stroke="#000" y2="6" x1="0.5" x2="0.5"></line><text fill="#000" y="9" x="0.5" dy="0.71em" style="font-size: 12px;">2018</text></g><g class="tick" opacity="1" transform="translate(305.1177553947454,0)"><line stroke="#000" y2="6" x1="0.5" x2="0.5"></line><text fill="#000" y="9" x="0.5" dy="0.71em" style="font-size: 12px;">2019</text></g><g class="tick" opacity="1" transform="translate(334.3862865897386,0)"><line stroke="#000" y2="6" x1="0.5" x2="0.5"></line><text fill="#000" y="9" x="0.5" dy="0.71em" style="font-size: 12px;">2020</text></g><g class="tick" opacity="1" transform="translate(363.7350055414303,0)"><line stroke="#000" y2="6" x1="0.5" x2="0.5"></line><text fill="#000" y="9" x="0.5" dy="0.71em" style="font-size: 12px;">2021</text></g><g class="tick" opacity="1" transform="translate(393.00353673642354,0)"><line stroke="#000" y2="6" x1="0.5" x2="0.5"></line><text fill="#000" y="9" x="0.5" dy="0.71em" style="font-size: 12px;">2022</text></g></g><g class="grid-lines" transform="translate(0,300)" fill="none" font-size="10" font-family="sans-serif" text-anchor="middle"><path class="domain" stroke="#000" d="M0.5,-300V0.5H410.5V-300"></path><g class="tick" opacity="1" transform="translate(12.27206793141665,0)"><line stroke="#000" y2="-300" x1="0.5" x2="0.5" style="stroke: #ccc; fill: none;"></line></g><g class="tick" opacity="1" transform="translate(41.54059912640981,0)"><line stroke="#000" y2="-300" x1="0.5" x2="0.5" style="stroke: #ccc; fill: none;"></line></g><g class="tick" opacity="1" transform="translate(70.80913032140296,0)"><line stroke="#000" y2="-300" x1="0.5" x2="0.5" style="stroke: #ccc; fill: none;"></line></g><g class="tick" opacity="1" transform="translate(100.07766151639612,0)"><line stroke="#000" y2="-300" x1="0.5" x2="0.5" style="stroke: #ccc; fill: none;"></line></g><g class="tick" opacity="1" transform="translate(129.4263804680879,0)"><line stroke="#000" y2="-300" x1="0.5" x2="0.5" style="stroke: #ccc; fill: none;"></line></g><g class="tick" opacity="1" transform="translate(158.69491166308106,0)"><line stroke="#000" y2="-300" x1="0.5" x2="0.5" style="stroke: #ccc; fill: none;"></line></g><g class="tick" opacity="1" transform="translate(187.9634428580742,0)"><line stroke="#000" y2="-300" x1="0.5" x2="0.5" style="stroke: #ccc; fill: none;"></line></g><g class="tick" opacity="1" transform="translate(217.23197405306732,0)"><line stroke="#000" y2="-300" x1="0.5" x2="0.5" style="stroke: #ccc; fill: none;"></line></g><g class="tick" opacity="1" transform="translate(246.5806930047591,0)"><line stroke="#000" y2="-300" x1="0.5" x2="0.5" style="stroke: #ccc; fill: none;"></line></g><g class="tick" opacity="1" transform="translate(275.84922419975226,0)"><line stroke="#000" y2="-300" x1="0.5" x2="0.5" style="stroke: #ccc; fill: none;"></line></g><g class="tick" opacity="1" transform="translate(305.1177553947454,0)"><line stroke="#000" y2="-300" x1="0.5" x2="0.5" style="stroke: #ccc; fill: none;"></line></g><g class="tick" opacity="1" transform="translate(334.3862865897386,0)"><line stroke="#000" y2="-300" x1="0.5" x2="0.5" style="stroke: #ccc; fill: none;"></line></g><g class="tick" opacity="1" transform="translate(363.7350055414303,0)"><line stroke="#000" y2="-300" x1="0.5" x2="0.5" style="stroke: #ccc; fill: none;"></line></g><g class="tick" opacity="1" transform="translate(393.00353673642354,0)"><line stroke="#000" y2="-300" x1="0.5" x2="0.5" style="stroke: #ccc; fill: none;"></line></g></g><text x="205" y="360" class="axis-label x-axis-label" style="text-anchor: middle; font-weight: bold;">Year</text><g fill="none" font-size="10" font-family="sans-serif" text-anchor="end"><path class="domain" stroke="#000" d="M-6,300.5H0.5V0.5H-6"></path><g class="tick" opacity="1" transform="translate(0,300)"><line stroke="#000" x2="-6" y1="0.5" y2="0.5"></line><text fill="#000" x="-9" y="0.5" dy="0.32em" style="font-size: 12px;">0.00%</text></g><g class="tick" opacity="1" transform="translate(0,266.6666666666667)"><line stroke="#000" x2="-6" y1="0.5" y2="0.5"></line><text fill="#000" x="-9" y="0.5" dy="0.32em" style="font-size: 12px;">0.10%</text></g><g class="tick" opacity="1" transform="translate(0,233.33333333333331)"><line stroke="#000" x2="-6" y1="0.5" y2="0.5"></line><text fill="#000" x="-9" y="0.5" dy="0.32em" style="font-size: 12px;">0.20%</text></g><g class="tick" opacity="1" transform="translate(0,200)"><line stroke="#000" x2="-6" y1="0.5" y2="0.5"></line><text fill="#000" x="-9" y="0.5" dy="0.32em" style="font-size: 12px;">0.30%</text></g><g class="tick" opacity="1" transform="translate(0,166.66666666666666)"><line stroke="#000" x2="-6" y1="0.5" y2="0.5"></line><text fill="#000" x="-9" y="0.5" dy="0.32em" style="font-size: 12px;">0.40%</text></g><g class="tick" opacity="1" transform="translate(0,133.33333333333331)"><line stroke="#000" x2="-6" y1="0.5" y2="0.5"></line><text fill="#000" x="-9" y="0.5" dy="0.32em" style="font-size: 12px;">0.50%</text></g><g class="tick" opacity="1" transform="translate(0,99.99999999999997)"><line stroke="#000" x2="-6" y1="0.5" y2="0.5"></line><text fill="#000" x="-9" y="0.5" dy="0.32em" style="font-size: 12px;">0.60%</text></g><g class="tick" opacity="1" transform="translate(0,66.66666666666663)"><line stroke="#000" x2="-6" y1="0.5" y2="0.5"></line><text fill="#000" x="-9" y="0.5" dy="0.32em" style="font-size: 12px;">0.70%</text></g><g class="tick" opacity="1" transform="translate(0,33.333333333333314)"><line stroke="#000" x2="-6" y1="0.5" y2="0.5"></line><text fill="#000" x="-9" y="0.5" dy="0.32em" style="font-size: 12px;">0.80%</text></g><g class="tick" opacity="1" transform="translate(0,0)"><line stroke="#000" x2="-6" y1="0.5" y2="0.5"></line><text fill="#000" x="-9" y="0.5" dy="0.32em" style="font-size: 12px;">0.90%</text></g></g><g class="grid-lines" fill="none" font-size="10" font-family="sans-serif" text-anchor="end"><path class="domain" stroke="#000" d="M410,300.5H0.5V0.5H410"></path><g class="tick" opacity="1" transform="translate(0,300)"><line stroke="#000" x2="410" y1="0.5" y2="0.5" style="stroke: #ccc; fill: none;"></line></g><g class="tick" opacity="1" transform="translate(0,266.6666666666667)"><line stroke="#000" x2="410" y1="0.5" y2="0.5" style="stroke: #ccc; fill: none;"></line></g><g class="tick" opacity="1" transform="translate(0,233.33333333333331)"><line stroke="#000" x2="410" y1="0.5" y2="0.5" style="stroke: #ccc; fill: none;"></line></g><g class="tick" opacity="1" transform="translate(0,200)"><line stroke="#000" x2="410" y1="0.5" y2="0.5" style="stroke: #ccc; fill: none;"></line></g><g class="tick" opacity="1" transform="translate(0,166.66666666666666)"><line stroke="#000" x2="410" y1="0.5" y2="0.5" style="stroke: #ccc; fill: none;"></line></g><g class="tick" opacity="1" transform="translate(0,133.33333333333331)"><line stroke="#000" x2="410" y1="0.5" y2="0.5" style="stroke: #ccc; fill: none;"></line></g><g class="tick" opacity="1" transform="translate(0,99.99999999999997)"><line stroke="#000" x2="410" y1="0.5" y2="0.5" style="stroke: #ccc; fill: none;"></line></g><g class="tick" opacity="1" transform="translate(0,66.66666666666663)"><line stroke="#000" x2="410" y1="0.5" y2="0.5" style="stroke: #ccc; fill: none;"></line></g><g class="tick" opacity="1" transform="translate(0,33.333333333333314)"><line stroke="#000" x2="410" y1="0.5" y2="0.5" style="stroke: #ccc; fill: none;"></line></g><g class="tick" opacity="1" transform="translate(0,0)"><line stroke="#000" x2="410" y1="0.5" y2="0.5" style="stroke: #ccc; fill: none;"></line></g></g><g class="lines"><path class="line" d="M2.4858204576569527,300L4.8914531586152945,300L7.380614772801357,300L9.786247473759698,300L12.27206793141665,300L14.757888389073603,300L17.003145576634722,300L19.485624877762568,300L21.891257578720907,300L24.37707803637786,300L26.782710737336203,300L29.268531194993155,300L31.754351652650108,300L34.15998435360845,300L36.64914596779451,300L39.05477866875285,300L41.54059912640981,300L44.02641958406676,300L46.27167677162788,300L48.75415607275572,300L51.15978877371406,300L53.64560923137102,300L56.051241932329354,300L58.53706238998631,300L61.02288284764326,300L63.428515548601595,300L65.91767716278767,300L68.32330986374602,300L70.80913032140296,300L73.2949507790599,300L75.54020796662103,299.667902071L78.02268726774888,299.2994476146667L80.42831996870721,299.33265263933333L82.91414042636417,300L85.3197731273225,299.66750123866666L87.80559358497946,299.687948574L90.29141404263642,300L92.69704674359477,298.68143459933333L95.18620835778081,299.693252475L97.59184105873916,299.35569708766667L100.07766151639612,299.712403188L102.56348197405308,299.19038173533335L104.8889269183128,299.2500374983333L107.37140621944064,299.22206836466665L109.77703892039898,299.0052572156667L112.26285937805595,297.69785056L114.66849207901429,298.58425121066665L117.15431253667123,299.289313406L119.64013299432818,296.95944661933333L122.04576569528652,297.0925226393333L124.5349273094726,296.3771807676667L126.94056001043093,294.79921245233334L129.4263804680879,297.2333773866667L131.91220092574483,296.275335932L134.15745811330595,295.5575643093333L136.6399374144338,298.04386438533334L139.04557011539214,296.77857105466666L141.5313905730491,296.60981754466667L143.93702327400743,296.2030170826667L146.4228437316644,298.03203841466666L148.90866418932134,297.9775180913333L151.31429689027968,295.45488427233335L153.80345850446574,296.20398998633334L156.20909120542407,295.752040538L158.69491166308106,295.212969661L161.18073212073799,293.051769661L163.4259893082991,292.9068410296667L165.90846860942696,293.45022950066664L168.3141013103853,289.3535312056667L170.79992176804225,290.3276060416667L173.2055544690006,290.9375141603333L175.69137492665755,285.66889413L178.1771953843145,285.89124975333334L180.58282808527284,284.315001249L183.0719896994589,287.7453934733333L185.47762240041723,290.08250921166666L187.9634428580742,286.06482884L190.44926331573114,290.836142255L192.69452050329227,286.39657688433334L195.17699980442012,286.389579721L197.58263250537846,285.546522132L200.0684529630354,283.389149364L202.47408566399375,282.1429184653333L204.95990612165068,285.94154643L207.44572657930763,282.4414336853333L209.851359280266,285.41273846133333L212.34052089445203,289.6438813226667L214.7461535954104,287.3497786213333L217.23197405306732,289.0599735956667L219.71779451072433,287.6970478266667L222.04323945498405,289.50272929066665L224.5257187561119,288.387026259L226.9313514570702,288.112600289L229.41717191472713,285.59122487366665L231.8228046156855,286.8834509073333L234.30862507334245,287.41495843266665L236.79444553099944,286.074745276L239.20007823195775,285.22228939366664L241.68923984614383,288.4783998803333L244.09487254710214,282.9961596206667L246.5806930047591,286.4830648033333L249.06651346241608,286.35966302633335L251.31177064997718,281.468217994L253.79424995110503,280.03394229833333L256.19988265206337,279.978896675L258.6857031097203,281.689026819L261.0913358106787,281.6561844866667L263.5771562683356,283.494311229L266.06297672599254,278.6182400943333L268.46860942695093,278.24014179533333L270.957771041137,282.077996559L273.36340374209533,287.497568972L275.84922419975226,288.8740542946667L278.3350446574092,279.32502815333334L280.58030184497034,286.370318448L283.0627811460982,291.29667159866665L285.4684138470565,285.532058547L287.95423430471345,274.892035754L290.3598670056718,280.99052060633335L292.8456874633288,283.156691804L295.33150792098576,281.28287195633334L297.73714062194404,278.954767482L300.22630223613015,273.14648704166666L302.63193493708843,284.155581963L305.1177553947454,286.65318412066665L307.6035758524024,282.69644723466666L309.8488330399635,283.425124574L312.33131234109135,277.53670106666664L314.7369450420497,284.36899881233336L317.2227654997066,286.318816354L319.628398200665,281.43899242833334L322.11421865832193,282.00676348533335L324.60003911597886,275.30150685533334L327.00567181693725,278.9894593436667L329.49483343112325,276.12486016L331.90046613208165,277.6177104953333L334.3862865897386,274.2732775156667L336.8721070473955,278.87386069766666L339.19755199165525,277.562318503L341.6800312927831,288.03733088933336L344.08566399374143,285.9261665043333L346.5714844513984,290.2047788926667L348.97711715235675,291.8896012523333L351.4629376100137,291.83273440066665L353.9487580676706,292.867230631L356.354390768629,294.778464489L358.84355238281506,292.2772035506667L361.2491850837734,292.972575476L363.7350055414303,293.030220005L366.22082599908725,286.4601455663333L368.4660831866484,285.77495986533336L370.94856248777626,290.378423986L373.3541951887346,289.2190857283333L375.8400156463916,288.8054067283333L378.24564834734986,292.15628997933334L380.73146880500684,287.36739194333336L383.2172892626638,288.96143942833334L385.6229219636221,288.557452317L388.1120835778082,290.34689947133336L390.5177162787665,289.94211688266665L393.00353673642354,287.601778668L395.48935719408047,287.5619160503333L397.73461438164156,283.925198591L400.2170936827694,289.3991740993333L402.62272638372775,283.2943927983333L405.1085468413847,287.538118696L407.5141795423431,289.916057326L410,286.0556423446667" data-legend="rstudio" style="stroke: rgb(31, 119, 180); fill: none;"></path><path class="line" d="M2.4858204576569527,300L4.8914531586152945,300L7.380614772801357,300L9.786247473759698,300L12.27206793141665,300L14.757888389073603,300L17.003145576634722,300L19.485624877762568,300L21.891257578720907,300L24.37707803637786,300L26.782710737336203,300L29.268531194993155,300L31.754351652650108,300L34.15998435360845,300L36.64914596779451,300L39.05477866875285,299.1088535403333L41.54059912640981,300L44.02641958406676,300L46.27167677162788,300L48.75415607275572,300L51.15978877371406,300L53.64560923137102,300L56.051241932329354,300L58.53706238998631,300L61.02288284764326,300L63.428515548601595,300L65.91767716278767,300L68.32330986374602,300L70.80913032140296,300L73.2949507790599,300L75.54020796662103,300L78.02268726774888,300L80.42831996870721,300L82.91414042636417,300L85.3197731273225,300L87.80559358497946,300L90.29141404263642,300L92.69704674359477,300L95.18620835778081,300L97.59184105873916,300L100.07766151639612,300L102.56348197405308,300L104.8889269183128,300L107.37140621944064,299.740689455L109.77703892039898,299.502628608L112.26285937805595,300L114.66849207901429,300L117.15431253667123,299.76310446866665L119.64013299432818,299.7466205516667L122.04576569528652,300L124.5349273094726,299.773573798L126.94056001043093,299.75234345033334L129.4263804680879,299.574365752L131.91220092574483,300L134.15745811330595,299.42055186666664L136.6399374144338,299.80438643866665L139.04557011539214,299.597321382L141.5313905730491,299.7881135966667L143.93702327400743,299.24060341666666L146.4228437316644,299.4096115246667L148.90866418932134,298.382014473L151.31429689027968,299.636390742L153.80345850446574,299.430598498L156.20909120542407,299.79771621633336L158.69491166308106,298.9362154803333L161.18073212073799,299.287360991L163.4259893082991,299.3551673663333L165.90846860942696,299.4829128553333L168.3141013103853,299.4296534576667L170.79992176804225,299.38261315166665L173.2055544690006,299.62239642366666L175.69137492665755,299.5905398323333L178.1771953843145,298.9922321253333L180.58282808527284,299.6127160803333L183.0719896994589,299.59820962233334L185.47762240041723,300L187.9634428580742,298.7882459863333L190.44926331573114,299.203142805L192.69452050329227,298.76332517133335L195.17699980442012,299.1162064756667L197.58263250537846,299.81933152666664L200.0684529630354,299.10694351433335L202.47408566399375,299.828297293L204.95990612165068,298.33518313L207.44572657930763,298.678387482L209.851359280266,298.91946210833333L212.34052089445203,299.058534666L214.7461535954104,292.60448596333333L217.23197405306732,287.20573183233336L219.71779451072433,283.0611528046667L222.04323945498405,282.8377955066667L224.5257187561119,282.92209744L226.9313514570702,281.193069114L229.41717191472713,281.21387546833336L231.8228046156855,282.5112678763333L234.30862507334245,280.75228936733333L236.79444553099944,282.740529356L239.20007823195775,280.61624972433333L241.68923984614383,278.1089597723333L244.09487254710214,279.47097320033333L246.5806930047591,276.773716986L249.06651346241608,274.25626542966666L251.31177064997718,272.7866624596667L253.79424995110503,268.9207592376667L256.19988265206337,271.5014925643333L258.6857031097203,272.439153769L261.0913358106787,270.61245882033336L263.5771562683356,267.55778414L266.06297672599254,265.54007626866667L268.46860942695093,269.1405647276667L270.957771041137,258.77939208566664L273.36340374209533,260.1774419103333L275.84922419975226,256.96568170566667L278.3350446574092,257.1104307433333L280.58030184497034,248.20721010166665L283.0627811460982,258.348356936L285.4684138470565,252.77824664633334L287.95423430471345,248.910751012L290.3598670056718,253.53238370433334L292.8456874633288,251.17572687433335L295.33150792098576,248.05996967833335L297.73714062194404,242.75696755066667L300.22630223613015,246.292974083L302.63193493708843,249.40008433333333L305.1177553947454,243.89812986233335L307.6035758524024,234.24649949133334L309.8488330399635,219.43351691599997L312.33131234109135,234.81238740833334L314.7369450420497,232.340094858L317.2227654997066,238.31029919533333L319.628398200665,224.637836726L322.11421865832193,231.72429432033334L324.60003911597886,233.31406850899998L327.00567181693725,225.46787156599999L329.49483343112325,233.60437301633334L331.90046613208165,232.853131486L334.3862865897386,227.41389013333333L336.8721070473955,225.478123999L339.19755199165525,233.7656901963333L341.6800312927831,220.31021961633334L344.08566399374143,224.21781963866664L346.5714844513984,224.57679747233334L348.97711715235675,222.74845192766665L351.4629376100137,225.13339867166667L353.9487580676706,230.09886018366666L356.354390768629,215.268719205L358.84355238281506,225.26326016633334L361.2491850837734,225.71008360133334L363.7350055414303,217.804663504L366.22082599908725,221.06009396166667L368.4660831866484,222.55255926566667L370.94856248777626,225.98787681433333L373.3541951887346,232.055168195L375.8400156463916,231.79108285566667L378.24564834734986,216.153444606L380.73146880500684,216.240316145L383.2172892626638,211.69151542666665L385.6229219636221,206.07575443366665L388.1120835778082,213.35753671733332L390.5177162787665,216.01667597033332L393.00353673642354,217.26571534166663L395.48935719408047,215.12836834299998L397.73461438164156,211.81185338L400.2170936827694,210.61576342833334L402.62272638372775,212.94261035733334L405.1085468413847,215.45468762233332L407.5141795423431,205.309318793L410,210.45107818233333" data-legend="jupyter-notebook" style="stroke: rgb(255, 127, 14); fill: none;"></path><path class="line" d="M2.4858204576569527,300L4.8914531586152945,300L7.380614772801357,300L9.786247473759698,300L12.27206793141665,300L14.757888389073603,300L17.003145576634722,300L19.485624877762568,300L21.891257578720907,300L24.37707803637786,300L26.782710737336203,300L29.268531194993155,300L31.754351652650108,300L34.15998435360845,300L36.64914596779451,300L39.05477866875285,300L41.54059912640981,300L44.02641958406676,299.24992499266665L46.27167677162788,300L48.75415607275572,300L51.15978877371406,300L53.64560923137102,300L56.051241932329354,300L58.53706238998631,300L61.02288284764326,300L63.428515548601595,300L65.91767716278767,300L68.32330986374602,300L70.80913032140296,300L73.2949507790599,300L75.54020796662103,300L78.02268726774888,300L80.42831996870721,300L82.91414042636417,300L85.3197731273225,300L87.80559358497946,300L90.29141404263642,300L92.69704674359477,300L95.18620835778081,300L97.59184105873916,300L100.07766151639612,300L102.56348197405308,300L104.8889269183128,300L107.37140621944064,300L109.77703892039898,300L112.26285937805595,299.744205618L114.66849207901429,300L117.15431253667123,300L119.64013299432818,299.7466205516667L122.04576569528652,300L124.5349273094726,300L126.94056001043093,300L129.4263804680879,300L131.91220092574483,300L134.15745811330595,300L136.6399374144338,300L139.04557011539214,300L141.5313905730491,299.7881135966667L143.93702327400743,299.62030170833333L146.4228437316644,300L148.90866418932134,300L151.31429689027968,300L153.80345850446574,300L156.20909120542407,299.79771621633336L158.69491166308106,300L161.18073212073799,300L163.4259893082991,300L165.90846860942696,300L168.3141013103853,300L170.79992176804225,300L173.2055544690006,300L175.69137492665755,300L178.1771953843145,300L180.58282808527284,300L183.0719896994589,300L185.47762240041723,300L187.9634428580742,300L190.44926331573114,300L192.69452050329227,300L195.17699980442012,284.44523396666665L197.58263250537846,270.009033424L200.0684529630354,288.3902656843333L202.47408566399375,289.6978375763333L204.95990612165068,291.12097669266666L207.44572657930763,292.0703248903333L209.851359280266,287.7539038936667L212.34052089445203,284.9365546513333L214.7461535954104,280.53812095566667L217.23197405306732,281.8284307183333L219.71779451072433,285.5574039703333L222.04323945498405,279.67195195933334L224.5257187561119,275.578599339L226.9313514570702,278.3542870933333L229.41717191472713,275.7421887113333L231.8228046156855,270.9154780983333L234.30862507334245,273.7194720206667L236.79444553099944,267.246231846L239.20007823195775,263.151682644L241.68923984614383,263.514932954L244.09487254710214,261.22294937833334L246.5806930047591,258.497297565L249.06651346241608,252.35487930233333L251.31177064997718,249.74714969533335L253.79424995110503,247.4478292563333L256.19988265206337,249.49631593666666L258.6857031097203,246.010945054L261.0913358106787,239.91464510333333L263.5771562683356,233.78752435566668L266.06297672599254,230.24979292933332L268.46860942695093,235.313876064L270.957771041137,230.701586695L273.36340374209533,233.7834208506667L275.84922419975226,227.36646765933332L278.3350446574092,216.86021959466666L280.58030184497034,217.63778147733333L283.0627811460982,208.615051785L285.4684138470565,216.4074493823333L287.95423430471345,201.96977437766665L290.3598670056718,195.02543045933334L292.8456874633288,202.777866614L295.33150792098576,201.03318546833333L297.73714062194404,193.721575783L300.22630223613015,198.453102258L302.63193493708843,186.27796731466668L305.1177553947454,189.605997471L307.6035758524024,187.41155000633333L309.8488330399635,184.18568056666663L312.33131234109135,195.17127164299998L314.7369450420497,186.563591379L317.2227654997066,184.5805597843333L319.628398200665,177.22899810833331L322.11421865832193,165.1739674843333L324.60003911597886,156.995724691L327.00567181693725,173.93675606099998L329.49483343112325,161.2968066433333L331.90046613208165,142.815285069L334.3862865897386,150.4634255593333L336.8721070473955,169.52867815399998L339.19755199165525,139.26853158333333L341.6800312927831,145.03742475033334L344.08566399374143,137.42917974833333L346.5714844513984,111.93175473566666L348.97711715235675,121.57122754966665L351.4629376100137,120.32015681166666L353.9487580676706,109.31729886799997L356.354390768629,110.8380089813333L358.84355238281506,106.18272136399995L361.2491850837734,91.68705874699998L363.7350055414303,94.99233324233333L366.22082599908725,83.10686010799998L368.4660831866484,94.75299233899995L370.94856248777626,87.09179230233332L373.3541951887346,82.12524413766667L375.8400156463916,62.830826265333286L378.24564834734986,83.89226529066667L380.73146880500684,31.969011663333276L383.2172892626638,31.714984366333283L385.6229219636221,50.88620147966665L388.1120835778082,27.829653383333323L390.5177162787665,26.174132130666635L393.00353673642354,24.854857360999972L395.48935719408047,12.216881162666652L397.73461438164156,14.67227498633332L400.2170936827694,25.583165888666656L402.62272638372775,25.88686774599995L405.1085468413847,43.92055672866667L407.5141795423431,2.1547663846666296L410,6.732728061333319" data-legend="visual-studio-code" style="stroke: rgb(44, 160, 44); fill: none;"></path></g></g><g transform="translate(20, 150)"><text transform="rotate(-90)" x="-50" y="0" dy="1em" class="axis-label y-axis-label" style="text-anchor: middle; font-weight: bold;">% of Stack Overflow questions that month</text></g><g class="legend" transform="translate(530, 30)" style="font-size: 12px;"><text class="legend-title" style="font-weight: bold;">Tag</text><g class="legend-items" transform="translate(0,20)"><text y="0em" x="1em">visual-studio-code</text><text y="1em" x="1em">jupyter-notebook</text><text y="2em" x="1em">rstudio</text><circle cy="-0.25em" cx="0" r="0.4em" style="fill: rgb(44, 160, 44);"></circle><circle cy="0.75em" cx="0" r="0.4em" style="fill: rgb(255, 127, 14);"></circle><circle cy="1.75em" cx="0" r="0.4em" style="fill: rgb(31, 119, 180);"></circle></g><rect class="legend-box"></rect></g></svg>
        