
            <svg id="trend-chart" width="660" height="400" title="Stack Overflow Trends Chart" version="1.1" xmlns="http://www.w3.org/2000/svg"><g></g><g class="chart-area" transform="translate(100, 20)"><g transform="translate(0,300)" fill="none" font-size="10" font-family="sans-serif" text-anchor="middle"><path class="domain" stroke="#000" d="M0.5,6V0.5H410.5V6"></path><g class="tick" opacity="1" transform="translate(12.27206793141665,0)"><line stroke="#000" y2="6" x1="0.5" x2="0.5"></line><text fill="#000" y="9" x="0.5" dy="0.71em" style="font-size: 12px;">2009</text></g><g class="tick" opacity="1" transform="translate(41.54059912640981,0)"><line stroke="#000" y2="6" x1="0.5" x2="0.5"></line><text fill="#000" y="9" x="0.5" dy="0.71em" style="font-size: 12px;">2010</text></g><g class="tick" opacity="1" transform="translate(70.80913032140296,0)"><line stroke="#000" y2="6" x1="0.5" x2="0.5"></line><text fill="#000" y="9" x="0.5" dy="0.71em" style="font-size: 12px;">2011</text></g><g class="tick" opacity="1" transform="translate(100.07766151639612,0)"><line stroke="#000" y2="6" x1="0.5" x2="0.5"></line><text fill="#000" y="9" x="0.5" dy="0.71em" style="font-size: 12px;">2012</text></g><g class="tick" opacity="1" transform="translate(129.4263804680879,0)"><line stroke="#000" y2="6" x1="0.5" x2="0.5"></line><text fill="#000" y="9" x="0.5" dy="0.71em" style="font-size: 12px;">2013</text></g><g class="tick" opacity="1" transform="translate(158.69491166308106,0)"><line stroke="#000" y2="6" x1="0.5" x2="0.5"></line><text fill="#000" y="9" x="0.5" dy="0.71em" style="font-size: 12px;">2014</text></g><g class="tick" opacity="1" transform="translate(187.9634428580742,0)"><line stroke="#000" y2="6" x1="0.5" x2="0.5"></line><text fill="#000" y="9" x="0.5" dy="0.71em" style="font-size: 12px;">2015</text></g><g class="tick" opacity="1" transform="translate(217.23197405306732,0)"><line stroke="#000" y2="6" x1="0.5" x2="0.5"></line><text fill="#000" y="9" x="0.5" dy="0.71em" style="font-size: 12px;">2016</text></g><g class="tick" opacity="1" transform="translate(246.5806930047591,0)"><line stroke="#000" y2="6" x1="0.5" x2="0.5"></line><text fill="#000" y="9" x="0.5" dy="0.71em" style="font-size: 12px;">2017</text></g><g class="tick" opacity="1" transform="translate(275.84922419975226,0)"><line stroke="#000" y2="6" x1="0.5" x2="0.5"></line><text fill="#000" y="9" x="0.5" dy="0.71em" style="font-size: 12px;">2018</text></g><g class="tick" opacity="1" transform="translate(305.1177553947454,0)"><line stroke="#000" y2="6" x1="0.5" x2="0.5"></line><text fill="#000" y="9" x="0.5" dy="0.71em" style="font-size: 12px;">2019</text></g><g class="tick" opacity="1" transform="translate(334.3862865897386,0)"><line stroke="#000" y2="6" x1="0.5" x2="0.5"></line><text fill="#000" y="9" x="0.5" dy="0.71em" style="font-size: 12px;">2020</text></g><g class="tick" opacity="1" transform="translate(363.7350055414303,0)"><line stroke="#000" y2="6" x1="0.5" x2="0.5"></line><text fill="#000" y="9" x="0.5" dy="0.71em" style="font-size: 12px;">2021</text></g><g class="tick" opacity="1" transform="translate(393.00353673642354,0)"><line stroke="#000" y2="6" x1="0.5" x2="0.5"></line><text fill="#000" y="9" x="0.5" dy="0.71em" style="font-size: 12px;">2022</text></g></g><g class="grid-lines" transform="translate(0,300)" fill="none" font-size="10" font-family="sans-serif" text-anchor="middle"><path class="domain" stroke="#000" d="M0.5,-300V0.5H410.5V-300"></path><g class="tick" opacity="1" transform="translate(12.27206793141665,0)"><line stroke="#000" y2="-300" x1="0.5" x2="0.5" style="stroke: #ccc; fill: none;"></line></g><g class="tick" opacity="1" transform="translate(41.54059912640981,0)"><line stroke="#000" y2="-300" x1="0.5" x2="0.5" style="stroke: #ccc; fill: none;"></line></g><g class="tick" opacity="1" transform="translate(70.80913032140296,0)"><line stroke="#000" y2="-300" x1="0.5" x2="0.5" style="stroke: #ccc; fill: none;"></line></g><g class="tick" opacity="1" transform="translate(100.07766151639612,0)"><line stroke="#000" y2="-300" x1="0.5" x2="0.5" style="stroke: #ccc; fill: none;"></line></g><g class="tick" opacity="1" transform="translate(129.4263804680879,0)"><line stroke="#000" y2="-300" x1="0.5" x2="0.5" style="stroke: #ccc; fill: none;"></line></g><g class="tick" opacity="1" transform="translate(158.69491166308106,0)"><line stroke="#000" y2="-300" x1="0.5" x2="0.5" style="stroke: #ccc; fill: none;"></line></g><g class="tick" opacity="1" transform="translate(187.9634428580742,0)"><line stroke="#000" y2="-300" x1="0.5" x2="0.5" style="stroke: #ccc; fill: none;"></line></g><g class="tick" opacity="1" transform="translate(217.23197405306732,0)"><line stroke="#000" y2="-300" x1="0.5" x2="0.5" style="stroke: #ccc; fill: none;"></line></g><g class="tick" opacity="1" transform="translate(246.5806930047591,0)"><line stroke="#000" y2="-300" x1="0.5" x2="0.5" style="stroke: #ccc; fill: none;"></line></g><g class="tick" opacity="1" transform="translate(275.84922419975226,0)"><line stroke="#000" y2="-300" x1="0.5" x2="0.5" style="stroke: #ccc; fill: none;"></line></g><g class="tick" opacity="1" transform="translate(305.1177553947454,0)"><line stroke="#000" y2="-300" x1="0.5" x2="0.5" style="stroke: #ccc; fill: none;"></line></g><g class="tick" opacity="1" transform="translate(334.3862865897386,0)"><line stroke="#000" y2="-300" x1="0.5" x2="0.5" style="stroke: #ccc; fill: none;"></line></g><g class="tick" opacity="1" transform="translate(363.7350055414303,0)"><line stroke="#000" y2="-300" x1="0.5" x2="0.5" style="stroke: #ccc; fill: none;"></line></g><g class="tick" opacity="1" transform="translate(393.00353673642354,0)"><line stroke="#000" y2="-300" x1="0.5" x2="0.5" style="stroke: #ccc; fill: none;"></line></g></g><text x="205" y="360" class="axis-label x-axis-label" style="text-anchor: middle; font-weight: bold;">Year</text><g fill="none" font-size="10" font-family="sans-serif" text-anchor="end"><path class="domain" stroke="#000" d="M-6,300.5H0.5V0.5H-6"></path><g class="tick" opacity="1" transform="translate(0,300)"><line stroke="#000" x2="-6" y1="0.5" y2="0.5"></line><text fill="#000" x="-9" y="0.5" dy="0.32em" style="font-size: 12px;">0.00%</text></g><g class="tick" opacity="1" transform="translate(0,262.5)"><line stroke="#000" x2="-6" y1="0.5" y2="0.5"></line><text fill="#000" x="-9" y="0.5" dy="0.32em" style="font-size: 12px;">0.50%</text></g><g class="tick" opacity="1" transform="translate(0,225)"><line stroke="#000" x2="-6" y1="0.5" y2="0.5"></line><text fill="#000" x="-9" y="0.5" dy="0.32em" style="font-size: 12px;">1.00%</text></g><g class="tick" opacity="1" transform="translate(0,187.5)"><line stroke="#000" x2="-6" y1="0.5" y2="0.5"></line><text fill="#000" x="-9" y="0.5" dy="0.32em" style="font-size: 12px;">1.50%</text></g><g class="tick" opacity="1" transform="translate(0,150)"><line stroke="#000" x2="-6" y1="0.5" y2="0.5"></line><text fill="#000" x="-9" y="0.5" dy="0.32em" style="font-size: 12px;">2.00%</text></g><g class="tick" opacity="1" transform="translate(0,112.5)"><line stroke="#000" x2="-6" y1="0.5" y2="0.5"></line><text fill="#000" x="-9" y="0.5" dy="0.32em" style="font-size: 12px;">2.50%</text></g><g class="tick" opacity="1" transform="translate(0,75)"><line stroke="#000" x2="-6" y1="0.5" y2="0.5"></line><text fill="#000" x="-9" y="0.5" dy="0.32em" style="font-size: 12px;">3.00%</text></g><g class="tick" opacity="1" transform="translate(0,37.49999999999994)"><line stroke="#000" x2="-6" y1="0.5" y2="0.5"></line><text fill="#000" x="-9" y="0.5" dy="0.32em" style="font-size: 12px;">3.50%</text></g><g class="tick" opacity="1" transform="translate(0,0)"><line stroke="#000" x2="-6" y1="0.5" y2="0.5"></line><text fill="#000" x="-9" y="0.5" dy="0.32em" style="font-size: 12px;">4.00%</text></g></g><g class="grid-lines" fill="none" font-size="10" font-family="sans-serif" text-anchor="end"><path class="domain" stroke="#000" d="M410,300.5H0.5V0.5H410"></path><g class="tick" opacity="1" transform="translate(0,300)"><line stroke="#000" x2="410" y1="0.5" y2="0.5" style="stroke: #ccc; fill: none;"></line></g><g class="tick" opacity="1" transform="translate(0,262.5)"><line stroke="#000" x2="410" y1="0.5" y2="0.5" style="stroke: #ccc; fill: none;"></line></g><g class="tick" opacity="1" transform="translate(0,225)"><line stroke="#000" x2="410" y1="0.5" y2="0.5" style="stroke: #ccc; fill: none;"></line></g><g class="tick" opacity="1" transform="translate(0,187.5)"><line stroke="#000" x2="410" y1="0.5" y2="0.5" style="stroke: #ccc; fill: none;"></line></g><g class="tick" opacity="1" transform="translate(0,150)"><line stroke="#000" x2="410" y1="0.5" y2="0.5" style="stroke: #ccc; fill: none;"></line></g><g class="tick" opacity="1" transform="translate(0,112.5)"><line stroke="#000" x2="410" y1="0.5" y2="0.5" style="stroke: #ccc; fill: none;"></line></g><g class="tick" opacity="1" transform="translate(0,75)"><line stroke="#000" x2="410" y1="0.5" y2="0.5" style="stroke: #ccc; fill: none;"></line></g><g class="tick" opacity="1" transform="translate(0,37.49999999999994)"><line stroke="#000" x2="410" y1="0.5" y2="0.5" style="stroke: #ccc; fill: none;"></line></g><g class="tick" opacity="1" transform="translate(0,0)"><line stroke="#000" x2="410" y1="0.5" y2="0.5" style="stroke: #ccc; fill: none;"></line></g></g><g class="lines"><path class="line" d="M2.4858204576569527,48.69735128100001L4.8914531586152945,97.28321289607499L7.380614772801357,116.85420158009998L9.786247473759698,143.907351460275L12.27206793141665,135.46967667885L14.757888389073603,148.13621721127498L17.003145576634722,157.630134954825L19.485624877762568,160.85409252675L21.891257578720907,149.453091308325L24.37707803637786,172.64505058455L26.782710737336203,168.507253158675L29.268531194993155,191.824695781125L31.754351652650108,194.43084455324998L34.15998435360845,198.048536402325L36.64914596779451,196.44310276942502L39.05477866875285,203.15465846812498L41.54059912640981,199.86536519692498L44.02641958406676,203.1278127813L46.27167677162788,210.705671227125L48.75415607275572,211.34537546069998L51.15978877371406,210.11170584135L53.64560923137102,210.79981924995002L56.051241932329354,213.4118465514L58.53706238998631,213.99490691685003L61.02288284764326,215.82325351769998L63.428515548601595,220.00378680300003L65.91767716278767,219.8863882746L68.32330986374602,213.924105592275L70.80913032140296,218.2051734126L73.2949507790599,227.80232586375L75.54020796662103,229.3876778385L78.02268726774888,231.3546231204L80.42831996870721,230.178782358075L82.91414042636417,224.140307492775L85.3197731273225,232.51937636535L87.80559358497946,235.405354802475L90.29141404263642,231.50583933000001L92.69704674359477,234.36016613925L95.18620835778081,236.296207680375L97.59184105873916,237.591209131125L100.07766151639612,232.314090230625L102.56348197405308,236.242561632225L104.8889269183128,236.721913904325L107.37140621944064,237.162572153175L109.77703892039898,236.827616049225L112.26285937805595,237.9570725868L114.66849207901429,238.25565591645L117.15431253667123,239.7693111315L119.64013299432818,240.9942609555L122.04576569528652,241.878409296825L124.5349273094726,241.51411201305L126.94056001043093,242.93993090385L129.4263804680879,240.624022371375L131.91220092574483,246.759213613875L134.15745811330595,243.547265584275L136.6399374144338,244.323490058925L139.04557011539214,247.2239336064L141.5313905730491,242.83834550625L143.93702327400743,243.87110002395L146.4228437316644,244.0754516472L148.90866418932134,243.57275474175L151.31429689027968,244.449595575675L153.80345850446574,246.1488529407L156.20909120542407,245.747489152575L158.69491166308106,241.877473299075L161.18073212073799,245.72363146589998L163.4259893082991,247.84110034245L165.90846860942696,251.94967707915L168.3141013103853,248.326603244175L170.79992176804225,248.046896705025L173.2055544690006,245.795006570325L175.69137492665755,244.999262971725L178.1771953843145,242.36071640205L180.58282808527284,246.235309836825L183.0719896994589,244.76386779495L185.47762240041723,249.4531366221L187.9634428580742,247.28870039385L190.44926331573114,247.64648227395L192.69452050329227,248.32465894275L195.17699980442012,249.01395156465L197.58263250537846,250.04065040655001L200.0684529630354,244.30006697925L202.47408566399375,244.17515736555L204.95990612165068,241.10710321867498L207.44572657930763,245.540124156075L209.851359280266,247.242737434725L212.34052089445203,248.10172344645L214.7461535954104,248.766603415575L217.23197405306732,243.76084731435L219.71779451072433,249.0898489947L222.04323945498405,249.8380421091L224.5257187561119,250.16241085335L226.9313514570702,248.742242141025L229.41717191472713,250.7137815375L231.8228046156855,247.904488711275L234.30862507334245,245.532680391825L236.79444553099944,249.648436350825L239.20007823195775,248.35478020559998L241.68923984614383,251.86851549945L244.09487254710214,251.99007141615L246.5806930047591,248.383393588425L249.06651346241608,250.07348491402502L251.31177064997718,250.152010698375L253.79424995110503,252.067334587875L256.19988265206337,249.63610291935L258.6857031097203,250.8152158524L261.0913358106787,251.398247978475L263.5771562683356,251.080553452875L266.06297672599254,255.3007043526L268.46860942695093,254.378479104675L270.957771041137,252.2826658383L273.36340374209533,254.99124829829998L275.84922419975226,255.6011789304L278.3350446574092,254.817488386875L280.58030184497034,258.512222903775L283.0627811460982,261.16139700855L285.4684138470565,256.144052470425L287.95423430471345,256.672386915975L290.3598670056718,256.896005474775L292.8456874633288,260.9992132683L295.33150792098576,260.9396934135L297.73714062194404,258.661902026025L300.22630223613015,260.1936160851L302.63193493708843,258.4275692874L305.1177553947454,258.059327727675L307.6035758524024,253.384228849875L309.8488330399635,258.977183320275L312.33131234109135,260.606641208325L314.7369450420497,259.253329403325L317.2227654997066,261.437718277125L319.628398200665,259.948476432L322.11421865832193,262.12177230915L324.60003911597886,256.09842843495L327.00567181693725,257.503416977475L329.49483343112325,253.6481213676L331.90046613208165,256.7360517642L334.3862865897386,252.0897219447L336.8721070473955,255.8092239975L339.19755199165525,254.2238935419L341.6800312927831,254.905338479175L344.08566399374143,253.92172783372501L346.5714844513984,254.29060070175L348.97711715235675,257.526855557925L351.4629376100137,256.662446912775L353.9487580676706,258.005820339825L356.354390768629,262.4583463872L358.84355238281506,261.5479473555L361.2491850837734,257.98604052315L363.7350055414303,255.49555135769998L366.22082599908725,257.464419561825L368.4660831866484,258.086935316775L370.94856248777626,258.423689800425L373.3541951887346,258.537355868025L375.8400156463916,257.942173417275L378.24564834734986,258.435098709075L380.73146880500684,258.2917967688L383.2172892626638,256.319695911675L385.6229219636221,252.424032210825L388.1120835778082,256.5610476204L390.5177162787665,253.834316491425L393.00353673642354,251.557526554875L395.48935719408047,253.576680787575L397.73461438164156,251.725362017925L400.2170936827694,253.75992020475002L402.62272638372775,255.37132329592498L405.1085468413847,255.96191062635L407.5141795423431,256.11640313145L410,245.8784618502" data-legend="windows" style="stroke: rgb(31, 119, 180); fill: none;"></path><path class="line" d="M2.4858204576569527,165.39296569695L4.8914531586152945,196.296553640925L7.380614772801357,197.05530284895L9.786247473759698,202.44209466270001L12.27206793141665,192.863975511825L14.757888389073603,213.713759779125L17.003145576634722,206.569776064125L19.485624877762568,219.92882562285L21.891257578720907,213.847179205725L24.37707803637786,213.666750080475L26.782710737336203,227.000467945725L29.268531194993155,229.81345357965L31.754351652650108,223.118115055125L34.15998435360845,213.05979484620002L36.64914596779451,212.19320120752502L39.05477866875285,230.624248095225L41.54059912640981,230.49478290142503L44.02641958406676,228.274077407775L46.27167677162788,231.5458387203L48.75415607275572,231.7344288045L51.15978877371406,232.36560390975L53.64560923137102,229.236330772725L56.051241932329354,229.9344066786L58.53706238998631,231.789064106475L61.02288284764326,223.47568501605002L63.428515548601595,224.973965729475L65.91767716278767,220.21161267944998L68.32330986374602,221.7393192081L70.80913032140296,224.061154068975L73.2949507790599,233.17390565445L75.54020796662103,226.622962579275L78.02268726774888,228.438573815475L80.42831996870721,227.85140843662498L82.91414042636417,228.853033881L85.3197731273225,234.09043301317502L87.80559358497946,232.667103538725L90.29141404263642,230.47363454055L92.69704674359477,224.64398734177502L95.18620835778081,222.354532654875L97.59184105873916,215.77350175417502L100.07766151639612,222.02531427142497L102.56348197405308,222.39808930095L104.8889269183128,217.035398230125L107.37140621944064,217.15028083335L109.77703892039898,224.29385696595L112.26285937805595,216.374421585L114.66849207901429,219.196137837375L117.15431253667123,222.49962688957498L119.64013299432818,223.606096309575L122.04576569528652,218.680094739075L124.5349273094726,223.275481438725L126.94056001043093,220.87373230807498L129.4263804680879,217.78342452547497L131.91220092574483,219.05428588335002L134.15745811330595,222.55675694475002L136.6399374144338,225.04577357340003L139.04557011539214,222.534700829925L141.5313905730491,226.724384523L143.93702327400743,223.45282438574998L146.4228437316644,220.1204392491L148.90866418932134,213.94845098115L151.31429689027968,214.833621493725L153.80345850446574,211.6004168019L156.20909120542407,212.74994690055001L158.69491166308106,216.30675290415L161.18073212073799,215.05788410355L163.4259893082991,212.040798560775L165.90846860942696,211.65566132865L168.3141013103853,218.72561768535002L170.79992176804225,216.884295530775L173.2055544690006,218.77747066027501L175.69137492665755,217.268573113275L178.1771953843145,211.79511676005L180.58282808527284,214.2553401612L183.0719896994589,212.173645765575L185.47762240041723,220.29894766799998L187.9634428580742,214.88942744625L190.44926331573114,213.087781788675L192.69452050329227,211.436415480375L195.17699980442012,212.42489964524998L197.58263250537846,218.5365853659L200.0684529630354,212.029470864075L202.47408566399375,217.866010075575L204.95990612165068,224.2508324085L207.44572657930763,220.1368435362L209.851359280266,214.82660068185L212.34052089445203,217.937174135325L214.7461535954104,223.54400817405L217.23197405306732,221.56557340575L219.71779451072433,221.6087982156L222.04323945498405,221.7203527083L224.5257187561119,219.1147839987L226.9313514570702,220.95766311465002L229.41717191472713,222.397802570625L231.8228046156855,220.74467781765L234.30862507334245,223.545872476575L236.79444553099944,225.8627283693L239.20007823195775,220.84808705415L241.68923984614383,221.53790318400002L244.09487254710214,222.642894468375L246.5806930047591,224.8667820366L249.06651346241608,225.30474626092501L251.31177064997718,223.105626148875L253.79424995110503,219.646035701625L256.19988265206337,222.688780065525L258.6857031097203,227.07230191590003L261.0913358106787,227.89757412405L263.5771562683356,228.456376602975L266.06297672599254,222.69871024395002L268.46860942695093,227.228110571775L270.957771041137,226.56459090045L273.36340374209533,224.93332036785L275.84922419975226,226.978109177025L278.3350446574092,234.7253747889L280.58030184497034,239.936914045425L283.0627811460982,239.201034452775L285.4684138470565,237.787851751875L287.95423430471345,242.131600665525L290.3598670056718,244.0170831855L292.8456874633288,244.065292338075L295.33150792098576,242.56766241795L297.73714062194404,240.100006944975L300.22630223613015,242.27058863355L302.63193493708843,250.6650822249L305.1177553947454,248.184946149L307.6035758524024,249.854304085725L309.8488330399635,249.01652242335L312.33131234109135,246.0880825593L314.7369450420497,246.54197593725L317.2227654997066,250.803707352075L319.628398200665,246.111580727025L322.11421865832193,251.03005116982501L324.60003911597886,249.65212172407502L327.00567181693725,243.470587454775L329.49483343112325,246.741384485325L331.90046613208165,245.290562812875L334.3862865897386,236.739827033775L336.8721070473955,237.63145798222502L339.19755199165525,233.98143713355L341.6800312927831,236.60245473975L344.08566399374143,232.2020136408L346.5714844513984,233.265158594475L348.97711715235675,234.8532220587L351.4629376100137,243.033322443675L353.9487580676706,239.8172584488L356.354390768629,238.213807638675L358.84355238281506,242.658236362425L361.2491850837734,236.52729777960002L363.7350055414303,236.8934488875L366.22082599908725,233.322603637425L368.4660831866484,232.634274218175L370.94856248777626,236.1090346599L373.3541951887346,236.53676918565L375.8400156463916,234.5702057202L378.24564834734986,240.299900195625L380.73146880500684,234.317303652225L383.2172892626638,237.26018127240002L385.6229219636221,239.6048030094L388.1120835778082,233.78208478725L390.5177162787665,233.2408008087L393.00353673642354,236.268373806375L395.48935719408047,235.193924361825L397.73461438164156,230.92858769474998L400.2170936827694,232.347456524625L402.62272638372775,231.971708701275L405.1085468413847,235.61972202675L407.5141795423431,230.9926288839L410,228.6713423841" data-legend="linux" style="stroke: rgb(255, 127, 14); fill: none;"></path><path class="line" d="M2.4858204576569527,212.071211463375L4.8914531586152945,244.239855475275L7.380614772801357,241.34546325120002L9.786247473759698,241.46525679765L12.27206793141665,247.86684522675L14.757888389073603,253.836861481875L17.003145576634722,241.7914874685L19.485624877762568,251.601423487575L21.891257578720907,238.840318344L24.37707803637786,249.86236728277498L26.782710737336203,248.759943846525L29.268531194993155,248.576193711825L31.754351652650108,240.33047735625001L34.15998435360845,247.04361604537502L36.64914596779451,236.408977556175L39.05477866875285,236.0379628392L41.54059912640981,241.265567149125L44.02641958406676,239.075157515775L46.27167677162788,252.5307295989L48.75415607275572,253.331722346475L51.15978877371406,250.401442867125L53.64560923137102,251.33303208315L56.051241932329354,253.910753329425L58.53706238998631,249.82047672525L61.02288284764326,256.800789928425L63.428515548601595,256.09675281645L65.91767716278767,250.78270673437498L68.32330986374602,248.33275442865L70.80913032140296,246.257209782675L73.2949507790599,250.927432081425L75.54020796662103,250.2351253338L78.02268726774888,253.1067746919L80.42831996870721,254.728823399925L82.91414042636417,256.369275051L85.3197731273225,246.733698417L87.80559358497946,248.81576483805L90.29141404263642,249.348236404425L92.69704674359477,253.49584651905L95.18620835778081,253.619774172525L97.59184105873916,253.827642527925L100.07766151639612,255.54472274235002L102.56348197405308,256.159170950925L104.8889269183128,254.833508324625L107.37140621944064,254.6076890763L109.77703892039898,257.9783345022L112.26285937805595,255.798730748325L114.66849207901429,254.660645015175L117.15431253667123,254.69372961225L119.64013299432818,256.786135076625L122.04576569528652,256.773639468375L124.5349273094726,257.25639370995L126.94056001043093,256.2019391508L129.4263804680879,256.8566485134L131.91220092574483,257.062291720125L134.15745811330595,260.97416820225L136.6399374144338,262.588906363725L139.04557011539214,262.9888015077L141.5313905730491,264.1488205344L143.93702327400743,261.85456036635003L146.4228437316644,259.971661353225L148.90866418932134,261.00149259165L151.31429689027968,252.7944280518L153.80345850446574,254.64717035925L156.20909120542407,261.449767879425L158.69491166308106,257.75445725715L161.18073212073799,258.070102299375L163.4259893082991,261.660669723225L165.90846860942696,261.80018718555L168.3141013103853,260.8171925262L170.79992176804225,256.752051267825L173.2055544690006,259.0064117088L175.69137492665755,258.08151533025L178.1771953843145,256.600476472725L180.58282808527284,250.766531698275L183.0719896994589,253.9397555508L185.47762240041723,255.953405041125L187.9634428580742,255.19539533475L190.44926331573114,259.74875092635L192.69452050329227,258.5007261048L195.17699980442012,258.39983879609997L197.58263250537846,259.39024390245L200.0684529630354,258.204956463525L202.47408566399375,258.77847260145L204.95990612165068,259.4200887903L207.44572657930763,255.94782273779998L209.851359280266,255.508852306725L212.34052089445203,256.574911455225L214.7461535954104,259.407385783125L217.23197405306732,259.36429175385L219.71779451072433,261.446292264675L222.04323945498405,258.573270949575L224.5257187561119,262.30479957375L226.9313514570702,263.8720631913L229.41717191472713,263.2302649938L231.8228046156855,262.31843559495L234.30862507334245,264.354720501075L236.79444553099944,261.430967020725L239.20007823195775,259.452457034325L241.68923984614383,263.31810561855L244.09487254710214,264.820713165975L246.5806930047591,259.9489402533L249.06651346241608,267.191147229225L251.31177064997718,266.15445489015L253.79424995110503,266.688704673825L256.19988265206337,266.924596196025L258.6857031097203,266.912826553575L261.0913358106787,269.12904312675L263.5771562683356,265.08193082415L266.06297672599254,262.02661717725L268.46860942695093,264.7490297082L270.957771041137,268.815714012675L273.36340374209533,267.545772789225L275.84922419975226,265.425598911825L278.3350446574092,266.892551731425L280.58030184497034,271.1732235171L283.0627811460982,268.668017754825L285.4684138470565,272.9178220926L287.95423430471345,272.0974101681L290.3598670056718,271.5808283064L292.8456874633288,272.12858906385003L295.33150792098576,270.6784490988L297.73714062194404,268.369015525125L300.22630223613015,269.739024472875L302.63193493708843,270.0425499291L305.1177553947454,269.307978907575L307.6035758524024,268.69787304735L309.8488330399635,272.619984264375L312.33131234109135,272.697181516725L314.7369450420497,274.8787480908L317.2227654997066,271.959792245025L319.628398200665,272.5274725275L322.11421865832193,269.8859771067L324.60003911597886,270.769333362975L327.00567181693725,266.510304011475L329.49483343112325,268.126688313525L331.90046613208165,266.06412525945L334.3862865897386,266.04417186375L336.8721070473955,267.196445236875L339.19755199165525,268.6897256994L341.6800312927831,265.216239047325L344.08566399374143,268.49626502115L346.5714844513984,271.8779202003L348.97711715235675,268.65837783915L351.4629376100137,271.77188827185L353.9487580676706,268.33050400155L356.354390768629,270.735666885075L358.84355238281506,266.1442568553L361.2491850837734,266.004833864175L363.7350055414303,261.7142774742L366.22082599908725,265.224288966075L368.4660831866484,262.3544473572L370.94856248777626,270.080599202175L373.3541951887346,267.45041406232497L375.8400156463916,270.88754900895L378.24564834734986,270.302091024975L380.73146880500684,272.750640555675L383.2172892626638,268.900055432775L385.6229219636221,271.8406053108L388.1120835778082,271.393860628125L390.5177162787665,271.599052547475L393.00353673642354,270.762848252925L395.48935719408047,272.0143111131L397.73461438164156,269.96021486655L400.2170936827694,273.4919120517L402.62272638372775,275.4886390107L405.1085468413847,272.895408163275L407.5141795423431,273.880128976125L410,266.81133937740003" data-legend="macos" style="stroke: rgb(44, 160, 44); fill: none;"></path></g></g><g transform="translate(20, 150)"><text transform="rotate(-90)" x="-50" y="0" dy="1em" class="axis-label y-axis-label" style="text-anchor: middle; font-weight: bold;">% of Stack Overflow questions that month</text></g><g class="legend" transform="translate(530, 30)" style="font-size: 12px;"><text class="legend-title" style="font-weight: bold;">Tag</text><g class="legend-items" transform="translate(0,20)"><text y="0em" x="1em">windows</text><text y="1em" x="1em">linux</text><text y="2em" x="1em">macos</text><circle cy="-0.25em" cx="0" r="0.4em" style="fill: rgb(31, 119, 180);"></circle><circle cy="0.75em" cx="0" r="0.4em" style="fill: rgb(255, 127, 14);"></circle><circle cy="1.75em" cx="0" r="0.4em" style="fill: rgb(44, 160, 44);"></circle></g><rect class="legend-box"></rect></g></svg>
        