
            <svg id="trend-chart" width="660" height="400" title="Stack Overflow Trends Chart" version="1.1" xmlns="http://www.w3.org/2000/svg"><g></g><g class="chart-area" transform="translate(100, 20)"><g transform="translate(0,300)" fill="none" font-size="10" font-family="sans-serif" text-anchor="middle"><path class="domain" stroke="#000" d="M0.5,6V0.5H410.5V6"></path><g class="tick" opacity="1" transform="translate(12.27206793141665,0)"><line stroke="#000" y2="6" x1="0.5" x2="0.5"></line><text fill="#000" y="9" x="0.5" dy="0.71em" style="font-size: 12px;">2009</text></g><g class="tick" opacity="1" transform="translate(41.54059912640981,0)"><line stroke="#000" y2="6" x1="0.5" x2="0.5"></line><text fill="#000" y="9" x="0.5" dy="0.71em" style="font-size: 12px;">2010</text></g><g class="tick" opacity="1" transform="translate(70.80913032140296,0)"><line stroke="#000" y2="6" x1="0.5" x2="0.5"></line><text fill="#000" y="9" x="0.5" dy="0.71em" style="font-size: 12px;">2011</text></g><g class="tick" opacity="1" transform="translate(100.07766151639612,0)"><line stroke="#000" y2="6" x1="0.5" x2="0.5"></line><text fill="#000" y="9" x="0.5" dy="0.71em" style="font-size: 12px;">2012</text></g><g class="tick" opacity="1" transform="translate(129.4263804680879,0)"><line stroke="#000" y2="6" x1="0.5" x2="0.5"></line><text fill="#000" y="9" x="0.5" dy="0.71em" style="font-size: 12px;">2013</text></g><g class="tick" opacity="1" transform="translate(158.69491166308106,0)"><line stroke="#000" y2="6" x1="0.5" x2="0.5"></line><text fill="#000" y="9" x="0.5" dy="0.71em" style="font-size: 12px;">2014</text></g><g class="tick" opacity="1" transform="translate(187.9634428580742,0)"><line stroke="#000" y2="6" x1="0.5" x2="0.5"></line><text fill="#000" y="9" x="0.5" dy="0.71em" style="font-size: 12px;">2015</text></g><g class="tick" opacity="1" transform="translate(217.23197405306732,0)"><line stroke="#000" y2="6" x1="0.5" x2="0.5"></line><text fill="#000" y="9" x="0.5" dy="0.71em" style="font-size: 12px;">2016</text></g><g class="tick" opacity="1" transform="translate(246.5806930047591,0)"><line stroke="#000" y2="6" x1="0.5" x2="0.5"></line><text fill="#000" y="9" x="0.5" dy="0.71em" style="font-size: 12px;">2017</text></g><g class="tick" opacity="1" transform="translate(275.84922419975226,0)"><line stroke="#000" y2="6" x1="0.5" x2="0.5"></line><text fill="#000" y="9" x="0.5" dy="0.71em" style="font-size: 12px;">2018</text></g><g class="tick" opacity="1" transform="translate(305.1177553947454,0)"><line stroke="#000" y2="6" x1="0.5" x2="0.5"></line><text fill="#000" y="9" x="0.5" dy="0.71em" style="font-size: 12px;">2019</text></g><g class="tick" opacity="1" transform="translate(334.3862865897386,0)"><line stroke="#000" y2="6" x1="0.5" x2="0.5"></line><text fill="#000" y="9" x="0.5" dy="0.71em" style="font-size: 12px;">2020</text></g><g class="tick" opacity="1" transform="translate(363.7350055414303,0)"><line stroke="#000" y2="6" x1="0.5" x2="0.5"></line><text fill="#000" y="9" x="0.5" dy="0.71em" style="font-size: 12px;">2021</text></g><g class="tick" opacity="1" transform="translate(393.00353673642354,0)"><line stroke="#000" y2="6" x1="0.5" x2="0.5"></line><text fill="#000" y="9" x="0.5" dy="0.71em" style="font-size: 12px;">2022</text></g></g><g class="grid-lines" transform="translate(0,300)" fill="none" font-size="10" font-family="sans-serif" text-anchor="middle"><path class="domain" stroke="#000" d="M0.5,-300V0.5H410.5V-300"></path><g class="tick" opacity="1" transform="translate(12.27206793141665,0)"><line stroke="#000" y2="-300" x1="0.5" x2="0.5" style="stroke: #ccc; fill: none;"></line></g><g class="tick" opacity="1" transform="translate(41.54059912640981,0)"><line stroke="#000" y2="-300" x1="0.5" x2="0.5" style="stroke: #ccc; fill: none;"></line></g><g class="tick" opacity="1" transform="translate(70.80913032140296,0)"><line stroke="#000" y2="-300" x1="0.5" x2="0.5" style="stroke: #ccc; fill: none;"></line></g><g class="tick" opacity="1" transform="translate(100.07766151639612,0)"><line stroke="#000" y2="-300" x1="0.5" x2="0.5" style="stroke: #ccc; fill: none;"></line></g><g class="tick" opacity="1" transform="translate(129.4263804680879,0)"><line stroke="#000" y2="-300" x1="0.5" x2="0.5" style="stroke: #ccc; fill: none;"></line></g><g class="tick" opacity="1" transform="translate(158.69491166308106,0)"><line stroke="#000" y2="-300" x1="0.5" x2="0.5" style="stroke: #ccc; fill: none;"></line></g><g class="tick" opacity="1" transform="translate(187.9634428580742,0)"><line stroke="#000" y2="-300" x1="0.5" x2="0.5" style="stroke: #ccc; fill: none;"></line></g><g class="tick" opacity="1" transform="translate(217.23197405306732,0)"><line stroke="#000" y2="-300" x1="0.5" x2="0.5" style="stroke: #ccc; fill: none;"></line></g><g class="tick" opacity="1" transform="translate(246.5806930047591,0)"><line stroke="#000" y2="-300" x1="0.5" x2="0.5" style="stroke: #ccc; fill: none;"></line></g><g class="tick" opacity="1" transform="translate(275.84922419975226,0)"><line stroke="#000" y2="-300" x1="0.5" x2="0.5" style="stroke: #ccc; fill: none;"></line></g><g class="tick" opacity="1" transform="translate(305.1177553947454,0)"><line stroke="#000" y2="-300" x1="0.5" x2="0.5" style="stroke: #ccc; fill: none;"></line></g><g class="tick" opacity="1" transform="translate(334.3862865897386,0)"><line stroke="#000" y2="-300" x1="0.5" x2="0.5" style="stroke: #ccc; fill: none;"></line></g><g class="tick" opacity="1" transform="translate(363.7350055414303,0)"><line stroke="#000" y2="-300" x1="0.5" x2="0.5" style="stroke: #ccc; fill: none;"></line></g><g class="tick" opacity="1" transform="translate(393.00353673642354,0)"><line stroke="#000" y2="-300" x1="0.5" x2="0.5" style="stroke: #ccc; fill: none;"></line></g></g><text x="205" y="360" class="axis-label x-axis-label" style="text-anchor: middle; font-weight: bold;">Year</text><g fill="none" font-size="10" font-family="sans-serif" text-anchor="end"><path class="domain" stroke="#000" d="M-6,300.5H0.5V0.5H-6"></path><g class="tick" opacity="1" transform="translate(0,300)"><line stroke="#000" x2="-6" y1="0.5" y2="0.5"></line><text fill="#000" x="-9" y="0.5" dy="0.32em" style="font-size: 12px;">0.00%</text></g><g class="tick" opacity="1" transform="translate(0,262.5)"><line stroke="#000" x2="-6" y1="0.5" y2="0.5"></line><text fill="#000" x="-9" y="0.5" dy="0.32em" style="font-size: 12px;">0.50%</text></g><g class="tick" opacity="1" transform="translate(0,225)"><line stroke="#000" x2="-6" y1="0.5" y2="0.5"></line><text fill="#000" x="-9" y="0.5" dy="0.32em" style="font-size: 12px;">1.00%</text></g><g class="tick" opacity="1" transform="translate(0,187.5)"><line stroke="#000" x2="-6" y1="0.5" y2="0.5"></line><text fill="#000" x="-9" y="0.5" dy="0.32em" style="font-size: 12px;">1.50%</text></g><g class="tick" opacity="1" transform="translate(0,150)"><line stroke="#000" x2="-6" y1="0.5" y2="0.5"></line><text fill="#000" x="-9" y="0.5" dy="0.32em" style="font-size: 12px;">2.00%</text></g><g class="tick" opacity="1" transform="translate(0,112.5)"><line stroke="#000" x2="-6" y1="0.5" y2="0.5"></line><text fill="#000" x="-9" y="0.5" dy="0.32em" style="font-size: 12px;">2.50%</text></g><g class="tick" opacity="1" transform="translate(0,75)"><line stroke="#000" x2="-6" y1="0.5" y2="0.5"></line><text fill="#000" x="-9" y="0.5" dy="0.32em" style="font-size: 12px;">3.00%</text></g><g class="tick" opacity="1" transform="translate(0,37.49999999999994)"><line stroke="#000" x2="-6" y1="0.5" y2="0.5"></line><text fill="#000" x="-9" y="0.5" dy="0.32em" style="font-size: 12px;">3.50%</text></g><g class="tick" opacity="1" transform="translate(0,0)"><line stroke="#000" x2="-6" y1="0.5" y2="0.5"></line><text fill="#000" x="-9" y="0.5" dy="0.32em" style="font-size: 12px;">4.00%</text></g></g><g class="grid-lines" fill="none" font-size="10" font-family="sans-serif" text-anchor="end"><path class="domain" stroke="#000" d="M410,300.5H0.5V0.5H410"></path><g class="tick" opacity="1" transform="translate(0,300)"><line stroke="#000" x2="410" y1="0.5" y2="0.5" style="stroke: #ccc; fill: none;"></line></g><g class="tick" opacity="1" transform="translate(0,262.5)"><line stroke="#000" x2="410" y1="0.5" y2="0.5" style="stroke: #ccc; fill: none;"></line></g><g class="tick" opacity="1" transform="translate(0,225)"><line stroke="#000" x2="410" y1="0.5" y2="0.5" style="stroke: #ccc; fill: none;"></line></g><g class="tick" opacity="1" transform="translate(0,187.5)"><line stroke="#000" x2="410" y1="0.5" y2="0.5" style="stroke: #ccc; fill: none;"></line></g><g class="tick" opacity="1" transform="translate(0,150)"><line stroke="#000" x2="410" y1="0.5" y2="0.5" style="stroke: #ccc; fill: none;"></line></g><g class="tick" opacity="1" transform="translate(0,112.5)"><line stroke="#000" x2="410" y1="0.5" y2="0.5" style="stroke: #ccc; fill: none;"></line></g><g class="tick" opacity="1" transform="translate(0,75)"><line stroke="#000" x2="410" y1="0.5" y2="0.5" style="stroke: #ccc; fill: none;"></line></g><g class="tick" opacity="1" transform="translate(0,37.49999999999994)"><line stroke="#000" x2="410" y1="0.5" y2="0.5" style="stroke: #ccc; fill: none;"></line></g><g class="tick" opacity="1" transform="translate(0,0)"><line stroke="#000" x2="410" y1="0.5" y2="0.5" style="stroke: #ccc; fill: none;"></line></g></g><g class="lines"><path class="line" d="M2.4858204576569527,300L4.8914531586152945,300L7.380614772801357,300L9.786247473759698,300L12.27206793141665,300L14.757888389073603,300L17.003145576634722,300L19.485624877762568,300L21.891257578720907,300L24.37707803637786,300L26.782710737336203,300L29.268531194993155,300L31.754351652650108,300L34.15998435360845,300L36.64914596779451,300L39.05477866875285,300L41.54059912640981,299.8317064962L44.02641958406676,300L46.27167677162788,300L48.75415607275572,300L51.15978877371406,300L53.64560923137102,300L56.051241932329354,300L58.53706238998631,300L61.02288284764326,300L63.428515548601595,300L65.91767716278767,300L68.32330986374602,300L70.80913032140296,300L73.2949507790599,300L75.54020796662103,299.925277965975L78.02268726774888,299.8423757133L80.42831996870721,300L82.91414042636417,299.847976568175L85.3197731273225,300L87.80559358497946,300L90.29141404263642,299.9262710865L92.69704674359477,299.629153481025L95.18620835778081,299.861963613675L97.59184105873916,299.9275159224L100.07766151639612,299.6117443035L102.56348197405308,299.757114520575L104.8889269183128,298.3125843708L107.37140621944064,298.483033311075L109.77703892039898,297.5939658903L112.26285937805595,297.1223131998L114.66849207901429,296.49602174595L117.15431253667123,295.3094684775L119.64013299432818,294.7550454183L122.04576569528652,294.816862474125L124.5349273094726,293.88649254495L126.94056001043093,293.146104981675L129.4263804680879,292.482235090575L131.91220092574483,290.83075345575L134.15745811330595,292.4816604666L136.6399374144338,291.637520246025L139.04557011539214,289.76189613315L141.5313905730491,288.27208756845L143.93702327400743,287.6550592899L146.4228437316644,287.424725469375L148.90866418932134,289.033091849025L151.31429689027968,285.31473108375L153.80345850446574,284.8823901198L156.20909120542407,284.8894013412L158.69491166308106,281.9688523893L161.18073212073799,283.725106628625L163.4259893082991,280.884742615125L165.90846860942696,280.997047432425L168.3141013103853,280.280268291075L170.79992176804225,278.6538497157L173.2055544690006,279.3970048485L175.69137492665755,277.88915094345L178.1771953843145,277.869417469875L180.58282808527284,278.82525168615L183.0719896994589,276.72126997905L185.47762240041723,279.868571687325L187.9634428580742,278.052105422625L190.44926331573114,275.974755564075L192.69452050329227,273.168572912625L195.17699980442012,271.8821090142L197.58263250537846,272.7642276423L200.0684529630354,269.05559276625L202.47408566399375,266.7368930739L204.95990612165068,268.576581576075L207.44572657930763,265.8882368934L209.851359280266,261.627398118825L212.34052089445203,262.167215541L214.7461535954104,260.9400087579L217.23197405306732,261.8675181345L219.71779451072433,258.3571814472L222.04323945498405,258.16087817175L224.5257187561119,254.15864005252502L226.9313514570702,248.9418440019L229.41717191472713,247.30765653135L231.8228046156855,237.168878421L234.30862507334245,242.99253781065L236.79444553099944,242.058191874375L239.20007823195775,241.83435529845L241.68923984614383,235.10458732515L244.09487254710214,233.98051608735L246.5806930047591,234.2477254425L249.06651346241608,232.52355839895L251.31177064997718,225.472184796975L253.79424995110503,222.1465018902L256.19988265206337,222.03944698470002L258.6857031097203,215.81671659712498L261.0913358106787,212.52526954184998L263.5771562683356,208.905672834525L266.06297672599254,208.219314579675L268.46860942695093,203.37139330357502L270.957771041137,204.07247658194999L273.36340374209533,202.68941183009997L275.84922419975226,196.796357407425L278.3350446574092,190.631598395325L280.58030184497034,183.20336458424998L283.0627811460982,184.3700655237L285.4684138470565,183.57828361995L287.95423430471345,167.9048167992L290.3598670056718,158.2843311198L292.8456874633288,161.07468834555L295.33150792098576,167.289713066475L297.73714062194404,164.100411013425L300.22630223613015,153.112412415825L302.63193493708843,160.67773220385L305.1177553947454,157.33045585035L307.6035758524024,147.019290000675L309.8488330399635,145.114083398925L312.33131234109135,140.444509044825L314.7369450420497,140.02786784212498L317.2227654997066,138.58690785352502L319.628398200665,124.44753049155003L322.11421865832193,111.995326688175L324.60003911597886,132.118167470625L327.00567181693725,114.43822237560002L329.49483343112325,121.44806133869997L331.90046613208165,110.4627029667L334.3862865897386,106.34324501264999L336.8721070473955,103.64878605960001L339.19755199165525,109.32285666210001L341.6800312927831,101.11142398095001L344.08566399374143,97.41799285485001L346.5714844513984,85.8225928734L348.97711715235675,88.95728658502503L351.4629376100137,93.8786344332L353.9487580676706,91.045521334125L356.354390768629,80.25049129905L358.84355238281506,81.56319365040002L361.2491850837734,92.5278398952L363.7350055414303,103.48825471904999L366.22082599908725,83.41342284967499L368.4660831866484,73.6694507103L370.94856248777626,78.96279410572507L373.3541951887346,79.71207437332498L375.8400156463916,69.4434464769L378.24564834734986,65.70297222517496L380.73146880500684,68.72028934169998L383.2172892626638,96.82449408600004L385.6229219636221,87.27588697627502L388.1120835778082,79.36190651092502L390.5177162787665,90.50058084277501L393.00353673642354,104.29884481957498L395.48935719408047,86.211286463775L397.73461438164156,71.587118725875L400.2170936827694,83.38175983350001L402.62272638372775,73.99784003565L405.1085468413847,79.58963757922501L407.5141795423431,81.080064045375L410,85.965004019925" data-legend="pandas" style="stroke: rgb(31, 119, 180); fill: none;"></path><path class="line" d="M2.4858204576569527,300L4.8914531586152945,300L7.380614772801357,300L9.786247473759698,300L12.27206793141665,300L14.757888389073603,300L17.003145576634722,300L19.485624877762568,300L21.891257578720907,300L24.37707803637786,300L26.782710737336203,300L29.268531194993155,300L31.754351652650108,300L34.15998435360845,300L36.64914596779451,300L39.05477866875285,300L41.54059912640981,300L44.02641958406676,300L46.27167677162788,300L48.75415607275572,300L51.15978877371406,300L53.64560923137102,300L56.051241932329354,300L58.53706238998631,300L61.02288284764326,300L63.428515548601595,300L65.91767716278767,300L68.32330986374602,300L70.80913032140296,300L73.2949507790599,300L75.54020796662103,300L78.02268726774888,300L80.42831996870721,300L82.91414042636417,300L85.3197731273225,300L87.80559358497946,300L90.29141404263642,300L92.69704674359477,299.92583069625L95.18620835778081,300L97.59184105873916,300L100.07766151639612,300L102.56348197405308,300L104.8889269183128,300L107.37140621944064,300L109.77703892039898,300L112.26285937805595,300L114.66849207901429,300L117.15431253667123,300L119.64013299432818,300L122.04576569528652,300L124.5349273094726,300L126.94056001043093,300L129.4263804680879,300L131.91220092574483,300L134.15745811330595,300L136.6399374144338,300L139.04557011539214,300L141.5313905730491,300L143.93702327400743,299.957283942225L146.4228437316644,300L148.90866418932134,300L151.31429689027968,300L153.80345850446574,300L156.20909120542407,299.954486148675L158.69491166308106,300L161.18073212073799,300L163.4259893082991,300L165.90846860942696,300L168.3141013103853,300L170.79992176804225,300L173.2055544690006,300L175.69137492665755,300L178.1771953843145,300L180.58282808527284,300L183.0719896994589,300L185.47762240041723,300L187.9634428580742,300L190.44926331573114,300L192.69452050329227,300L195.17699980442012,300L197.58263250537846,300L200.0684529630354,300L202.47408566399375,300L204.95990612165068,300L207.44572657930763,300L209.851359280266,300L212.34052089445203,291.5691779313L214.7461535954104,291.986571303525L217.23197405306732,292.949245694475L219.71779451072433,290.8129041921L222.04323945498405,290.964849139275L224.5257187561119,289.5483236331L226.9313514570702,286.706516069325L229.41717191472713,279.727400565825L231.8228046156855,279.426977890125L234.30862507334245,279.095875807875L236.79444553099944,280.406578211925L239.20007823195775,275.7751101132L241.68923984614383,270.187859690025L244.09487254710214,269.019832284075L246.5806930047591,266.75976217815L249.06651346241608,258.632316071625L251.31177064997718,257.852717410425L253.79424995110503,255.92398582792498L256.19988265206337,255.683017234425L258.6857031097203,249.20120739165L261.0913358106787,245.7126010782L263.5771562683356,247.537521983925L266.06297672599254,253.8060570582L268.46860942695093,247.4351061684L270.957771041137,248.11580003827498L273.36340374209533,247.6981635318L275.84922419975226,246.29631962115002L278.3350446574092,248.03763724665L280.58030184497034,240.813107859525L283.0627811460982,235.144661751375L285.4684138470565,234.894263461275L287.95423430471345,241.05086655232498L290.3598670056718,238.4092867644L292.8456874633288,239.1722047038L295.33150792098576,246.568448537325L297.73714062194404,249.00214030019998L300.22630223613015,245.672409707925L302.63193493708843,246.0075899874L305.1177553947454,246.91247429610002L307.6035758524024,247.674056437275L309.8488330399635,239.71675845795L312.33131234109135,237.515691275025L314.7369450420497,243.075243173775L317.2227654997066,243.024088833225L319.628398200665,242.99198969535001L322.11421865832193,242.48942589255L324.60003911597886,249.42983528579998L327.00567181693725,244.76439443205L329.49483343112325,241.983410188575L331.90046613208165,236.019716762325L334.3862865897386,245.060813837325L336.8721070473955,242.541544204725L339.19755199165525,242.5735589184L341.6800312927831,246.6234906333L344.08566399374143,240.240337772025L346.5714844513984,240.97889521665L348.97711715235675,238.22917553745L351.4629376100137,237.112054884075L353.9487580676706,243.775945448625L356.354390768629,246.277519865625L358.84355238281506,242.15376336855002L361.2491850837734,238.955523932175L363.7350055414303,244.247768468775L366.22082599908725,242.74940795077498L368.4660831866484,246.554492064525L370.94856248777626,245.21252581177498L373.3541951887346,246.747297876675L375.8400156463916,250.268670238575L378.24564834734986,250.7671959819L380.73146880500684,251.865643974675L383.2172892626638,254.2139704983L385.6229219636221,254.35496213235L388.1120835778082,249.72735877050002L390.5177162787665,251.79759516015L393.00353673642354,250.270018955025L395.48935719408047,248.96727320617498L397.73461438164156,253.03143963247499L400.2170936827694,248.772713474175L402.62272638372775,250.341994367175L405.1085468413847,245.57090077417502L407.5141795423431,252.07667731635001L410,254.70262567897498" data-legend="tensorflow" style="stroke: rgb(255, 127, 14); fill: none;"></path><path class="line" d="M2.4858204576569527,298.3716891012L4.8914531586152945,298.957754307975L7.380614772801357,298.2044529567L9.786247473759698,297.482376636525L12.27206793141665,296.651999234775L14.757888389073603,296.979981592275L17.003145576634722,298.516980572475L19.485624877762568,297.508896797175L21.891257578720907,297.9417414828L24.37707803637786,296.514496121325L26.782710737336203,298.596162845175L29.268531194993155,297.915251096475L31.754351652650108,298.164014687925L34.15998435360845,294.370778083575L36.64914596779451,292.321827011475L39.05477866875285,294.786793209525L41.54059912640981,296.465836418775L44.02641958406676,293.2493249325L46.27167677162788,294.3557879706L48.75415607275572,293.65673895975L51.15978877371406,295.636490574825L53.64560923137102,294.1708088568L56.051241932329354,295.5277280859L58.53706238998631,294.187241984775L61.02288284764326,294.81609479145L63.428515548601595,294.083120325675L65.91767716278767,292.8450630936L68.32330986374602,293.053143452625L70.80913032140296,295.18298365365L73.2949507790599,294.35528903355L75.54020796662103,291.3322440522L78.02268726774888,292.039973519175L80.42831996870721,293.017878235875L82.91414042636417,293.615015861175L85.3197731273225,292.892838974175L87.80559358497946,291.293765212575L90.29141404263642,291.152530376325L92.69704674359477,289.690466772225L95.18620835778081,292.615053328125L97.59184105873916,292.1717196123L100.07766151639612,290.74657256505L102.56348197405308,290.8917945189L104.8889269183128,290.606719664025L107.37140621944064,290.898199866225L109.77703892039898,290.375863561125L112.26285937805595,289.75543499115L114.66849207901429,289.222612339725L117.15431253667123,288.16706820465L119.64013299432818,286.887613545675L122.04576569528652,287.57053428255L124.5349273094726,285.786095166975L126.94056001043093,288.353950741125L129.4263804680879,287.741733650925L131.91220092574483,286.048942085925L134.15745811330595,285.7455759135L136.6399374144338,283.0989882867L139.04557011539214,283.600913275125L141.5313905730491,285.936039970275L143.93702327400743,282.27283600455L146.4228437316644,285.07793127885L148.90866418932134,282.116203720575L151.31429689027968,281.55137526112503L153.80345850446574,279.245315249175L156.20909120542407,281.657917893075L158.69491166308106,280.572635207025L161.18073212073799,277.71221498895L163.4259893082991,279.54268469625L165.90846860942696,280.3765428588L168.3141013103853,278.184244747125L170.79992176804225,279.9040580838L173.2055544690006,279.609406860375L175.69137492665755,278.4879864387L178.1771953843145,280.771788949275L180.58282808527284,277.34389069305L183.0719896994589,279.25254936L185.47762240041723,279.626024358225L187.9634428580742,277.6431384429L190.44926331573114,275.257584088425L192.69452050329227,274.32133052085L195.17699980442012,276.4159697955L197.58263250537846,274.593495935025L200.0684529630354,275.9276624247L202.47408566399375,274.88847909180004L204.95990612165068,276.692563818L207.44572657930763,277.3579455345L209.851359280266,275.64737726445L212.34052089445203,271.7842839309L214.7461535954104,274.42709093565L217.23197405306732,271.42149882075L219.71779451072433,269.8310216265L222.04323945498405,269.745366204825L224.5257187561119,268.529695056975L226.9313514570702,272.454943206675L229.41717191472713,268.401008979075L231.8228046156855,266.25340032285L234.30862507334245,268.435605303525L236.79444553099944,266.329322467725L239.20007823195775,265.713792210075L241.68923984614383,263.8797836244L244.09487254710214,265.14731131965L246.5806930047591,265.81738430175L249.06651346241608,259.799429411325L251.31177064997718,259.129907791875L253.79424995110503,256.729220702175L256.19988265206337,260.958848516025L258.6857031097203,259.3099972251L261.0913358106787,257.29447439355L263.5771562683356,258.29467776915L266.06297672599254,257.636090750025L268.46860942695093,251.17384544175002L270.957771041137,251.78981074365L273.36340374209533,251.86564054125L275.84922419975226,252.6727460514L278.3350446574092,250.017155827725L280.58030184497034,253.82458599847502L283.0627811460982,254.820400601775L285.4684138470565,256.777024908975L287.95423430471345,254.216173022325L290.3598670056718,250.242687687L292.8456874633288,253.467696027375L295.33150792098576,252.93812117475L297.73714062194404,252.74293038029998L300.22630223613015,248.566496293575L302.63193493708843,247.732587112425L305.1177553947454,253.376631308925L307.6035758524024,244.40368496460002L309.8488330399635,242.9268292683L312.33131234109135,244.0069239816L314.7369450420497,249.154586135775L317.2227654997066,249.96418017374998L319.628398200665,246.16189671134998L322.11421865832193,242.98855334385L324.60003911597886,247.429257341025L327.00567181693725,240.43511723887502L329.49483343112325,240.397418756325L331.90046613208165,241.11295934564998L334.3862865897386,246.81804086415002L336.8721070473955,237.94486774109998L339.19755199165525,241.06872402952501L341.6800312927831,237.4306395243L344.08566399374143,234.59727184155L346.5714844513984,234.94014140385002L348.97711715235675,234.351391136175L351.4629376100137,240.17477948385L353.9487580676706,236.9819826246L356.354390768629,230.73751815675L358.84355238281506,229.5419385216L361.2491850837734,232.235549230875L363.7350055414303,237.48828355950002L366.22082599908725,233.89740877845L368.4660831866484,231.31337763419998L370.94856248777626,232.056870915525L373.3541951887346,233.152063542225L375.8400156463916,235.741732923075L378.24564834734986,231.293157309675L380.73146880500684,240.55808665425002L383.2172892626638,242.11954761105L385.6229219636221,235.3138476282L388.1120835778082,236.483775727875L390.5177162787665,238.21945295175L393.00353673642354,243.2423733057L395.48935719408047,243.09576592995L397.73461438164156,237.96131331135L400.2170936827694,238.527256169025L402.62272638372775,242.29506808125L405.1085468413847,237.15913089375L407.5141795423431,241.008935357025L410,246.95697076267498" data-legend="numpy" style="stroke: rgb(44, 160, 44); fill: none;"></path><path class="line" d="M2.4858204576569527,300L4.8914531586152945,300L7.380614772801357,300L9.786247473759698,300L12.27206793141665,300L14.757888389073603,300L17.003145576634722,300L19.485624877762568,300L21.891257578720907,300L24.37707803637786,300L26.782710737336203,300L29.268531194993155,300L31.754351652650108,300L34.15998435360845,300L36.64914596779451,300L39.05477866875285,300L41.54059912640981,300L44.02641958406676,300L46.27167677162788,300L48.75415607275572,300L51.15978877371406,300L53.64560923137102,300L56.051241932329354,300L58.53706238998631,300L61.02288284764326,300L63.428515548601595,300L65.91767716278767,300L68.32330986374602,300L70.80913032140296,300L73.2949507790599,300L75.54020796662103,300L78.02268726774888,300L80.42831996870721,300L82.91414042636417,300L85.3197731273225,300L87.80559358497946,300L90.29141404263642,300L92.69704674359477,299.92583069625L95.18620835778081,300L97.59184105873916,300L100.07766151639612,300L102.56348197405308,300L104.8889269183128,300L107.37140621944064,300L109.77703892039898,300L112.26285937805595,300L114.66849207901429,300L117.15431253667123,300L119.64013299432818,300L122.04576569528652,300L124.5349273094726,300L126.94056001043093,300L129.4263804680879,300L131.91220092574483,300L134.15745811330595,300L136.6399374144338,300L139.04557011539214,300L141.5313905730491,300L143.93702327400743,300L146.4228437316644,300L148.90866418932134,300L151.31429689027968,300L153.80345850446574,300L156.20909120542407,299.954486148675L158.69491166308106,300L161.18073212073799,300L163.4259893082991,300L165.90846860942696,300L168.3141013103853,300L170.79992176804225,300L173.2055544690006,300L175.69137492665755,300L178.1771953843145,300L180.58282808527284,300L183.0719896994589,300L185.47762240041723,300L187.9634428580742,300L190.44926331573114,300L192.69452050329227,300L195.17699980442012,300L197.58263250537846,299.837398374L200.0684529630354,299.959812458175L202.47408566399375,299.884100672775L204.95990612165068,299.708657047725L207.44572657930763,299.87255879295L209.851359280266,299.878439487225L212.34052089445203,299.576340599625L214.7461535954104,299.474529265875L217.23197405306732,298.91526856845L219.71779451072433,299.277870198525L222.04323945498405,298.61286065625L224.5257187561119,297.96346011975L226.9313514570702,297.48501655365L229.41717191472713,297.578778610125L231.8228046156855,297.476490011475L234.30862507334245,297.25164901065L236.79444553099944,296.337265746825L239.20007823195775,294.775023749925L241.68923984614383,293.43268793175L244.09487254710214,294.02791947645L246.5806930047591,291.133080890325L249.06651346241608,289.582432782975L251.31177064997718,286.288985610375L253.79424995110503,286.43814948555L256.19988265206337,284.57833933065L258.6857031097203,285.176606504775L261.0913358106787,282.311320754775L263.5771562683356,284.718008844825L266.06297672599254,282.48460201905L268.46860942695093,283.976831685525L270.957771041137,281.45072643855L273.36340374209533,281.71519462125L275.84922419975226,278.934176386125L278.3350446574092,278.324271537225L280.58030184497034,275.55419258745L283.0627811460982,272.9108903505L285.4684138470565,272.69176050735L287.95423430471345,273.669387060075L290.3598670056718,268.8719774928L292.8456874633288,267.9550731405L295.33150792098576,271.731287551275L297.73714062194404,272.4412680174L300.22630223613015,269.68825102395L302.63193493708843,262.855061908275L305.1177553947454,265.337866726425L307.6035758524024,266.6733573738L309.8488330399635,265.39732494105L312.33131234109135,256.8902866053L314.7369450420497,261.91618210567503L317.2227654997066,262.94886719805L319.628398200665,258.4389969006L322.11421865832193,259.6815936585L324.60003911597886,264.60088470007497L327.00567181693725,264.917926193325L329.49483343112325,264.18729023985L331.90046613208165,259.883561225775L334.3862865897386,261.5994211488L336.8721070473955,262.96541349195L339.19755199165525,261.3111804378L341.6800312927831,263.932552631175L344.08566399374143,259.402403377725L346.5714844513984,261.34315989915L348.97711715235675,258.3480334311L351.4629376100137,260.64398889255L353.9487580676706,265.1742535557L356.354390768629,265.44886218L358.84355238281506,262.164525459075L361.2491850837734,261.317792685975L363.7350055414303,266.95963776375L366.22082599908725,266.83374336105L368.4660831866484,269.111341421325L370.94856248777626,265.8619081806L373.3541951887346,268.9735316019L375.8400156463916,269.95032724665L378.24564834734986,273.040627713225L380.73146880500684,273.368539862775L383.2172892626638,273.43546401555L385.6229219636221,271.947879195375L388.1120835778082,271.287911963775L390.5177162787665,272.3345352504L393.00353673642354,273.1769250027L395.48935719408047,270.64246361865L397.73461438164156,275.084057815725L400.2170936827694,271.9198577562L402.62272638372775,272.259280435425L405.1085468413847,271.1360837439L407.5141795423431,272.4966612312L410,275.733549470925" data-legend="keras" style="stroke: rgb(214, 39, 40); fill: none;"></path><path class="line" d="M2.4858204576569527,300L4.8914531586152945,300L7.380614772801357,300L9.786247473759698,300L12.27206793141665,300L14.757888389073603,300L17.003145576634722,300L19.485624877762568,300L21.891257578720907,300L24.37707803637786,300L26.782710737336203,300L29.268531194993155,300L31.754351652650108,300L34.15998435360845,300L36.64914596779451,300L39.05477866875285,300L41.54059912640981,300L44.02641958406676,300L46.27167677162788,300L48.75415607275572,300L51.15978877371406,300L53.64560923137102,300L56.051241932329354,300L58.53706238998631,300L61.02288284764326,300L63.428515548601595,300L65.91767716278767,300L68.32330986374602,300L70.80913032140296,299.90554869915L73.2949507790599,300L75.54020796662103,300L78.02268726774888,299.92118785665L80.42831996870721,300L82.91414042636417,300L85.3197731273225,299.9251877787L87.80559358497946,300L90.29141404263642,299.9262710865L92.69704674359477,300L95.18620835778081,299.723927227275L97.59184105873916,299.855031844725L100.07766151639612,299.9352907173L102.56348197405308,299.6963931507L104.8889269183128,299.718764061825L107.37140621944064,299.591585891475L109.77703892039898,299.664274310325L112.26285937805595,299.13669396L114.66849207901429,299.5221847836L117.15431253667123,298.880668614L119.64013299432818,298.745771730525L122.04576569528652,299.04388725255L124.5349273094726,298.9301361954L126.94056001043093,299.108436420375L129.4263804680879,298.132529735925L131.91220092574483,298.225307120475L134.15745811330595,298.435490039325L136.6399374144338,298.063425741225L139.04557011539214,297.8708368065L141.5313905730491,298.045347928125L143.93702327400743,297.864197109L146.4228437316644,298.095997166175L148.90866418932134,298.22527212495L151.31429689027968,297.668355631725L153.80345850446574,296.882526776175L156.20909120542407,295.90375337565L158.69491166308106,296.05069997025L161.18073212073799,297.07372606875L163.4259893082991,296.409088271175L165.90846860942696,295.695249520425L168.3141013103853,296.4495927726L170.79992176804225,295.83263877315L173.2055544690006,295.666998957825L175.69137492665755,295.808151533025L178.1771953843145,297.006929411925L180.58282808527284,296.07875031225L183.0719896994589,296.1126780936L185.47762240041723,295.149053418675L187.9634428580742,295.046955468075L190.44926331573114,295.517678276925L192.69452050329227,295.15046799315L195.17699980442012,294.074164417425L197.58263250537846,293.4552845529L200.0684529630354,294.092431346325L202.47408566399375,293.7800694366L204.95990612165068,293.507214206475L207.44572657930763,294.73243010565L209.851359280266,294.0435348717L212.34052089445203,292.3741307922L214.7461535954104,292.38067435417497L217.23197405306732,292.4068799787L219.71779451072433,292.257163795125L222.04323945498405,292.23951772545L224.5257187561119,291.853840478775L226.9313514570702,291.13767737955L229.41717191472713,291.012754501875L231.8228046156855,290.461987670475L234.30862507334245,290.630621627025L236.79444553099944,291.968462240025L239.20007823195775,290.58640642545L241.68923984614383,289.068881886375L244.09487254710214,289.82880035835L246.5806930047591,290.019361581825L249.06651346241608,289.971470562825L251.31177064997718,289.4443971411L253.79424995110503,288.43004627985L256.19988265206337,290.05708720005L258.6857031097203,288.70194077445L261.0913358106787,285.933288409725L263.5771562683356,287.364610665L266.06297672599254,288.276360284775L268.46860942695093,287.71557095895L270.957771041137,287.5890126171L273.36340374209533,286.664073569925L275.84922419975226,288.805829155875L278.3350446574092,285.104122677375L280.58030184497034,284.666608253775L283.0627811460982,284.473883798175L285.4684138470565,287.02406500935L287.95423430471345,285.410089471725L290.3598670056718,285.17260607295L292.8456874633288,284.553193938975L295.33150792098576,286.7868774216L297.73714062194404,285.036839679525L300.22630223613015,285.78343431615L302.63193493708843,283.612527312525L305.1177553947454,285.1375287579L307.6035758524024,283.388589345225L309.8488330399635,285.08261211645L312.33131234109135,283.05342301035L314.7369450420497,282.36488115975L317.2227654997066,283.881078176775L319.628398200665,283.4963571228L322.11421865832193,282.69691502265L324.60003911597886,284.384377709175L327.00567181693725,282.682891227375L329.49483343112325,282.55409424547497L331.90046613208165,277.28070443175L334.3862865897386,283.1512938015L336.8721070473955,283.232577899775L339.19755199165525,282.815756430375L341.6800312927831,283.312076590575L344.08566399374143,281.528093536875L346.5714844513984,280.6495407021L348.97711715235675,282.116570761275L351.4629376100137,283.76755962105L353.9487580676706,284.3257393116L356.354390768629,283.01814246255003L358.84355238281506,284.585547409275L361.2491850837734,283.058887307775L363.7350055414303,285.2913608376L366.22082599908725,282.92828731065L368.4660831866484,284.454063281175L370.94856248777626,283.95787229955L373.3541951887346,283.979059954425L375.8400156463916,285.180180883875L378.24564834734986,284.116487208L380.73146880500684,284.676097183275L383.2172892626638,284.7739854723L385.6229219636221,287.28804468315L388.1120835778082,283.419034030725L390.5177162787665,285.85610186625L393.00353673642354,285.5691856515L395.48935719408047,287.817994249275L397.73461438164156,285.33174371415L400.2170936827694,287.3151480984L402.62272638372775,283.21792346955L405.1085468413847,281.966924700975L407.5141795423431,285.888629001975L410,286.028407271175" data-legend="scikit-learn" style="stroke: rgb(148, 103, 189); fill: none;"></path><path class="line" d="M2.4858204576569527,298.9144594008L4.8914531586152945,300L7.380614772801357,300L9.786247473759698,298.7411883183L12.27206793141665,299.52171417645L14.757888389073603,298.7057063967L17.003145576634722,298.887735429375L19.485624877762568,297.508896797175L21.891257578720907,297.9417414828L24.37707803637786,299.46376863405L26.782710737336203,298.596162845175L29.268531194993155,296.9886960282L31.754351652650108,297.47552019585L34.15998435360845,297.915102993975L36.64914596779451,297.6374852343L39.05477866875285,297.794412511725L41.54059912640981,297.307303938075L44.02641958406676,295.78082808285L46.27167677162788,295.22412828285L48.75415607275572,296.67733945515L51.15978877371406,297.236444030775L53.64560923137102,296.204247627675L56.051241932329354,296.52156628905L58.53706238998631,295.848029989125L61.02288284764326,296.42063687985L63.428515548601595,295.858184228025L65.91767716278767,295.8804908721L68.32330986374602,297.5034734283L70.80913032140296,296.221947963675L73.2949507790599,294.81050765985L75.54020796662103,294.47056948155L78.02268726774888,295.428895684275L80.42831996870721,295.0449458448L82.91414042636417,295.2112618959L85.3197731273225,295.66089116325L87.80559358497946,294.8043437559L90.29141404263642,295.5025362747L92.69704674359477,293.84394778485L95.18620835778081,294.271489964775L97.59184105873916,293.1864966996L100.07766151639612,294.305583116925L102.56348197405308,292.774156985025L104.8889269183128,294.15029248545L107.37140621944064,293.58206400825L109.77703892039898,293.117623360575L112.26285937805595,292.805782999425L114.66849207901429,292.036413058875L117.15431253667123,291.2585548899L119.64013299432818,293.443806772875L122.04576569528652,291.14337665475L124.5349273094726,291.18636008565L126.94056001043093,291.1400869275L129.4263804680879,290.1838101501L131.91220092574483,289.10535760065L134.15745811330595,290.0914369155L136.6399374144338,289.5689068332L139.04557011539214,289.1276773095L141.5313905730491,290.322088521975L143.93702327400743,288.637528619775L146.4228437316644,289.63868225295L148.90866418932134,287.57690487465L151.31429689027968,287.3600331612L153.80345850446574,286.462479288075L156.20909120542407,288.758078708625L158.69491166308106,286.596315050475L161.18073212073799,285.6091460091L163.4259893082991,285.45499390635L165.90846860942696,286.465243987575L168.3141013103853,286.568338922775L170.79992176804225,287.3127002649L173.2055544690006,283.94240790255003L175.69137492665755,284.9830483491L178.1771953843145,287.93701853895L180.58282808527284,288.5848064646L183.0719896994589,284.767122297L185.47762240041723,286.465859037975L187.9634428580742,286.8221750985L190.44926331573114,285.656570486025L192.69452050329227,285.0539013558L195.17699980442012,285.722315609775L197.58263250537846,284.024390243925L200.0684529630354,284.92967180175L202.47408566399375,280.0653157098L204.95990612165068,284.309100998925L207.44572657930763,284.579613938175L209.851359280266,284.4807745296L212.34052089445203,278.90176185825L214.7461535954104,283.36009341705L217.23197405306732,280.5165546705L219.71779451072433,281.2647434835L222.04323945498405,280.130166156825L224.5257187561119,279.826727600625L226.9313514570702,280.71846024465L229.41717191472713,279.645325264425L231.8228046156855,278.913721621275L234.30862507334245,280.0952761677L236.79444553099944,281.2450354506L239.20007823195775,280.525088522325L241.68923984614383,280.2980637951L244.09487254710214,282.08375842935L246.5806930047591,281.0667717561L249.06651346241608,276.83063888655L251.31177064997718,275.282609675625L253.79424995110503,271.05392530815L256.19988265206337,274.87892643600003L258.6857031097203,273.241438676175L261.0913358106787,273.38274932617503L263.5771562683356,277.247761771725L266.06297672599254,277.953952407975L268.46860942695093,274.852527506475L270.957771041137,272.08647964065L273.36340374209533,272.96349290145L275.84922419975226,272.888379474525L278.3350446574092,274.216770481425L280.58030184497034,274.020853412775L283.0627811460982,273.423765059925L285.4684138470565,274.31940392085L287.95423430471345,269.9359419417L290.3598670056718,268.919501191275L292.8456874633288,270.20973116805L295.33150792098576,268.94126565225L297.73714062194404,269.69486517375L300.22630223613015,265.118640625575L302.63193493708843,265.442557595775L305.1177553947454,271.140338375775L307.6035758524024,268.1787664644L309.8488330399635,266.152635719925L312.33131234109135,265.859089047225L314.7369450420497,264.72976231949997L317.2227654997066,268.209904182L319.628398200665,267.5461900737L322.11421865832193,263.674613268675L324.60003911597886,269.6023295619L327.00567181693725,264.718878966075L329.49483343112325,264.238451253825L331.90046613208165,264.576211695825L334.3862865897386,263.666747062725L336.8721070473955,262.80870861255L339.19755199165525,256.6510465884L341.6800312927831,255.774932502975L344.08566399374143,252.257226372225L346.5714844513984,255.2603275914L348.97711715235675,254.74397498759998L351.4629376100137,260.388761842575L353.9487580676706,254.79607412377499L356.354390768629,254.554840363425L358.84355238281506,252.523486020525L361.2491850837734,256.3483996296L363.7350055414303,257.766738287175L366.22082599908725,254.820315912975L368.4660831866484,257.629701883875L370.94856248777626,253.094816931075L373.3541951887346,262.091296793625L375.8400156463916,264.5613021135L378.24564834734986,259.956507980325L380.73146880500684,258.66253635315L383.2172892626638,267.17228073465L385.6229219636221,267.0669174492L388.1120835778082,262.917967480875L390.5177162787665,261.6417482613L393.00353673642354,260.999248953975L395.48935719408047,262.630874250975L397.73461438164156,254.739387282225L400.2170936827694,256.90402879575L402.62272638372775,260.982995574225L405.1085468413847,262.944229415925L407.5141795423431,262.092983789475L410,263.183627581125" data-legend="matplotlib" style="stroke: rgb(140, 86, 75); fill: none;"></path></g></g><g transform="translate(20, 150)"><text transform="rotate(-90)" x="-50" y="0" dy="1em" class="axis-label y-axis-label" style="text-anchor: middle; font-weight: bold;">% of Stack Overflow questions that month</text></g><g class="legend" transform="translate(530, 30)" style="font-size: 12px;"><text class="legend-title" style="font-weight: bold;">Tag</text><g class="legend-items" transform="translate(0,20)"><text y="0em" x="1em">pandas</text><text y="1em" x="1em">numpy</text><text y="2em" x="1em">tensorflow</text><text y="3em" x="1em">matplotlib</text><text y="4em" x="1em">keras</text><text y="5em" x="1em">scikit-learn</text><circle cy="-0.25em" cx="0" r="0.4em" style="fill: rgb(31, 119, 180);"></circle><circle cy="0.75em" cx="0" r="0.4em" style="fill: rgb(44, 160, 44);"></circle><circle cy="1.75em" cx="0" r="0.4em" style="fill: rgb(255, 127, 14);"></circle><circle cy="2.75em" cx="0" r="0.4em" style="fill: rgb(140, 86, 75);"></circle><circle cy="3.75em" cx="0" r="0.4em" style="fill: rgb(214, 39, 40);"></circle><circle cy="4.75em" cx="0" r="0.4em" style="fill: rgb(148, 103, 189);"></circle></g><rect class="legend-box"></rect></g></svg>
        