
            <svg id="trend-chart" width="660" height="400" title="Stack Overflow Trends Chart" version="1.1" xmlns="http://www.w3.org/2000/svg"><g></g><g class="chart-area" transform="translate(100, 20)"><g transform="translate(0,300)" fill="none" font-size="10" font-family="sans-serif" text-anchor="middle"><path class="domain" stroke="#000" d="M0.5,6V0.5H410.5V6"></path><g class="tick" opacity="1" transform="translate(41.05084718464115,0)"><line stroke="#000" y2="6" x1="0.5" x2="0.5"></line><text fill="#000" y="9" x="0.5" dy="0.71em" style="font-size: 12px;">2010</text></g><g class="tick" opacity="1" transform="translate(98.89777412704548,0)"><line stroke="#000" y2="6" x1="0.5" x2="0.5"></line><text fill="#000" y="9" x="0.5" dy="0.71em" style="font-size: 12px;">2012</text></g><g class="tick" opacity="1" transform="translate(156.82394343512433,0)"><line stroke="#000" y2="6" x1="0.5" x2="0.5"></line><text fill="#000" y="9" x="0.5" dy="0.71em" style="font-size: 12px;">2014</text></g><g class="tick" opacity="1" transform="translate(214.6708703775287,0)"><line stroke="#000" y2="6" x1="0.5" x2="0.5"></line><text fill="#000" y="9" x="0.5" dy="0.71em" style="font-size: 12px;">2016</text></g><g class="tick" opacity="1" transform="translate(272.5970396856075,0)"><line stroke="#000" y2="6" x1="0.5" x2="0.5"></line><text fill="#000" y="9" x="0.5" dy="0.71em" style="font-size: 12px;">2018</text></g><g class="tick" opacity="1" transform="translate(330.4439666280119,0)"><line stroke="#000" y2="6" x1="0.5" x2="0.5"></line><text fill="#000" y="9" x="0.5" dy="0.71em" style="font-size: 12px;">2020</text></g><g class="tick" opacity="1" transform="translate(388.3701359360907,0)"><line stroke="#000" y2="6" x1="0.5" x2="0.5"></line><text fill="#000" y="9" x="0.5" dy="0.71em" style="font-size: 12px;">2022</text></g></g><g class="grid-lines" transform="translate(0,300)" fill="none" font-size="10" font-family="sans-serif" text-anchor="middle"><path class="domain" stroke="#000" d="M0.5,-300V0.5H410.5V-300"></path><g class="tick" opacity="1" transform="translate(41.05084718464115,0)"><line stroke="#000" y2="-300" x1="0.5" x2="0.5" style="stroke: #ccc; fill: none;"></line></g><g class="tick" opacity="1" transform="translate(98.89777412704548,0)"><line stroke="#000" y2="-300" x1="0.5" x2="0.5" style="stroke: #ccc; fill: none;"></line></g><g class="tick" opacity="1" transform="translate(156.82394343512433,0)"><line stroke="#000" y2="-300" x1="0.5" x2="0.5" style="stroke: #ccc; fill: none;"></line></g><g class="tick" opacity="1" transform="translate(214.6708703775287,0)"><line stroke="#000" y2="-300" x1="0.5" x2="0.5" style="stroke: #ccc; fill: none;"></line></g><g class="tick" opacity="1" transform="translate(272.5970396856075,0)"><line stroke="#000" y2="-300" x1="0.5" x2="0.5" style="stroke: #ccc; fill: none;"></line></g><g class="tick" opacity="1" transform="translate(330.4439666280119,0)"><line stroke="#000" y2="-300" x1="0.5" x2="0.5" style="stroke: #ccc; fill: none;"></line></g><g class="tick" opacity="1" transform="translate(388.3701359360907,0)"><line stroke="#000" y2="-300" x1="0.5" x2="0.5" style="stroke: #ccc; fill: none;"></line></g></g><text x="205" y="360" class="axis-label x-axis-label" style="text-anchor: middle; font-weight: bold;">Year</text><g fill="none" font-size="10" font-family="sans-serif" text-anchor="end"><path class="domain" stroke="#000" d="M-6,300.5H0.5V0.5H-6"></path><g class="tick" opacity="1" transform="translate(0,300)"><line stroke="#000" x2="-6" y1="0.5" y2="0.5"></line><text fill="#000" x="-9" y="0.5" dy="0.32em" style="font-size: 12px;">0.00%</text></g><g class="tick" opacity="1" transform="translate(0,266.6666666666667)"><line stroke="#000" x2="-6" y1="0.5" y2="0.5"></line><text fill="#000" x="-9" y="0.5" dy="0.32em" style="font-size: 12px;">0.10%</text></g><g class="tick" opacity="1" transform="translate(0,233.33333333333331)"><line stroke="#000" x2="-6" y1="0.5" y2="0.5"></line><text fill="#000" x="-9" y="0.5" dy="0.32em" style="font-size: 12px;">0.20%</text></g><g class="tick" opacity="1" transform="translate(0,200)"><line stroke="#000" x2="-6" y1="0.5" y2="0.5"></line><text fill="#000" x="-9" y="0.5" dy="0.32em" style="font-size: 12px;">0.30%</text></g><g class="tick" opacity="1" transform="translate(0,166.66666666666666)"><line stroke="#000" x2="-6" y1="0.5" y2="0.5"></line><text fill="#000" x="-9" y="0.5" dy="0.32em" style="font-size: 12px;">0.40%</text></g><g class="tick" opacity="1" transform="translate(0,133.33333333333331)"><line stroke="#000" x2="-6" y1="0.5" y2="0.5"></line><text fill="#000" x="-9" y="0.5" dy="0.32em" style="font-size: 12px;">0.50%</text></g><g class="tick" opacity="1" transform="translate(0,99.99999999999997)"><line stroke="#000" x2="-6" y1="0.5" y2="0.5"></line><text fill="#000" x="-9" y="0.5" dy="0.32em" style="font-size: 12px;">0.60%</text></g><g class="tick" opacity="1" transform="translate(0,66.66666666666663)"><line stroke="#000" x2="-6" y1="0.5" y2="0.5"></line><text fill="#000" x="-9" y="0.5" dy="0.32em" style="font-size: 12px;">0.70%</text></g><g class="tick" opacity="1" transform="translate(0,33.333333333333314)"><line stroke="#000" x2="-6" y1="0.5" y2="0.5"></line><text fill="#000" x="-9" y="0.5" dy="0.32em" style="font-size: 12px;">0.80%</text></g><g class="tick" opacity="1" transform="translate(0,0)"><line stroke="#000" x2="-6" y1="0.5" y2="0.5"></line><text fill="#000" x="-9" y="0.5" dy="0.32em" style="font-size: 12px;">0.90%</text></g></g><g class="grid-lines" fill="none" font-size="10" font-family="sans-serif" text-anchor="end"><path class="domain" stroke="#000" d="M410,300.5H0.5V0.5H410"></path><g class="tick" opacity="1" transform="translate(0,300)"><line stroke="#000" x2="410" y1="0.5" y2="0.5" style="stroke: #ccc; fill: none;"></line></g><g class="tick" opacity="1" transform="translate(0,266.6666666666667)"><line stroke="#000" x2="410" y1="0.5" y2="0.5" style="stroke: #ccc; fill: none;"></line></g><g class="tick" opacity="1" transform="translate(0,233.33333333333331)"><line stroke="#000" x2="410" y1="0.5" y2="0.5" style="stroke: #ccc; fill: none;"></line></g><g class="tick" opacity="1" transform="translate(0,200)"><line stroke="#000" x2="410" y1="0.5" y2="0.5" style="stroke: #ccc; fill: none;"></line></g><g class="tick" opacity="1" transform="translate(0,166.66666666666666)"><line stroke="#000" x2="410" y1="0.5" y2="0.5" style="stroke: #ccc; fill: none;"></line></g><g class="tick" opacity="1" transform="translate(0,133.33333333333331)"><line stroke="#000" x2="410" y1="0.5" y2="0.5" style="stroke: #ccc; fill: none;"></line></g><g class="tick" opacity="1" transform="translate(0,99.99999999999997)"><line stroke="#000" x2="410" y1="0.5" y2="0.5" style="stroke: #ccc; fill: none;"></line></g><g class="tick" opacity="1" transform="translate(0,66.66666666666663)"><line stroke="#000" x2="410" y1="0.5" y2="0.5" style="stroke: #ccc; fill: none;"></line></g><g class="tick" opacity="1" transform="translate(0,33.333333333333314)"><line stroke="#000" x2="410" y1="0.5" y2="0.5" style="stroke: #ccc; fill: none;"></line></g><g class="tick" opacity="1" transform="translate(0,0)"><line stroke="#000" x2="410" y1="0.5" y2="0.5" style="stroke: #ccc; fill: none;"></line></g></g><g class="lines"><path class="line" d="M2.4565133359103206,300L4.833784306146115,300L7.2935994072928745,300L9.670870377528669,300L12.12738371343899,300L14.58389704934931,300L16.80268328823605,300L19.255894858909933,300L21.633165829145728,300L24.08967916505605,300L26.466950135291842,300L28.92346347120216,300L31.379976807112484,300L33.75724777734828,300L36.21706287849504,300L38.594333848730834,300L41.05084718464115,300L43.50736052055148,300L45.726146759438215,300L48.1793583301121,300L50.55662930034789,300L53.01314263625821,300L55.39041360649401,300L57.84692694240432,300L60.30344027831465,300L62.680711248550445,300L65.14052634969721,300L67.517797319933,300L69.97431065584333,300L72.43082399175364,300L74.64961023064038,299.66783588466666L77.10282180131426,299.2993077163333L79.48009277155006,299.332539055L81.93660610746038,300L84.31387707769616,299.667444846L86.77039041360649,299.687887215L89.22690374951682,300L91.6041747197526,298.680886708L94.06398982089937,299.6931762396667L96.44126079113516,299.35564726866664L98.89777412704548,299.71237092666667L101.3542874629558,299.19021783166664L103.65231606751708,299.249879981L106.10552763819096,299.22188071433334L108.48279860842675,299.00507164733335L110.93931194433706,297.697762225L113.31658291457285,298.5841309396667L115.77309625048318,299.28924774L118.22960958639351,296.95889182033335L120.6068805566293,297.0919177686667L123.06669565777605,296.37582676466667L125.44396662801185,295.0465009723333L127.90047996392218,297.23311240833334L130.35699329983248,296.27489520433335L132.57577953871925,295.5569206756667L135.02899110939313,298.0434625236667L137.4062620796289,296.7767020023333L139.86277541553923,296.60794165666664L142.24004638577503,296.2022600353333L144.69655972168533,298.0309572896667L147.15307305759566,297.976118195L149.53034402783146,295.453073904L151.9901591289782,296.2009615366667L154.367430099214,295.747756942L156.82394343512433,295.20812701666665L159.28045677103466,293.0438877176667L161.4992430099214,292.89653480066664L163.9524545805953,293.440291113L166.32972555083109,289.34563151866666L168.78623888674142,290.30983778266665L171.1635098569772,290.917811874L173.62002319288752,285.6620252596667L176.07653652879785,285.8889460053333L178.45380749903364,284.31199377133333L180.9136226001804,287.74317737033334L183.2908935704162,290.5110040006667L185.74740690632652,286.06060606066666L188.20392024223685,290.834772872L190.42270648112356,286.570895951L192.87591805179744,286.38633116933335L195.25318902203324,285.722779757L197.70970235794357,283.38692390166665L200.08697332817937,282.311978912L202.54348666408967,285.939829872L205,282.62826758533333L207.3772709702358,285.40990073333336L209.83708607138257,289.6415408116667L212.21435704161837,287.34556724966666L214.6708703775287,289.0572952603333L217.12738371343897,287.6962580576667L219.42541231800027,289.501259849L221.87862388867413,288.3850029893333L224.25589485890993,288.113296254L226.71240819482026,285.591146033L229.08967916505603,286.8834509073333L231.54619250096636,287.415028307L234.0027058368767,286.07417170766666L236.37997680711248,285.222119225L238.83979190825926,288.67120970366665L241.21706287849506,282.99721734966664L243.67357621440533,286.48298760266664L246.13008955031566,286.35966302633335L248.34887578920245,281.46831081166664L250.80208735987628,280.03236264266667L253.17935833011208,279.97868L255.6358716660224,281.689545297L258.0131426362582,281.6559784666667L260.46965597216854,283.49553241166666L262.92616930807884,278.6187727176667L265.30344027831467,278.24001266066665L267.76325537946144,282.07778242433335L270.1405263496972,287.497482132L272.5970396856075,288.8730732573333L275.0535530215178,279.32380028566666L277.2723392604046,286.36896485933335L279.72555083107846,291.297429012L282.1028218013143,285.7317119736667L284.5593351372246,275.11052890133334L286.93660610746036,280.9919659376667L289.39311944337067,283.156476335L291.849632779281,281.282215063L294.2269037495168,278.95317291466665L296.68671885066357,273.14648704166666L299.0639898208994,284.15497457133336L301.5205031568097,286.6537275686667L303.97701649272,282.695369281L306.19580273160676,283.634830117L308.64901430228065,277.539223782L311.0262852725164,284.36868466966666L313.4827986084267,286.3189184483333L315.86006957866255,281.43936598666664L318.31658291457285,282.009158078L320.7730962504832,275.30242184466664L323.150367220719,279.21172635566666L325.61018232186575,276.123557181L327.9874532921015,277.872561213L330.4439666280119,274.27522750366666L332.9004799639222,278.871653421L335.1985085684835,277.5610113943333L337.6517201391573,288.03614189533334L340.0289911093931,285.9254046446667L342.48550444530343,290.20276360466664L344.8627754155392,291.88772612966665L347.31928875144956,291.83178931466665L349.77580208735986,292.86590759933335L352.1530730575957,294.7772001046667L354.61288815874246,292.2757603393333L356.99015912897823,292.97135828533334L359.44667246488854,293.0276058723333L361.90318580079884,286.4531893793333L364.1219720396856,285.763194468L366.5751836103595,290.37436322733333L368.9524545805953,289.20910249866665L371.4089679165056,288.799895813L373.7862388867414,292.150239012L376.2427522226517,287.357913946L378.69926555856205,289.91630533433334L381.0765365287978,289.01386787933336L383.5363516299446,290.34655854833335L385.9136226001804,289.92303719666666L388.3701359360907,287.81781179266665L390.826649272001,287.5304403956667L393.0454355108878,283.88537127433335L395.49864708156167,289.365970138L397.87591805179744,283.69788639566667L400.33243138770774,287.47088824033335L402.70970235794357,289.8327865356667L405.16621569385387,285.94787631233334L407.62272902976423,279.49564477133333L410,292.3912817926667" data-legend="rstudio" style="stroke: rgb(31, 119, 180); fill: none;"></path><path class="line" d="M2.4565133359103206,300L4.833784306146115,300L7.2935994072928745,300L9.670870377528669,300L12.12738371343899,300L14.58389704934931,300L16.80268328823605,300L19.255894858909933,300L21.633165829145728,300L24.08967916505605,300L26.466950135291842,300L28.92346347120216,300L31.379976807112484,300L33.75724777734828,300L36.21706287849504,300L38.594333848730834,299.10878206166666L41.05084718464115,300L43.50736052055148,300L45.726146759438215,300L48.1793583301121,300L50.55662930034789,300L53.01314263625821,300L55.39041360649401,300L57.84692694240432,300L60.30344027831465,300L62.680711248550445,300L65.14052634969721,300L67.517797319933,300L69.97431065584333,300L72.43082399175364,300L74.64961023064038,300L77.10282180131426,300L79.48009277155006,300L81.93660610746038,300L84.31387707769616,300L86.77039041360649,300L89.22690374951682,300L91.6041747197526,300L94.06398982089937,300L96.44126079113516,300L98.89777412704548,300L101.3542874629558,300L103.65231606751708,300L106.10552763819096,299.740626905L108.48279860842675,299.5025358236667L110.93931194433706,300L113.31658291457285,300L115.77309625048318,299.76308258L118.22960958639351,299.74657431866666L120.6068805566293,300L123.06669565777605,299.773489173L125.44396662801185,299.75232504866665L127.90047996392218,299.574324986L130.35699329983248,300L132.57577953871925,299.42046791433336L135.02899110939313,299.8043462526667L137.4062620796289,299.59708775033334L139.86277541553923,299.78799635366664L142.24004638577503,299.2404520073333L144.69655972168533,299.409287187L147.15307305759566,298.380894556L149.53034402783146,299.6362459123333L151.9901591289782,299.43014423066666L154.367430099214,299.79751223533333L156.82394343512433,298.93513933733334L159.28045677103466,299.2865525866667L161.4992430099214,299.3542304366667L163.9524545805953,299.482128246L166.32972555083109,299.42923026L168.78623888674142,299.38147900766666L171.1635098569772,299.621575495L173.62002319288752,299.590343579L176.07653652879785,298.992067572L178.45380749903364,299.61264182166667L180.9136226001804,299.598136963L183.2908935704162,300L185.74740690632652,298.787878788L188.20392024223685,299.203023728L190.42270648112356,298.76310883766666L192.87591805179744,299.1159955306667L195.25318902203324,299.81927569333334L197.70970235794357,299.1068238656667L200.08697332817937,299.82827164L202.54348666408967,298.3349798533333L205,298.6782377513333L207.3772709702358,298.91925190633333L209.83708607138257,299.058321892L212.21435704161837,292.6020239306667L214.6708703775287,287.20259954166664L217.12738371343897,283.06006544166667L219.42541231800027,282.83539308633334L221.87862388867413,282.919122043L224.25589485890993,281.194170193L226.71240819482026,281.213772676L229.08967916505603,282.5112678763333L231.54619250096636,280.75239623433333L234.0027058368767,282.7398184543333L236.37997680711248,280.616026516L238.83979190825926,278.11047298666665L241.21706287849506,279.47225021466664L243.67357621440533,276.58320387466665L246.13008955031566,274.25626542966666L248.34887578920245,272.78679875933335L250.80208735987628,268.91830033966664L253.17935833011208,271.501184144L255.6358716660224,272.43993415799997L258.0131426362582,270.61212876766666L260.46965597216854,267.56018439499996L262.92616930807884,265.54093467133333L265.30344027831467,269.1403815913333L267.76325537946144,258.778899576L270.1405263496972,260.177165309L272.5970396856075,256.961887127L275.0535530215178,257.107883571L277.2723392604046,248.202066465L279.72555083107846,258.3519817L282.1028218013143,252.77397625066666L284.5593351372246,248.91108563966668L286.93660610746036,253.53591673666665L289.39311944337067,251.17510228733332L291.849632779281,248.05814679899999L294.2269037495168,242.75263032733332L296.68671885066357,246.518633856L299.0639898208994,249.39814459866668L301.5205031568097,243.900414187L303.97701649272,234.24240326733332L306.19580273160676,219.64281967699998L308.64901430228065,234.81970823033333L311.0262852725164,232.33873506933332L313.4827986084267,238.310759549L315.86006957866255,224.639353464L318.31658291457285,231.733380652L320.7730962504832,233.31653898033335L323.150367220719,225.4718274663333L325.61018232186575,233.600749493L327.9874532921015,232.85466850833333L330.4439666280119,227.41939188499998L332.9004799639222,225.47033789133332L335.1985085684835,233.761831712L337.6517201391573,220.30229908566668L340.0289911093931,224.39416084766668L342.48550444530343,224.56127975433333L344.8627754155392,222.73059138499997L347.31928875144956,225.12473538433335L349.77580208735986,230.32369755266666L352.1530730575957,215.24820169533334L354.61288815874246,225.24929360599998L356.99015912897823,225.697216156L359.44667246488854,217.773834769L361.90318580079884,221.0195380793333L364.1219720396856,222.48850321466665L366.5751836103595,226.45026260733331L368.9524545805953,231.99225063L371.4089679165056,231.75750472099998L373.7862388867414,216.08876184933334L376.2427522226517,215.9026449443333L378.69926555856205,219.610545304L381.0765365287978,213.80111720533336L383.5363516299446,215.04971522366668L385.9136226001804,215.85736059166666L388.3701359360907,217.35221333666664L390.826649272001,215.158094456L393.0454355108878,212.04098487266666L395.49864708156167,210.5774761583333L397.87591805179744,213.29165662566663L400.33243138770774,215.735581695L402.70970235794357,206.01527065866668L405.16621569385387,209.14575201899999L407.62272902976423,214.86799348033333L410,206.15914210566666" data-legend="jupyter-notebook" style="stroke: rgb(255, 127, 14); fill: none;"></path><path class="line" d="M2.4565133359103206,300L4.833784306146115,300L7.2935994072928745,300L9.670870377528669,300L12.12738371343899,300L14.58389704934931,300L16.80268328823605,300L19.255894858909933,300L21.633165829145728,300L24.08967916505605,300L26.466950135291842,300L28.92346347120216,300L31.379976807112484,300L33.75724777734828,300L36.21706287849504,300L38.594333848730834,300L41.05084718464115,300L43.50736052055148,299.24984059133334L45.726146759438215,300L48.1793583301121,300L50.55662930034789,300L53.01314263625821,300L55.39041360649401,300L57.84692694240432,300L60.30344027831465,300L62.680711248550445,300L65.14052634969721,300L67.517797319933,300L69.97431065584333,300L72.43082399175364,300L74.64961023064038,300L77.10282180131426,300L79.48009277155006,300L81.93660610746038,300L84.31387707769616,300L86.77039041360649,300L89.22690374951682,300L91.6041747197526,300L94.06398982089937,300L96.44126079113516,300L98.89777412704548,300L101.3542874629558,300L103.65231606751708,300L106.10552763819096,300L108.48279860842675,300L110.93931194433706,299.744195803L113.31658291457285,300L115.77309625048318,300L118.22960958639351,299.74657431866666L120.6068805566293,300L123.06669565777605,300L125.44396662801185,300L127.90047996392218,300L130.35699329983248,300L132.57577953871925,300L135.02899110939313,300L137.4062620796289,300L139.86277541553923,299.78799635366664L142.24004638577503,299.6202260036667L144.69655972168533,300L147.15307305759566,300L149.53034402783146,300L151.9901591289782,300L154.367430099214,299.79751223533333L156.82394343512433,300L159.28045677103466,300L161.4992430099214,300L163.9524545805953,300L166.32972555083109,300L168.78623888674142,300L171.1635098569772,300L173.62002319288752,300L176.07653652879785,300L178.45380749903364,300L180.9136226001804,300L183.2908935704162,300L185.74740690632652,300L188.20392024223685,300L190.42270648112356,300L192.87591805179744,284.4415213363333L195.25318902203324,269.99976505866664L197.70970235794357,288.38871025366666L200.08697332817937,289.6962983953333L202.54348666408967,291.119892551L205,292.06942650633334L207.3772709702358,287.75152160333334L209.83708607138257,284.9331502713333L212.21435704161837,280.53164192266667L214.6708703775287,281.82398195766666L217.12738371343897,285.55647685033335L219.42541231800027,279.669106374L221.87862388867413,275.57434452133333L224.25589485890993,278.355554373L226.71240819482026,275.7420559793333L229.08967916505603,270.9154780983333L231.54619250096636,273.71961793533336L234.0027058368767,267.24488274866667L236.37997680711248,263.34317885666667L238.83979190825926,263.51745497766666L241.21706287849506,261.2253615166667L243.67357621440533,258.497060526L246.13008955031566,252.35487930233333L248.34887578920245,249.74740139L250.80208735987628,247.44367148366666L253.17935833011208,249.49576936900002L255.6358716660224,246.01247376133333L258.0131426362582,239.913970283L260.46965597216854,233.79242312166667L262.92616930807884,230.25153041866668L265.30344027831467,235.31349218133334L267.76325537946144,230.7007587073333L270.1405263496972,233.78296092066665L272.5970396856075,227.36006315066666L275.0535530215178,216.85528199933333L277.2723392604046,217.62960193499998L279.72555083107846,208.62300462499996L282.1028218013143,216.399889873L284.5593351372246,201.970416462L286.93660610746036,195.0334119L289.39311944337067,202.776622895L291.849632779281,201.49765676733335L294.2269037495168,193.71352321799998L296.68671885066357,198.453102258L299.0639898208994,186.27360781033332L301.5205031568097,189.61049243233333L303.97701649272,187.40453612066665L306.19580273160676,184.184951597L308.64901430228065,195.183044316L311.0262852725164,186.56131160166666L313.4827986084267,184.5814210913333L315.86006957866255,177.231468996L318.31658291457285,164.94546063966666L320.7730962504832,157.00102248L323.150367220719,173.94344704966664L325.61018232186575,161.28923695466665L327.9874532921015,143.07322147533333L330.4439666280119,150.474759864L332.9004799639222,169.5150464013333L335.1985085684835,139.25916816099996L337.6517201391573,145.20608205766663L340.0289911093931,137.42037929233334L342.48550444530343,112.08900593333334L344.8627754155392,121.73278169899999L347.31928875144956,120.29936492166667L349.77580208735986,109.04412673966661L352.1530730575957,110.79220378433331L354.61288815874246,106.14650141799999L356.99015912897823,91.90200065266663L359.44667246488854,95.15586907299996L361.90318580079884,83.251030069L364.1219720396856,95.0351965473333L366.5751836103595,87.24874619933328L368.9524545805953,82.42539223666665L371.4089679165056,63.23500683733329L373.7862388867414,83.72555070166663L376.2427522226517,32.59239715966663L378.69926555856205,39.22445183933337L381.0765365287978,67.882746984L383.5363516299446,29.703639347666694L385.9136226001804,26.41045988766666L388.3701359360907,25.303599239666653L390.826649272001,11.244119747000013L393.0454355108878,15.532040134666659L395.49864708156167,26.17373104633333L397.87591805179744,25.93548143233329L400.33243138770774,44.99572536199997L402.70970235794357,3.662924636333287L405.16621569385387,9.50868445499998L407.62272902976423,17.35135640233335L410,18.93856075333332" data-legend="visual-studio-code" style="stroke: rgb(44, 160, 44); fill: none;"></path><path class="line" d="M2.4565133359103206,300L4.833784306146115,300L7.2935994072928745,300L9.670870377528669,300L12.12738371343899,300L14.58389704934931,300L16.80268328823605,300L19.255894858909933,300L21.633165829145728,300L24.08967916505605,300L26.466950135291842,300L28.92346347120216,300L31.379976807112484,300L33.75724777734828,300L36.21706287849504,300L38.594333848730834,300L41.05084718464115,300L43.50736052055148,300L45.726146759438215,299.35661114233335L48.1793583301121,300L50.55662930034789,300L53.01314263625821,300L55.39041360649401,298.8952961713333L57.84692694240432,299.472607219L60.30344027831465,299.45130315533333L62.680711248550445,299.4739140273333L65.14052634969721,297.590303381L67.517797319933,299.51750957766666L69.97431065584333,300L72.43082399175364,298.381268034L74.64961023064038,296.6783588436667L77.10282180131426,297.89792314833335L79.48009277155006,298.6650781096667L81.93660610746038,297.9728154553333L84.31387707769616,295.67678299466667L86.77039041360649,299.063661645L89.22690374951682,298.0333349723333L91.6041747197526,294.063990186L94.06398982089937,298.77270495833335L96.44126079113516,296.13388361066666L98.89777412704548,297.41133833833334L101.3542874629558,297.840580884L103.65231606751708,296.749479917L106.10552763819096,295.8500304766667L108.48279860842675,297.5126791183333L110.93931194433706,294.62811185833334L113.31658291457285,295.2804364653333L115.77309625048318,296.6831561193333L118.22960958639351,296.7054661386667L120.6068805566293,298.21041093466664L123.06669565777605,298.1879133823333L125.44396662801185,297.02790058333335L127.90047996392218,295.7432498586667L130.35699329983248,296.71314282733334L132.57577953871925,296.71598484733335L135.02899110939313,296.2825787946667L137.4062620796289,295.769421378L139.86277541553923,292.3678687276667L142.24004638577503,294.1135030543333L144.69655972168533,296.25881885033334L147.15307305759566,294.940295487L149.53034402783146,292.36116415866667L151.9901591289782,291.832067304L154.367430099214,288.255709649L156.82394343512433,289.5288701476667L159.28045677103466,291.795354744L161.4992430099214,292.412207628L163.9524545805953,289.6425649153333L166.32972555083109,288.96511835866664L168.78623888674142,291.13453243966666L171.1635098569772,288.26884033733336L173.62002319288752,289.7585894713333L176.07653652879785,287.90481086166665L178.45380749903364,289.92868735966664L180.9136226001804,288.54690344466667L183.2908935704162,284.688211001L185.74740690632652,286.2626262626667L188.20392024223685,286.0529152396667L190.42270648112356,285.5107035263333L192.87591805179744,286.2095302756667L195.25318902203324,285.9035040636667L197.70970235794357,282.851018221L200.08697332817937,285.05963267333334L202.54348666408967,285.01481867933336L205,287.16002386733334L207.3772709702358,285.049651369L209.83708607138257,280.97810221733334L212.21435704161837,280.53164192266667L214.6708703775287,282.936799389L217.12738371343897,280.207023832L219.42541231800027,280.00239971233333L221.87862388867413,279.6737552313333L224.25589485890993,275.87176553033333L226.71240819482026,279.572257667L229.08967916505603,275.47775604366666L231.54619250096636,275.015129727L234.0027058368767,271.95220498833334L236.37997680711248,279.46450333866665L238.83979190825926,278.11047298666665L241.21706287849506,275.739932072L243.67357621440533,275.2505406806667L246.13008955031566,277.5222616063333L248.34887578920245,274.12241599833334L250.80208735987628,274.56951846L253.17935833011208,278.89644648633333L255.6358716660224,275.4602153463333L258.0131426362582,268.55310594266666L260.46965597216854,274.7690323073333L262.92616930807884,275.0898322923333L265.30344027831467,271.514198392L267.76325537946144,267.740008364L270.1405263496972,264.80772748233335L272.5970396856075,268.928581926L275.0535530215178,272.285094L277.2723392604046,269.816993617L279.72555083107846,268.504981186L282.1028218013143,267.042264277L284.5593351372246,267.032367229L286.93660610746036,258.81592619833333L289.39311944337067,263.32802442533335L291.849632779281,265.60607017766665L294.2269037495168,265.062267038L296.68671885066357,257.3503029483333L299.0639898208994,256.8095274606667L301.5205031568097,258.83014266966666L303.97701649272,268.159479477L306.19580273160676,263.073462828L308.64901430228065,260.14313239766665L311.0262852725164,258.01875311233334L313.4827986084267,260.6979839063333L315.86006957866255,259.077156332L318.31658291457285,250.21712235266668L320.7730962504832,258.75504448066664L323.150367220719,253.77926391833333L325.61018232186575,253.384087829L327.9874532921015,253.45607703433333L330.4439666280119,257.9675592246667L332.9004799639222,258.9042050053333L335.1985085684835,250.80683267233331L337.6517201391573,246.07060884999999L340.0289911093931,257.9566574643333L342.48550444530343,254.93271258066667L344.8627754155392,244.430923988L347.31928875144956,255.75552545433334L349.77580208735986,251.72597475499998L352.1530730575957,255.84360088333332L354.61288815874246,255.14957616366667L356.99015912897823,251.05053091366668L359.44667246488854,251.674095873L361.90318580079884,256.036765533L364.1219720396856,260.00135588633333L366.5751836103595,258.78252971633333L368.9524545805953,258.342116622L371.4089679165056,267.441557596L373.7862388867414,259.93915081833336L376.2427522226517,263.722709584L378.69926555856205,259.38511870766666L381.0765365287978,265.351429465L383.5363516299446,262.592914374L385.9136226001804,261.203693207L388.3701359360907,255.57084300766667L390.826649272001,263.080323524L393.0454355108878,258.146728171L395.49864708156167,257.705563048L397.87591805179744,258.654059699L400.33243138770774,255.53393669633334L402.70970235794357,252.387683289L405.16621569385387,261.23552086166666L407.62272902976423,266.2586559526667L410,257.575631812" data-legend="pycharm" style="stroke: rgb(214, 39, 40); fill: none;"></path></g></g><g transform="translate(20, 150)"><text transform="rotate(-90)" x="-50" y="0" dy="1em" class="axis-label y-axis-label" style="text-anchor: middle; font-weight: bold;">% of Stack Overflow questions that month</text></g><g class="legend" transform="translate(530, 30)" style="font-size: 12px;"><text class="legend-title" style="font-weight: bold;">Tag</text><g class="legend-items" transform="translate(0,20)"><text y="0em" x="1em">visual-studio-code</text><text y="1em" x="1em">jupyter-notebook</text><text y="2em" x="1em">pycharm</text><text y="3em" x="1em">rstudio</text><circle cy="-0.25em" cx="0" r="0.4em" style="fill: rgb(44, 160, 44);"></circle><circle cy="0.75em" cx="0" r="0.4em" style="fill: rgb(255, 127, 14);"></circle><circle cy="1.75em" cx="0" r="0.4em" style="fill: rgb(214, 39, 40);"></circle><circle cy="2.75em" cx="0" r="0.4em" style="fill: rgb(31, 119, 180);"></circle></g><rect class="legend-box"></rect></g></svg>
        