
            <svg id="trend-chart" width="660" height="400" title="Stack Overflow Trends Chart" version="1.1" xmlns="http://www.w3.org/2000/svg"><g></g><g class="chart-area" transform="translate(100, 20)"><g transform="translate(0,300)" fill="none" font-size="10" font-family="sans-serif" text-anchor="middle"><path class="domain" stroke="#000" d="M0.5,6V0.5H410.5V6"></path><g class="tick" opacity="1" transform="translate(12.27206793141665,0)"><line stroke="#000" y2="6" x1="0.5" x2="0.5"></line><text fill="#000" y="9" x="0.5" dy="0.71em" style="font-size: 12px;">2009</text></g><g class="tick" opacity="1" transform="translate(41.54059912640981,0)"><line stroke="#000" y2="6" x1="0.5" x2="0.5"></line><text fill="#000" y="9" x="0.5" dy="0.71em" style="font-size: 12px;">2010</text></g><g class="tick" opacity="1" transform="translate(70.80913032140296,0)"><line stroke="#000" y2="6" x1="0.5" x2="0.5"></line><text fill="#000" y="9" x="0.5" dy="0.71em" style="font-size: 12px;">2011</text></g><g class="tick" opacity="1" transform="translate(100.07766151639612,0)"><line stroke="#000" y2="6" x1="0.5" x2="0.5"></line><text fill="#000" y="9" x="0.5" dy="0.71em" style="font-size: 12px;">2012</text></g><g class="tick" opacity="1" transform="translate(129.4263804680879,0)"><line stroke="#000" y2="6" x1="0.5" x2="0.5"></line><text fill="#000" y="9" x="0.5" dy="0.71em" style="font-size: 12px;">2013</text></g><g class="tick" opacity="1" transform="translate(158.69491166308106,0)"><line stroke="#000" y2="6" x1="0.5" x2="0.5"></line><text fill="#000" y="9" x="0.5" dy="0.71em" style="font-size: 12px;">2014</text></g><g class="tick" opacity="1" transform="translate(187.9634428580742,0)"><line stroke="#000" y2="6" x1="0.5" x2="0.5"></line><text fill="#000" y="9" x="0.5" dy="0.71em" style="font-size: 12px;">2015</text></g><g class="tick" opacity="1" transform="translate(217.23197405306732,0)"><line stroke="#000" y2="6" x1="0.5" x2="0.5"></line><text fill="#000" y="9" x="0.5" dy="0.71em" style="font-size: 12px;">2016</text></g><g class="tick" opacity="1" transform="translate(246.5806930047591,0)"><line stroke="#000" y2="6" x1="0.5" x2="0.5"></line><text fill="#000" y="9" x="0.5" dy="0.71em" style="font-size: 12px;">2017</text></g><g class="tick" opacity="1" transform="translate(275.84922419975226,0)"><line stroke="#000" y2="6" x1="0.5" x2="0.5"></line><text fill="#000" y="9" x="0.5" dy="0.71em" style="font-size: 12px;">2018</text></g><g class="tick" opacity="1" transform="translate(305.1177553947454,0)"><line stroke="#000" y2="6" x1="0.5" x2="0.5"></line><text fill="#000" y="9" x="0.5" dy="0.71em" style="font-size: 12px;">2019</text></g><g class="tick" opacity="1" transform="translate(334.3862865897386,0)"><line stroke="#000" y2="6" x1="0.5" x2="0.5"></line><text fill="#000" y="9" x="0.5" dy="0.71em" style="font-size: 12px;">2020</text></g><g class="tick" opacity="1" transform="translate(363.7350055414303,0)"><line stroke="#000" y2="6" x1="0.5" x2="0.5"></line><text fill="#000" y="9" x="0.5" dy="0.71em" style="font-size: 12px;">2021</text></g><g class="tick" opacity="1" transform="translate(393.00353673642354,0)"><line stroke="#000" y2="6" x1="0.5" x2="0.5"></line><text fill="#000" y="9" x="0.5" dy="0.71em" style="font-size: 12px;">2022</text></g></g><g class="grid-lines" transform="translate(0,300)" fill="none" font-size="10" font-family="sans-serif" text-anchor="middle"><path class="domain" stroke="#000" d="M0.5,-300V0.5H410.5V-300"></path><g class="tick" opacity="1" transform="translate(12.27206793141665,0)"><line stroke="#000" y2="-300" x1="0.5" x2="0.5" style="stroke: #ccc; fill: none;"></line></g><g class="tick" opacity="1" transform="translate(41.54059912640981,0)"><line stroke="#000" y2="-300" x1="0.5" x2="0.5" style="stroke: #ccc; fill: none;"></line></g><g class="tick" opacity="1" transform="translate(70.80913032140296,0)"><line stroke="#000" y2="-300" x1="0.5" x2="0.5" style="stroke: #ccc; fill: none;"></line></g><g class="tick" opacity="1" transform="translate(100.07766151639612,0)"><line stroke="#000" y2="-300" x1="0.5" x2="0.5" style="stroke: #ccc; fill: none;"></line></g><g class="tick" opacity="1" transform="translate(129.4263804680879,0)"><line stroke="#000" y2="-300" x1="0.5" x2="0.5" style="stroke: #ccc; fill: none;"></line></g><g class="tick" opacity="1" transform="translate(158.69491166308106,0)"><line stroke="#000" y2="-300" x1="0.5" x2="0.5" style="stroke: #ccc; fill: none;"></line></g><g class="tick" opacity="1" transform="translate(187.9634428580742,0)"><line stroke="#000" y2="-300" x1="0.5" x2="0.5" style="stroke: #ccc; fill: none;"></line></g><g class="tick" opacity="1" transform="translate(217.23197405306732,0)"><line stroke="#000" y2="-300" x1="0.5" x2="0.5" style="stroke: #ccc; fill: none;"></line></g><g class="tick" opacity="1" transform="translate(246.5806930047591,0)"><line stroke="#000" y2="-300" x1="0.5" x2="0.5" style="stroke: #ccc; fill: none;"></line></g><g class="tick" opacity="1" transform="translate(275.84922419975226,0)"><line stroke="#000" y2="-300" x1="0.5" x2="0.5" style="stroke: #ccc; fill: none;"></line></g><g class="tick" opacity="1" transform="translate(305.1177553947454,0)"><line stroke="#000" y2="-300" x1="0.5" x2="0.5" style="stroke: #ccc; fill: none;"></line></g><g class="tick" opacity="1" transform="translate(334.3862865897386,0)"><line stroke="#000" y2="-300" x1="0.5" x2="0.5" style="stroke: #ccc; fill: none;"></line></g><g class="tick" opacity="1" transform="translate(363.7350055414303,0)"><line stroke="#000" y2="-300" x1="0.5" x2="0.5" style="stroke: #ccc; fill: none;"></line></g><g class="tick" opacity="1" transform="translate(393.00353673642354,0)"><line stroke="#000" y2="-300" x1="0.5" x2="0.5" style="stroke: #ccc; fill: none;"></line></g></g><text x="205" y="360" class="axis-label x-axis-label" style="text-anchor: middle; font-weight: bold;">Year</text><g fill="none" font-size="10" font-family="sans-serif" text-anchor="end"><path class="domain" stroke="#000" d="M-6,300.5H0.5V0.5H-6"></path><g class="tick" opacity="1" transform="translate(0,300)"><line stroke="#000" x2="-6" y1="0.5" y2="0.5"></line><text fill="#000" x="-9" y="0.5" dy="0.32em" style="font-size: 12px;">0.00%</text></g><g class="tick" opacity="1" transform="translate(0,266.6666666666667)"><line stroke="#000" x2="-6" y1="0.5" y2="0.5"></line><text fill="#000" x="-9" y="0.5" dy="0.32em" style="font-size: 12px;">2.00%</text></g><g class="tick" opacity="1" transform="translate(0,233.33333333333331)"><line stroke="#000" x2="-6" y1="0.5" y2="0.5"></line><text fill="#000" x="-9" y="0.5" dy="0.32em" style="font-size: 12px;">4.00%</text></g><g class="tick" opacity="1" transform="translate(0,200)"><line stroke="#000" x2="-6" y1="0.5" y2="0.5"></line><text fill="#000" x="-9" y="0.5" dy="0.32em" style="font-size: 12px;">6.00%</text></g><g class="tick" opacity="1" transform="translate(0,166.66666666666666)"><line stroke="#000" x2="-6" y1="0.5" y2="0.5"></line><text fill="#000" x="-9" y="0.5" dy="0.32em" style="font-size: 12px;">8.00%</text></g><g class="tick" opacity="1" transform="translate(0,133.33333333333331)"><line stroke="#000" x2="-6" y1="0.5" y2="0.5"></line><text fill="#000" x="-9" y="0.5" dy="0.32em" style="font-size: 12px;">10.00%</text></g><g class="tick" opacity="1" transform="translate(0,100)"><line stroke="#000" x2="-6" y1="0.5" y2="0.5"></line><text fill="#000" x="-9" y="0.5" dy="0.32em" style="font-size: 12px;">12.00%</text></g><g class="tick" opacity="1" transform="translate(0,66.66666666666663)"><line stroke="#000" x2="-6" y1="0.5" y2="0.5"></line><text fill="#000" x="-9" y="0.5" dy="0.32em" style="font-size: 12px;">14.00%</text></g><g class="tick" opacity="1" transform="translate(0,33.333333333333314)"><line stroke="#000" x2="-6" y1="0.5" y2="0.5"></line><text fill="#000" x="-9" y="0.5" dy="0.32em" style="font-size: 12px;">16.00%</text></g><g class="tick" opacity="1" transform="translate(0,0)"><line stroke="#000" x2="-6" y1="0.5" y2="0.5"></line><text fill="#000" x="-9" y="0.5" dy="0.32em" style="font-size: 12px;">18.00%</text></g></g><g class="grid-lines" fill="none" font-size="10" font-family="sans-serif" text-anchor="end"><path class="domain" stroke="#000" d="M410,300.5H0.5V0.5H410"></path><g class="tick" opacity="1" transform="translate(0,300)"><line stroke="#000" x2="410" y1="0.5" y2="0.5" style="stroke: #ccc; fill: none;"></line></g><g class="tick" opacity="1" transform="translate(0,266.6666666666667)"><line stroke="#000" x2="410" y1="0.5" y2="0.5" style="stroke: #ccc; fill: none;"></line></g><g class="tick" opacity="1" transform="translate(0,233.33333333333331)"><line stroke="#000" x2="410" y1="0.5" y2="0.5" style="stroke: #ccc; fill: none;"></line></g><g class="tick" opacity="1" transform="translate(0,200)"><line stroke="#000" x2="410" y1="0.5" y2="0.5" style="stroke: #ccc; fill: none;"></line></g><g class="tick" opacity="1" transform="translate(0,166.66666666666666)"><line stroke="#000" x2="410" y1="0.5" y2="0.5" style="stroke: #ccc; fill: none;"></line></g><g class="tick" opacity="1" transform="translate(0,133.33333333333331)"><line stroke="#000" x2="410" y1="0.5" y2="0.5" style="stroke: #ccc; fill: none;"></line></g><g class="tick" opacity="1" transform="translate(0,100)"><line stroke="#000" x2="410" y1="0.5" y2="0.5" style="stroke: #ccc; fill: none;"></line></g><g class="tick" opacity="1" transform="translate(0,66.66666666666663)"><line stroke="#000" x2="410" y1="0.5" y2="0.5" style="stroke: #ccc; fill: none;"></line></g><g class="tick" opacity="1" transform="translate(0,33.333333333333314)"><line stroke="#000" x2="410" y1="0.5" y2="0.5" style="stroke: #ccc; fill: none;"></line></g><g class="tick" opacity="1" transform="translate(0,0)"><line stroke="#000" x2="410" y1="0.5" y2="0.5" style="stroke: #ccc; fill: none;"></line></g></g><g class="lines"><path class="line" d="M2.4858204576569527,235.22941091331666L4.8914531586152945,241.17102093756668L7.380614772801357,240.01542840423332L9.786247473759698,238.59796352245L12.27206793141665,232.93369895628334L14.757888389073603,239.69550544563333L17.003145576634722,237.05406429713332L19.485624877762568,239.26453143535L21.891257578720907,234.85448438991665L24.37707803637786,237.91632407441668L26.782710737336203,239.63500233973332L29.268531194993155,241.62703069986668L31.754351652650108,240.63647490821666L34.15998435360845,234.20991669678335L36.64914596779451,232.01207507548332L39.05477866875285,229.19841375931665L41.54059912640981,227.22240921501668L44.02641958406676,230.20552055206667L46.27167677162788,233.33076047315L48.75415607275572,239.21880558745L51.15978877371406,235.12915987899999L53.64560923137102,233.48395842748334L56.051241932329354,228.44364937388335L58.53706238998631,234.33296954168333L61.02288284764326,238.34169889465L63.428515548601595,229.7337667119L65.91767716278767,237.21964451768332L68.32330986374602,240.15572536761667L70.80913032140296,239.17336221444998L73.2949507790599,239.10186376621667L75.54020796662103,237.78145299486664L78.02268726774888,241.50387580608333L80.42831996870721,241.40690170641668L82.91414042636417,241.437195742L85.3197731273225,239.11947677995L87.80559358497946,240.30456219184998L90.29141404263642,242.36037382198333L92.69704674359477,240.26898734178332L95.18620835778081,240.53699221781667L97.59184105873916,241.64226369386665L100.07766151639612,239.43211133448332L102.56348197405308,239.37308559015L104.8889269183128,237.05314734263334L107.37140621944064,236.22257142709998L109.77703892039898,236.57271321068333L112.26285937805595,232.50865224498335L114.66849207901429,232.45698483261668L117.15431253667123,230.5896092882L119.64013299432818,233.50056376928333L122.04576569528652,231.48417773186662L124.5349273094726,227.64550713810002L126.94056001043093,228.79874190473333L129.4263804680879,230.17470157719998L131.91220092574483,226.35024549918333L134.15745811330595,226.47768931536666L136.6399374144338,222.49790693490002L139.04557011539214,221.47766945723333L141.5313905730491,219.61029852676666L143.93702327400743,218.36486727646667L146.4228437316644,221.94080371551667L148.90866418932134,219.49510761626664L151.31429689027968,213.85187649648333L153.80345850446574,210.0060925960833L156.20909120542407,214.52498710441665L158.69491166308106,212.82285860176665L161.18073212073799,211.92672645708333L163.4259893082991,208.02268521206668L165.90846860942696,207.42416486118333L168.3141013103853,212.16663244588335L170.79992176804225,208.2974734472333L173.2055544690006,206.3920733457333L175.69137492665755,206.75568330713332L178.1771953843145,211.61875738190002L180.58282808527284,207.23581911518332L183.0719896994589,203.89174160058332L185.47762240041723,202.58221276468333L187.9634428580742,202.28213672625L190.44926331573114,198.4305897540167L192.69452050329227,197.50615687398334L195.17699980442012,198.82331730133333L197.58263250537846,198.68112014455L200.0684529630354,194.54789015406664L202.47408566399375,194.24830271874998L204.95990612165068,196.19866814651664L207.44572657930763,196.50829972661666L209.851359280266,187.61505477426664L212.34052089445203,184.24683714721667L214.7461535954104,186.54697611054996L217.23197405306732,185.52838473291666L219.71779451072433,181.90057431608335L222.04323945498405,182.86378874826667L224.5257187561119,183.36646446431666L226.9313514570702,183.76961864513333L229.41717191472713,182.30401785959998L231.8228046156855,178.13015038409998L234.30862507334245,180.52538847063332L236.79444553099944,179.06602728173334L239.20007823195775,170.44553837886664L241.68923984614383,163.86269325085L244.09487254710214,164.73652341968332L246.5806930047591,164.18335817784998L249.06651346241608,158.12128372861665L251.31177064997718,157.07989201481666L253.79424995110503,152.71265264146666L256.19988265206337,154.09846414689997L258.6857031097203,148.82120750486666L261.0913358106787,141.75651392633333L263.5771562683356,143.87895069353337L266.06297672599254,139.66793919276668L268.46860942695093,132.49854604585L270.957771041137,131.09507423693336L273.36340374209533,127.11916205929998L275.84922419975226,129.57360337893334L278.3350446574092,120.75459248311668L280.58030184497034,125.70557940749998L283.0627811460982,124.1409607645833L285.4684138470565,123.51120863576665L287.95423430471345,116.59177943418331L290.3598670056718,110.64446359475L292.8456874633288,111.12042112534996L295.33150792098576,112.96909802159999L297.73714062194404,109.20392198953334L300.22630223613015,96.92877049273335L302.63193493708843,99.15922362351668L305.1177553947454,108.50712471130001L307.6035758524024,98.09061063085L309.8488330399635,91.3244164699833L312.33131234109135,81.90779476473335L314.7369450420497,89.16012397618331L317.2227654997066,85.83972617733332L319.628398200665,79.28054851133334L322.11421865832193,77.80817730979999L324.60003911597886,91.7176073087833L327.00567181693725,74.0261061496833L329.49483343112325,65.85309285383332L331.90046613208165,69.80578276971664L334.3862865897386,70.66464528133335L336.8721070473955,67.40352783311667L339.19755199165525,55.26746147839998L341.6800312927831,45.73806907798331L344.08566399374143,34.27519757498334L346.5714844513984,34.382989227216626L348.97711715235675,33.6038151315833L351.4629376100137,38.51137972341667L353.9487580676706,41.29445498509995L356.354390768629,29.239649492566684L358.84355238281506,23.274764641566662L361.2491850837734,20.860658720666663L363.7350055414303,24.64562273783332L366.22082599908725,26.15005735278328L368.4660831866484,29.40812543324995L370.94856248777626,19.506388479766656L373.3541951887346,17.97880422111666L375.8400156463916,26.786839323749973L378.24564834734986,20.466403226199986L380.73146880500684,26.531497760466607L383.2172892626638,40.809798402299975L385.6229219636221,30.44456681615003L388.1120835778082,26.381688303749968L390.5177162787665,24.049404321883344L393.00353673642354,31.4116090268667L395.48935719408047,24.959820111166664L397.73461438164156,26.27069072529997L400.2170936827694,16.235164866950015L402.62272638372775,27.46331236898334L405.1085468413847,26.877101415283335L407.5141795423431,20.74857287616669L410,32.00687631138334" data-legend="python" style="stroke: rgb(31, 119, 180); fill: none;"></path><path class="line" d="M2.4858204576569527,299.2763062672L4.8914531586152945,300L7.380614772801357,299.86699651531666L9.786247473759698,299.8601320353667L12.27206793141665,299.14971409136666L14.757888389073603,299.1371375978L17.003145576634722,299.6704401272167L19.485624877762568,299.0510083036833L21.891257578720907,299.86931691955L24.37707803637786,299.70209368558335L26.782710737336203,297.3483075963333L29.268531194993155,297.58066176623333L31.754351652650108,292.96205630355L34.15998435360845,296.61783374568336L36.64914596779451,295.8874742967167L39.05477866875285,296.4354141603333L41.54059912640981,296.48453569693334L44.02641958406676,295.42454245425L46.27167677162788,295.5296554297L48.75415607275572,294.6300435637833L51.15978877371406,295.5072014066667L53.64560923137102,294.69799668625L56.051241932329354,293.5400516796L58.53706238998631,292.53963483753336L61.02288284764326,293.52697550675L63.428515548601595,294.3723899986333L65.91767716278767,294.17005140955L68.32330986374602,294.6210103817L70.80913032140296,294.75270550505L73.2949507790599,293.4853156587167L75.54020796662103,292.9927336973167L78.02268726774888,291.6634266119L80.42831996870721,292.89275060563335L82.91414042636417,292.5001773606833L85.3197731273225,292.46890305335L87.80559358497946,290.8412906447L90.29141404263642,289.9728677598333L92.69704674359477,289.78111814346664L95.18620835778081,290.69021260671667L97.59184105873916,290.1099502920333L100.07766151639612,290.07790997645L102.56348197405308,289.0296725094167L104.8889269183128,288.88805559723335L107.37140621944064,289.0959915776L109.77703892039898,289.1324350806L112.26285937805595,287.5428135847333L114.66849207901429,286.7981425376L117.15431253667123,287.10103831311665L119.64013299432818,286.5962271800167L122.04576569528652,285.83163916865L124.5349273094726,284.77283791281667L126.94056001043093,284.96724742128333L129.4263804680879,283.9642296977833L131.91220092574483,281.85869500918335L134.15745811330595,282.1529974852L136.6399374144338,282.05245573266666L139.04557011539214,282.09086845698334L141.5313905730491,281.1844873726333L143.93702327400743,281.3283365038167L146.4228437316644,281.1174085882L148.90866418932134,282.6875548598333L151.31429689027968,281.02868695243336L153.80345850446574,279.23582522411664L156.20909120542407,280.7122412032L158.69491166308106,279.2030126377667L161.18073212073799,276.67888842568334L163.4259893082991,277.3663745575L165.90846860942696,276.4639167972333L168.3141013103853,275.45608711853333L170.79992176804225,275.3148158438L173.2055544690006,275.10648420863333L175.69137492665755,274.66465212265L178.1771953843145,276.19652279773334L180.58282808527284,273.11281386941664L183.0719896994589,272.8289256929L185.47762240041723,274.55948015101666L187.9634428580742,272.84661213775L190.44926331573114,270.4166766273833L192.69452050329227,268.51779221743334L195.17699980442012,270.57851356535L197.58263250537846,269.04245709125L200.0684529630354,269.35923197143336L202.47408566399375,265.82257615875L204.95990612165068,267.67480577136666L207.44572657930763,268.55506215355L209.851359280266,266.86350465261665L212.34052089445203,266.67212716561664L214.7461535954104,269.0653432589L217.23197405306732,267.1984632044333L219.71779451072433,267.99449398315L222.04323945498405,266.30875972248333L224.5257187561119,264.75974806678335L226.9313514570702,266.2717211180667L229.41717191472713,264.7623372857167L231.8228046156855,264.41423202606666L234.30862507334245,264.99322628646667L236.79444553099944,267.63849254215L239.20007823195775,263.6698621067L241.68923984614383,265.8288543113L244.09487254710214,267.3401846368333L246.5806930047591,266.78831908345L249.06651346241608,264.67921193435L251.31177064997718,261.5757691107L253.79424995110503,259.8324358025333L256.19988265206337,261.0760892111667L258.6857031097203,258.0263413731833L261.0913358106787,257.1447289607833L263.5771562683356,256.65833793406665L266.06297672599254,256.18815118358333L268.46860942695093,255.08567449626668L270.957771041137,255.12529471739998L273.36340374209533,256.99395252781665L275.84922419975226,255.93705653659998L278.3350446574092,250.49004082208333L280.58030184497034,250.31981074215L283.0627811460982,250.97125000518332L285.4684138470565,252.44668965463333L287.95423430471345,251.01763670741667L290.3598670056718,253.47957959481667L292.8456874633288,256.25003997621667L295.33150792098576,256.03814550696666L297.73714062194404,254.14243834273333L300.22630223613015,252.27295806113332L302.63193493708843,256.58118347581666L305.1177553947454,255.38996455176667L307.6035758524024,250.96173146271667L309.8488330399635,252.85601888278333L312.33131234109135,249.36948603091668L314.7369450420497,252.10214635976666L317.2227654997066,250.92186302896667L319.628398200665,253.0048705873L322.11421865832193,251.3073441983L324.60003911597886,251.3810162442L327.00567181693725,251.52094197995L329.49483343112325,251.26060738356665L331.90046613208165,252.46306922233333L334.3862865897386,252.35962282788333L336.8721070473955,245.65242625585L339.19755199165525,244.75799666025L341.6800312927831,243.19572583035L344.08566399374143,245.75258922449999L346.5714844513984,246.77276850171666L348.97711715235675,249.90814973418333L351.4629376100137,248.99996370105L353.9487580676706,243.40147505671666L356.354390768629,239.84553748588334L358.84355238281506,240.1358713930333L361.2491850837734,245.49981302031665L363.7350055414303,247.82278493181667L366.22082599908725,244.63987819241666L368.4660831866484,241.4854103021L370.94856248777626,240.7532953898L373.3541951887346,241.31923290035002L375.8400156463916,244.19625423703334L378.24564834734986,245.2022189585333L380.73146880500684,244.47144893268333L383.2172892626638,248.53871055215L385.6229219636221,243.93151635211666L388.1120835778082,245.94263703871667L390.5177162787665,250.842096264L393.00353673642354,249.47724807173333L395.48935719408047,247.15033741351667L397.73461438164156,243.29167280635L400.2170936827694,242.53870506093332L402.62272638372775,243.05976136865L405.1085468413847,246.05960200173334L407.5141795423431,248.15377766628333L410,249.38633932288334" data-legend="r" style="stroke: rgb(255, 127, 14); fill: none;"></path><path class="line" d="M2.4858204576569527,299.75876875573334L4.8914531586152945,300L7.380614772801357,300L9.786247473759698,299.58039610608336L12.27206793141665,299.89371426143333L14.757888389073603,299.90412639976665L17.003145576634722,299.83522006361665L19.485624877762568,300L21.891257578720907,300L24.37707803637786,300L26.782710737336203,299.84401809391665L29.268531194993155,299.94852471843336L31.754351652650108,299.5920032639833L34.15998435360845,299.81467582168335L36.64914596779451,299.73749835936667L39.05477866875285,299.77721338503335L41.54059912640981,299.6634129922667L44.02641958406676,299.8499849985L46.27167677162788,299.6462317246667L48.75415607275572,299.8321888613833L51.15978877371406,299.83838853981666L53.64560923137102,299.93974996235L56.051241932329354,299.91718014975L58.53706238998631,299.92091485695L61.02288284764326,299.9451438602333L63.428515548601595,299.89481102801665L65.91767716278767,299.78318373011666L68.32330986374602,299.80703176258334L70.80913032140296,299.9370324660667L73.2949507790599,299.9595361221167L75.54020796662103,299.80074124258334L78.02268726774888,299.7723204747L80.42831996870721,299.78311210768334L82.91414042636417,299.8310850757L85.3197731273225,299.85037555736665L87.80559358497946,299.8595768582667L90.29141404263642,299.77062115791665L92.69704674359477,299.60443037975L95.18620835778081,299.40184232565L97.59184105873916,299.6456333981L100.07766151639612,299.5829846222L102.56348197405308,299.7975954337667L104.8889269183128,299.76251187441665L107.37140621944064,299.6888273458667L109.77703892039898,299.4777600382L112.26285937805595,299.7442056177667L114.66849207901429,299.8348293079L117.15431253667123,299.668346256L119.64013299432818,299.4172272687L122.04576569528652,299.65333923775L124.5349273094726,298.7206919584833L126.94056001043093,299.5789838651833L129.4263804680879,299.70205602625L131.91220092574483,299.7480374306833L134.15745811330595,299.61370124428333L136.6399374144338,299.67723762353336L139.04557011539214,299.47651779638335L141.5313905730491,299.6503874343L143.93702327400743,299.62030170826665L146.4228437316644,299.7048057622L148.90866418932134,299.69662771366666L151.31429689027968,299.6818418990667L153.80345850446574,299.6109089735833L156.20909120542407,299.5347472969833L158.69491166308106,299.59221593408336L161.18073212073799,299.59914055736664L163.4259893082991,299.75012735445L165.90846860942696,299.6035665224L168.3141013103853,299.49619388741667L170.79992176804225,299.5060905212667L173.2055544690006,299.4619149032667L175.69137492665755,299.55983031971664L178.1771953843145,299.56665981385L180.58282808527284,299.4287562183333L183.0719896994589,299.5781201031833L185.47762240041723,299.46100593541667L187.9634428580742,299.57588609513334L190.44926331573114,299.6015714024L192.69452050329227,299.6024973764833L195.17699980442012,299.33715485655L197.58263250537846,299.54832881663333L200.0684529630354,299.62491627596665L202.47408566399375,299.6050837737667L204.95990612165068,299.7595264521L207.44572657930763,299.6412766021833L209.851359280266,299.69384759735L212.34052089445203,299.68931643968335L214.7461535954104,299.58156960055L217.23197405306732,299.7311349443L219.71779451072433,299.67905342156666L222.04323945498405,299.5251234679L224.5257187561119,299.5815913872833L226.9313514570702,299.5830538907333L229.41717191472713,299.5713845373833L231.8228046156855,299.57228644263336L234.30862507334245,299.5928368904667L236.79444553099944,299.52928716425L239.20007823195775,299.59697152893335L241.68923984614383,299.54873732865L244.09487254710214,299.5126948184L246.5806930047591,299.4288618931L249.06651346241608,299.644582769L251.31177064997718,299.59096517195L253.79424995110503,299.4443408469833L256.19988265206337,299.48594464436667L258.6857031097203,299.5563836394333L261.0913358106787,299.5882000599L263.5771562683356,299.59210079475L266.06297672599254,299.52254322541665L268.46860942695093,299.6637112823L270.957771041137,299.5818199197167L273.36340374209533,299.60640494911667L275.84922419975226,299.6536262186167L278.3350446574092,299.6700802365L280.58030184497034,299.6203160139167L283.0627811460982,299.5130280537333L285.4684138470565,299.61820710055L287.95423430471345,299.62883878941665L290.3598670056718,299.7465402747667L292.8456874633288,299.701510994L295.33150792098576,299.6022610290833L297.73714062194404,299.67379889598334L300.22630223613015,299.4809825226667L302.63193493708843,299.6677783314833L305.1177553947454,299.55887642433333L307.6035758524024,299.59625043548334L309.8488330399635,299.6328350380333L312.33131234109135,299.5265088950333L314.7369450420497,299.59805996946665L317.2227654997066,299.61443936998336L319.628398200665,299.6757414339833L322.11421865832193,299.65492423123334L324.60003911597886,299.6418718494L327.00567181693725,299.546614649L329.49483343112325,299.6020810026667L331.90046613208165,299.70750417125L334.3862865897386,299.54059424135L336.8721070473955,299.6633747034333L339.19755199165525,299.68716694066666L341.6800312927831,299.4938870761L344.08566399374143,299.3414167659167L346.5714844513984,299.41228673355L348.97711715235675,299.4626860829667L351.4629376100137,299.5235761733667L353.9487580676706,299.7503530721L356.354390768629,299.632119089L358.84355238281506,299.61386017753335L361.2491850837734,299.5984328843333L363.7350055414303,299.5073086555167L366.22082599908725,299.59124967748335L368.4660831866484,299.4806731379333L370.94856248777626,299.5435919070333L373.3541951887346,299.56124186105L375.8400156463916,299.7006097148333L378.24564834734986,299.6889563267667L380.73146880500684,299.67045370286667L383.2172892626638,299.7840281627333L385.6229219636221,299.53514650038335L388.1120835778082,299.6115215641L390.5177162787665,299.6228293831L393.00353673642354,299.77349403336666L395.48935719408047,299.8048928008L397.73461438164156,299.74324969971667L400.2170936827694,299.7711185317L402.62272638372775,299.68235817293333L405.1085468413847,299.81673703965L407.5141795423431,299.81553763401666L410,299.8148014999" data-legend="octave" style="stroke: rgb(44, 160, 44); fill: none;"></path><path class="line" d="M2.4858204576569527,163.34250012061665L4.8914531586152945,166.93996664815L7.380614772801357,172.71566515043332L9.786247473759698,184.3291932415833L12.27206793141665,177.98397211063332L14.757888389073603,184.66405890475L17.003145576634722,181.85278560483334L19.485624877762568,179.00355871886666L21.891257578720907,181.33976294090002L24.37707803637786,174.10479152516666L26.782710737336203,182.75360058233332L29.268531194993155,187.42355920688334L31.754351652650108,184.68992248063333L34.15998435360845,184.07972646151666L36.64914596779451,179.29299558123336L39.05477866875285,180.31903043266664L41.54059912640981,160.72777590784997L44.02641958406676,165.88658865886666L46.27167677162788,157.17409901653332L48.75415607275572,169.67786973828333L51.15978877371406,165.2160422L53.64560923137102,171.03479439675L56.051241932329354,175.41133858963332L58.53706238998631,176.04721910276666L61.02288284764326,170.704078554L63.428515548601595,167.80375945386666L65.91767716278767,165.30891500321667L68.32330986374602,163.20964069314996L70.80913032140296,162.87770025774995L73.2949507790599,161.0672752434L75.54020796662103,159.33992215625L78.02268726774888,161.71095909125L80.42831996870721,157.10424633126667L82.91414042636417,166.4558608411333L85.3197731273225,164.40700508391666L87.80559358497946,164.50727079823332L90.29141404263642,163.58512576514997L92.69704674359477,158.86405590718334L95.18620835778081,151.97898165956664L97.59184105873916,151.63314680765L100.07766151639612,154.04461776946667L102.56348197405308,152.16370481318336L104.8889269183128,144.9577521124L107.37140621944064,143.9858105269833L109.77703892039898,148.52554250785002L112.26285937805595,158.00853841648333L114.66849207901429,155.49924021481667L117.15431253667123,154.90148699326667L119.64013299432818,152.8498853458L122.04576569528652,149.16902060508332L124.5349273094726,145.97357606223332L126.94056001043093,146.32911078916666L129.4263804680879,154.1989882674L131.91220092574483,150.11513593929996L134.15745811330595,146.5331618167L136.6399374144338,141.48455044091665L139.04557011539214,146.38817413434998L141.5313905730491,152.63300639261664L143.93702327400743,156.07536251694998L146.4228437316644,151.89121108356667L148.90866418932134,135.6632324924L151.31429689027968,130.10357409721666L153.80345850446574,122.01458047446667L156.20909120542407,123.55796947538335L158.69491166308106,134.63469639589997L161.18073212073799,128.74393811443332L163.4259893082991,123.06598572341667L165.90846860942696,120.53628831401667L168.3141013103853,129.5519357561666L170.79992176804225,136.29987714003332L173.2055544690006,135.95956620901666L175.69137492665755,138.95931603774997L178.1771953843145,131.7329979482L180.58282808527284,126.72917429133332L183.0719896994589,120.77135716755001L185.47762240041723,123.44710420049998L187.9634428580742,133.01019892963333L190.44926331573114,133.13810332051665L192.69452050329227,125.4256811428333L195.17699980442012,124.88515103148333L197.58263250537846,132.42095754291663L200.0684529630354,140.5804867158L202.47408566399375,139.45796889435L204.95990612165068,141.90714021458334L207.44572657930763,140.02824474755L209.851359280266,133.00286882811668L212.34052089445203,132.59804890725L214.7461535954104,138.91402714933332L217.23197405306732,145.7827125332L219.71779451072433,140.92639446831666L222.04323945498405,134.20977212591663L224.5257187561119,133.6783069650667L226.9313514570702,148.90582695495002L229.41717191472713,154.89086720765L231.8228046156855,157.9420704758L234.30862507334245,159.57499574329998L236.79444553099944,156.06974395183335L239.20007823195775,152.93299171873332L241.68923984614383,149.79673977123332L244.09487254710214,156.4834399183833L246.5806930047591,161.36574351711664L249.06651346241608,160.14812253249997L251.31177064997718,155.55227214673334L253.79424995110503,150.01911844205L256.19988265206337,152.69157580513334L258.6857031097203,161.98811863246664L261.0913358106787,167.68119197365L263.5771562683356,169.56711459691667L266.06297672599254,167.69257596235L268.46860942695093,161.47872083685L270.957771041137,158.86422290193332L273.36340374209533,161.39666046176666L275.84922419975226,170.4562057586333L278.3350446574092,167.75716145833331L280.58030184497034,167.97706319305L283.0627811460982,160.27013473581667L285.4684138470565,164.66446432448333L287.95423430471345,171.30530847863335L290.3598670056718,175.91034284653333L292.8456874633288,179.58100671814998L295.33150792098576,174.61863851611668L297.73714062194404,168.56200030726666L300.22630223613015,167.98903293505L302.63193493708843,166.6385556024167L305.1177553947454,175.38824530091665L307.6035758524024,173.25724384398333L309.8488330399635,173.74770521899998L312.33131234109135,177.13456396975L314.7369450420497,176.16897558885L317.2227654997066,180.2523307762L319.628398200665,178.98446689656666L322.11421865832193,188.04756130024998L324.60003911597886,180.6074841374L327.00567181693725,176.1041592024L329.49483343112325,182.6707413572L331.90046613208165,185.13815976886664L334.3862865897386,185.63093638380002L336.8721070473955,183.42317746421668L339.19755199165525,180.75666765911666L341.6800312927831,183.81487677531663L344.08566399374143,191.55028688968332L346.5714844513984,193.89816496328334L348.97711715235675,194.0680543559L351.4629376100137,194.34734473121668L353.9487580676706,193.6266328098L356.354390768629,193.84855648278335L358.84355238281506,194.16032027185003L361.2491850837734,201.67880152294998L363.7350055414303,203.24022668610002L366.22082599908725,202.85793116135L368.4660831866484,202.03914821363333L370.94856248777626,201.99561354816666L373.3541951887346,199.91300052903335L375.8400156463916,200.8237137933167L378.24564834734986,205.64557790563333L380.73146880500684,206.8345155806833L383.2172892626638,208.35595038408331L385.6229219636221,208.59073105961667L388.1120835778082,203.22178116186666L390.5177162787665,205.71991812883334L393.00353673642354,208.6704099758L395.48935719408047,211.6652155568833L397.73461438164156,209.82482931686667L400.2170936827694,205.74902062824998L402.62272638372775,207.5191702725L405.1085468413847,213.54875283448334L407.5141795423431,217.96343709956668L410,216.7587212152667" data-legend="java" style="stroke: rgb(214, 39, 40); fill: none;"></path><path class="line" d="M2.4858204576569527,209.17643653206665L4.8914531586152945,206.3136927923L7.380614772801357,202.3754422366L9.786247473759698,211.74331431129997L12.27206793141665,209.55083646876665L14.757888389073603,219.27442859335L17.003145576634722,213.49053339266663L19.485624877762568,219.41478845395L21.891257578720907,220.61002861959997L24.37707803637786,225.52342139445L26.782710737336203,223.82883585505L29.268531194993155,227.93460580229998L31.754351652650108,225.54059567525002L34.15998435360845,221.88585883858332L36.64914596779451,223.48077175483334L39.05477866875285,226.34674508756666L41.54059912640981,225.2776842814L44.02641958406676,214.64146414641667L46.27167677162788,221.68856813899998L48.75415607275572,216.46361518893335L51.15978877371406,221.78005326714998L53.64560923137102,214.89682181051666L56.051241932329354,225.93144724928334L58.53706238998631,230.56324438891667L61.02288284764326,225.06651306948334L63.428515548601595,222.89648353266665L65.91767716278767,218.71798948683335L68.32330986374602,224.4529350469L70.80913032140296,226.87370391826667L73.2949507790599,230.42236195748333L75.54020796662103,230.60813772766667L78.02268726774888,227.09001047326666L80.42831996870721,235.25062230141668L82.91414042636417,235.66030533063332L85.3197731273225,235.9939884224L87.80559358497946,238.32303563628332L90.29141404263642,235.36431913806666L92.69704674359477,228.22059599156665L95.18620835778081,231.22720482453332L97.59184105873916,229.77098252973332L100.07766151639612,234.60048488823332L102.56348197405308,231.11497928726666L104.8889269183128,234.5657717114167L107.37140621944064,231.17898132446666L109.77703892039898,237.96535310883334L112.26285937805595,240.51501640921668L114.66849207901429,237.74244698021667L117.15431253667123,238.8809528886L119.64013299432818,237.80801439196665L122.04576569528652,233.91080306761665L124.5349273094726,229.03802828063334L126.94056001043093,229.64077417438332L129.4263804680879,235.76115108526665L131.91220092574483,233.59143064348333L134.15745811330595,230.72697562841665L136.6399374144338,230.42025617553332L139.04557011539214,231.30302774053337L141.5313905730491,234.5059126901L143.93702327400743,237.64404803943333L146.4228437316644,238.55039949621667L148.90866418932134,233.7940547121833L151.31429689027968,227.63266738298333L153.80345850446574,222.89354659318332L156.20909120542407,229.17033306026667L158.69491166308106,231.85573663533333L161.18073212073799,231.71136694851668L163.4259893082991,230.18074658723333L165.90846860942696,230.03810932256667L168.3141013103853,235.6268868964833L170.79992176804225,241.67752238543335L173.2055544690006,240.81063935838333L175.69137492665755,239.81959185011667L178.1771953843145,237.67963462368334L180.58282808527284,233.80349601195002L183.0719896994589,234.17669133660002L185.47762240041723,234.46910162626665L187.9634428580742,238.10966373826665L190.44926331573114,235.53425290655L192.69452050329227,234.7035690435667L195.17699980442012,236.84411473055L197.58263250537846,238.42818428185L200.0684529630354,241.79057825408333L202.47408566399375,242.48817826863333L204.95990612165068,245.69922308546666L207.44572657930763,244.19963145891666L209.851359280266,236.5274033414L212.34052089445203,233.2971810645L214.7461535954104,236.17476767383334L217.23197405306732,243.46416863216666L219.71779451072433,241.5698923581L222.04323945498405,241.51520604643332L224.5257187561119,241.14954777715L226.9313514570702,245.58409714313333L229.41717191472713,247.87306416283334L231.8228046156855,248.02805040558331L234.30862507334245,253.59265921928335L236.79444553099944,249.60430702245L239.20007823195775,242.7219775263667L241.68923984614383,241.63349405966667L244.09487254710214,245.82617927855L246.5806930047591,246.24638517173332L249.06651346241608,250.35685811168332L251.31177064997718,248.06927213505L253.79424995110503,244.67895144293334L256.19988265206337,252.21088895503334L258.6857031097203,255.77994363241666L261.0913358106787,252.99865229111666L263.5771562683356,254.59038382366666L266.06297672599254,253.60365690371665L268.46860942695093,248.40935436523333L270.957771041137,249.87813037661667L273.36340374209533,248.38116670835L275.84922419975226,250.09068695368333L278.3350446574092,249.7532200169L280.58030184497034,249.5409717963L283.0627811460982,251.65508295101665L285.4684138470565,252.92895436973333L287.95423430471345,255.27507412308336L290.3598670056718,258.66494314055L292.8456874633288,258.40342494815L295.33150792098576,256.2604114024833L297.73714062194404,254.65804653943334L300.22630223613015,250.99798034505L302.63193493708843,254.54952019525L305.1177553947454,255.83108812745L307.6035758524024,256.9487607195667L309.8488330399635,253.61132966169998L312.33131234109135,251.8360443452L314.7369450420497,253.9778665023333L317.2227654997066,254.72771957056665L319.628398200665,252.34517212539998L322.11421865832193,259.45359716841665L324.60003911597886,253.33219720265L327.00567181693725,246.51158676026665L329.49483343112325,246.22408978871664L331.90046613208165,246.60043543728332L334.3862865897386,251.39487073471665L336.8721070473955,252.4777943382L339.19755199165525,249.90356111895L341.6800312927831,242.72642111908334L344.08566399374143,242.10782721663332L346.5714844513984,244.85290516463334L348.97711715235675,247.61696208795L351.4629376100137,245.73305746126667L353.9487580676706,253.32791242861668L356.354390768629,248.56787521479998L358.84355238281506,246.11481057973333L361.2491850837734,244.1194260602L363.7350055414303,250.63473065406666L366.22082599908725,247.60331803075L368.4660831866484,251.33004125261667L370.94856248777626,251.26301688216665L373.3541951887346,247.23619980295L375.8400156463916,250.10595812701666L378.24564834734986,252.342699805L380.73146880500684,255.20916578101665L383.2172892626638,253.53005968023334L385.6229219636221,252.12008953795L388.1120835778082,251.27538647720002L390.5177162787665,251.6090098517L393.00353673642354,253.90007510461666L395.48935719408047,257.68612617095L397.73461438164156,257.2231673610167L400.2170936827694,253.66957225668332L402.62272638372775,254.23604787686668L405.1085468413847,258.46039565251664L407.5141795423431,259.36908951836665L410,259.21275385813334" data-legend="c++" style="stroke: rgb(148, 103, 189); fill: none;"></path></g></g><g transform="translate(20, 150)"><text transform="rotate(-90)" x="-50" y="0" dy="1em" class="axis-label y-axis-label" style="text-anchor: middle; font-weight: bold;">% of Stack Overflow questions that month</text></g><g class="legend" transform="translate(530, 30)" style="font-size: 12px;"><text class="legend-title" style="font-weight: bold;">Tag</text><g class="legend-items" transform="translate(0,20)"><text y="0em" x="1em">python</text><text y="1em" x="1em">java</text><text y="2em" x="1em">c++</text><text y="3em" x="1em">r</text><text y="4em" x="1em">octave</text><circle cy="-0.25em" cx="0" r="0.4em" style="fill: rgb(31, 119, 180);"></circle><circle cy="0.75em" cx="0" r="0.4em" style="fill: rgb(214, 39, 40);"></circle><circle cy="1.75em" cx="0" r="0.4em" style="fill: rgb(148, 103, 189);"></circle><circle cy="2.75em" cx="0" r="0.4em" style="fill: rgb(255, 127, 14);"></circle><circle cy="3.75em" cx="0" r="0.4em" style="fill: rgb(44, 160, 44);"></circle></g><rect class="legend-box"></rect></g></svg>
        