<?xml version="1.0" encoding="UTF-8" standalone="no"?>
<svg
   xmlns:dc="http://purl.org/dc/elements/1.1/"
   xmlns:cc="http://creativecommons.org/ns#"
   xmlns:rdf="http://www.w3.org/1999/02/22-rdf-syntax-ns#"
   xmlns:svg="http://www.w3.org/2000/svg"
   xmlns="http://www.w3.org/2000/svg"
   xmlns:sodipodi="http://sodipodi.sourceforge.net/DTD/sodipodi-0.dtd"
   xmlns:inkscape="http://www.inkscape.org/namespaces/inkscape"
   id="trend-chart"
   width="21cm"
   height="10cm"
   title="Stack Overflow Trends Chart"
   version="1.1"
   sodipodi:docname="2022-09-07_StackOverflowTrends_MLPythonPackages_wide.svg"
   inkscape:version="0.92.5 (2060ec1f9f, 2020-04-08)"
   inkscape:export-filename="./2022-09-07_StackOverflowTrends_MLPythonPackages_wide.png"
   inkscape:export-xdpi="119.888"
   inkscape:export-ydpi="119.888">
  <metadata
     id="metadata309">
    <rdf:RDF>
      <cc:Work
         rdf:about="">
        <dc:format>image/svg+xml</dc:format>
        <dc:type
           rdf:resource="http://purl.org/dc/dcmitype/StillImage" />
        <dc:title />
        <cc:license
           rdf:resource="http://creativecommons.org/licenses/by-sa/4.0/" />
      </cc:Work>
      <cc:License
         rdf:about="http://creativecommons.org/licenses/by-sa/4.0/">
        <cc:permits
           rdf:resource="http://creativecommons.org/ns#Reproduction" />
        <cc:permits
           rdf:resource="http://creativecommons.org/ns#Distribution" />
        <cc:requires
           rdf:resource="http://creativecommons.org/ns#Notice" />
        <cc:requires
           rdf:resource="http://creativecommons.org/ns#Attribution" />
        <cc:permits
           rdf:resource="http://creativecommons.org/ns#DerivativeWorks" />
        <cc:requires
           rdf:resource="http://creativecommons.org/ns#ShareAlike" />
      </cc:License>
    </rdf:RDF>
  </metadata>
  <defs
     id="defs307" />
  <sodipodi:namedview
     pagecolor="#ffffff"
     bordercolor="#666666"
     borderopacity="1"
     objecttolerance="10"
     gridtolerance="10"
     guidetolerance="10"
     inkscape:pageopacity="0"
     inkscape:pageshadow="2"
     inkscape:window-width="3000"
     inkscape:window-height="1935"
     id="namedview305"
     showgrid="false"
     units="cm"
     inkscape:zoom="1.668772"
     inkscape:cx="344.53711"
     inkscape:cy="144.1822"
     inkscape:window-x="0"
     inkscape:window-y="0"
     inkscape:window-maximized="1"
     inkscape:current-layer="g4164" />
  <g
     id="g2"
     transform="translate(0,-22.04722)" />
  <g
     id="g4164"
     transform="translate(84.290469,13.143598)">
    <g
       id="g313">
      <rect
         style="fill:#ffffff;stroke-width:1.00234342"
         y="-12.713955"
         x="-83.691223"
         height="378.72159"
         width="793.39777"
         id="rect159" />
      <g
         id="g308">
        <g
           id="g266"
           transform="translate(100,-2.0472201)"
           class="chart-area">
          <g
             style="font-size:10px;font-family:sans-serif;text-anchor:middle;fill:none"
             id="g90"
             font-size="10"
             transform="translate(0,300)">
            <path
               style="stroke:#000000"
               inkscape:connector-curvature="0"
               id="path4"
               d="M 0.5,6 V 0.5 h 410 V 6"
               class="domain" />
            <g
               style="opacity:1"
               id="g10"
               transform="translate(12.272068)"
               class="tick">
              <line
                 style="stroke:#000000"
                 y1="0"
                 id="line6"
                 x2="0.5"
                 x1="0.5"
                 y2="6" />
              <text
                 id="text8"
                 style="font-size:12px;fill:#000000"
                 dy="0.70999998em"
                 x="0.5"
                 y="9">2009</text>
            </g>
            <g
               style="opacity:1"
               id="g16"
               transform="translate(41.540599)"
               class="tick">
              <line
                 style="stroke:#000000"
                 y1="0"
                 id="line12"
                 x2="0.5"
                 x1="0.5"
                 y2="6" />
              <text
                 id="text14"
                 style="font-size:12px;fill:#000000"
                 dy="0.70999998em"
                 x="0.5"
                 y="9">2010</text>
            </g>
            <g
               style="opacity:1"
               id="g22"
               transform="translate(70.80913)"
               class="tick">
              <line
                 style="stroke:#000000"
                 y1="0"
                 id="line18"
                 x2="0.5"
                 x1="0.5"
                 y2="6" />
              <text
                 id="text20"
                 style="font-size:12px;fill:#000000"
                 dy="0.70999998em"
                 x="0.5"
                 y="9">2011</text>
            </g>
            <g
               style="opacity:1"
               id="g28"
               transform="translate(100.07766)"
               class="tick">
              <line
                 style="stroke:#000000"
                 y1="0"
                 id="line24"
                 x2="0.5"
                 x1="0.5"
                 y2="6" />
              <text
                 id="text26"
                 style="font-size:12px;fill:#000000"
                 dy="0.70999998em"
                 x="0.5"
                 y="9">2012</text>
            </g>
            <g
               style="opacity:1"
               id="g34"
               transform="translate(129.42638)"
               class="tick">
              <line
                 style="stroke:#000000"
                 y1="0"
                 id="line30"
                 x2="0.5"
                 x1="0.5"
                 y2="6" />
              <text
                 id="text32"
                 style="font-size:12px;fill:#000000"
                 dy="0.70999998em"
                 x="0.5"
                 y="9">2013</text>
            </g>
            <g
               style="opacity:1"
               id="g40"
               transform="translate(158.69491)"
               class="tick">
              <line
                 style="stroke:#000000"
                 y1="0"
                 id="line36"
                 x2="0.5"
                 x1="0.5"
                 y2="6" />
              <text
                 id="text38"
                 style="font-size:12px;fill:#000000"
                 dy="0.70999998em"
                 x="0.5"
                 y="9">2014</text>
            </g>
            <g
               style="opacity:1"
               id="g46"
               transform="translate(187.96344)"
               class="tick">
              <line
                 style="stroke:#000000"
                 y1="0"
                 id="line42"
                 x2="0.5"
                 x1="0.5"
                 y2="6" />
              <text
                 id="text44"
                 style="font-size:12px;fill:#000000"
                 dy="0.70999998em"
                 x="0.5"
                 y="9">2015</text>
            </g>
            <g
               style="opacity:1"
               id="g52"
               transform="translate(217.23197)"
               class="tick">
              <line
                 style="stroke:#000000"
                 y1="0"
                 id="line48"
                 x2="0.5"
                 x1="0.5"
                 y2="6" />
              <text
                 id="text50"
                 style="font-size:12px;fill:#000000"
                 dy="0.70999998em"
                 x="0.5"
                 y="9">2016</text>
            </g>
            <g
               style="opacity:1"
               id="g58"
               transform="translate(246.58069)"
               class="tick">
              <line
                 style="stroke:#000000"
                 y1="0"
                 id="line54"
                 x2="0.5"
                 x1="0.5"
                 y2="6" />
              <text
                 id="text56"
                 style="font-size:12px;fill:#000000"
                 dy="0.70999998em"
                 x="0.5"
                 y="9">2017</text>
            </g>
            <g
               style="opacity:1"
               id="g64"
               transform="translate(275.84922)"
               class="tick">
              <line
                 style="stroke:#000000"
                 y1="0"
                 id="line60"
                 x2="0.5"
                 x1="0.5"
                 y2="6" />
              <text
                 id="text62"
                 style="font-size:12px;fill:#000000"
                 dy="0.70999998em"
                 x="0.5"
                 y="9">2018</text>
            </g>
            <g
               style="opacity:1"
               id="g70"
               transform="translate(305.11776)"
               class="tick">
              <line
                 style="stroke:#000000"
                 y1="0"
                 id="line66"
                 x2="0.5"
                 x1="0.5"
                 y2="6" />
              <text
                 id="text68"
                 style="font-size:12px;fill:#000000"
                 dy="0.70999998em"
                 x="0.5"
                 y="9">2019</text>
            </g>
            <g
               style="opacity:1"
               id="g76"
               transform="translate(334.38629)"
               class="tick">
              <line
                 style="stroke:#000000"
                 y1="0"
                 id="line72"
                 x2="0.5"
                 x1="0.5"
                 y2="6" />
              <text
                 id="text74"
                 style="font-size:12px;fill:#000000"
                 dy="0.70999998em"
                 x="0.5"
                 y="9">2020</text>
            </g>
            <g
               style="opacity:1"
               id="g82"
               transform="translate(363.73501)"
               class="tick">
              <line
                 style="stroke:#000000"
                 y1="0"
                 id="line78"
                 x2="0.5"
                 x1="0.5"
                 y2="6" />
              <text
                 id="text80"
                 style="font-size:12px;fill:#000000"
                 dy="0.70999998em"
                 x="0.5"
                 y="9">2021</text>
            </g>
            <g
               style="opacity:1"
               id="g88"
               transform="translate(393.00354)"
               class="tick">
              <line
                 style="stroke:#000000"
                 y1="0"
                 id="line84"
                 x2="0.5"
                 x1="0.5"
                 y2="6" />
              <text
                 id="text86"
                 style="font-size:12px;fill:#000000"
                 dy="0.70999998em"
                 x="0.5"
                 y="9">2022</text>
            </g>
          </g>
          <g
             style="font-size:10px;font-family:sans-serif;text-anchor:middle;fill:none"
             id="g150"
             font-size="10"
             transform="translate(0,300)"
             class="grid-lines">
            <path
               style="stroke:#000000"
               inkscape:connector-curvature="0"
               id="path92"
               d="M 0.5,-300 V 0.5 h 410 V -300"
               class="domain" />
            <g
               style="opacity:1"
               id="g96"
               transform="translate(12.272068)"
               class="tick">
              <line
                 y1="0"
                 id="line94"
                 style="fill:none;stroke:#cccccc"
                 x2="0.5"
                 x1="0.5"
                 y2="-300" />
            </g>
            <g
               style="opacity:1"
               id="g100"
               transform="translate(41.540599)"
               class="tick">
              <line
                 y1="0"
                 id="line98"
                 style="fill:none;stroke:#cccccc"
                 x2="0.5"
                 x1="0.5"
                 y2="-300" />
            </g>
            <g
               style="opacity:1"
               id="g104"
               transform="translate(70.80913)"
               class="tick">
              <line
                 y1="0"
                 id="line102"
                 style="fill:none;stroke:#cccccc"
                 x2="0.5"
                 x1="0.5"
                 y2="-300" />
            </g>
            <g
               style="opacity:1"
               id="g108"
               transform="translate(100.07766)"
               class="tick">
              <line
                 y1="0"
                 id="line106"
                 style="fill:none;stroke:#cccccc"
                 x2="0.5"
                 x1="0.5"
                 y2="-300" />
            </g>
            <g
               style="opacity:1"
               id="g112"
               transform="translate(129.42638)"
               class="tick">
              <line
                 y1="0"
                 id="line110"
                 style="fill:none;stroke:#cccccc"
                 x2="0.5"
                 x1="0.5"
                 y2="-300" />
            </g>
            <g
               style="opacity:1"
               id="g116"
               transform="translate(158.69491)"
               class="tick">
              <line
                 y1="0"
                 id="line114"
                 style="fill:none;stroke:#cccccc"
                 x2="0.5"
                 x1="0.5"
                 y2="-300" />
            </g>
            <g
               style="opacity:1"
               id="g120"
               transform="translate(187.96344)"
               class="tick">
              <line
                 y1="0"
                 id="line118"
                 style="fill:none;stroke:#cccccc"
                 x2="0.5"
                 x1="0.5"
                 y2="-300" />
            </g>
            <g
               style="opacity:1"
               id="g124"
               transform="translate(217.23197)"
               class="tick">
              <line
                 y1="0"
                 id="line122"
                 style="fill:none;stroke:#cccccc"
                 x2="0.5"
                 x1="0.5"
                 y2="-300" />
            </g>
            <g
               style="opacity:1"
               id="g128"
               transform="translate(246.58069)"
               class="tick">
              <line
                 y1="0"
                 id="line126"
                 style="fill:none;stroke:#cccccc"
                 x2="0.5"
                 x1="0.5"
                 y2="-300" />
            </g>
            <g
               style="opacity:1"
               id="g132"
               transform="translate(275.84922)"
               class="tick">
              <line
                 y1="0"
                 id="line130"
                 style="fill:none;stroke:#cccccc"
                 x2="0.5"
                 x1="0.5"
                 y2="-300" />
            </g>
            <g
               style="opacity:1"
               id="g136"
               transform="translate(305.11776)"
               class="tick">
              <line
                 y1="0"
                 id="line134"
                 style="fill:none;stroke:#cccccc"
                 x2="0.5"
                 x1="0.5"
                 y2="-300" />
            </g>
            <g
               style="opacity:1"
               id="g140"
               transform="translate(334.38629)"
               class="tick">
              <line
                 y1="0"
                 id="line138"
                 style="fill:none;stroke:#cccccc"
                 x2="0.5"
                 x1="0.5"
                 y2="-300" />
            </g>
            <g
               style="opacity:1"
               id="g144"
               transform="translate(363.73501)"
               class="tick">
              <line
                 y1="0"
                 id="line142"
                 style="fill:none;stroke:#cccccc"
                 x2="0.5"
                 x1="0.5"
                 y2="-300" />
            </g>
            <g
               style="opacity:1"
               id="g148"
               transform="translate(393.00354)"
               class="tick">
              <line
                 y1="0"
                 id="line146"
                 style="fill:none;stroke:#cccccc"
                 x2="0.5"
                 x1="0.5"
                 y2="-300" />
            </g>
          </g>
          <text
             id="text152"
             style="font-weight:bold;text-anchor:middle"
             class="axis-label x-axis-label"
             y="360"
             x="205">Year</text>
          <g
             style="font-size:10px;font-family:sans-serif;text-anchor:end;fill:none"
             id="g210"
             font-size="10">
            <path
               style="stroke:#000000"
               inkscape:connector-curvature="0"
               id="path154"
               d="M -6,300.5 H 0.5 V 0.5 H -6"
               class="domain" />
            <g
               style="opacity:1"
               id="g160"
               transform="translate(0,300)"
               class="tick">
              <line
                 style="stroke:#000000"
                 x1="0"
                 id="line156"
                 y2="0.5"
                 y1="0.5"
                 x2="-6" />
              <text
                 id="text158"
                 style="font-size:12px;fill:#000000"
                 dy="0.31999999em"
                 y="0.5"
                 x="-9">0.00%</text>
            </g>
            <g
               style="opacity:1"
               id="g166"
               transform="translate(0,262.5)"
               class="tick">
              <line
                 style="stroke:#000000"
                 x1="0"
                 id="line162"
                 y2="0.5"
                 y1="0.5"
                 x2="-6" />
              <text
                 id="text164"
                 style="font-size:12px;fill:#000000"
                 dy="0.31999999em"
                 y="0.5"
                 x="-9">0.50%</text>
            </g>
            <g
               style="opacity:1"
               id="g172"
               transform="translate(0,225)"
               class="tick">
              <line
                 style="stroke:#000000"
                 x1="0"
                 id="line168"
                 y2="0.5"
                 y1="0.5"
                 x2="-6" />
              <text
                 id="text170"
                 style="font-size:12px;fill:#000000"
                 dy="0.31999999em"
                 y="0.5"
                 x="-9">1.00%</text>
            </g>
            <g
               style="opacity:1"
               id="g178"
               transform="translate(0,187.5)"
               class="tick">
              <line
                 style="stroke:#000000"
                 x1="0"
                 id="line174"
                 y2="0.5"
                 y1="0.5"
                 x2="-6" />
              <text
                 id="text176"
                 style="font-size:12px;fill:#000000"
                 dy="0.31999999em"
                 y="0.5"
                 x="-9">1.50%</text>
            </g>
            <g
               style="opacity:1"
               id="g184"
               transform="translate(0,150)"
               class="tick">
              <line
                 style="stroke:#000000"
                 x1="0"
                 id="line180"
                 y2="0.5"
                 y1="0.5"
                 x2="-6" />
              <text
                 id="text182"
                 style="font-size:12px;fill:#000000"
                 dy="0.31999999em"
                 y="0.5"
                 x="-9">2.00%</text>
            </g>
            <g
               style="opacity:1"
               id="g190"
               transform="translate(0,112.5)"
               class="tick">
              <line
                 style="stroke:#000000"
                 x1="0"
                 id="line186"
                 y2="0.5"
                 y1="0.5"
                 x2="-6" />
              <text
                 id="text188"
                 style="font-size:12px;fill:#000000"
                 dy="0.31999999em"
                 y="0.5"
                 x="-9">2.50%</text>
            </g>
            <g
               style="opacity:1"
               id="g196"
               transform="translate(0,75)"
               class="tick">
              <line
                 style="stroke:#000000"
                 x1="0"
                 id="line192"
                 y2="0.5"
                 y1="0.5"
                 x2="-6" />
              <text
                 id="text194"
                 style="font-size:12px;fill:#000000"
                 dy="0.31999999em"
                 y="0.5"
                 x="-9">3.00%</text>
            </g>
            <g
               style="opacity:1"
               id="g202"
               transform="translate(0,37.5)"
               class="tick">
              <line
                 style="stroke:#000000"
                 x1="0"
                 id="line198"
                 y2="0.5"
                 y1="0.5"
                 x2="-6" />
              <text
                 id="text200"
                 style="font-size:12px;fill:#000000"
                 dy="0.31999999em"
                 y="0.5"
                 x="-9">3.50%</text>
            </g>
            <g
               style="opacity:1"
               id="g208"
               class="tick">
              <line
                 style="stroke:#000000"
                 x1="0"
                 id="line204"
                 y2="0.5"
                 y1="0.5"
                 x2="-6" />
              <text
                 id="text206"
                 style="font-size:12px;fill:#000000"
                 dy="0.31999999em"
                 y="0.5"
                 x="-9">4.00%</text>
            </g>
          </g>
          <g
             style="font-size:10px;font-family:sans-serif;text-anchor:end;fill:none"
             id="g250"
             font-size="10"
             class="grid-lines">
            <path
               style="stroke:#000000"
               inkscape:connector-curvature="0"
               id="path212"
               d="M 410,300.5 H 0.5 V 0.5 H 410"
               class="domain" />
            <g
               style="opacity:1"
               id="g216"
               transform="translate(0,300)"
               class="tick">
              <line
                 x1="0"
                 id="line214"
                 style="fill:none;stroke:#cccccc"
                 y2="0.5"
                 y1="0.5"
                 x2="410" />
            </g>
            <g
               style="opacity:1"
               id="g220"
               transform="translate(0,262.5)"
               class="tick">
              <line
                 x1="0"
                 id="line218"
                 style="fill:none;stroke:#cccccc"
                 y2="0.5"
                 y1="0.5"
                 x2="410" />
            </g>
            <g
               style="opacity:1"
               id="g224"
               transform="translate(0,225)"
               class="tick">
              <line
                 x1="0"
                 id="line222"
                 style="fill:none;stroke:#cccccc"
                 y2="0.5"
                 y1="0.5"
                 x2="410" />
            </g>
            <g
               style="opacity:1"
               id="g228"
               transform="translate(0,187.5)"
               class="tick">
              <line
                 x1="0"
                 id="line226"
                 style="fill:none;stroke:#cccccc"
                 y2="0.5"
                 y1="0.5"
                 x2="410" />
            </g>
            <g
               style="opacity:1"
               id="g232"
               transform="translate(0,150)"
               class="tick">
              <line
                 x1="0"
                 id="line230"
                 style="fill:none;stroke:#cccccc"
                 y2="0.5"
                 y1="0.5"
                 x2="410" />
            </g>
            <g
               style="opacity:1"
               id="g236"
               transform="translate(0,112.5)"
               class="tick">
              <line
                 x1="0"
                 id="line234"
                 style="fill:none;stroke:#cccccc"
                 y2="0.5"
                 y1="0.5"
                 x2="410" />
            </g>
            <g
               style="opacity:1"
               id="g240"
               transform="translate(0,75)"
               class="tick">
              <line
                 x1="0"
                 id="line238"
                 style="fill:none;stroke:#cccccc"
                 y2="0.5"
                 y1="0.5"
                 x2="410" />
            </g>
            <g
               style="opacity:1"
               id="g244"
               transform="translate(0,37.5)"
               class="tick">
              <line
                 x1="0"
                 id="line242"
                 style="fill:none;stroke:#cccccc"
                 y2="0.5"
                 y1="0.5"
                 x2="410" />
            </g>
            <g
               style="opacity:1"
               id="g248"
               class="tick">
              <line
                 x1="0"
                 id="line246"
                 style="fill:none;stroke:#cccccc"
                 y2="0.5"
                 y1="0.5"
                 x2="410" />
            </g>
          </g>
          <g
             id="g264"
             class="lines">
            <path
               inkscape:connector-curvature="0"
               id="path252"
               style="fill:none;stroke:#1f77b4"
               data-legend="pandas"
               d="m 2.4858205,300 h 2.4056327 2.4891616 2.4056327 2.4858205 2.48582 2.245258 2.482479 2.405633 2.48582 2.405633 2.48582 2.485821 2.405632 2.489162 2.405633 l 2.48582,-0.16829 L 44.02642,300 h 2.245257 2.482479 2.405633 2.48582 2.405633 2.48582 2.485821 2.405633 2.489161 2.405633 2.48582 2.485821 l 2.245257,-0.0747 2.482479,-0.0829 L 80.42832,300 82.91414,299.84798 85.319773,300 h 2.485821 l 2.48582,-0.0737 2.405633,-0.29712 2.489161,0.23281 2.405633,0.0656 2.485819,-0.31578 2.48582,0.14537 2.32545,-1.44453 2.48248,0.17045 2.40563,-0.88906 2.48582,-0.47166 2.40563,-0.62629 2.48582,-1.18655 2.48582,-0.55442 2.40564,0.0618 2.48916,-0.93037 2.40563,-0.74039 2.48582,-0.66386 2.48582,-1.65149 2.24526,1.65091 2.48248,-0.84414 2.40563,-1.87562 2.48582,-1.48981 2.40563,-0.61703 2.48582,-0.23033 2.48582,1.60836 2.40564,-3.71836 2.48916,-0.43234 2.40563,0.007 2.48582,-2.92055 2.48582,1.75626 2.24526,-2.84037 2.48248,0.11231 2.40563,-0.71678 2.48582,-1.62642 2.40563,0.74315 2.48582,-1.50785 2.48583,-0.0197 2.40563,0.95583 2.48916,-2.10398 2.40563,3.1473 2.48582,-1.81646 2.48582,-2.07735 2.24526,-2.80619 2.48248,-1.28646 2.40563,0.88212 2.48582,-3.70864 2.40564,-2.3187 2.48582,1.83969 2.48582,-2.68834 2.40563,-4.26084 2.48916,0.53982 2.40563,-1.22721 2.48582,0.92751 2.48582,-3.51034 2.32545,-0.1963 2.48248,-4.00224 2.40563,-5.2168 2.48582,-1.63418 2.40563,-10.13878 2.48583,5.82366 2.48582,-0.93435 2.40563,-0.22383 2.48916,-6.72977 2.40563,-1.12407 2.48582,0.26721 2.48582,-1.72417 2.24526,-7.05138 2.48248,-3.32568 2.40563,-0.10705 2.48582,-6.22273 2.40564,-3.29145 2.48582,-3.6196 2.48582,-0.68636 2.40563,-4.84792 2.48916,0.70109 2.40563,-1.38307 2.48582,-5.89305 2.48582,-6.16476 2.24526,-7.42824 2.48248,1.16671 2.40563,-0.79179 2.48582,-15.67346 2.40564,-9.62049 2.48582,2.79036 2.48582,6.21502 2.40563,-3.1893 2.48916,-10.988 2.40563,7.56532 2.48583,-3.34727 2.48582,-10.31117 2.24525,-1.90521 2.48248,-4.66957 2.40564,-0.41664 2.48582,-1.44096 2.40563,-14.13938 2.48582,-12.4522 2.48582,20.12284 2.40563,-17.67995 2.48916,7.00984 2.40564,-10.98536 2.48582,-4.11945 2.48582,-2.69446 2.32544,5.67407 2.48248,-8.21144 2.40563,-3.693427 2.48582,-11.5954 2.40564,3.134694 2.48582,4.921347 2.48582,-2.833113 2.40563,-10.79503 2.48916,1.312703 2.40564,10.964646 2.48582,10.96041 2.48582,-20.074827 2.24525,-9.743972 2.48248,5.293343 2.40564,0.74928 2.48582,-10.268628 2.40563,-3.740474 2.48582,3.017317 2.48582,28.104205 2.40563,-9.548607 2.48916,-7.91398 2.40564,11.138674 2.48582,13.798259 2.48582,-18.087554 2.24525,-14.624167 2.48248,11.794641 2.40564,-9.38392 2.48582,5.591798 2.40563,1.490426 2.48582,4.88494"
               class="line" />
            <path
               inkscape:connector-curvature="0"
               id="path254"
               style="fill:none;stroke:#ff7f0e"
               data-legend="tensorflow"
               d="m 2.4858205,300 h 2.4056327 2.4891616 2.4056327 2.4858205 2.48582 2.245258 2.482479 2.405633 2.48582 2.405633 2.48582 2.485821 2.405632 2.489162 2.405633 2.48582 2.485821 2.245257 2.482479 2.405633 2.48582 2.405633 2.48582 2.485821 2.405633 2.489161 2.405633 2.48582 2.485821 2.245257 2.482479 2.405633 2.48582 2.405633 2.485821 2.48582 l 2.405633,-0.0742 2.489161,0.0742 h 2.405633 2.485819 2.48582 2.32545 2.48248 2.40563 2.48582 2.40563 2.48582 2.48582 2.40564 2.48916 2.40563 2.48582 2.48582 2.24526 2.48248 2.40563 2.48582 l 2.40563,-0.0427 2.48582,0.0427 h 2.48582 2.40564 2.48916 l 2.40563,-0.0455 2.48582,0.0455 h 2.48582 2.24526 2.48248 2.40563 2.48582 2.40563 2.48582 2.48583 2.40563 2.48916 2.40563 2.48582 2.48582 2.24526 2.48248 2.40563 2.48582 2.40564 2.48582 2.48582 2.40563 l 2.48916,-8.43082 2.40563,0.41739 2.48582,0.96268 2.48582,-2.13635 2.32545,0.15195 2.48248,-1.41653 2.40563,-2.8418 2.48582,-6.97912 2.40563,-0.30042 2.48583,-0.3311 2.48582,1.3107 2.40563,-4.63147 2.48916,-5.58725 2.40563,-1.16803 2.48582,-2.26007 2.48582,-8.12744 2.24526,-0.7796 2.48248,-1.92873 2.40563,-0.24097 2.48582,-6.48181 2.40564,-3.48861 2.48582,1.82492 2.48582,6.26854 2.40563,-6.37095 2.48916,0.68069 2.40563,-0.41764 2.48582,-1.40184 2.48582,1.74132 2.24526,-7.22453 2.48248,-5.66845 2.40563,-0.2504 2.48582,6.15661 2.40564,-2.64158 2.48582,0.76291 2.48582,7.39625 2.40563,2.43369 2.48916,-3.32973 2.40563,0.33518 2.48583,0.90488 2.48582,0.76159 2.24525,-7.9573 2.48248,-2.20107 2.40564,5.55955 2.48582,-0.0512 2.40563,-0.0321 2.48582,-0.50256 2.48582,6.94041 2.40563,-4.66545 2.48916,-2.78098 2.40564,-5.96369 2.48582,9.04109 2.48582,-2.51927 2.32544,0.032 2.48248,4.04993 2.40563,-6.38315 2.48582,0.73856 2.40564,-2.74972 2.48582,-1.11713 2.48582,6.6639 2.40563,2.50157 2.48916,-4.12376 2.40564,-3.19824 2.48582,5.29225 2.48582,-1.49836 2.24525,3.80508 2.48248,-1.34196 2.40564,1.53477 2.48582,3.52137 2.40563,0.49853 2.48582,1.09844 2.48582,2.34833 2.40563,0.14099 2.48916,-4.6276 2.40564,2.07024 2.48582,-1.52758 2.48582,-1.30275 2.24525,4.06417 2.48248,-4.25873 2.40564,1.56928 2.48582,-4.77109 2.40563,6.50578 2.48582,2.62595"
               class="line" />
            <path
               inkscape:connector-curvature="0"
               id="path256"
               style="fill:none;stroke:#2ca02c"
               data-legend="numpy"
               d="m 2.4858205,298.37169 2.4056327,0.58606 2.4891616,-0.7533 2.4056327,-0.72207 2.4858205,-0.83038 2.48582,0.32798 2.245258,1.537 2.482479,-1.00808 2.405633,0.43284 2.48582,-1.42724 2.405633,2.08166 2.48582,-0.68091 2.485821,0.24876 2.405632,-3.79323 2.489162,-2.04895 2.405633,2.46496 2.48582,1.67905 2.485821,-3.21652 2.245257,1.10647 2.482479,-0.69905 2.405633,1.97975 2.48582,-1.46568 2.405633,1.35692 2.48582,-1.34049 2.485821,0.62885 2.405633,-0.73297 2.489161,-1.23806 2.405633,0.20808 2.48582,2.12984 2.485821,-0.82769 2.245257,-3.02305 2.482479,0.70773 2.405633,0.97791 2.48582,0.59714 2.405633,-0.72218 2.485821,-1.59907 2.48582,-0.14124 2.405633,-1.46206 2.489161,2.92458 2.405633,-0.44333 2.485819,-1.42515 2.48582,0.14522 2.32545,-0.28507 2.48248,0.29148 2.40563,-0.52234 2.48582,-0.62043 2.40563,-0.53282 2.48582,-1.05554 2.48582,-1.27946 2.40564,0.68292 2.48916,-1.78443 2.40563,2.56785 2.48582,-0.61222 2.48582,-1.69279 2.24526,-0.30336 2.48248,-2.64659 2.40563,0.50192 2.48582,2.33513 2.40563,-3.6632 2.48582,2.80509 2.48582,-2.96173 2.40564,-0.56482 2.48916,-2.30606 2.40563,2.4126 2.48582,-1.08528 2.48582,-2.86043 2.24526,1.83047 2.48248,0.83386 2.40563,-2.1923 2.48582,1.71982 2.40563,-0.29465 2.48582,-1.12142 2.48583,2.2838 2.40563,-3.4279 2.48916,1.90866 2.40563,0.37347 2.48582,-1.98288 2.48582,-2.38556 2.24526,-0.93625 2.48248,2.09464 2.40563,-1.82247 2.48582,1.33416 2.40564,-1.03918 2.48582,1.80408 2.48582,0.66539 2.40563,-1.71057 2.48916,-3.8631 2.40563,2.64281 2.48582,-3.00559 2.48582,-1.59048 2.32545,-0.0857 2.48248,-1.21567 2.40563,3.92524 2.48582,-4.05393 2.40563,-2.14761 2.48583,2.18221 2.48582,-2.10629 2.40563,-0.61553 2.48916,-1.83401 2.40563,1.26753 2.48582,0.67007 2.48582,-6.01795 2.24526,-0.66952 2.48248,-2.40069 2.40563,4.22963 2.48582,-1.64885 2.40564,-2.01553 2.48582,1.00021 2.48582,-0.65859 2.40563,-6.46224 2.48916,0.61596 2.40563,0.0758 2.48582,0.80711 2.48582,-2.65559 2.24526,3.80743 2.48248,0.99581 2.40563,1.95662 2.48582,-2.56085 2.40564,-3.97348 2.48582,3.22501 2.48582,-0.52958 2.40563,-0.19519 2.48916,-4.17643 2.40563,-0.83391 2.48583,5.64404 2.48582,-8.97295 2.24525,-1.47685 2.48248,1.08009 2.40564,5.14767 2.48582,0.80959 2.40563,-3.80228 2.48582,-3.17335 2.48582,4.44071 2.40563,-6.99414 2.48916,-0.0377 2.40564,0.71554 2.48582,5.70508 2.48582,-8.87317 2.32544,3.12385 2.48248,-3.63808 2.40563,-2.83337 2.48582,0.34287 2.40564,-0.58875 2.48582,5.82339 2.48582,-3.1928 2.40563,-6.24446 2.48916,-1.19558 2.40564,2.69361 2.48582,5.25273 2.48582,-3.59087 2.24525,-2.58403 2.48248,0.74349 2.40564,1.09519 2.48582,2.58967 2.40563,-4.44857 2.48582,9.26493 2.48582,1.56146 2.40563,-6.8057 2.48916,1.16993 2.40564,1.73567 2.48582,5.02292 2.48582,-0.1466 2.24525,-5.13446 2.48248,0.56595 2.40564,3.76781 2.48582,-5.13594 2.40563,3.84981 2.48582,5.94803"
               class="line" />
            <path
               inkscape:connector-curvature="0"
               id="path258"
               style="fill:none;stroke:#d62728"
               data-legend="keras"
               d="m 2.4858205,300 h 2.4056327 2.4891616 2.4056327 2.4858205 2.48582 2.245258 2.482479 2.405633 2.48582 2.405633 2.48582 2.485821 2.405632 2.489162 2.405633 2.48582 2.485821 2.245257 2.482479 2.405633 2.48582 2.405633 2.48582 2.485821 2.405633 2.489161 2.405633 2.48582 2.485821 2.245257 2.482479 2.405633 2.48582 2.405633 2.485821 2.48582 l 2.405633,-0.0742 2.489161,0.0742 h 2.405633 2.485819 2.48582 2.32545 2.48248 2.40563 2.48582 2.40563 2.48582 2.48582 2.40564 2.48916 2.40563 2.48582 2.48582 2.24526 2.48248 2.40563 2.48582 2.40563 2.48582 2.48582 2.40564 2.48916 l 2.40563,-0.0455 2.48582,0.0455 h 2.48582 2.24526 2.48248 2.40563 2.48582 2.40563 2.48582 2.48583 2.40563 2.48916 2.40563 2.48582 2.48582 2.24526 2.48248 l 2.40563,-0.1626 2.48582,0.12241 2.40564,-0.0757 2.48582,-0.17544 2.48582,0.1639 2.40563,0.006 2.48916,-0.3021 2.40563,-0.10181 2.48582,-0.55926 2.48582,0.3626 2.32545,-0.66501 2.48248,-0.6494 2.40563,-0.47844 2.48582,0.0938 2.40563,-0.10229 2.48583,-0.22484 2.48582,-0.91438 2.40563,-1.56225 2.48916,-1.34233 2.40563,0.59523 2.48582,-2.89484 2.48582,-1.55065 2.24526,-3.29344 2.48248,0.14916 2.40563,-1.85981 2.48582,0.59827 2.40564,-2.86529 2.48582,2.40669 2.48582,-2.23341 2.40563,1.49223 2.48916,-2.5261 2.40563,0.26446 2.48582,-2.78101 2.48582,-0.60991 2.24526,-2.77008 2.48248,-2.6433 2.40563,-0.21913 2.48582,0.97763 2.40564,-4.79741 2.48582,-0.91691 2.48582,3.77622 2.40563,0.70998 2.48916,-2.75302 2.40563,-6.83319 2.48583,2.48281 2.48582,1.33549 2.24525,-1.27604 2.48248,-8.50703 2.40564,5.02589 2.48582,1.03269 2.40563,-4.50987 2.48582,1.24259 2.48582,4.91929 2.40563,0.31705 2.48916,-0.73064 2.40564,-4.30373 2.48582,1.71586 2.48582,1.36599 2.32544,-1.65423 2.48248,2.62137 2.40563,-4.53015 2.48582,1.94076 2.40564,-2.99513 2.48582,2.29596 2.48582,4.53026 2.40563,0.27461 2.48916,-3.28433 2.40564,-0.84674 2.48582,5.64185 2.48582,-0.1259 2.24525,2.2776 2.48248,-3.24943 2.40564,3.11162 2.48582,0.9768 2.40563,3.0903 2.48582,0.32791 2.48582,0.0669 2.40563,-1.48758 2.48916,-0.65997 2.40564,1.04663 2.48582,0.84239 2.48582,-2.53447 2.24525,4.4416 2.48248,-3.1642 2.40564,0.33942 2.48582,-1.1232 2.40563,1.36058 L 410,275.7337"
               class="line" />
            <path
               inkscape:connector-curvature="0"
               id="path260"
               style="fill:none;stroke:#9467bd"
               data-legend="scikit-learn"
               d="m 2.4858205,300 h 2.4056327 2.4891616 2.4056327 2.4858205 2.48582 2.245258 2.482479 2.405633 2.48582 2.405633 2.48582 2.485821 2.405632 2.489162 2.405633 2.48582 2.485821 2.245257 2.482479 2.405633 2.48582 2.405633 2.48582 2.485821 2.405633 2.489161 2.405633 l 2.48582,-0.0944 2.485821,0.0944 h 2.245257 L 78.022687,299.9212 80.42832,300 h 2.48582 l 2.405633,-0.0748 2.485821,0.0748 2.48582,-0.0737 2.405633,0.0737 2.489161,-0.27607 2.405633,0.1311 2.485819,0.0803 2.48582,-0.2389 2.32545,0.0224 2.48248,-0.12717 2.40563,0.0727 2.48582,-0.52758 2.40563,0.38549 2.48582,-0.64151 2.48582,-0.1349 2.40564,0.29812 2.48916,-0.11375 2.40563,0.1783 2.48582,-0.97591 2.48582,0.0928 2.24526,0.21018 2.48248,-0.37206 2.40563,-0.19259 2.48582,0.17451 2.40563,-0.18115 2.48582,0.2318 2.48582,0.12927 2.40564,-0.55691 2.48916,-0.78583 2.40563,-0.97878 2.48582,0.14695 2.48582,1.02303 2.24526,-0.66464 2.48248,-0.71384 2.40563,0.75434 2.48582,-0.61695 2.40563,-0.16564 2.48582,0.14115 2.48583,1.19878 2.40563,-0.92818 2.48916,0.0339 2.40563,-0.96363 2.48582,-0.10209 2.48582,0.47072 2.24526,-0.36721 2.48248,-1.07631 2.40563,-0.61888 2.48582,0.63715 2.40564,-0.31236 2.48582,-0.27286 2.48582,1.22522 2.40563,-0.6889 2.48916,-1.6694 2.40563,0.007 2.48582,0.0262 2.48582,-0.14972 2.32545,-0.0176 2.48248,-0.38568 2.40563,-0.71616 2.48582,-0.12493 2.40563,-0.55076 2.48583,0.16863 2.48582,1.33784 2.40563,-1.38205 2.48916,-1.51753 2.40563,0.75992 2.48582,0.19056 2.48582,-0.0479 2.24526,-0.52707 2.48248,-1.01435 2.40563,1.62704 2.48582,-1.35515 2.40564,-2.76865 2.48582,1.43132 2.48582,0.91175 2.40563,-0.56079 2.48916,-0.12656 2.40563,-0.92494 2.48582,2.14176 2.48582,-3.70171 2.24526,-0.43751 2.48248,-0.19273 2.40563,2.55019 2.48582,-1.61398 2.40564,-0.23748 2.48582,-0.61942 2.48582,2.23369 2.40563,-1.75004 2.48916,0.74659 2.40563,-2.1709 2.48583,1.525 2.48582,-1.74894 2.24525,1.69402 2.48248,-2.02919 2.40564,-0.68854 2.48582,1.5162 2.40563,-0.38472 2.48582,-0.79944 2.48582,1.68746 2.40563,-1.70149 2.48916,-0.1288 2.40564,-5.27339 2.48582,5.87059 2.48582,0.0813 2.32544,-0.41682 2.48248,0.49632 2.40563,-1.78399 2.48582,-0.87855 2.40564,1.46703 2.48582,1.65099 2.48582,0.55818 2.40563,-1.3076 2.48916,1.56741 2.40564,-1.52666 2.48582,2.23247 2.48582,-2.36307 2.24525,1.52577 2.48248,-0.49619 2.40564,0.0212 2.48582,1.20112 2.40563,-1.06369 2.48582,0.55961 2.48582,0.0979 2.40563,2.51405 2.48916,-3.86901 2.40564,2.43707 2.48582,-0.28691 2.48582,2.2488 2.24525,-2.48625 2.48248,1.98341 2.40564,-4.09723 2.48582,-1.251 2.40563,3.92171 L 410,286.029"
               class="line" />
            <path
               inkscape:connector-curvature="0"
               id="path262"
               style="fill:none;stroke:#8c564b"
               data-legend="matplotlib"
               d="M 2.4858205,298.91446 4.8914532,300 h 2.4891616 l 2.4056327,-1.25881 2.4858205,0.78052 2.48582,-0.816 2.245258,0.18203 2.482479,-1.37884 2.405633,0.43284 2.48582,1.52203 2.405633,-0.86761 2.48582,-1.60746 2.485821,0.48682 2.405632,0.43958 2.489162,-0.27761 2.405633,0.15692 2.48582,-0.48711 2.485821,-1.52647 2.245257,-0.5567 2.482479,1.45321 2.405633,0.5591 2.48582,-1.03219 2.405633,0.31732 2.48582,-0.67354 2.485821,0.57261 2.405633,-0.56246 2.489161,0.0223 2.405633,1.62298 2.48582,-1.28152 2.485821,-1.41144 2.245257,-0.33994 2.482479,0.95833 2.405633,-0.38395 2.48582,0.16631 2.405633,0.44963 2.485821,-0.85655 2.48582,0.6982 2.405633,-1.65859 2.489161,0.42754 2.405633,-1.08499 2.485819,1.11908 2.48582,-1.53142 2.32545,1.37613 2.48248,-0.56823 2.40563,-0.46444 2.48582,-0.31184 2.40563,-0.76937 2.48582,-0.77786 2.48582,2.18526 2.40564,-2.30043 2.48916,0.043 2.40563,-0.0463 2.48582,-0.95628 2.48582,-1.07845 2.24526,0.98608 2.48248,-0.52253 2.40563,-0.44123 2.48582,1.19441 2.40563,-1.68456 2.48582,1.00115 2.48582,-2.06178 2.40564,-0.21687 2.48916,-0.89755 2.40563,2.2956 2.48582,-2.16176 2.48582,-0.98717 2.24526,-0.15416 2.48248,1.01025 2.40563,0.1031 2.48582,0.74436 2.40563,-3.37029 2.48582,1.04064 2.48583,2.95397 2.40563,0.64779 2.48916,-3.81769 2.40563,1.69874 2.48582,0.35632 2.48582,-1.16561 2.24526,-0.60267 2.48248,0.66842 2.40563,-1.69793 2.48582,0.90528 2.40564,-4.86435 2.48582,4.24378 2.48582,0.27051 2.40563,-0.0988 2.48916,-5.57901 2.40563,4.45833 2.48582,-2.84354 2.48582,0.74819 2.32545,-1.13457 2.48248,-0.30344 2.40563,0.89173 2.48582,-1.07313 2.40563,-0.73161 2.48583,1.18156 2.48582,1.14976 2.40563,-0.71995 2.48916,-0.22703 2.40563,1.7857 2.48582,-1.01699 2.48582,-4.23613 2.24526,-1.54803 2.48248,-4.22868 2.40563,3.825 2.48582,-1.63749 2.40564,0.14131 2.48582,3.86501 2.48582,0.70619 2.40563,-3.10142 2.48916,-2.76605 2.40563,0.87701 2.48582,-0.0751 2.48582,1.32839 2.24526,-0.19592 2.48248,-0.59708 2.40563,0.89563 2.48582,-4.38346 2.40564,-1.01644 2.48582,1.29023 2.48582,-1.26846 2.40563,0.7536 2.48916,-4.57623 2.40563,0.32392 2.48583,5.69778 2.48582,-2.96157 2.24525,-2.02613 2.48248,-0.29355 2.40564,-1.12933 2.48582,3.48014 2.40563,-0.66371 2.48582,-3.87158 2.48582,5.92772 2.40563,-4.88345 2.48916,-0.48043 2.40564,0.33776 2.48582,-0.90946 2.48582,-0.85804 2.32544,-6.15766 2.48248,-0.87612 2.40563,-3.5177 2.48582,3.0031 2.40564,-0.51636 2.48582,5.64479 2.48582,-5.59269 2.40563,-0.24123 2.48916,-2.03135 2.40564,3.82491 2.48582,1.41834 2.48582,-2.94642 2.24525,2.80938 2.48248,-4.53488 2.40564,8.99648 2.48582,2.47 2.40563,-4.60479 2.48582,-1.29397 2.48582,8.50974 2.40563,-0.10536 2.48916,-4.14895 2.40564,-1.27622 2.48582,-0.6425 2.48582,1.63162 2.24525,-7.89148 2.48248,2.16464 2.40564,4.07897 2.48582,1.96123 2.40563,-0.85125 2.48582,1.09065"
               class="line" />
          </g>
        </g>
        <g
           id="g270"
           transform="translate(20,127.95278)">
          <text
             id="text268"
             style="font-weight:bold;text-anchor:middle"
             class="axis-label y-axis-label"
             dy="1em"
             y="0"
             x="-50"
             transform="rotate(-90)">% of Stack Overflow questions that month</text>
        </g>
        <g
           id="g302"
           style="font-size:12px"
           transform="translate(530,7.9527799)"
           class="legend">
          <text
             id="text272"
             style="font-weight:bold"
             class="legend-title">Tag</text>
          <g
             id="g298"
             transform="translate(0,20)"
             class="legend-items">
            <text
               id="text274"
               x="1em"
               y="0em">Pandas</text>
            <text
               id="text276"
               x="1em"
               y="1em">NumPy</text>
            <text
               id="text278"
               x="1em"
               y="2em">TensorFlow</text>
            <text
               id="text280"
               x="1em"
               y="3em">matplotlib</text>
            <text
               id="text282"
               x="1em"
               y="4em">Keras</text>
            <text
               id="text284"
               x="1em"
               y="5em">Scikit-Learn</text>
            <circle
               id="circle286"
               style="fill:#1f77b4"
               r="0.40000001em"
               cx="0"
               cy="-0.25em" />
            <circle
               id="circle288"
               style="fill:#2ca02c"
               r="0.40000001em"
               cx="0"
               cy="0.75em" />
            <circle
               id="circle290"
               style="fill:#ff7f0e"
               r="0.40000001em"
               cx="0"
               cy="1.75em" />
            <circle
               id="circle292"
               style="fill:#8c564b"
               r="0.40000001em"
               cx="0"
               cy="2.75em" />
            <circle
               id="circle294"
               style="fill:#d62728"
               r="0.40000001em"
               cx="0"
               cy="3.75em" />
            <circle
               id="circle296"
               style="fill:#9467bd"
               r="0.40000001em"
               cx="0"
               cy="4.75em" />
          </g>
          <rect
             y="0"
             x="0"
             height="0"
             width="0"
             id="rect300"
             class="legend-box" />
        </g>
      </g>
    </g>
  </g>
</svg>
