<?xml version="1.0" encoding="UTF-8" standalone="no"?>
<svg
   xmlns:dc="http://purl.org/dc/elements/1.1/"
   xmlns:cc="http://creativecommons.org/ns#"
   xmlns:rdf="http://www.w3.org/1999/02/22-rdf-syntax-ns#"
   xmlns:svg="http://www.w3.org/2000/svg"
   xmlns="http://www.w3.org/2000/svg"
   xmlns:sodipodi="http://sodipodi.sourceforge.net/DTD/sodipodi-0.dtd"
   xmlns:inkscape="http://www.inkscape.org/namespaces/inkscape"
   id="trend-chart"
   width="21cm"
   height="10cm"
   title="Stack Overflow Trends Chart"
   version="1.1"
   sodipodi:docname="2022-09-07_StackOverflowTrends_OperatingSystems_wide.svg"
   inkscape:version="0.92.5 (2060ec1f9f, 2020-04-08)"
   inkscape:export-filename="./2022-09-07_StackOverflowTrends_OperatingSystems_wide.png"
   inkscape:export-xdpi="120"
   inkscape:export-ydpi="120">
  <metadata
     id="metadata291">
    <rdf:RDF>
      <cc:Work
         rdf:about="">
        <dc:format>image/svg+xml</dc:format>
        <dc:type
           rdf:resource="http://purl.org/dc/dcmitype/StillImage" />
        <dc:title />
        <cc:license
           rdf:resource="http://creativecommons.org/licenses/by-sa/4.0/" />
      </cc:Work>
      <cc:License
         rdf:about="http://creativecommons.org/licenses/by-sa/4.0/">
        <cc:permits
           rdf:resource="http://creativecommons.org/ns#Reproduction" />
        <cc:permits
           rdf:resource="http://creativecommons.org/ns#Distribution" />
        <cc:requires
           rdf:resource="http://creativecommons.org/ns#Notice" />
        <cc:requires
           rdf:resource="http://creativecommons.org/ns#Attribution" />
        <cc:permits
           rdf:resource="http://creativecommons.org/ns#DerivativeWorks" />
        <cc:requires
           rdf:resource="http://creativecommons.org/ns#ShareAlike" />
      </cc:License>
    </rdf:RDF>
  </metadata>
  <defs
     id="defs289" />
  <sodipodi:namedview
     pagecolor="#ffffff"
     bordercolor="#666666"
     borderopacity="1"
     objecttolerance="10"
     gridtolerance="10"
     guidetolerance="10"
     inkscape:pageopacity="0"
     inkscape:pageshadow="2"
     inkscape:window-width="3000"
     inkscape:window-height="1935"
     id="namedview287"
     showgrid="false"
     units="cm"
     inkscape:zoom="1.668772"
     inkscape:cx="265.55722"
     inkscape:cy="99.255356"
     inkscape:window-x="0"
     inkscape:window-y="0"
     inkscape:window-maximized="1"
     inkscape:current-layer="g434" />
  <g
     id="g2"
     transform="translate(0,-22.04722)" />
  <g
     id="g434"
     transform="translate(89.948424,13.143598)">
    <g
       id="g577">
      <g
         class="chart-area"
         transform="translate(100,-2.0472201)"
         id="g260">
        <g
           transform="translate(0,300)"
           font-size="10"
           id="g90"
           style="font-size:10px;font-family:sans-serif;text-anchor:middle;fill:none">
          <path
             class="domain"
             d="M 0.5,6 V 0.5 h 410 V 6"
             id="path4"
             inkscape:connector-curvature="0"
             style="stroke:#000000" />
          <g
             class="tick"
             transform="translate(12.272068)"
             id="g10"
             style="opacity:1">
            <line
               y2="6"
               x1="0.5"
               x2="0.5"
               id="line6"
               y1="0"
               style="stroke:#000000" />
            <text
               y="9"
               x="0.5"
               dy="0.70999998em"
               style="font-size:12px;fill:#000000"
               id="text8">2009</text>
          </g>
          <g
             class="tick"
             transform="translate(41.540599)"
             id="g16"
             style="opacity:1">
            <line
               y2="6"
               x1="0.5"
               x2="0.5"
               id="line12"
               y1="0"
               style="stroke:#000000" />
            <text
               y="9"
               x="0.5"
               dy="0.70999998em"
               style="font-size:12px;fill:#000000"
               id="text14">2010</text>
          </g>
          <g
             class="tick"
             transform="translate(70.80913)"
             id="g22"
             style="opacity:1">
            <line
               y2="6"
               x1="0.5"
               x2="0.5"
               id="line18"
               y1="0"
               style="stroke:#000000" />
            <text
               y="9"
               x="0.5"
               dy="0.70999998em"
               style="font-size:12px;fill:#000000"
               id="text20">2011</text>
          </g>
          <g
             class="tick"
             transform="translate(100.07766)"
             id="g28"
             style="opacity:1">
            <line
               y2="6"
               x1="0.5"
               x2="0.5"
               id="line24"
               y1="0"
               style="stroke:#000000" />
            <text
               y="9"
               x="0.5"
               dy="0.70999998em"
               style="font-size:12px;fill:#000000"
               id="text26">2012</text>
          </g>
          <g
             class="tick"
             transform="translate(129.42638)"
             id="g34"
             style="opacity:1">
            <line
               y2="6"
               x1="0.5"
               x2="0.5"
               id="line30"
               y1="0"
               style="stroke:#000000" />
            <text
               y="9"
               x="0.5"
               dy="0.70999998em"
               style="font-size:12px;fill:#000000"
               id="text32">2013</text>
          </g>
          <g
             class="tick"
             transform="translate(158.69491)"
             id="g40"
             style="opacity:1">
            <line
               y2="6"
               x1="0.5"
               x2="0.5"
               id="line36"
               y1="0"
               style="stroke:#000000" />
            <text
               y="9"
               x="0.5"
               dy="0.70999998em"
               style="font-size:12px;fill:#000000"
               id="text38">2014</text>
          </g>
          <g
             class="tick"
             transform="translate(187.96344)"
             id="g46"
             style="opacity:1">
            <line
               y2="6"
               x1="0.5"
               x2="0.5"
               id="line42"
               y1="0"
               style="stroke:#000000" />
            <text
               y="9"
               x="0.5"
               dy="0.70999998em"
               style="font-size:12px;fill:#000000"
               id="text44">2015</text>
          </g>
          <g
             class="tick"
             transform="translate(217.23197)"
             id="g52"
             style="opacity:1">
            <line
               y2="6"
               x1="0.5"
               x2="0.5"
               id="line48"
               y1="0"
               style="stroke:#000000" />
            <text
               y="9"
               x="0.5"
               dy="0.70999998em"
               style="font-size:12px;fill:#000000"
               id="text50">2016</text>
          </g>
          <g
             class="tick"
             transform="translate(246.58069)"
             id="g58"
             style="opacity:1">
            <line
               y2="6"
               x1="0.5"
               x2="0.5"
               id="line54"
               y1="0"
               style="stroke:#000000" />
            <text
               y="9"
               x="0.5"
               dy="0.70999998em"
               style="font-size:12px;fill:#000000"
               id="text56">2017</text>
          </g>
          <g
             class="tick"
             transform="translate(275.84922)"
             id="g64"
             style="opacity:1">
            <line
               y2="6"
               x1="0.5"
               x2="0.5"
               id="line60"
               y1="0"
               style="stroke:#000000" />
            <text
               y="9"
               x="0.5"
               dy="0.70999998em"
               style="font-size:12px;fill:#000000"
               id="text62">2018</text>
          </g>
          <g
             class="tick"
             transform="translate(305.11776)"
             id="g70"
             style="opacity:1">
            <line
               y2="6"
               x1="0.5"
               x2="0.5"
               id="line66"
               y1="0"
               style="stroke:#000000" />
            <text
               y="9"
               x="0.5"
               dy="0.70999998em"
               style="font-size:12px;fill:#000000"
               id="text68">2019</text>
          </g>
          <g
             class="tick"
             transform="translate(334.38629)"
             id="g76"
             style="opacity:1">
            <line
               y2="6"
               x1="0.5"
               x2="0.5"
               id="line72"
               y1="0"
               style="stroke:#000000" />
            <text
               y="9"
               x="0.5"
               dy="0.70999998em"
               style="font-size:12px;fill:#000000"
               id="text74">2020</text>
          </g>
          <g
             class="tick"
             transform="translate(363.73501)"
             id="g82"
             style="opacity:1">
            <line
               y2="6"
               x1="0.5"
               x2="0.5"
               id="line78"
               y1="0"
               style="stroke:#000000" />
            <text
               y="9"
               x="0.5"
               dy="0.70999998em"
               style="font-size:12px;fill:#000000"
               id="text80">2021</text>
          </g>
          <g
             class="tick"
             transform="translate(393.00354)"
             id="g88"
             style="opacity:1">
            <line
               y2="6"
               x1="0.5"
               x2="0.5"
               id="line84"
               y1="0"
               style="stroke:#000000" />
            <text
               y="9"
               x="0.5"
               dy="0.70999998em"
               style="font-size:12px;fill:#000000"
               id="text86">2022</text>
          </g>
        </g>
        <g
           class="grid-lines"
           transform="translate(0,300)"
           font-size="10"
           id="g150"
           style="font-size:10px;font-family:sans-serif;text-anchor:middle;fill:none">
          <path
             class="domain"
             d="M 0.5,-300 V 0.5 h 410 V -300"
             id="path92"
             inkscape:connector-curvature="0"
             style="stroke:#000000" />
          <g
             class="tick"
             transform="translate(12.272068)"
             id="g96"
             style="opacity:1">
            <line
               y2="-300"
               x1="0.5"
               x2="0.5"
               style="fill:none;stroke:#cccccc"
               id="line94"
               y1="0" />
          </g>
          <g
             class="tick"
             transform="translate(41.540599)"
             id="g100"
             style="opacity:1">
            <line
               y2="-300"
               x1="0.5"
               x2="0.5"
               style="fill:none;stroke:#cccccc"
               id="line98"
               y1="0" />
          </g>
          <g
             class="tick"
             transform="translate(70.80913)"
             id="g104"
             style="opacity:1">
            <line
               y2="-300"
               x1="0.5"
               x2="0.5"
               style="fill:none;stroke:#cccccc"
               id="line102"
               y1="0" />
          </g>
          <g
             class="tick"
             transform="translate(100.07766)"
             id="g108"
             style="opacity:1">
            <line
               y2="-300"
               x1="0.5"
               x2="0.5"
               style="fill:none;stroke:#cccccc"
               id="line106"
               y1="0" />
          </g>
          <g
             class="tick"
             transform="translate(129.42638)"
             id="g112"
             style="opacity:1">
            <line
               y2="-300"
               x1="0.5"
               x2="0.5"
               style="fill:none;stroke:#cccccc"
               id="line110"
               y1="0" />
          </g>
          <g
             class="tick"
             transform="translate(158.69491)"
             id="g116"
             style="opacity:1">
            <line
               y2="-300"
               x1="0.5"
               x2="0.5"
               style="fill:none;stroke:#cccccc"
               id="line114"
               y1="0" />
          </g>
          <g
             class="tick"
             transform="translate(187.96344)"
             id="g120"
             style="opacity:1">
            <line
               y2="-300"
               x1="0.5"
               x2="0.5"
               style="fill:none;stroke:#cccccc"
               id="line118"
               y1="0" />
          </g>
          <g
             class="tick"
             transform="translate(217.23197)"
             id="g124"
             style="opacity:1">
            <line
               y2="-300"
               x1="0.5"
               x2="0.5"
               style="fill:none;stroke:#cccccc"
               id="line122"
               y1="0" />
          </g>
          <g
             class="tick"
             transform="translate(246.58069)"
             id="g128"
             style="opacity:1">
            <line
               y2="-300"
               x1="0.5"
               x2="0.5"
               style="fill:none;stroke:#cccccc"
               id="line126"
               y1="0" />
          </g>
          <g
             class="tick"
             transform="translate(275.84922)"
             id="g132"
             style="opacity:1">
            <line
               y2="-300"
               x1="0.5"
               x2="0.5"
               style="fill:none;stroke:#cccccc"
               id="line130"
               y1="0" />
          </g>
          <g
             class="tick"
             transform="translate(305.11776)"
             id="g136"
             style="opacity:1">
            <line
               y2="-300"
               x1="0.5"
               x2="0.5"
               style="fill:none;stroke:#cccccc"
               id="line134"
               y1="0" />
          </g>
          <g
             class="tick"
             transform="translate(334.38629)"
             id="g140"
             style="opacity:1">
            <line
               y2="-300"
               x1="0.5"
               x2="0.5"
               style="fill:none;stroke:#cccccc"
               id="line138"
               y1="0" />
          </g>
          <g
             class="tick"
             transform="translate(363.73501)"
             id="g144"
             style="opacity:1">
            <line
               y2="-300"
               x1="0.5"
               x2="0.5"
               style="fill:none;stroke:#cccccc"
               id="line142"
               y1="0" />
          </g>
          <g
             class="tick"
             transform="translate(393.00354)"
             id="g148"
             style="opacity:1">
            <line
               y2="-300"
               x1="0.5"
               x2="0.5"
               style="fill:none;stroke:#cccccc"
               id="line146"
               y1="0" />
          </g>
        </g>
        <text
           x="205"
           y="360"
           class="axis-label x-axis-label"
           style="font-weight:bold;text-anchor:middle"
           id="text152">Year</text>
        <g
           font-size="10"
           id="g210"
           style="font-size:10px;font-family:sans-serif;text-anchor:end;fill:none">
          <path
             class="domain"
             d="M -6,300.5 H 0.5 V 0.5 H -6"
             id="path154"
             inkscape:connector-curvature="0"
             style="stroke:#000000" />
          <g
             class="tick"
             transform="translate(0,300)"
             id="g160"
             style="opacity:1">
            <line
               x2="-6"
               y1="0.5"
               y2="0.5"
               id="line156"
               x1="0"
               style="stroke:#000000" />
            <text
               x="-9"
               y="0.5"
               dy="0.31999999em"
               style="font-size:12px;fill:#000000"
               id="text158">0.00%</text>
          </g>
          <g
             class="tick"
             transform="translate(0,262.5)"
             id="g166"
             style="opacity:1">
            <line
               x2="-6"
               y1="0.5"
               y2="0.5"
               id="line162"
               x1="0"
               style="stroke:#000000" />
            <text
               x="-9"
               y="0.5"
               dy="0.31999999em"
               style="font-size:12px;fill:#000000"
               id="text164">0.50%</text>
          </g>
          <g
             class="tick"
             transform="translate(0,225)"
             id="g172"
             style="opacity:1">
            <line
               x2="-6"
               y1="0.5"
               y2="0.5"
               id="line168"
               x1="0"
               style="stroke:#000000" />
            <text
               x="-9"
               y="0.5"
               dy="0.31999999em"
               style="font-size:12px;fill:#000000"
               id="text170">1.00%</text>
          </g>
          <g
             class="tick"
             transform="translate(0,187.5)"
             id="g178"
             style="opacity:1">
            <line
               x2="-6"
               y1="0.5"
               y2="0.5"
               id="line174"
               x1="0"
               style="stroke:#000000" />
            <text
               x="-9"
               y="0.5"
               dy="0.31999999em"
               style="font-size:12px;fill:#000000"
               id="text176">1.50%</text>
          </g>
          <g
             class="tick"
             transform="translate(0,150)"
             id="g184"
             style="opacity:1">
            <line
               x2="-6"
               y1="0.5"
               y2="0.5"
               id="line180"
               x1="0"
               style="stroke:#000000" />
            <text
               x="-9"
               y="0.5"
               dy="0.31999999em"
               style="font-size:12px;fill:#000000"
               id="text182">2.00%</text>
          </g>
          <g
             class="tick"
             transform="translate(0,112.5)"
             id="g190"
             style="opacity:1">
            <line
               x2="-6"
               y1="0.5"
               y2="0.5"
               id="line186"
               x1="0"
               style="stroke:#000000" />
            <text
               x="-9"
               y="0.5"
               dy="0.31999999em"
               style="font-size:12px;fill:#000000"
               id="text188">2.50%</text>
          </g>
          <g
             class="tick"
             transform="translate(0,75)"
             id="g196"
             style="opacity:1">
            <line
               x2="-6"
               y1="0.5"
               y2="0.5"
               id="line192"
               x1="0"
               style="stroke:#000000" />
            <text
               x="-9"
               y="0.5"
               dy="0.31999999em"
               style="font-size:12px;fill:#000000"
               id="text194">3.00%</text>
          </g>
          <g
             class="tick"
             transform="translate(0,37.5)"
             id="g202"
             style="opacity:1">
            <line
               x2="-6"
               y1="0.5"
               y2="0.5"
               id="line198"
               x1="0"
               style="stroke:#000000" />
            <text
               x="-9"
               y="0.5"
               dy="0.31999999em"
               style="font-size:12px;fill:#000000"
               id="text200">3.50%</text>
          </g>
          <g
             class="tick"
             id="g208"
             style="opacity:1">
            <line
               x2="-6"
               y1="0.5"
               y2="0.5"
               id="line204"
               x1="0"
               style="stroke:#000000" />
            <text
               x="-9"
               y="0.5"
               dy="0.31999999em"
               style="font-size:12px;fill:#000000"
               id="text206">4.00%</text>
          </g>
        </g>
        <g
           class="grid-lines"
           font-size="10"
           id="g250"
           style="font-size:10px;font-family:sans-serif;text-anchor:end;fill:none">
          <path
             class="domain"
             d="M 410,300.5 H 0.5 V 0.5 H 410"
             id="path212"
             inkscape:connector-curvature="0"
             style="stroke:#000000" />
          <g
             class="tick"
             transform="translate(0,300)"
             id="g216"
             style="opacity:1">
            <line
               x2="410"
               y1="0.5"
               y2="0.5"
               style="fill:none;stroke:#cccccc"
               id="line214"
               x1="0" />
          </g>
          <g
             class="tick"
             transform="translate(0,262.5)"
             id="g220"
             style="opacity:1">
            <line
               x2="410"
               y1="0.5"
               y2="0.5"
               style="fill:none;stroke:#cccccc"
               id="line218"
               x1="0" />
          </g>
          <g
             class="tick"
             transform="translate(0,225)"
             id="g224"
             style="opacity:1">
            <line
               x2="410"
               y1="0.5"
               y2="0.5"
               style="fill:none;stroke:#cccccc"
               id="line222"
               x1="0" />
          </g>
          <g
             class="tick"
             transform="translate(0,187.5)"
             id="g228"
             style="opacity:1">
            <line
               x2="410"
               y1="0.5"
               y2="0.5"
               style="fill:none;stroke:#cccccc"
               id="line226"
               x1="0" />
          </g>
          <g
             class="tick"
             transform="translate(0,150)"
             id="g232"
             style="opacity:1">
            <line
               x2="410"
               y1="0.5"
               y2="0.5"
               style="fill:none;stroke:#cccccc"
               id="line230"
               x1="0" />
          </g>
          <g
             class="tick"
             transform="translate(0,112.5)"
             id="g236"
             style="opacity:1">
            <line
               x2="410"
               y1="0.5"
               y2="0.5"
               style="fill:none;stroke:#cccccc"
               id="line234"
               x1="0" />
          </g>
          <g
             class="tick"
             transform="translate(0,75)"
             id="g240"
             style="opacity:1">
            <line
               x2="410"
               y1="0.5"
               y2="0.5"
               style="fill:none;stroke:#cccccc"
               id="line238"
               x1="0" />
          </g>
          <g
             class="tick"
             transform="translate(0,37.5)"
             id="g244"
             style="opacity:1">
            <line
               x2="410"
               y1="0.5"
               y2="0.5"
               style="fill:none;stroke:#cccccc"
               id="line242"
               x1="0" />
          </g>
          <g
             class="tick"
             id="g248"
             style="opacity:1">
            <line
               x2="410"
               y1="0.5"
               y2="0.5"
               style="fill:none;stroke:#cccccc"
               id="line246"
               x1="0" />
          </g>
        </g>
        <g
           class="lines"
           id="g258">
          <path
             class="line"
             d="m 2.4858205,48.697351 2.4056327,48.585862 2.4891616,19.570987 2.4056327,27.05315 2.4858205,-8.43767 2.48582,12.66654 2.245258,9.49391 2.482479,3.22396 2.405633,-11.401 2.48582,23.19196 2.405633,-4.1378 2.48582,23.31745 2.485821,2.60614 2.405632,3.6177 2.489162,-1.60544 2.405633,6.71156 2.48582,-3.28929 2.485821,3.26244 2.245257,7.57786 2.482479,0.63971 2.405633,-1.23367 2.48582,0.68811 2.405633,2.61203 2.48582,0.58306 2.485821,1.82834 2.405633,4.18054 2.489161,-0.1174 2.405633,-5.96228 2.48582,4.28106 2.485821,9.59716 2.245257,1.58535 2.482479,1.96694 2.405633,-1.17584 2.48582,-6.03847 2.405633,8.37907 2.485821,2.88597 2.48582,-3.89951 2.405633,2.85433 2.489161,1.93604 2.405633,1.295 2.485819,-5.27712 2.48582,3.92847 2.32545,0.47935 2.48248,0.44066 2.40563,-0.33495 2.48582,1.12945 2.40563,0.29859 2.48582,1.51365 2.48582,1.22495 2.40564,0.88415 2.48916,-0.3643 2.40563,1.42582 2.48582,-2.31591 2.48582,6.13519 2.24526,-3.21194 2.48248,0.77622 2.40563,2.90044 2.48582,-4.38558 2.40563,1.03275 2.48582,0.20435 2.48582,-0.5027 2.40564,0.87685 2.48916,1.69925 2.40563,-0.40136 2.48582,-3.87002 2.48582,3.84616 2.24526,2.11747 2.48248,4.10858 2.40563,-3.62308 2.48582,-0.2797 2.40563,-2.25189 2.48582,-0.79575 2.48583,-2.63854 2.40563,3.87459 2.48916,-1.47144 2.40563,4.68927 2.48582,-2.16444 2.48582,0.35778 2.24526,0.67818 2.48248,0.68929 2.40563,1.0267 2.48582,-5.74058 2.40564,-0.12491 2.48582,-3.06806 2.48582,4.43302 2.40563,1.70262 2.48916,0.85898 2.40563,0.66488 2.48582,-5.00575 2.48582,5.329 2.32545,0.74819 2.48248,0.32437 2.40563,-1.42017 2.48582,1.97154 2.40563,-2.80929 2.48583,-2.37181 2.48582,4.11576 2.40563,-1.29366 2.48916,3.51374 2.40563,0.12155 2.48582,-3.60668 2.48582,1.69009 2.24526,0.0785 2.48248,1.91532 2.40563,-2.43123 2.48582,1.17912 2.40564,0.58303 2.48582,-0.3177 2.48582,4.22015 2.40563,-0.92222 2.48916,-2.09581 2.40563,2.70858 2.48582,0.60993 2.48582,-0.78369 2.24526,3.69473 2.48248,2.64918 2.40563,-5.01735 2.48582,0.52834 2.40564,0.22362 2.48582,4.1032 2.48582,-0.0595 2.40563,-2.27779 2.48916,1.53172 2.40563,-1.76605 2.48583,-0.36824 2.48582,-4.6751 2.24525,5.59295 2.48248,1.62946 2.40564,-1.35331 2.48582,2.18439 2.40563,-1.48924 2.48582,2.17329 2.48582,-6.02334 2.40563,1.40499 2.48916,-3.8553 2.40564,3.08793 2.48582,-4.64633 2.48582,3.7195 2.32544,-1.58533 2.48248,0.68145 2.40563,-0.98361 2.48582,0.36887 2.40564,3.23626 2.48582,-0.86441 2.48582,1.34337 2.40563,4.45253 2.48916,-0.9104 2.40564,-3.56191 2.48582,-2.49049 2.48582,1.96887 2.24525,0.62252 2.48248,0.33675 2.40564,0.11367 2.48582,-0.59519 2.40563,0.49293 2.48582,-0.1433 2.48582,-1.9721 2.40563,-3.89567 2.48916,4.13702 2.40564,-2.72673 2.48582,-2.27679 2.48582,2.01915 2.24525,-1.85132 2.48248,2.03456 2.40564,1.6114 2.48582,0.59059 2.40563,0.15449 L 410,245.87846"
             data-legend="windows"
             style="fill:none;stroke:#1f77b4"
             id="path252"
             inkscape:connector-curvature="0" />
          <path
             class="line"
             d="m 2.4858205,165.39297 2.4056327,30.90358 2.4891616,0.75875 2.4056327,5.38679 2.4858205,-9.57811 2.48582,20.84978 2.245258,-7.14398 2.482479,13.35905 2.405633,-6.08165 2.48582,-0.18043 2.405633,13.33372 2.48582,2.81298 2.485821,-6.69533 2.405632,-10.05833 2.489162,-0.86659 2.405633,18.43105 2.48582,-0.12947 2.485821,-2.2207 2.245257,3.27176 2.482479,0.18859 2.405633,0.63117 2.48582,-3.12927 2.405633,0.69808 2.48582,1.85465 2.485821,-8.31337 2.405633,1.49828 2.489161,-4.76236 2.405633,1.52771 2.48582,2.32183 2.485821,9.11276 2.245257,-6.55095 2.482479,1.81561 2.405633,-0.58716 2.48582,1.00162 2.405633,5.2374 2.485821,-1.42333 2.48582,-2.19347 2.405633,-5.82964 2.489161,-2.28946 2.405633,-6.58103 2.485819,6.25181 2.48582,0.37278 2.32545,-5.36269 2.48248,0.11488 2.40563,7.14358 2.48582,-7.91944 2.40563,2.82172 2.48582,3.30349 2.48582,1.10647 2.40564,-4.92601 2.48916,4.59539 2.40563,-2.40175 2.48582,-3.09031 2.48582,1.27087 2.24526,3.50247 2.48248,2.48901 2.40563,-2.51107 2.48582,4.18968 2.40563,-3.27156 2.48582,-3.33238 2.48582,-6.17199 2.40564,0.88517 2.48916,-3.2332 2.40563,1.14953 2.48582,3.5568 2.48582,-1.24887 2.24526,-3.01708 2.48248,-0.38514 2.40563,7.06996 2.48582,-1.84132 2.40563,1.89317 2.48582,-1.5089 2.48583,-5.47345 2.40563,2.46022 2.48916,-2.08169 2.40563,8.1253 2.48582,-5.40952 2.48582,-1.80165 2.24526,-1.65136 2.48248,0.98848 2.40563,6.11169 2.48582,-6.50712 2.40564,5.83654 2.48582,6.38482 2.48582,-4.11399 2.40563,-5.31024 2.48916,3.11057 2.40563,5.60684 2.48582,-1.97844 2.48582,0.0432 2.32545,0.11155 2.48248,-2.60557 2.40563,1.84288 2.48582,1.44014 2.40563,-1.65312 2.48583,2.80119 2.48582,2.31686 2.40563,-5.01464 2.48916,0.68981 2.40563,1.10499 2.48582,2.22389 2.48582,0.43797 2.24526,-2.19912 2.48248,-3.45959 2.40563,3.04274 2.48582,4.38352 2.40564,0.82527 2.48582,0.55881 2.48582,-5.75767 2.40563,4.5294 2.48916,-0.66352 2.40563,-1.63127 2.48582,2.04479 2.48582,7.74726 2.24526,5.21154 2.48248,-0.73588 2.40563,-1.41318 2.48582,4.34375 2.40564,1.88548 2.48582,0.0482 2.48582,-1.49763 2.40563,-2.46765 2.48916,2.17058 2.40563,8.39449 2.48583,-2.48013 2.48582,1.66935 2.24525,-0.83778 2.48248,-2.92844 2.40564,0.4539 2.48582,4.26173 2.40563,-4.69213 2.48582,4.91847 2.48582,-1.37793 2.40563,-6.18153 2.48916,3.27079 2.40564,-1.45082 2.48582,-8.55073 2.48582,0.89163 2.32544,-3.65002 2.48248,2.62101 2.40563,-4.40044 2.48582,1.06315 2.40564,1.58806 2.48582,8.1801 2.48582,-3.21606 2.40563,-1.60345 2.48916,4.44443 2.40564,-6.13094 2.48582,0.36615 2.48582,-3.57085 2.24525,-0.68833 2.48248,3.47476 2.40564,0.42774 2.48582,-1.96656 2.40563,5.72969 2.48582,-5.9826 2.48582,2.94288 2.40563,2.34462 2.48916,-5.82272 2.40564,-0.54128 2.48582,3.02757 2.48582,-1.07445 2.24525,-4.26533 2.48248,1.41887 2.40564,-0.37575 2.48582,3.64801 2.40563,-4.62709 L 410,228.67134"
             data-legend="linux"
             style="fill:none;stroke:#ff7f0e"
             id="path254"
             inkscape:connector-curvature="0" />
          <path
             class="line"
             d="m 2.4858205,212.07121 2.4056327,32.16865 2.4891616,-2.8944 2.4056327,0.1198 2.4858205,6.40159 2.48582,5.97001 2.245258,-12.04537 2.482479,9.80993 2.405633,-12.7611 2.48582,11.02205 2.405633,-1.10243 2.48582,-0.18375 2.485821,-8.24571 2.405632,6.71314 2.489162,-10.63464 2.405633,-0.37102 2.48582,5.22761 2.485821,-2.19041 2.245257,13.45557 2.482479,0.80099 2.405633,-2.93028 2.48582,0.93159 2.405633,2.57772 2.48582,-4.09027 2.485821,6.98031 2.405633,-0.70404 2.489161,-5.31404 2.405633,-2.44996 2.48582,-2.07554 2.485821,4.67022 2.245257,-0.6923 2.482479,2.87164 2.405633,1.62205 2.48582,1.64046 2.405633,-9.63558 2.485821,2.08206 2.48582,0.53248 2.405633,4.14761 2.489161,0.12392 2.405633,0.20787 2.485819,1.71708 2.48582,0.61445 2.32545,-1.32566 2.48248,-0.22582 2.40563,3.37064 2.48582,-2.1796 2.40563,-1.13808 2.48582,0.0331 2.48582,2.09241 2.40564,-0.0125 2.48916,0.48275 2.40563,-1.05445 2.48582,0.65471 2.48582,0.20564 2.24526,3.91188 2.48248,1.61474 2.40563,0.39989 2.48582,1.16002 2.40563,-2.29426 2.48582,-1.8829 2.48582,1.02983 2.40564,-8.20706 2.48916,1.85274 2.40563,6.8026 2.48582,-3.69531 2.48582,0.31564 2.24526,3.59057 2.48248,0.13952 2.40563,-0.983 2.48582,-4.06514 2.40563,2.25436 2.48582,-0.92489 2.48583,-1.48104 2.40563,-5.83395 2.48916,3.17323 2.40563,2.01365 2.48582,-0.75801 2.48582,4.55335 2.24526,-1.24802 2.48248,-0.10089 2.40563,0.9904 2.48582,-1.18528 2.40564,0.57351 2.48582,0.64162 2.48582,-3.47227 2.40563,-0.43897 2.48916,1.06606 2.40563,2.83248 2.48582,-0.0431 2.48582,2.082 2.32545,-2.87302 2.48248,3.73153 2.40563,1.56726 2.48582,-0.6418 2.40563,-0.91182 2.48583,2.03628 2.48582,-2.92375 2.40563,-1.97851 2.48916,3.86565 2.40563,1.5026 2.48582,-4.87177 2.48582,7.24221 2.24526,-1.0367 2.48248,0.53425 2.40563,0.2359 2.48582,-0.0118 2.40564,2.21621 2.48582,-4.04711 2.48582,-3.05531 2.40563,2.72241 2.48916,4.06668 2.40563,-1.26994 2.48582,-2.12017 2.48582,1.46695 2.24526,4.28067 2.48248,-2.5052 2.40563,4.2498 2.48582,-0.82041 2.40564,-0.51658 2.48582,0.54776 2.48582,-1.45014 2.40563,-2.30943 2.48916,1.37 2.40563,0.30353 2.48583,-0.73457 2.48582,-0.61011 2.24525,3.92211 2.48248,0.0772 2.40564,2.18157 2.48582,-2.91896 2.40563,0.56768 2.48582,-2.64149 2.48582,0.88335 2.40563,-4.25903 2.48916,1.61639 2.40564,-2.06256 2.48582,-0.02 2.48582,1.15228 2.32544,1.49328 2.48248,-3.47349 2.40563,3.28003 2.48582,3.38165 2.40564,-3.21954 2.48582,3.11351 2.48582,-3.44139 2.40563,2.40517 2.48916,-4.59141 2.40564,-0.13943 2.48582,-4.29055 2.48582,3.51001 2.24525,-2.86984 2.48248,7.72615 2.40564,-2.63019 2.48582,3.43714 2.40563,-0.58546 2.48582,2.44855 2.48582,-3.85058 2.40563,2.94055 2.48916,-0.44675 2.40564,0.20519 2.48582,-0.8362 2.48582,1.25146 2.24525,-2.0541 2.48248,3.5317 2.40564,1.99673 2.48582,-2.59323 2.40563,0.98472 L 410,266.81134"
             data-legend="macos"
             style="fill:none;stroke:#2ca02c"
             id="path256"
             inkscape:connector-curvature="0" />
        </g>
      </g>
      <g
         transform="translate(20,127.95278)"
         id="g264">
        <text
           transform="rotate(-90)"
           x="-50"
           y="0"
           dy="1em"
           class="axis-label y-axis-label"
           style="font-weight:bold;text-anchor:middle"
           id="text262">% of Stack Overflow questions that month</text>
      </g>
      <g
         class="legend"
         transform="translate(530,7.9527799)"
         style="font-size:12px"
         id="g284">
        <text
           class="legend-title"
           style="font-weight:bold"
           id="text266">Tag</text>
        <g
           class="legend-items"
           transform="translate(0,20)"
           id="g280">
          <text
             y="0em"
             x="1em"
             id="text268">Windows</text>
          <text
             y="1em"
             x="1em"
             id="text270">Linux</text>
          <text
             y="2em"
             x="1em"
             id="text272">Mac OS</text>
          <circle
             cy="-0.25em"
             cx="0"
             r="0.40000001em"
             style="fill:#1f77b4"
             id="circle274" />
          <circle
             cy="0.75em"
             cx="0"
             r="0.40000001em"
             style="fill:#ff7f0e"
             id="circle276" />
          <circle
             cy="1.75em"
             cx="0"
             r="0.40000001em"
             style="fill:#2ca02c"
             id="circle278" />
        </g>
        <rect
           class="legend-box"
           id="rect282"
           width="0"
           height="0"
           x="0"
           y="0" />
      </g>
    </g>
  </g>
</svg>
